<svg width="27" height="27" viewBox="0 0 27 27" fill="none" xmlns="http://www.w3.org/2000/svg">
<path fill-rule="evenodd" clip-rule="evenodd" d="M4.05 0H22.95C24.0241 0 25.0543 0.426689 25.8138 1.1862C26.5733 1.94571 27 2.97583 27 4.04994V25.6496C26.9987 25.9162 26.9185 26.1763 26.7695 26.3973C26.6206 26.6184 26.4095 26.7903 26.163 26.8916C26.0028 26.9672 25.8271 27.0042 25.65 26.9996C25.4723 27.0007 25.2962 26.9666 25.1317 26.8994C24.9672 26.8322 24.8176 26.7332 24.6915 26.6081L19.6965 21.5997H4.05C2.97587 21.5997 1.94574 21.173 1.18622 20.4135C0.426695 19.654 0 18.6239 0 17.5498V4.04994C0 2.97583 0.426695 1.94571 1.18622 1.1862C1.94574 0.426689 2.97587 0 4.05 0ZM13.5 5.39992C13.142 5.39992 12.7986 5.54215 12.5454 5.79533C12.2922 6.0485 12.15 6.39187 12.15 6.74991V10.7998C12.15 11.1579 12.2922 11.5013 12.5454 11.7544C12.7986 12.0076 13.142 12.1498 13.5 12.1498C13.858 12.1498 14.2014 12.0076 14.4546 11.7544C14.7078 11.5013 14.85 11.1579 14.85 10.7998V6.74991C14.85 6.39187 14.7078 6.0485 14.4546 5.79533C14.2014 5.54215 13.858 5.39992 13.5 5.39992ZM13.5 13.4998C13.233 13.4998 12.972 13.579 12.75 13.7273C12.528 13.8757 12.3549 14.0865 12.2528 14.3332C12.1506 14.5799 12.1239 14.8513 12.1759 15.1132C12.228 15.375 12.3566 15.6156 12.5454 15.8044C12.7342 15.9932 12.9748 16.1217 13.2366 16.1738C13.4985 16.2259 13.7699 16.1992 14.0166 16.097C14.2633 15.9948 14.4741 15.8218 14.6225 15.5998C14.7708 15.3778 14.85 15.1168 14.85 14.8498C14.85 14.4918 14.7078 14.1484 14.4546 13.8952C14.2014 13.642 13.858 13.4998 13.5 13.4998Z" fill="#164B71"/>
</svg>
