<svg width="50" height="50" viewBox="0 0 50 50" fill="none" xmlns="http://www.w3.org/2000/svg">
<path fill-rule="evenodd" clip-rule="evenodd" d="M15.8203 11.7188H9.57031C9.03091 11.7188 8.59375 12.1559 8.59375 12.6953V18.9453C8.59375 19.4847 9.03091 19.9219 9.57031 19.9219H15.8203C16.3597 19.9219 16.7969 19.4847 16.7969 18.9453V12.6953C16.7969 12.1559 16.3597 11.7188 15.8203 11.7188ZM14.8438 17.9688H10.5469V13.6719H14.8438V17.9688Z" fill="#408B6E"/>
<path fill-rule="evenodd" clip-rule="evenodd" d="M9.57031 22.4609H15.8203C16.3597 22.4609 16.7969 22.8981 16.7969 23.4375V29.6875C16.7969 30.2269 16.3597 30.6641 15.8203 30.6641H9.57031C9.03091 30.6641 8.59375 30.2269 8.59375 29.6875V23.4375C8.59375 22.8981 9.03091 22.4609 9.57031 22.4609ZM10.5469 28.7109H14.8438V24.4141H10.5469V28.7109Z" fill="#408B6E"/>
<path fill-rule="evenodd" clip-rule="evenodd" d="M15.8203 33.2031H9.57031C9.03091 33.2031 8.59375 33.6403 8.59375 34.1797V40.4297C8.59375 40.9691 9.03091 41.4062 9.57031 41.4062H15.8203C16.3597 41.4062 16.7969 40.9691 16.7969 40.4297V34.1797C16.7969 33.6403 16.3597 33.2031 15.8203 33.2031ZM14.8438 39.4531H10.5469V35.1562H14.8438V39.4531Z" fill="#408B6E"/>
<path d="M23.4999 19.0014C23.2501 19.0014 23.0002 18.906 22.8095 18.7153L20.6366 16.5424C20.2555 16.1613 20.2555 15.543 20.6366 15.1615C21.0185 14.78 21.6365 14.78 22.0179 15.1615L23.4999 16.6435L27.2181 12.9253C27.5996 12.5439 28.218 12.5439 28.5994 12.9253C28.9805 13.3068 28.9805 13.9252 28.5994 14.3063L24.1904 18.7153C23.9997 18.906 23.7498 19.0014 23.4999 19.0014Z" fill="#408B6E"/>
<path d="M22.8095 29.4566C22.9926 29.6397 23.2409 29.7427 23.4999 29.7427C23.759 29.7427 24.0073 29.6397 24.1904 29.4566L28.5994 25.0479C28.9805 24.6665 28.9805 24.0481 28.5994 23.6666C28.218 23.2856 27.5996 23.2856 27.2181 23.6666L23.4999 27.3852L22.0179 25.9032C21.6365 25.5217 21.0185 25.5217 20.6366 25.9032C20.2555 26.2843 20.2555 26.9027 20.6366 27.2841L22.8095 29.4566Z" fill="#408B6E"/>
<path d="M26.1321 40.1997L24.618 38.686L23.1044 40.1997C22.9136 40.3904 22.6638 40.4858 22.4139 40.4858C22.164 40.4858 21.9138 40.3904 21.7231 40.1997C21.342 39.8182 21.342 39.1998 21.7231 38.8187L23.2371 37.3047L21.7231 35.7906C21.342 35.4095 21.342 34.7912 21.7231 34.4097C22.1049 34.0282 22.7229 34.0286 23.1044 34.4097L24.618 35.9234L26.1321 34.4097C26.5136 34.0282 27.1315 34.0282 27.513 34.4097C27.8945 34.7912 27.8945 35.4095 27.513 35.7906L25.9993 37.3047L27.513 38.8187C27.8945 39.1998 27.8945 39.8182 27.513 40.1997C27.3223 40.3904 27.0724 40.4858 26.8225 40.4858C26.5727 40.4858 26.3228 40.3904 26.1321 40.1997Z" fill="#408B6E"/>
<path fill-rule="evenodd" clip-rule="evenodd" d="M43.924 13.3125C45.3117 11.9247 47.5697 11.9247 48.9574 13.3125C50.3452 14.7003 50.3452 16.9582 48.9574 18.346L39.4531 27.8507V46.6797C39.4531 48.5104 37.9635 50 36.1328 50H3.32031C1.48964 50 0 48.5104 0 46.6797V3.32031C0 1.48964 1.48964 0 3.32031 0H36.1328C37.9635 0 39.4531 1.48964 39.4531 3.32031V17.7834L43.924 13.3125ZM37.5 19.7365V3.32031C37.5 2.56653 36.8866 1.95312 36.1328 1.95312H28.0437V3.90625H34.5703C35.1097 3.90625 35.5469 4.34341 35.5469 4.88281V21.6896L37.5 19.7365ZM33.4862 27.1404L32.1678 30.1022L35.1295 28.7838L33.4862 27.1404ZM26.0906 5.93262V1.95312H13.3625V5.93262C13.3625 6.53839 13.8554 7.03125 14.4611 7.03125H24.992C25.5978 7.03125 26.0906 6.53839 26.0906 5.93262ZM3.32031 48.0469H36.1328C36.8866 48.0469 37.5 47.4335 37.5 46.6797V29.8023C37.4184 29.8805 37.3249 29.9442 37.2219 29.99L35.5469 30.7358V45.1172C35.5469 45.6566 35.1093 46.0938 34.5703 46.0938H23.6328C23.0934 46.0938 22.6562 45.6566 22.6562 45.1172C22.6562 44.5778 23.0934 44.1406 23.6328 44.1406H33.5938V31.6055L30.6381 32.9216C30.5103 32.9784 30.3753 33.0059 30.241 33.0059C29.9873 33.0059 29.7375 32.9067 29.5502 32.7198C29.2645 32.4337 29.1843 32.0015 29.3488 31.6319L32.28 25.0481C32.3288 24.939 32.3971 24.8394 32.4814 24.7547L33.5938 23.6427V5.85938H28.0437V5.93262C28.0437 7.61528 26.6747 8.98438 24.992 8.98438H14.4611C12.7785 8.98438 11.4094 7.61528 11.4094 5.93262V5.85938H5.85938V44.1406H15.8203C16.3597 44.1406 16.7969 44.5778 16.7969 45.1172C16.7969 45.6566 16.3597 46.0938 15.8203 46.0938H4.88281C4.34341 46.0938 3.90625 45.6566 3.90625 45.1172V4.88281C3.90625 4.34341 4.34341 3.90625 4.88281 3.90625H11.4094V1.95312H3.32031C2.56653 1.95312 1.95312 2.56653 1.95312 3.32031V46.6797C1.95312 47.4335 2.56653 48.0469 3.32031 48.0469ZM36.8248 27.7168L45.6303 18.9114L43.3586 16.6397L34.5531 25.4452L36.8248 27.7168ZM47.0112 17.5301L47.5765 16.9651C48.2025 16.3387 48.2025 15.3198 47.5765 14.6938C46.9501 14.0675 45.9312 14.0675 45.3049 14.6938L44.7399 15.2588L47.0112 17.5301Z" fill="#408B6E"/>
</svg>
