<svg width="39" height="39" viewBox="0 0 39 39" fill="none" xmlns="http://www.w3.org/2000/svg">
<path d="M38.35 13C38.709 13 39 12.709 39 12.35V9.75C39 9.39104 38.709 9.1 38.35 9.1H20.8V3.9H21.45C21.809 3.9 22.1 3.60896 22.1 3.25V0.65C22.1 0.29104 21.809 0 21.45 0H0.65C0.29104 0 0 0.29104 0 0.65V3.25C0 3.60896 0.29104 3.9 0.65 3.9H1.3V35.1H0.65C0.29104 35.1 0 35.391 0 35.75V38.35C0 38.709 0.29104 39 0.65 39H38.35C38.709 39 39 38.709 39 38.35V35.75C39 35.391 38.709 35.1 38.35 35.1H37.7V13H38.35ZM37.7 11.7H18.2V10.4H37.7V11.7ZM1.3 1.3H20.8V2.6H1.3V1.3ZM2.6 3.9H19.5V9.1H17.55C17.191 9.1 16.9 9.39104 16.9 9.75V12.35C16.9 12.709 17.191 13 17.55 13H18.2V35.1H2.6V3.9ZM37.7 37.7H1.3V36.4H37.7V37.7ZM30.55 35.1H25.35V28.6H30.55V35.1ZM36.4 35.1H31.85V27.95C31.85 27.591 31.559 27.3 31.2 27.3H24.7C24.341 27.3 24.05 27.591 24.05 27.95V35.1H19.5V13H36.4V35.1Z" fill="#164B71"/>
<path d="M9.75027 5.20019H5.85027C5.49131 5.20019 5.20027 5.49123 5.20027 5.85019V9.75019C5.20027 10.1091 5.49131 10.4002 5.85027 10.4002H9.75027C10.1092 10.4002 10.4003 10.1091 10.4003 9.75019V5.85019C10.4003 5.49123 10.1092 5.20019 9.75027 5.20019ZM9.10027 9.10018H6.50027V6.50019H9.10027V9.10018Z" fill="#164B71"/>
<path d="M16.2503 5.20019H12.3503C11.9913 5.20019 11.7003 5.49123 11.7003 5.85019V9.75019C11.7003 10.1091 11.9913 10.4002 12.3503 10.4002H16.2503C16.6092 10.4002 16.9 10.109 16.9 9.75L16.9003 5.85019C16.9003 5.49123 16.6092 5.20019 16.2503 5.20019ZM15.6003 9.10018H13.0003V6.50019H15.6003V9.10018Z" fill="#164B71"/>
<path d="M9.75027 13H5.85027C5.49131 13 5.20027 13.291 5.20027 13.65V17.55C5.20027 17.909 5.49131 18.2 5.85027 18.2H9.75027C10.1092 18.2 10.4003 17.909 10.4003 17.55V13.65C10.4003 13.291 10.1092 13 9.75027 13ZM9.10027 16.9H6.50027V14.3H9.10027V16.9Z" fill="#164B71"/>
<path d="M16.2503 13H12.3503C11.9913 13 11.7003 13.291 11.7003 13.65V17.55C11.7003 17.909 11.9913 18.2 12.3503 18.2H16.2503C16.6092 18.2 16.9003 17.909 16.9003 17.55V13.65C16.9003 13.291 16.6092 13 16.2503 13ZM15.6003 16.9H13.0003V14.3H15.6003V16.9Z" fill="#164B71"/>
<path d="M9.75027 20.7998H5.85027C5.49131 20.7998 5.20027 21.0909 5.20027 21.4498V25.3498C5.20027 25.7088 5.49131 25.9998 5.85027 25.9998H9.75027C10.1092 25.9998 10.4003 25.7088 10.4003 25.3498V21.4498C10.4003 21.0909 10.1092 20.7998 9.75027 20.7998ZM9.10027 24.6998H6.50027V22.0998H9.10027V24.6998Z" fill="#164B71"/>
<path d="M16.2503 20.7998H12.3503C11.9913 20.7998 11.7003 21.0909 11.7003 21.4498V25.3498C11.7003 25.7088 11.9913 25.9998 12.3503 25.9998H16.2503C16.6092 25.9998 16.9003 25.7088 16.9003 25.3498V21.4498C16.9003 21.0909 16.6092 20.7998 16.2503 20.7998ZM15.6003 24.6998H13.0003V22.0998H15.6003V24.6998Z" fill="#164B71"/>
<path d="M9.75027 28.6001H5.85027C5.49131 28.6001 5.20027 28.8911 5.20027 29.2501V33.1501C5.20027 33.509 5.49131 33.8001 5.85027 33.8001H9.75027C10.1092 33.8001 10.4003 33.509 10.4003 33.1501V29.2501C10.4003 28.8911 10.1092 28.6001 9.75027 28.6001ZM9.10027 32.5001H6.50027V29.9001H9.10027V32.5001Z" fill="#164B71"/>
<path d="M16.2503 28.6001H12.3503C11.9913 28.6001 11.7003 28.8911 11.7003 29.2501V33.1501C11.7003 33.509 11.9913 33.8001 12.3503 33.8001H16.2503C16.6092 33.8001 16.9003 33.509 16.9003 33.1501V29.2501C16.9003 28.8911 16.6092 28.6001 16.2503 28.6001ZM15.6003 32.5001H13.0003V29.9001H15.6003V32.5001Z" fill="#164B71"/>
<path d="M22.7502 19.4998H26.6502C27.0092 19.4998 27.3002 19.2088 27.3002 18.8498V14.9498C27.3002 14.5909 27.0092 14.2998 26.6502 14.2998H22.7502C22.3912 14.2998 22.1002 14.5909 22.1002 14.9498V18.8498C22.1002 19.2088 22.3912 19.4998 22.7502 19.4998ZM23.4002 15.5998H26.0002V18.1998H23.4002V15.5998Z" fill="#164B71"/>
<path d="M29.2502 19.4998H33.1502C33.5092 19.4998 33.8002 19.2088 33.8002 18.8498V14.9498C33.8002 14.5909 33.5092 14.2998 33.1502 14.2998H29.2502C28.8912 14.2998 28.6002 14.5909 28.6002 14.9498V18.8498C28.6002 19.2088 28.8912 19.4998 29.2502 19.4998ZM29.9002 15.5998H32.5002V18.1998H29.9002V15.5998Z" fill="#164B71"/>
<path d="M22.7502 25.9998H26.6502C27.0092 25.9998 27.3002 25.7088 27.3002 25.3498V21.4498C27.3002 21.0909 27.0092 20.7998 26.6502 20.7998H22.7502C22.3912 20.7998 22.1002 21.0909 22.1002 21.4498V25.3498C22.1002 25.7088 22.3912 25.9998 22.7502 25.9998ZM23.4002 22.0998H26.0002V24.6998H23.4002V22.0998Z" fill="#164B71"/>
<path d="M29.2502 25.9998H33.1502C33.5092 25.9998 33.8002 25.7088 33.8002 25.3498V21.4498C33.8002 21.0909 33.5092 20.7998 33.1502 20.7998H29.2502C28.8912 20.7998 28.6002 21.0909 28.6002 21.4498V25.3498C28.6002 25.7088 28.8912 25.9998 29.2502 25.9998ZM29.9002 22.0998H32.5002V24.6998H29.9002V22.0998Z" fill="#164B71"/>
</svg>
