<svg width="39" height="36" viewBox="0 0 39 36" fill="none" xmlns="http://www.w3.org/2000/svg">
<path d="M34.7344 4.40322H28.5474L28.0227 1.56039C27.9989 1.43197 27.9255 1.31532 27.8155 1.23118C27.7055 1.14703 27.566 1.10084 27.4219 1.1008H11.5781C11.434 1.10084 11.2945 1.14703 11.1845 1.23118C11.0745 1.31532 11.0011 1.43197 10.9773 1.56039L10.4526 4.40322H4.26562C3.45784 4.40409 2.68342 4.69432 2.11223 5.21023C1.54104 5.72614 1.21972 6.42562 1.21875 7.15523V26.4193C1.21972 27.149 1.54104 27.8484 2.11223 28.3643C2.68342 28.8803 3.45784 29.1705 4.26562 29.1714H15.1625L12.8609 33.3286C12.8144 33.4125 12.7925 33.5058 12.7972 33.5995C12.8019 33.6932 12.8331 33.7843 12.8877 33.8641C12.9424 33.9439 13.0187 34.0098 13.1094 34.0554C13.2002 34.1011 13.3024 34.125 13.4062 34.125H25.5938C25.6979 34.1255 25.8004 34.1019 25.8916 34.0564C25.9828 34.011 26.0595 33.9452 26.1145 33.8653C26.1695 33.7854 26.201 33.6941 26.2058 33.6002C26.2106 33.5062 26.1887 33.4127 26.1422 33.3286L23.8375 29.1714H34.7344C35.5422 29.1705 36.3166 28.8803 36.8878 28.3643C37.459 27.8484 37.7803 27.149 37.7812 26.4193V7.15523C37.7803 6.42562 37.459 5.72614 36.8878 5.21023C36.3166 4.69432 35.5422 4.40409 34.7344 4.40322ZM22.5469 23.1169C22.5469 23.2258 22.5111 23.3322 22.4442 23.4227C22.3772 23.5132 22.282 23.5838 22.1707 23.6254C22.0593 23.6671 21.9368 23.678 21.8186 23.6568C21.7004 23.6355 21.5918 23.5831 21.5066 23.5061C21.4214 23.4291 21.3633 23.3311 21.3398 23.2243C21.3163 23.1175 21.3284 23.0069 21.3745 22.9063C21.4206 22.8057 21.4987 22.7198 21.5989 22.6593C21.6992 22.5988 21.817 22.5665 21.9375 22.5665C22.0991 22.5665 22.2541 22.6245 22.3684 22.7277C22.4827 22.831 22.5469 22.971 22.5469 23.1169ZM23.4207 19.2641H22.5469V17.6129H24.5176L23.4207 19.2641ZM21.3281 14.8609V16.5121H17.6719V14.8609H21.3281ZM16.4531 16.5121H13.7512L12.6543 14.8609H16.4531V16.5121ZM16.4531 17.6129V19.2641H15.5793L14.4824 17.6129H16.4531ZM17.6719 17.6129H21.3281V19.2641H17.6719V17.6129ZM25.2488 16.5121H22.5469V14.8609H26.3457L25.2488 16.5121ZM12.1875 13.7601V8.80644H12.7969C13.2481 8.80501 13.6825 8.65197 14.0156 8.37713C14.3488 8.65197 14.7832 8.80501 15.2344 8.80644H16.4531C16.9043 8.80501 17.3387 8.65197 17.6719 8.37713C18.005 8.65197 18.4394 8.80501 18.8906 8.80644H20.1094C20.5606 8.80501 20.995 8.65197 21.3281 8.37713C21.6613 8.65197 22.0957 8.80501 22.5469 8.80644H23.7656C24.2168 8.80501 24.6512 8.65197 24.9844 8.37713C25.3175 8.65197 25.7519 8.80501 26.2031 8.80644H26.8125V13.7601H12.1875ZM27.8033 7.06497C27.8179 7.14383 27.8132 7.2246 27.7896 7.30166C27.7661 7.37872 27.7242 7.45023 27.667 7.5112C27.6098 7.57217 27.5385 7.62115 27.4582 7.65473C27.3779 7.68831 27.2904 7.70568 27.2019 7.70564H26.2031C26.0415 7.70564 25.8865 7.64765 25.7722 7.54443C25.658 7.44121 25.5938 7.30121 25.5938 7.15523V2.20161H26.9057L27.8033 7.06497ZM24.375 7.15523C24.375 7.30121 24.3108 7.44121 24.1965 7.54443C24.0822 7.64765 23.9272 7.70564 23.7656 7.70564H22.5469C22.3853 7.70564 22.2303 7.64765 22.116 7.54443C22.0017 7.44121 21.9375 7.30121 21.9375 7.15523V2.20161H24.375V7.15523ZM20.7188 7.15523C20.7188 7.30121 20.6545 7.44121 20.5403 7.54443C20.426 7.64765 20.271 7.70564 20.1094 7.70564H18.8906C18.729 7.70564 18.574 7.64765 18.4597 7.54443C18.3455 7.44121 18.2812 7.30121 18.2812 7.15523V2.20161H20.7188V7.15523ZM17.0625 7.15523C17.0625 7.30121 16.9983 7.44121 16.884 7.54443C16.7697 7.64765 16.6147 7.70564 16.4531 7.70564H15.2344C15.0728 7.70564 14.9178 7.64765 14.8035 7.54443C14.6892 7.44121 14.625 7.30121 14.625 7.15523V2.20161H17.0625V7.15523ZM12.0943 2.20161H13.4062V7.15523C13.4062 7.30121 13.342 7.44121 13.2278 7.54443C13.1135 7.64765 12.9585 7.70564 12.7969 7.70564H11.7981C11.7096 7.70568 11.6221 7.68831 11.5418 7.65473C11.4615 7.62115 11.3902 7.57217 11.333 7.5112C11.2758 7.45023 11.2339 7.37872 11.2104 7.30166C11.1868 7.2246 11.1821 7.14383 11.1967 7.06497L12.0943 2.20161ZM2.4375 7.15523C2.4375 6.71731 2.63011 6.29731 2.97295 5.98765C3.31579 5.67799 3.78078 5.50402 4.26562 5.50402H10.2491L9.99375 6.88389C9.92768 7.22964 9.98686 7.58542 10.1625 7.89837C10.3382 8.21132 10.6209 8.46473 10.9688 8.62096V14.3105C10.9688 14.4104 10.9989 14.5083 11.0559 14.5939L14.7121 20.098C14.7663 20.1794 14.8428 20.2467 14.9344 20.2935C15.0259 20.3403 15.1292 20.3649 15.2344 20.3649H23.1562V20.9153C23.1562 21.0613 23.092 21.2013 22.9778 21.3045C22.8635 21.4077 22.7085 21.4657 22.5469 21.4657H16.4531C16.0916 21.4657 15.7381 21.5626 15.4375 21.744C15.1368 21.9254 14.9025 22.1833 14.7642 22.485C14.6258 22.7868 14.5896 23.1188 14.6601 23.4391C14.7307 23.7594 14.9048 24.0536 15.1604 24.2845C15.4161 24.5154 15.7419 24.6727 16.0965 24.7364C16.4511 24.8001 16.8187 24.7674 17.1527 24.6424C17.4868 24.5175 17.7723 24.3058 17.9732 24.0343C18.174 23.7627 18.2812 23.4435 18.2812 23.1169C18.2792 22.929 18.2413 22.7428 18.1691 22.5665H20.2215C20.1493 22.7428 20.1114 22.929 20.1094 23.1169C20.1094 23.5549 20.302 23.9748 20.6448 24.2845C20.9877 24.5942 21.4527 24.7681 21.9375 24.7681C22.4223 24.7681 22.8873 24.5942 23.2302 24.2845C23.573 23.9748 23.7656 23.5549 23.7656 23.1169C23.7638 22.8325 23.6798 22.5534 23.5219 22.3073C23.7826 22.1592 23.9976 21.9538 24.1467 21.7105C24.2959 21.4671 24.3744 21.1935 24.375 20.9153V19.967L27.7668 14.8609H29.8594C30.021 14.8609 30.176 14.8029 30.2903 14.6997C30.4045 14.5964 30.4688 14.4565 30.4688 14.3105V13.2097H32.2969V12.1089H29.8594C29.6978 12.1089 29.5428 12.1669 29.4285 12.2701C29.3142 12.3733 29.25 12.5133 29.25 12.6593V13.7601H28.0312V8.62096C28.3791 8.46473 28.6618 8.21132 28.8375 7.89837C29.0131 7.58542 29.0723 7.22964 29.0062 6.88389L28.7509 5.50402H34.7344C35.2192 5.50402 35.6842 5.67799 36.0271 5.98765C36.3699 6.29731 36.5625 6.71731 36.5625 7.15523V25.8689H2.4375V7.15523ZM17.0625 23.1169C17.0625 23.2258 17.0268 23.3322 16.9598 23.4227C16.8928 23.5132 16.7977 23.5838 16.6863 23.6254C16.575 23.6671 16.4524 23.678 16.3342 23.6568C16.216 23.6355 16.1075 23.5831 16.0222 23.5061C15.937 23.4291 15.879 23.3311 15.8555 23.2243C15.8319 23.1175 15.844 23.0069 15.8901 22.9063C15.9363 22.8057 16.0144 22.7198 16.1146 22.6593C16.2148 22.5988 16.3326 22.5665 16.4531 22.5665C16.6147 22.5665 16.7697 22.6245 16.884 22.7277C16.9983 22.831 17.0625 22.971 17.0625 23.1169ZM24.6078 33.0242H14.3922L16.525 29.1714H22.475L24.6078 33.0242ZM34.7344 28.0706H4.26562C3.88765 28.0701 3.51906 27.9641 3.21042 27.767C2.90178 27.57 2.6682 27.2915 2.5417 26.9697H36.4583C36.3318 27.2915 36.0982 27.57 35.7896 27.767C35.4809 27.9641 35.1124 28.0701 34.7344 28.0706Z" fill="#164B71"/>
</svg>
