<svg width="14" height="15" viewBox="0 0 14 15" fill="none" xmlns="http://www.w3.org/2000/svg">
<path d="M0 8C0 7.44772 0.447715 7 1 7H3C3.55228 7 4 7.44772 4 8V14C4 14.5523 3.55228 15 3 15H1C0.447715 15 0 14.5523 0 14V8Z" fill="#408B6E"/>
<path d="M5 5C5 4.44771 5.44772 4 6 4H8C8.55228 4 9 4.44772 9 5V14C9 14.5523 8.55228 15 8 15H6C5.44772 15 5 14.5523 5 14V5Z" fill="#408B6E"/>
<path d="M10 1C10 0.447715 10.4477 0 11 0H13C13.5523 0 14 0.447715 14 1V14C14 14.5523 13.5523 15 13 15H11C10.4477 15 10 14.5523 10 14V1Z" fill="#408B6E"/>
</svg>
