<svg width="18" height="20" viewBox="0 0 18 20" fill="none" xmlns="http://www.w3.org/2000/svg">
<path d="M15.9099 10.42L9.70877 16.61C8.89582 17.33 7.83755 17.7132 6.75043 17.6814C5.66331 17.6495 4.6295 17.2048 3.86046 16.4384C3.09141 15.672 2.64526 14.6417 2.61326 13.5582C2.58126 12.4748 2.96582 11.4202 3.6883 10.61L11.7156 2.60997C12.1949 2.15627 12.8306 1.9033 13.4916 1.9033C14.1527 1.9033 14.7884 2.15627 15.2677 2.60997C15.7346 3.08156 15.9964 3.71744 15.9964 4.37997C15.9964 5.0425 15.7346 5.67838 15.2677 6.14997L8.34413 13.04C8.27561 13.1135 8.19323 13.1729 8.10169 13.2147C8.01014 13.2565 7.91123 13.2799 7.8106 13.2836C7.70997 13.2874 7.60959 13.2713 7.5152 13.2363C7.4208 13.2014 7.33424 13.1483 7.26045 13.08C7.18666 13.0117 7.12708 12.9296 7.08513 12.8383C7.04318 12.7471 7.01967 12.6485 7.01594 12.5483C7.01221 12.448 7.02834 12.3479 7.06341 12.2539C7.09847 12.1598 7.15179 12.0735 7.22031 12L12.3678 6.87997C12.5568 6.69166 12.6629 6.43627 12.6629 6.16997C12.6629 5.90367 12.5568 5.64827 12.3678 5.45997C12.1789 5.27166 11.9226 5.16588 11.6554 5.16588C11.3882 5.16588 11.1319 5.27166 10.943 5.45997L5.79546 10.6C5.53789 10.8547 5.33346 11.1577 5.19395 11.4915C5.05444 11.8253 4.98261 12.1834 4.98261 12.545C4.98261 12.9066 5.05444 13.2646 5.19395 13.5984C5.33346 13.9323 5.53789 14.2353 5.79546 14.49C6.32163 14.9895 7.02044 15.2681 7.7471 15.2681C8.47377 15.2681 9.17258 14.9895 9.69874 14.49L16.6123 7.58997C17.4098 6.73692 17.8441 5.60864 17.8234 4.44283C17.8028 3.27703 17.3289 2.16472 16.5016 1.34024C15.6743 0.515759 14.5582 0.0434872 13.3884 0.0229179C12.2186 0.00234858 11.0865 0.435088 10.2305 1.22997L2.20325 9.22997C1.12076 10.4248 0.542626 11.9898 0.58929 13.5989C0.635954 15.2081 1.30382 16.7372 2.45374 17.8677C3.60365 18.9983 5.14693 19.643 6.76204 19.6677C8.37714 19.6923 9.93949 19.0949 11.1236 18L17.3347 11.82C17.4283 11.7267 17.5025 11.616 17.5531 11.4942C17.6037 11.3724 17.6298 11.2418 17.6298 11.11C17.6298 10.9781 17.6037 10.8475 17.5531 10.7257C17.5025 10.6039 17.4283 10.4932 17.3347 10.4C17.2412 10.3067 17.1301 10.2328 17.0079 10.1823C16.8856 10.1318 16.7546 10.1059 16.6223 10.1059C16.49 10.1059 16.359 10.1318 16.2367 10.1823C16.1145 10.2328 16.0034 10.3067 15.9099 10.4V10.42Z" fill="#828282"/>
</svg>
