<svg width="39" height="36" viewBox="0 0 39 36" fill="none" xmlns="http://www.w3.org/2000/svg">
<path d="M34.5156 1H4.04688C3.23909 1.00089 2.46467 1.29543 1.89348 1.81902C1.32229 2.34261 1.00097 3.0525 1 3.79297V23.9023C1.00097 24.6428 1.32229 25.3527 1.89348 25.8763C2.46467 26.3999 3.23909 26.6944 4.04688 26.6953H15.625V31.1641H11.9688C11.4839 31.1641 11.0189 31.3406 10.6761 31.6549C10.3332 31.9692 10.1406 32.3954 10.1406 32.8398C10.1406 33.2843 10.3332 33.7105 10.6761 34.0248C11.0189 34.3391 11.4839 34.5156 11.9688 34.5156H26.5938C27.0786 34.5156 27.5436 34.3391 27.8864 34.0248C28.2293 33.7105 28.4219 33.2843 28.4219 32.8398C28.4219 32.3954 28.2293 31.9692 27.8864 31.6549C27.5436 31.3406 27.0786 31.1641 26.5938 31.1641H22.9375V26.6953H34.5156C35.3234 26.6944 36.0978 26.3999 36.669 25.8763C37.2402 25.3527 37.5615 24.6428 37.5625 23.9023V3.79297C37.5615 3.0525 37.2402 2.34261 36.669 1.81902C36.0978 1.29543 35.3234 1.00089 34.5156 1ZM4.04688 2.11719H34.5156C35.0005 2.11719 35.4655 2.29374 35.8083 2.60801C36.1511 2.92228 36.3438 3.34852 36.3438 3.79297V21.1094H2.21875V3.79297C2.21875 3.34852 2.41136 2.92228 2.7542 2.60801C3.09704 2.29374 3.56203 2.11719 4.04688 2.11719ZM27.2031 32.8398C27.2031 32.988 27.1389 33.1301 27.0246 33.2348C26.9104 33.3396 26.7554 33.3984 26.5938 33.3984H11.9688C11.8071 33.3984 11.6521 33.3396 11.5379 33.2348C11.4236 33.1301 11.3594 32.988 11.3594 32.8398C11.3594 32.6917 11.4236 32.5496 11.5379 32.4449C11.6521 32.3401 11.8071 32.2812 11.9688 32.2812H26.5938C26.7554 32.2812 26.9104 32.3401 27.0246 32.4449C27.1389 32.5496 27.2031 32.6917 27.2031 32.8398ZM21.7188 31.1641H16.8438V26.6953H21.7188V31.1641ZM34.5156 25.5781H4.04688C3.56203 25.5781 3.09704 25.4016 2.7542 25.0873C2.41136 24.773 2.21875 24.3468 2.21875 23.9023V22.2266H36.3438V23.9023C36.3438 24.3468 36.1511 24.773 35.8083 25.0873C35.4655 25.4016 35.0005 25.5781 34.5156 25.5781Z" fill="#164B71"/>
<path d="M19.2813 19.9921C21.0891 19.9921 22.8563 19.5007 24.3595 18.58C25.8627 17.6594 27.0343 16.3507 27.7261 14.8197C28.4179 13.2887 28.5989 11.6039 28.2462 9.97859C27.8936 8.35324 27.023 6.86026 25.7447 5.68845C24.4663 4.51664 22.8376 3.71863 21.0645 3.39532C19.2914 3.07202 17.4535 3.23795 15.7833 3.87213C14.1131 4.50631 12.6855 5.58026 11.6811 6.95816C10.6767 8.33607 10.1406 9.95604 10.1406 11.6132C10.1434 13.8347 11.1073 15.9644 12.8209 17.5352C14.5345 19.106 16.8578 19.9896 19.2813 19.9921ZM19.2813 4.35151C20.8481 4.35151 22.3797 4.77741 23.6824 5.57533C24.9852 6.37326 26.0005 7.50739 26.6001 8.83429C27.1997 10.1612 27.3566 11.6213 27.0509 13.0299C26.7452 14.4386 25.9908 15.7325 24.8829 16.748C23.775 17.7636 22.3634 18.4552 20.8267 18.7354C19.29 19.0156 17.6972 18.8718 16.2497 18.3222C14.8021 17.7726 13.5649 16.8418 12.6945 15.6476C11.824 14.4534 11.3594 13.0495 11.3594 11.6132C11.3618 9.68799 12.1972 7.84223 13.6823 6.48087C15.1674 5.11951 17.181 4.35373 19.2813 4.35151Z" fill="#164B71"/>
<path d="M17.2747 14.57L14.0493 11.6134L17.2747 8.65677L16.413 7.86692L12.7568 11.2185C12.6425 11.3232 12.5784 11.4653 12.5784 11.6134C12.5784 11.7615 12.6425 11.9036 12.7568 12.0083L16.413 15.3599L17.2747 14.57Z" fill="#164B71"/>
<path d="M22.1496 15.3599L25.8059 12.0083C25.9201 11.9036 25.9843 11.7615 25.9843 11.6134C25.9843 11.4653 25.9201 11.3232 25.8059 11.2185L22.1496 7.86692L21.288 8.65677L24.5134 11.6134L21.288 14.57L22.1496 15.3599Z" fill="#164B71"/>
<path d="M17.4677 15.9475L19.8997 7.01156L21.0819 7.28192L18.6499 16.2179L17.4677 15.9475Z" fill="#164B71"/>
</svg>
