<svg width="31" height="31" viewBox="0 0 31 31" fill="none" xmlns="http://www.w3.org/2000/svg">
<path d="M5.2928 0.917483L23.8574 0.917481C24.8809 0.917822 25.8718 1.27697 26.6579 1.93245C27.4439 2.58792 27.9752 3.49822 28.1595 4.50498L30.0116 14.7133C30.127 15.344 30.1023 15.9922 29.9395 16.6123C29.7766 17.2324 29.4794 17.8091 29.069 18.3016C28.6585 18.7941 28.1449 19.1904 27.5643 19.4625C26.9838 19.7345 26.3506 19.8756 25.7095 19.8758L19.0595 19.8758L19.8761 21.9612C20.2158 22.8743 20.329 23.8562 20.2058 24.8226C20.0827 25.789 19.7269 26.7111 19.1691 27.5099C18.6113 28.3086 17.8681 28.9601 17.0031 29.4084C16.1382 29.8568 15.1774 30.0887 14.2032 30.0841C13.9227 30.0836 13.6483 30.0021 13.4129 29.8495C13.1775 29.6969 12.9911 29.4796 12.8761 29.2237L8.71988 19.8758L5.2928 19.8758C4.13248 19.8758 3.01968 19.4149 2.19921 18.5944C1.37873 17.7739 0.917798 16.6611 0.917798 15.5008L0.917797 5.29248C0.917797 4.13216 1.37873 3.01936 2.19921 2.19889C3.01968 1.37842 4.13247 0.917483 5.2928 0.917483ZM11.1261 18.1112L15.0928 27.0362C15.4987 26.9134 15.8751 26.7088 16.1989 26.435C16.5227 26.1612 16.787 25.824 16.9755 25.4442C17.1641 25.0644 17.2729 24.65 17.2952 24.2266C17.3175 23.8031 17.2529 23.3796 17.1053 22.9821L16.3324 20.8966C16.1677 20.4559 16.1121 19.9818 16.1703 19.5148C16.2286 19.0479 16.3989 18.602 16.6668 18.2152C16.9347 17.8283 17.2923 17.512 17.7089 17.2933C18.1255 17.0746 18.5889 16.96 19.0595 16.9591L25.7095 16.9591C25.9237 16.9595 26.1354 16.9126 26.3295 16.8219C26.5236 16.7312 26.6953 16.5988 26.8324 16.4341C26.9729 16.2718 27.0758 16.0804 27.1338 15.8737C27.1917 15.667 27.2034 15.45 27.1678 15.2383L25.3157 5.02998C25.2536 4.69025 25.0729 4.38359 24.8059 4.1646C24.5388 3.94562 24.2027 3.82851 23.8574 3.83415L11.1261 3.83415L11.1261 18.1112ZM3.83447 15.5008C3.83447 15.8876 3.98811 16.2585 4.2616 16.532C4.53509 16.8055 4.90602 16.9591 5.2928 16.9591L8.20947 16.9591L8.20947 3.83415L5.2928 3.83415C4.90602 3.83415 4.53509 3.98779 4.2616 4.26128C3.98811 4.53478 3.83447 4.90571 3.83447 5.29248L3.83447 15.5008Z" fill="#828282"/>
</svg>
