<svg width="11" height="12" viewBox="0 0 11 12" fill="none" xmlns="http://www.w3.org/2000/svg">
<path d="M8.19287 5.54282C8.13899 5.43123 8.02057 5.36016 7.89018 5.36016H6.55965V1.30781C6.55965 1.13574 6.41063 0.996094 6.22702 0.996094H4.8965C4.71288 0.996094 4.56387 1.13574 4.56387 1.30781V5.36016H3.23334C3.10295 5.36016 2.98453 5.43185 2.93065 5.54282C2.87609 5.65442 2.89738 5.78472 2.9832 5.87699L5.31162 8.37074C5.37482 8.43869 5.46596 8.47734 5.56176 8.47734C5.65756 8.47734 5.7487 8.43807 5.8119 8.37074L8.14032 5.87699C8.2268 5.78534 8.24676 5.65442 8.19287 5.54282Z" fill="white"/>
<path d="M9.22069 7.85391V9.72422H1.90279V7.85391H0.572266V10.3477C0.572266 10.6924 0.870303 10.9711 1.23753 10.9711H9.88595C10.2538 10.9711 10.5512 10.6924 10.5512 10.3477V7.85391H9.22069Z" fill="white"/>
<path d="M8.19287 5.54282C8.13899 5.43123 8.02057 5.36016 7.89018 5.36016H6.55965V1.30781C6.55965 1.13574 6.41063 0.996094 6.22702 0.996094H4.8965C4.71288 0.996094 4.56387 1.13574 4.56387 1.30781V5.36016H3.23334C3.10295 5.36016 2.98453 5.43185 2.93065 5.54282C2.87609 5.65442 2.89738 5.78472 2.9832 5.87699L5.31162 8.37074C5.37482 8.43869 5.46596 8.47734 5.56176 8.47734C5.65756 8.47734 5.7487 8.43807 5.8119 8.37074L8.14032 5.87699C8.2268 5.78534 8.24676 5.65442 8.19287 5.54282Z" stroke="white" stroke-width="0.3"/>
<path d="M9.22069 7.85391V9.72422H1.90279V7.85391H0.572266V10.3477C0.572266 10.6924 0.870303 10.9711 1.23753 10.9711H9.88595C10.2538 10.9711 10.5512 10.6924 10.5512 10.3477V7.85391H9.22069Z" stroke="white" stroke-width="0.3"/>
</svg>
