<svg width="39" height="39" viewBox="0 0 39 39" fill="none" xmlns="http://www.w3.org/2000/svg">
<path fill-rule="evenodd" clip-rule="evenodd" d="M28.1622 27.2288C28.388 27.1556 28.6255 27.1172 28.8691 27.1172C30.1292 27.1172 31.1543 28.1423 31.1543 29.4024C31.1543 30.6625 30.1292 31.6875 28.8691 31.6875C27.609 31.6875 26.584 30.6625 26.584 29.4024C26.584 28.9575 26.7164 28.5249 26.9541 28.158L25.8223 26.7596L24.6904 28.158C24.9281 28.5249 25.0605 28.9575 25.0605 29.4024C25.0605 30.6625 24.0355 31.6875 22.7754 31.6875C21.5153 31.6875 20.4902 30.6625 20.4902 29.4024C20.4902 28.1423 21.5153 27.1172 22.7754 27.1172C23.0188 27.1172 23.2565 27.1556 23.4824 27.2288L24.8421 25.5489L22.1833 22.2645C21.9188 21.9375 21.969 21.4579 22.296 21.1931C22.623 20.9286 23.1027 20.9788 23.3675 21.3058L25.8223 24.3384L28.277 21.3058C28.5418 20.9788 29.0215 20.9286 29.3485 21.1931C29.6755 21.4579 29.7258 21.9375 29.4613 22.2645L26.8024 25.5489L28.1622 27.2288ZM22.0137 29.4024C22.0137 29.8225 22.3553 30.1641 22.7754 30.1641C23.1955 30.1641 23.5371 29.8225 23.5371 29.4024C23.5371 28.973 23.1881 28.6407 22.7754 28.6407C22.3553 28.6407 22.0137 28.9822 22.0137 29.4024ZM28.1074 29.4024C28.1074 29.8225 28.449 30.1641 28.8691 30.1641C29.2893 30.1641 29.6309 29.8225 29.6309 29.4024C29.6309 28.9822 29.2893 28.6407 28.8691 28.6407C28.4564 28.6407 28.1074 28.973 28.1074 29.4024Z" fill="#164B71"/>
<path fill-rule="evenodd" clip-rule="evenodd" d="M17.2148 33.9727C17.2148 34.3934 17.5558 34.7344 17.9766 34.7344H33.668C34.0887 34.7344 34.4297 34.3934 34.4297 33.9727V18.7383C34.4297 18.3176 34.0887 17.9766 33.668 17.9766H17.9766C17.5558 17.9766 17.2148 18.3176 17.2148 18.7383V33.9727ZM18.7383 19.5H32.9062V33.2109H18.7383V19.5Z" fill="#164B71"/>
<path fill-rule="evenodd" clip-rule="evenodd" d="M37.1856 8.83594H38.2383C38.659 8.83594 39 9.17693 39 9.59766V14.168C39 14.5887 38.659 14.9297 38.2383 14.9297H37.4766V36.2578H38.2383C38.659 36.2578 39 36.5988 39 37.0195C39 37.4403 38.659 37.7812 38.2383 37.7812H0.761719C0.340988 37.7812 0 37.4403 0 37.0195C0 36.5988 0.340988 36.2578 0.761719 36.2578H1.52344V14.9297H0.761719C0.340988 14.9297 0 14.5887 0 14.168V9.59766C0 9.17693 0.340988 8.83594 0.761719 8.83594H1.81444L3.04688 6.37106V3.50391C3.04688 2.2438 4.07192 1.21875 5.33203 1.21875H33.668C34.9281 1.21875 35.9531 2.2438 35.9531 3.50391V6.37106L37.1856 8.83594ZM16.4531 7.3125H4.27931L3.51759 8.83594H35.4824L34.7207 7.3125H22.5469C22.1261 7.3125 21.7852 6.97151 21.7852 6.55078C21.7852 6.13005 22.1261 5.78906 22.5469 5.78906H34.4297V3.50391C34.4297 3.08377 34.0881 2.74219 33.668 2.74219H5.33203C4.9119 2.74219 4.57031 3.08377 4.57031 3.50391V5.78906H16.4531C16.8739 5.78906 17.2148 6.13005 17.2148 6.55078C17.2148 6.97151 16.8739 7.3125 16.4531 7.3125ZM6.09375 27.1172H14.168V19.5H6.09375V27.1172ZM14.168 28.6406H6.09375V36.2578H14.168V28.6406ZM15.6914 36.2578H35.9531V14.9297H3.04688V36.2578H4.57031V18.7383C4.57031 18.3176 4.9113 17.9766 5.33203 17.9766H14.9297C15.3504 17.9766 15.6914 18.3176 15.6914 18.7383V36.2578ZM1.52344 13.4062H37.4766V10.3594H1.52344V13.4062Z" fill="#164B71"/>
</svg>
