<?xml version="1.0" encoding="utf-8"?>
<!-- Generator: Adobe Illustrator 21.1.0, SVG Export Plug-In . SVG Version: 6.00 Build 0)  -->
<svg version="1.1" id="Слой_1" xmlns="http://www.w3.org/2000/svg" xmlns:xlink="http://www.w3.org/1999/xlink" x="0px" y="0px"
	 viewBox="0 0 24 24" style="enable-background:new 0 0 24 24;" xml:space="preserve">
<g>
	<path d="M12,24C5.4,24,0,18.6,0,12C0,5.4,5.4,0,12,0c6.6,0,12,5.4,12,12C24,18.6,18.6,24,12,24z M12,1C5.9,1,1,5.9,1,12
		s4.9,11,11,11s11-4.9,11-11S18.1,1,12,1z"/>
</g>
<g>
	<g>
		<g>
			<path d="M8.8,7.2C8.6,7.3,8.4,7.4,8.3,7.5C8.1,7.7,8,7.9,8,8.2c0,0.4,0.2,0.7,0.5,0.9c0.3,0.1,0.6,0.2,0.9,0.1
				c0.5-0.1,0.8-0.5,0.7-1c0-0.6-0.5-1-1.1-1C9,7.2,8.9,7.2,8.8,7.2z"/>
		</g>
		<g>
			<path d="M14.6,9.9c-0.7,0.1-1.1,0.3-1.5,0.8l-0.1,0.1l0-0.4l0-0.4h-1h-1v2.9v2.9h1h1v-1.6c0-0.9,0-1.7,0-1.8c0-0.1,0-0.2,0.1-0.3
				c0.2-0.5,0.7-0.8,1.2-0.7c0.3,0.1,0.5,0.3,0.7,0.6c0.1,0.2,0.1,0.2,0.1,2.1l0,1.7h1h1V14c0-2,0-2-0.1-2.4
				c-0.1-0.5-0.3-0.8-0.6-1.1c-0.1-0.1-0.2-0.2-0.3-0.2c-0.2-0.2-0.5-0.3-0.8-0.3C15.1,9.9,14.7,9.8,14.6,9.9z"/>
		</g>
		<g>
			<path d="M8.1,12.9v2.9h1h1v-2.9V10h-1h-1V12.9z"/>
		</g>
	</g>
</g>
</svg>
