<svg width="11" height="11" viewBox="0 0 11 11" fill="none" xmlns="http://www.w3.org/2000/svg">
<path d="M2.47072 0.0318098C1.87131 0.137083 1.25041 0.463646 0.835761 0.893333C0.418964 1.32302 0.128925 1.90095 0.0322449 2.49177C-0.0150208 2.76247 -0.0150208 8.23669 0.0322449 8.5074C0.128925 9.09822 0.418964 9.67615 0.835761 10.1058C1.259 10.5441 1.87775 10.8664 2.49221 10.9674C2.76291 11.0146 8.23713 11.0146 8.50784 10.9674C9.09866 10.8707 9.67659 10.5806 10.1063 10.1638C10.5446 9.7406 10.8668 9.12185 10.9678 8.5074C11.0151 8.23669 11.0151 2.76247 10.9678 2.49177C10.8668 1.87732 10.5446 1.25857 10.1063 0.835325C9.67659 0.418529 9.09866 0.12849 8.50784 0.0318098C8.25002 -0.0111597 2.71994 -0.0111597 2.47072 0.0318098ZM8.54006 0.962083C8.6346 0.990013 8.81936 1.06306 8.94827 1.12751C9.36721 1.33591 9.6637 1.63025 9.8721 2.05134C9.93655 2.18025 10.0117 2.36931 10.0375 2.47029L10.0869 2.6529V5.49958V8.34626L10.0375 8.52888C10.0117 8.62986 9.93655 8.81677 9.8721 8.94783C9.6637 9.36892 9.36936 9.66326 8.94827 9.87166C8.81936 9.93611 8.6303 10.0113 8.52932 10.0371L8.3467 10.0865H5.50002H2.65334L2.47072 10.0371C2.36975 10.0113 2.18283 9.93611 2.05178 9.87166C1.63068 9.66326 1.33635 9.36892 1.12795 8.94783C1.0635 8.81677 0.9883 8.62986 0.962519 8.52888L0.913105 8.34626V5.49958V2.6529L0.962519 2.47029C0.9883 2.36931 1.0635 2.18025 1.12795 2.05134C1.33635 1.63025 1.63068 1.33591 2.05178 1.12751C2.26232 1.02439 2.5051 0.944896 2.69631 0.916966C2.73283 0.912669 4.0219 0.908372 5.56448 0.910521L8.36819 0.914818L8.54006 0.962083Z" fill="white"/>
<path d="M8.17484 2.2792C7.78383 2.37158 7.70433 2.90439 8.05023 3.1085C8.12973 3.15361 8.17699 3.1665 8.28012 3.1665C8.54438 3.16436 8.72914 2.98174 8.72914 2.71748C8.72914 2.41885 8.46703 2.2126 8.17484 2.2792Z" fill="white"/>
<path d="M5.08105 3.04189C4.05624 3.22236 3.25487 4.03447 3.083 5.07002C3.03144 5.3751 3.04647 5.79619 3.12167 6.08193C3.36015 6.99502 4.01327 7.64385 4.94999 7.89092C5.09823 7.92959 5.18202 7.93604 5.52148 7.93604C5.88241 7.93604 5.93827 7.92959 6.12948 7.87803C6.2455 7.84795 6.41737 7.78779 6.51191 7.74697C7.23163 7.4376 7.77304 6.77803 7.94062 6.01103C7.98788 5.79834 8.00292 5.35361 7.97284 5.13018C7.82245 4.06025 6.9953 3.21377 5.92968 3.0376C5.70194 3.00107 5.30663 3.00107 5.08105 3.04189ZM5.78144 3.94209C6.21327 4.01728 6.5871 4.26006 6.82128 4.61885C7.22948 5.24189 7.15644 6.02178 6.64081 6.55889C6.01776 7.20557 5.00585 7.20127 4.3914 6.546C4.14218 6.28174 4.01757 6.01963 3.9703 5.66084C3.92733 5.34502 4.00468 4.97119 4.17226 4.6876C4.26464 4.53076 4.57401 4.22139 4.73085 4.129C4.94999 4.0001 5.23788 3.91846 5.50214 3.91201C5.558 3.91201 5.68261 3.9249 5.78144 3.94209Z" fill="white"/>
</svg>
