<svg width="24" height="24" viewBox="0 0 24 24" fill="none" xmlns="http://www.w3.org/2000/svg">
<circle cx="12" cy="12" r="11.5" stroke="white"/>
<g clip-path="url(#clip0)">
<path d="M9.47072 7.03181C8.87131 7.13708 8.25041 7.46365 7.83576 7.89333C7.41896 8.32302 7.12892 8.90095 7.03224 9.49177C6.98498 9.76247 6.98498 15.2367 7.03224 15.5074C7.12892 16.0982 7.41896 16.6761 7.83576 17.1058C8.259 17.5441 8.87775 17.8664 9.49221 17.9674C9.76291 18.0146 15.2371 18.0146 15.5078 17.9674C16.0987 17.8707 16.6766 17.5806 17.1063 17.1638C17.5446 16.7406 17.8668 16.1219 17.9678 15.5074C18.0151 15.2367 18.0151 9.76247 17.9678 9.49177C17.8668 8.87732 17.5446 8.25857 17.1063 7.83533C16.6766 7.41853 16.0987 7.12849 15.5078 7.03181C15.25 6.98884 9.71994 6.98884 9.47072 7.03181ZM15.5401 7.96208C15.6346 7.99001 15.8194 8.06306 15.9483 8.12751C16.3672 8.33591 16.6637 8.63025 16.8721 9.05134C16.9365 9.18025 17.0117 9.36931 17.0375 9.47029L17.0869 9.6529V12.4996V15.3463L17.0375 15.5289C17.0117 15.6299 16.9365 15.8168 16.8721 15.9478C16.6637 16.3689 16.3694 16.6633 15.9483 16.8717C15.8194 16.9361 15.6303 17.0113 15.5293 17.0371L15.3467 17.0865H12.5H9.65334L9.47072 17.0371C9.36975 17.0113 9.18283 16.9361 9.05178 16.8717C8.63068 16.6633 8.33635 16.3689 8.12795 15.9478C8.0635 15.8168 7.9883 15.6299 7.96252 15.5289L7.9131 15.3463V12.4996V9.6529L7.96252 9.47029C7.9883 9.36931 8.0635 9.18025 8.12795 9.05134C8.33635 8.63025 8.63068 8.33591 9.05178 8.12751C9.26232 8.02439 9.5051 7.9449 9.69631 7.91697C9.73283 7.91267 11.0219 7.90837 12.5645 7.91052L15.3682 7.91482L15.5401 7.96208Z" fill="white"/>
<path d="M15.1748 9.2792C14.7838 9.37158 14.7043 9.90439 15.0502 10.1085C15.1297 10.1536 15.177 10.1665 15.2801 10.1665C15.5444 10.1644 15.7291 9.98174 15.7291 9.71748C15.7291 9.41885 15.467 9.2126 15.1748 9.2792Z" fill="white"/>
<path d="M12.081 10.0419C11.0562 10.2224 10.2549 11.0345 10.083 12.07C10.0314 12.3751 10.0465 12.7962 10.1217 13.0819C10.3601 13.995 11.0133 14.6438 11.95 14.8909C12.0982 14.9296 12.182 14.936 12.5215 14.936C12.8824 14.936 12.9383 14.9296 13.1295 14.878C13.2455 14.8479 13.4174 14.7878 13.5119 14.747C14.2316 14.4376 14.773 13.778 14.9406 13.011C14.9879 12.7983 15.0029 12.3536 14.9728 12.1302C14.8225 11.0603 13.9953 10.2138 12.9297 10.0376C12.7019 10.0011 12.3066 10.0011 12.081 10.0419ZM12.7814 10.9421C13.2133 11.0173 13.5871 11.2601 13.8213 11.6188C14.2295 12.2419 14.1564 13.0218 13.6408 13.5589C13.0178 14.2056 12.0059 14.2013 11.3914 13.546C11.1422 13.2817 11.0176 13.0196 10.9703 12.6608C10.9273 12.345 11.0047 11.9712 11.1723 11.6876C11.2646 11.5308 11.574 11.2214 11.7308 11.129C11.95 11.0001 12.2379 10.9185 12.5021 10.912C12.558 10.912 12.6826 10.9249 12.7814 10.9421Z" fill="white"/>
</g>
<defs>
<clipPath id="clip0">
<rect width="11" height="11" fill="white" transform="translate(7 7)"/>
</clipPath>
</defs>
</svg>
