<svg width="25" height="24" viewBox="0 0 25 24" fill="none" xmlns="http://www.w3.org/2000/svg">
<path fill-rule="evenodd" clip-rule="evenodd" d="M2.82207 14.2981H9.67786C9.7915 14.2981 9.90049 14.2558 9.98084 14.1806C10.0612 14.1054 10.1063 14.0033 10.1063 13.8969V9.08231C10.1063 8.9759 10.0612 8.87385 9.98084 8.79861C9.90049 8.72337 9.7915 8.6811 9.67786 8.6811H2.82207C2.70842 8.6811 2.59944 8.72337 2.51908 8.79861C2.43872 8.87385 2.39358 8.9759 2.39358 9.08231V13.8969C2.39358 14.0033 2.43872 14.1054 2.51908 14.1806C2.59944 14.2558 2.70842 14.2981 2.82207 14.2981ZM3.25055 9.48353H9.24937V13.4957H3.25055V9.48353Z" fill="#828282"/>
<path d="M12.5001 8.6811H11.7022V9.70237H12.5001V8.6811Z" fill="#828282"/>
<path d="M13.2978 8.6811H16.7552V9.70237H13.2978V8.6811Z" fill="#828282"/>
<path d="M16.7554 10.4681H11.7022V11.2341H16.7554V10.4681Z" fill="#828282"/>
<path d="M11.7022 12H16.7554V12.766H11.7022V12Z" fill="#828282"/>
<path d="M14.0959 13.5319H11.7022V14.2978H14.0959V13.5319Z" fill="#828282"/>
<path d="M22.6063 16.8512H21.5425V17.6171H22.6063V16.8512Z" fill="#828282"/>
<path fill-rule="evenodd" clip-rule="evenodd" d="M20.4167 3.99988H22.9167C23.469 4.00052 23.9985 4.21144 24.3891 4.58637C24.7796 4.96131 24.9993 5.46965 25 5.99989V17.2C24.9993 17.7302 24.7796 18.2385 24.3891 18.6135C23.9985 18.9884 23.469 19.1993 22.9167 19.2H14.7004L15.3254 21.6H15.8333C16.1649 21.6 16.4828 21.7264 16.7172 21.9515C16.9516 22.1765 17.0833 22.4817 17.0833 22.8C17.0833 23.1183 16.9516 23.4235 16.7172 23.6485C16.4828 23.8736 16.1649 24 15.8333 24H9.16667C8.83514 24 8.5172 23.8736 8.28278 23.6485C8.04836 23.4235 7.91667 23.1183 7.91667 22.8C7.91667 22.4817 8.04836 22.1765 8.28278 21.9515C8.5172 21.7264 8.83514 21.6 9.16667 21.6H9.67458L10.2996 19.2H2.08333C1.531 19.1993 1.00148 18.9884 0.610925 18.6135C0.220367 18.2385 0.000661607 17.7302 0 17.2V5.99989C0.000661607 5.46965 0.220367 4.96131 0.610925 4.58637C1.00148 4.21144 1.531 4.00052 2.08333 3.99988H6.25V3.37708L5.68792 3.17468C5.60831 3.14619 5.53969 3.09502 5.49123 3.02803C5.44277 2.96104 5.4168 2.88143 5.4168 2.79988C5.4168 2.71832 5.44277 2.63871 5.49123 2.57172C5.53969 2.50473 5.60831 2.45356 5.68792 2.42507L12.3546 0.0250596C12.4487 -0.00835319 12.5521 -0.00835319 12.6462 0.0250596L19.2425 2.39987H20C20.1105 2.39987 20.2165 2.44202 20.2946 2.51703C20.3728 2.59205 20.4167 2.69379 20.4167 2.79988V3.99988ZM19.2425 3.19988L18.75 3.37708V3.99988H19.5833V3.19988H19.2425ZM16.8687 2.39987L12.5 0.827064L7.02 2.79988H7.08333V2.82268L12.5 4.77269L16.8687 3.19988H12.5V2.39987H16.8687ZM12.6454 5.57469C12.5513 5.60811 12.4479 5.60811 12.3537 5.57469L7.08333 3.67708V6.1547C8.36292 6.8115 10.3625 7.1999 12.5 7.1999C14.6375 7.1999 16.6371 6.8115 17.9167 6.1547V3.67708L12.6454 5.57469ZM6.25 4.79989H2.08333C1.75181 4.79989 1.43387 4.92632 1.19945 5.15136C0.965029 5.37641 0.833333 5.68163 0.833333 5.99989V15.1999H24.1667V5.99989C24.1667 5.68163 24.035 5.37641 23.8005 5.15136C23.5661 4.92632 23.2482 4.79989 22.9167 4.79989H20.4167V6.0735C20.6518 6.15196 20.8569 6.29634 21.0056 6.48796C21.1543 6.67958 21.2397 6.90962 21.2508 7.14833C21.2618 7.38705 21.198 7.62345 21.0676 7.82697C20.9371 8.03049 20.7461 8.19175 20.5192 8.28991L21.2337 10.6899C21.2515 10.7494 21.2546 10.8121 21.2428 10.873C21.231 10.9338 21.2047 10.9912 21.1659 11.0407C21.1271 11.0901 21.0768 11.1302 21.0191 11.1579C20.9614 11.1855 20.8978 11.1999 20.8333 11.1999H19.1667C19.102 11.2 19.0382 11.1856 18.9803 11.1578C18.9225 11.1301 18.8721 11.0898 18.8333 11.0402C18.7944 10.9906 18.7681 10.9329 18.7565 10.8719C18.7449 10.8108 18.7482 10.7479 18.7663 10.6883L19.4808 8.28831C19.2544 8.1899 19.0639 8.02864 18.9339 7.82532C18.8039 7.622 18.7403 7.38595 18.7513 7.1476C18.7623 6.90925 18.8475 6.67954 18.9958 6.48809C19.1441 6.29665 19.3487 6.15224 19.5833 6.0735V4.79989H18.75V6.3879C18.75 6.45717 18.7313 6.52526 18.6956 6.58549C18.66 6.64572 18.6086 6.69603 18.5467 6.7315C17.1588 7.5255 14.8979 7.99991 12.5 7.99991C10.1021 7.99991 7.84125 7.5255 6.45333 6.7315C6.39135 6.69603 6.34002 6.64572 6.30438 6.58549C6.26874 6.52526 6.25 6.45717 6.25 6.3879V4.79989ZM20.2315 6.86731C20.163 6.82336 20.0824 6.7999 20 6.7999C19.8895 6.7999 19.7835 6.84204 19.7054 6.91706C19.6272 6.99207 19.5833 7.09381 19.5833 7.1999C19.5833 7.27901 19.6078 7.35635 19.6536 7.42213C19.6993 7.48791 19.7644 7.53918 19.8405 7.56946C19.9167 7.59973 20.0005 7.60765 20.0813 7.59222C20.1621 7.57678 20.2364 7.53869 20.2946 7.48275C20.3529 7.42681 20.3926 7.35553 20.4087 7.27794C20.4247 7.20035 20.4165 7.11992 20.3849 7.04683C20.3534 6.97374 20.3 6.91126 20.2315 6.86731ZM20.2808 10.3999L20 9.45591L19.7192 10.3999H20.2808ZM16.128 23.0828C16.2061 23.0078 16.25 22.9061 16.25 22.8C16.25 22.6939 16.2061 22.5922 16.128 22.5171C16.0498 22.4421 15.9438 22.4 15.8333 22.4H9.16667C9.05616 22.4 8.95018 22.4421 8.87204 22.5171C8.7939 22.5922 8.75 22.6939 8.75 22.8C8.75 22.9061 8.7939 23.0078 8.87204 23.0828C8.95018 23.1579 9.05616 23.2 9.16667 23.2H15.8333C15.9438 23.2 16.0498 23.1579 16.128 23.0828ZM11.1587 19.2L10.5337 21.6H14.4662L13.8413 19.2H11.1587ZM2.08333 18.4H22.9167C23.2482 18.4 23.5661 18.2735 23.8005 18.0485C24.035 17.8234 24.1667 17.5182 24.1667 17.2V16H0.833333V17.2C0.833333 17.5182 0.965029 17.8234 1.19945 18.0485C1.43387 18.2735 1.75181 18.4 2.08333 18.4Z" fill="#828282"/>
</svg>
