<?xml version="1.0" encoding="utf-8"?>
<!-- Generator: Adobe Illustrator 21.1.0, SVG Export Plug-In . SVG Version: 6.00 Build 0)  -->
<svg version="1.1" id="Слой_1" xmlns="http://www.w3.org/2000/svg" xmlns:xlink="http://www.w3.org/1999/xlink" x="0px" y="0px"
	 viewBox="0 0 24 24" style="enable-background:new 0 0 24 24;" xml:space="preserve">
<g>
	<path d="M12,24C5.4,24,0,18.6,0,12C0,5.4,5.4,0,12,0c6.6,0,12,5.4,12,12C24,18.6,18.6,24,12,24z M12,1C5.9,1,1,5.9,1,12
		s4.9,11,11,11s11-4.9,11-11S18.1,1,12,1z"/>
</g>
<g>
	<g>
		<g>
			<path d="M6,7.3V8h0.2c0.3,0,0.4,0,0.5,0.1C6.9,8.3,6.9,8,6.9,11.5c0,3.5,0,3.3-0.2,3.4C6.6,15,6.6,15,6.3,15L6,15v0.7v0.7h1.9
				h1.9v-0.7V15H9.3H8.8v-3.2V8.5h0.1c0.1,0,0.1,0,0.1,0.1c0,0.1,0.5,1.8,1.1,3.9l1.1,3.8H12h0.9l0-0.1c0,0,0.5-1.8,1.1-3.9l1.1-3.9
				l0.1,0l0.1,0v3.2V15h-0.5h-0.5v0.7v0.7h2.3H19v-0.7V15l-0.4,0c-0.5,0-0.6-0.1-0.8-0.2l-0.1-0.1v-3.2V8.3l0.1-0.1
				C18,8.1,18.1,8,18.6,8L19,8V7.3V6.6h-2.5H14l0,0.1c0,0-0.4,1.3-0.8,2.8c-0.5,1.9-0.8,2.7-0.8,2.7c0,0-0.4-1.3-0.8-2.8l-0.8-2.7
				l-2.4,0L6,6.6V7.3z"/>
		</g>
	</g>
</g>
</svg>
