<svg width="180" height="180" viewBox="0 0 180 180" fill="none" xmlns="http://www.w3.org/2000/svg">
<path d="M175.009 0H36.2353C34.8717 0 33.6328 1.02179 33.5774 2.38187C33.5151 3.81099 34.6572 4.98466 36.0761 4.98466H174.989C175.002 4.98466 175.009 4.99847 175.009 5.00537V121.206H5.04595V5.00537C5.04595 4.99156 5.05979 4.98466 5.06671 4.98466H25.6174C27.0363 4.98466 28.1784 3.80408 28.1161 2.37496C28.0538 1.01488 26.8287 0 25.472 0C21.7758 0 11.3378 0 5.04595 0C2.28417 0 0.0484467 2.22998 0.0484467 4.98466V121.206H0C0 123.961 2.23572 126.191 4.9975 126.191H44.8598C44.8252 126.294 44.7906 126.405 44.7629 126.515L33.1759 174.221C32.8506 175.554 33.1413 176.879 33.9858 177.956C35.0102 179.254 36.7268 180 38.6926 180H51.0271C54.3011 180 57.2567 178.005 57.9004 175.361L69.4874 127.654C69.6051 127.164 69.6397 126.674 69.5982 126.197H77.8004C77.745 126.467 77.7035 126.743 77.6966 127.026L76.4714 174.732C76.4368 175.975 76.9283 177.176 77.8489 178.122C79.0186 179.317 80.7699 180 82.6664 180H95.0009C98.4826 180 101.265 177.742 101.334 174.857L102.56 127.15C102.566 126.826 102.539 126.508 102.476 126.197H109.89C109.848 126.674 109.883 127.164 110 127.654L121.587 175.361C122.231 178.005 125.187 180 128.461 180H140.795C142.768 180 144.485 179.254 145.502 177.956C146.346 176.886 146.637 175.561 146.312 174.221L134.725 126.515C134.697 126.405 134.663 126.301 134.628 126.191H175.002C177.764 126.191 180 123.961 180 121.206V4.98466C180.007 2.22998 177.771 0 175.009 0ZM53.1936 174.214C53.0967 174.491 52.2176 175.167 51.0271 175.167H38.6926C38.3534 175.167 38.1111 175.112 37.9589 175.05L49.4697 127.661C49.5666 127.385 50.4457 126.708 51.6362 126.708H63.9708C64.3099 126.708 64.5522 126.764 64.7045 126.826L53.1936 174.214ZM96.496 174.656C96.3645 174.829 95.8246 175.167 95.0009 175.167H82.6664C81.9189 175.167 81.4551 174.891 81.3236 174.746L82.5487 127.226C82.6802 127.054 83.2201 126.715 84.0438 126.715H96.3715C97.119 126.715 97.5828 126.991 97.7143 127.136L96.496 174.656ZM141.543 175.05C141.39 175.105 141.148 175.167 140.809 175.167H128.475C127.284 175.167 126.405 174.491 126.308 174.228L114.797 126.833C114.949 126.777 115.192 126.715 115.531 126.715H127.865C129.056 126.715 129.935 127.392 130.032 127.654L141.543 175.05Z" fill="#644C6E"/>
<path d="M165.43 11.5779H12.8398C10.971 11.5779 9.4551 13.0899 9.4551 14.954V79.8236C9.4551 81.1767 10.5557 82.2814 11.9192 82.2814C13.2759 82.2814 14.3834 81.1836 14.3834 79.8236V16.4867H165.444V109.662H14.1826V89.8205C14.1826 88.4673 13.0821 87.3627 11.7185 87.3627C10.3618 87.3627 9.25437 88.4604 9.25437 89.8205V109.662C9.25437 112.376 11.4555 114.571 14.1757 114.571H165.395C168.136 114.571 170.351 112.355 170.351 109.628V109.662V16.4867C170.358 13.7803 168.15 11.5779 165.43 11.5779Z" fill="#644C6E"/>
<path d="M47.2132 95.1711C45.8358 95.1711 44.7145 96.2895 44.7145 97.6634C44.7145 99.0373 45.8358 100.156 47.2132 100.156H52.6745V104.616C52.6745 105.99 53.7958 107.108 55.1732 107.108C56.5507 107.108 57.672 105.99 57.672 104.616V100.156H122.01C121.954 100.197 121.899 100.232 121.843 100.273C120.833 100.957 119.829 101.64 118.819 102.317C118.41 102.593 118.002 102.869 117.594 103.145C117.109 103.47 116.583 103.767 116.161 104.167C115.275 105.016 114.797 106.597 115.482 107.695C116.188 108.82 117.6 108.896 118.618 108.206L130.267 100.328L132.517 98.8026C133.514 98.1329 133.472 96.6554 132.448 96.0341L118.438 87.5353C117.393 86.9001 115.967 87.2108 115.261 88.4052C114.513 89.6755 115.496 91.367 116.618 92.0436C117.178 92.3819 117.732 92.7202 118.286 93.0585C119.199 93.6108 120.113 94.17 121.027 94.7223C121.262 94.8673 121.504 95.0123 121.74 95.1573H95.5478C95.5685 95.0537 95.5824 94.9501 95.5824 94.8466V93.5417C95.5824 92.5268 94.7587 91.6984 93.7343 91.6984C92.7099 91.6984 91.8862 92.5199 91.8862 93.5417V94.8466C91.8862 94.9501 91.9 95.0537 91.9208 95.1573H57.672V60.6651H58.8764C59.8939 60.6651 60.7245 59.8435 60.7245 58.8217C60.7245 57.8 59.9008 56.9784 58.8764 56.9784H57.672V29.9908C57.7135 30.046 57.7481 30.1013 57.7896 30.1565C58.4749 31.1645 59.1602 32.1655 59.8385 33.1735C60.1154 33.5808 60.3922 33.9882 60.6691 34.3955C60.9944 34.8788 61.2921 35.4035 61.6935 35.8247C62.5449 36.7084 64.13 37.1847 65.2305 36.5012C66.3588 35.797 66.4349 34.3886 65.7427 33.3737L57.845 21.7544L56.3153 19.5106C55.6439 18.5164 54.1627 18.5579 53.5397 19.5796L45.019 33.5532C44.3822 34.5957 44.6937 36.018 45.8912 36.7222C47.1648 37.4678 48.8606 36.4874 49.5389 35.369C49.8781 34.8098 50.2173 34.2575 50.5564 33.7051C51.1102 32.7938 51.6708 31.8825 52.2246 30.9712C52.3699 30.7364 52.5153 30.4948 52.6606 30.2601V95.1573H47.2132V95.1711Z" fill="#644C6E"/>
<path d="M73.9658 60.672C74.9833 60.672 75.8139 59.8504 75.8139 58.8286C75.8139 57.8068 74.9902 56.9853 73.9658 56.9853H68.0408C67.0233 56.9853 66.1926 57.8068 66.1926 58.8286C66.1926 59.8504 67.0163 60.672 68.0408 60.672H73.9658Z" fill="#644C6E"/>
<path d="M93.7343 76.6616C92.7168 76.6616 91.8862 77.4831 91.8862 78.5049V84.4147C91.8862 85.4296 92.7099 86.258 93.7343 86.258C94.7587 86.258 95.5824 85.4365 95.5824 84.4147V78.5049C95.5824 77.49 94.7587 76.6616 93.7343 76.6616Z" fill="#644C6E"/>
<path d="M63.5555 79.9064C64.0331 81.1491 65.4382 81.7774 66.6841 81.2941C67.4662 80.9972 68.2553 80.6658 69.0237 80.3206C74.7895 77.7109 84.8121 71.7321 89.2559 66.6439C89.3044 66.5818 89.3459 66.5196 89.3874 66.4575C90.1557 66.8786 91.0002 67.1893 91.8931 67.3619V69.1707C91.8931 70.1856 92.7168 71.0141 93.7412 71.0141C94.7656 71.0141 95.5893 70.1925 95.5893 69.1707V67.286C96.3991 67.0926 97.1675 66.7958 97.8735 66.3954C97.9289 66.4782 97.9842 66.5611 98.0534 66.6439C102.497 71.7321 112.52 77.7109 118.286 80.3206C119.054 80.6658 119.843 80.9972 120.625 81.2941C121.878 81.7705 123.276 81.1491 123.754 79.9064C124.231 78.6568 123.609 77.2622 122.363 76.7858C121.67 76.5235 120.971 76.2266 120.293 75.9228C115.164 73.5962 105.695 68.0385 101.715 63.4681C101.57 63.2955 101.397 63.1643 101.217 63.0469C101.909 61.7973 102.31 60.3613 102.31 58.8355C102.31 57.3443 101.93 55.9359 101.265 54.7069C105.529 50.6405 108.865 46.0149 111.177 40.9336C111.523 40.1672 111.855 39.3802 112.153 38.6C112.631 37.3504 112.008 35.9558 110.762 35.4794C109.509 35.0031 108.111 35.6244 107.633 36.8671C107.37 37.5575 107.072 38.2548 106.768 38.9314C104.705 43.4673 101.708 47.6028 97.8666 51.255C96.5999 50.5439 95.1463 50.1365 93.5958 50.1365C92.1492 50.1365 90.7925 50.4955 89.5882 51.1169C85.4351 47.3197 82.2165 42.984 80.0361 38.1996C79.7247 37.523 79.4339 36.8257 79.1709 36.1353C78.6933 34.8926 77.2882 34.2644 76.0423 34.7476C74.7964 35.224 74.1665 36.6255 74.651 37.8682C74.9487 38.6484 75.2809 39.4354 75.627 40.2017C78.0358 45.4902 81.5589 50.2815 86.0788 54.4653C85.622 55.2455 85.2828 56.0947 85.0821 56.9991H83.3378C82.3203 56.9991 81.4897 57.8206 81.4897 58.8424C81.4897 59.8642 82.3134 60.6858 83.3378 60.6858H85.0821C85.269 61.5557 85.5874 62.3703 86.0165 63.1229C85.8781 63.2264 85.7397 63.3438 85.622 63.4819C81.6351 68.0454 72.173 73.61 67.044 75.9366C66.3657 76.2473 65.6666 76.5373 64.9744 76.7996C63.7008 77.2691 63.0779 78.6637 63.5555 79.9064ZM93.5751 54.9762C94.4403 54.9762 95.2432 55.2662 95.8869 55.7495C95.9492 55.853 96.0184 55.9566 96.1015 56.0532C96.2607 56.2396 96.4545 56.3777 96.6483 56.502C97.1467 57.151 97.4443 57.9587 97.4443 58.8355C97.4443 60.9619 95.707 62.6948 93.5751 62.6948C91.4432 62.6948 89.7058 60.9619 89.7058 58.8355C89.7058 56.7022 91.4432 54.9762 93.5751 54.9762Z" fill="#644C6E"/>
</svg>
