<svg width="21" height="21" viewBox="0 0 21 21" fill="none" xmlns="http://www.w3.org/2000/svg">
<path d="M10.3031 0.0287091C10.1719 0.0820294 10.1309 0.278904 10.1309 0.840818V1.39453H5.17207C0.221484 1.39453 0.217383 1.39453 0.106641 1.48066L0 1.56269V8.71582C0 12.6492 0.0123047 15.8977 0.0246094 15.9346C0.0984375 16.1232 -0.0164063 16.1191 4.95059 16.1191H9.61816L7.43203 18.3053C5.26641 20.475 5.25 20.4873 5.25 20.6555C5.25 20.877 5.37715 21 5.60273 21C5.75859 21 5.80371 20.959 7.94473 18.818L10.1309 16.6318V18.3258C10.1309 20.1059 10.1391 20.2084 10.3154 20.2781C10.4016 20.3109 10.5984 20.3109 10.6846 20.2781C10.8609 20.2084 10.8691 20.1059 10.8691 18.3258V16.6318L13.0553 18.818C15.225 20.9836 15.2373 21 15.4055 21C15.627 21 15.75 20.8729 15.75 20.6473C15.75 20.4914 15.709 20.4463 13.568 18.3053L11.3818 16.1191H16.0494C21.0164 16.1191 20.9016 16.1232 20.9754 15.9346C20.9877 15.8977 21 12.6492 21 8.71582V1.56269L20.8934 1.48066C20.7826 1.39453 20.7785 1.39453 15.8279 1.39453H10.8691V0.840818C10.8691 0.114842 10.8158 -0.0041034 10.4877 0.00409972C10.4139 0.00409972 10.3318 0.0164044 10.3031 0.0287091ZM10.7215 2.93672L10.8281 3.04746V3.98262V4.92187H14.0438H17.2553L17.366 5.02851L17.4727 5.13926V6.13183V7.12441L17.3701 7.21875C17.2389 7.3418 17.0461 7.3459 16.9271 7.22285C16.841 7.14082 16.8369 7.0957 16.8246 6.35742L16.8123 5.57812H13.8182H10.8281V6.33281C10.8281 7.06699 10.824 7.0957 10.7338 7.20234C10.6641 7.28437 10.5984 7.31308 10.5 7.31308C10.4016 7.31308 10.3359 7.28437 10.2662 7.20234C10.176 7.0957 10.1719 7.06699 10.1719 6.33281V5.57812H7.18184H4.1877L4.17539 6.35742C4.16309 7.0957 4.15898 7.14082 4.07285 7.22285C3.95391 7.3459 3.76113 7.3418 3.62988 7.21875L3.52734 7.12441V6.13183V5.13926L3.63398 5.02851L3.74473 4.92187H6.95625H10.1719V3.98262V3.04746L10.2785 2.93672C10.3441 2.87519 10.4344 2.83008 10.5 2.83008C10.5656 2.83008 10.6559 2.87519 10.7215 2.93672ZM4.33535 8.17031C4.65938 8.28926 4.9998 8.62969 5.11875 8.95371C5.30742 9.45 5.20078 9.99551 4.84805 10.3729C4.51172 10.7297 4.01133 10.8896 3.56426 10.7871C2.69063 10.5861 2.23125 9.63047 2.6291 8.84297C2.94492 8.21133 3.6791 7.92422 4.33535 8.17031ZM10.9799 8.16621C11.4146 8.33027 11.7797 8.77734 11.8494 9.23262C11.8945 9.50332 11.833 9.86016 11.7018 10.1021C11.3654 10.7133 10.5738 10.984 9.9627 10.701C9.51152 10.4877 9.22441 10.1227 9.15469 9.66738C8.99063 8.63379 10.0037 7.80527 10.9799 8.16621ZM17.7188 8.20722C18.5842 8.61738 18.7852 9.77812 18.1002 10.4221C17.6572 10.8404 17.1199 10.9307 16.5785 10.6846C15.9305 10.3893 15.627 9.63047 15.8813 8.95371C15.9961 8.63789 16.3406 8.29336 16.6523 8.17031C16.9682 8.04316 17.407 8.05957 17.7188 8.20722ZM4.14258 11.6074C4.4707 11.6689 4.77422 11.8248 5.01621 12.0545C5.43047 12.4482 5.57813 12.8584 5.57813 13.6295C5.57813 14.0889 5.57402 14.1176 5.47559 14.2119L5.37715 14.3145H3.85547H2.33379L2.23535 14.2119C2.13691 14.1176 2.13281 14.093 2.13281 13.5803C2.13281 13.1824 2.15332 12.9896 2.20664 12.8092C2.3543 12.3416 2.67832 11.9643 3.10078 11.7633C3.49043 11.5828 3.77754 11.5377 4.14258 11.6074ZM10.7912 11.6074C11.4516 11.7346 11.9971 12.2391 12.1652 12.8748C12.198 13.0143 12.2227 13.3014 12.2227 13.609C12.2227 14.0889 12.2186 14.1176 12.1201 14.2119L12.0217 14.3145H10.5H8.97832L8.87988 14.2119C8.78145 14.1176 8.77734 14.0889 8.77734 13.609C8.77734 12.842 8.89629 12.5016 9.29824 12.0873C9.57715 11.7961 10.0529 11.5869 10.4631 11.5705C10.5246 11.5664 10.6682 11.5869 10.7912 11.6074ZM17.4357 11.6074C17.9156 11.6977 18.3504 11.993 18.6047 12.3949C18.8057 12.7066 18.8672 12.9937 18.8672 13.5803C18.8672 14.093 18.8631 14.1176 18.7646 14.2119L18.6662 14.3145H17.1445H15.6229L15.5244 14.2119C15.426 14.1176 15.4219 14.0889 15.4219 13.6295C15.4219 12.8584 15.5695 12.4482 15.9838 12.0545C16.3898 11.6689 16.9107 11.509 17.4357 11.6074Z" fill="white"/>
<path d="M3.54708 8.79375C3.27637 8.9127 3.0836 9.28184 3.14102 9.57715C3.19844 9.90117 3.53067 10.1719 3.85879 10.1719C4.07208 10.1719 4.35098 10.0119 4.46172 9.81914C4.58477 9.60996 4.57247 9.20801 4.44532 9.03574C4.24844 8.77324 3.84239 8.6625 3.54708 8.79375Z" fill="white"/>
<path d="M10.1928 8.79805C9.91387 8.94981 9.79902 9.13438 9.79492 9.4338C9.79492 9.68809 9.90566 9.91778 10.0861 10.0367C10.5865 10.3731 11.21 10.0367 11.2059 9.4338C11.2018 9.1877 11.1197 9.01954 10.927 8.87598C10.7424 8.73243 10.3814 8.69551 10.1928 8.79805Z" fill="white"/>
<path d="M16.7999 8.83097C16.5538 8.97042 16.4717 9.10577 16.4594 9.40519C16.4389 9.72921 16.5497 9.93839 16.8122 10.0778C17.0418 10.1968 17.2387 10.1968 17.4725 10.0778C17.895 9.86866 17.9975 9.34366 17.6899 8.97863C17.4766 8.72843 17.0911 8.66281 16.7999 8.83097Z" fill="white"/>
<path d="M3.49453 12.2965C3.05156 12.4564 2.78906 12.8461 2.78906 13.3588V13.6582H3.85547H4.92188V13.4203C4.92188 12.7518 4.54863 12.3047 3.9375 12.2432C3.77344 12.2268 3.65449 12.2432 3.49453 12.2965Z" fill="white"/>
<path d="M10.1391 12.3006C9.69609 12.4523 9.43359 12.8461 9.43359 13.3588V13.6582H10.5H11.5664V13.3588C11.5664 12.8379 11.2793 12.4236 10.824 12.2883C10.5492 12.2062 10.4098 12.2062 10.1391 12.3006Z" fill="white"/>
<path d="M16.8533 12.2801C16.3652 12.4113 16.0781 12.8297 16.0781 13.4203V13.6582H17.1445H18.2109V13.3588C18.2109 12.8379 17.9238 12.4236 17.4686 12.2883C17.2143 12.2104 17.1076 12.2104 16.8533 12.2801Z" fill="white"/>
</svg>
