<svg width="15" height="20" viewBox="0 0 15 20" fill="none" xmlns="http://www.w3.org/2000/svg">
<path d="M6.43791 0.653412C5.90175 0.709038 5.25593 0.838832 4.71165 1.002C2.85542 1.55455 1.40943 2.6337 0.18278 4.37665C0.0121853 4.61399 0 4.65107 0 4.87728C0 5.05899 0.0203089 5.14058 0.0812354 5.21475C0.174656 5.326 2.6564 7.06895 2.94072 7.22099C3.156 7.33966 3.40783 7.3582 3.60685 7.2692C3.67996 7.23583 3.91961 7.00591 4.14301 6.76115C4.3664 6.51269 4.76852 6.10476 5.03659 5.8563C5.46714 5.46321 5.56463 5.38904 5.86926 5.25554C7.02686 4.74749 8.52159 4.93291 9.36238 5.69313C9.73606 6.02689 9.83761 6.30873 9.7645 6.78711C9.65483 7.51025 9.26084 7.89221 8.03824 8.44847C6.46228 9.1679 5.25187 10.2878 4.82944 11.4115C4.68728 11.7972 4.6426 12.1495 4.65885 12.7762C4.67104 13.3213 4.6751 13.3621 4.78883 13.5661C4.99192 13.948 4.84569 13.9258 7.20964 13.9258C9.13086 13.9258 9.27302 13.9221 9.403 13.8553C9.63046 13.7478 9.76043 13.5438 9.82542 13.1915C9.92697 12.6686 10.2519 12.1383 10.7515 11.6933C10.9424 11.5227 11.2064 11.3522 11.6248 11.1259C12.5143 10.6476 12.5955 10.5956 13.0302 10.2804C14.1025 9.50166 14.5777 8.81931 14.9067 7.58442C15.0082 7.20616 15.0326 6.20118 14.9514 5.7673C14.8255 5.1072 14.5939 4.53611 14.2284 3.98726C13.4445 2.8117 12.4412 1.99956 10.9668 1.35059C10.0976 0.968626 9.45986 0.783206 8.61095 0.664537C8.20884 0.608911 6.9375 0.601494 6.43791 0.653412Z" fill="white"/>
<path d="M4.97651 14.9354C4.9034 14.9836 4.80185 15.0689 4.75717 15.1245C4.67188 15.2283 4.67188 15.258 4.67188 17.2272C4.67188 19.1964 4.67188 19.226 4.75717 19.3299C4.80185 19.3855 4.9034 19.4708 4.97651 19.519L5.11055 19.6006H7.27142H9.4323L9.56634 19.5153C9.63945 19.4708 9.74099 19.3855 9.78567 19.3299C9.87097 19.226 9.87097 19.1964 9.87097 17.2272C9.87097 15.258 9.87097 15.2283 9.78567 15.1245C9.74099 15.0689 9.63945 14.9836 9.56634 14.9354L9.4323 14.8538H7.27142H5.11055L4.97651 14.9354Z" fill="white"/>
</svg>
