<svg width="21" height="20" viewBox="0 0 21 20" fill="none" xmlns="http://www.w3.org/2000/svg">
<path d="M13.2828 12.23C12.612 12.769 11.7764 13.0629 10.9147 13.0629C10.0531 13.0629 9.21746 12.769 8.54669 12.23C8.34178 12.0603 8.0776 11.9786 7.81227 12.003C7.54694 12.0274 7.3022 12.1558 7.13188 12.36C6.96156 12.5642 6.87962 12.8275 6.90409 13.0919C6.92855 13.3563 7.05741 13.6003 7.26232 13.77C8.28715 14.6226 9.57977 15.0896 10.9147 15.0896C12.2497 15.0896 13.5423 14.6226 14.5672 13.77C14.7721 13.6003 14.9009 13.3563 14.9254 13.0919C14.9499 12.8275 14.8679 12.5642 14.6976 12.36C14.6133 12.2589 14.5098 12.1753 14.393 12.1141C14.2763 12.0528 14.1486 12.0151 14.0172 12.003C13.7519 11.9786 13.4877 12.0603 13.2828 12.23ZM7.90451 9C8.10297 9 8.29697 8.94135 8.46198 8.83147C8.62699 8.72159 8.7556 8.56541 8.83154 8.38268C8.90749 8.19996 8.92736 7.99889 8.88864 7.80491C8.84993 7.61093 8.75436 7.43275 8.61403 7.29289C8.4737 7.15304 8.29491 7.0578 8.10027 7.01921C7.90562 6.98063 7.70387 7.00043 7.52052 7.07612C7.33717 7.15181 7.18046 7.27998 7.0702 7.44443C6.95995 7.60888 6.9011 7.80222 6.9011 8C6.9011 8.26522 7.00681 8.51957 7.19499 8.70711C7.38317 8.89464 7.63839 9 7.90451 9ZM13.925 7C13.7265 7 13.5325 7.05865 13.3675 7.16853C13.2025 7.27841 13.0739 7.43459 12.998 7.61732C12.922 7.80004 12.9021 8.00111 12.9409 8.19509C12.9796 8.38907 13.0751 8.56725 13.2155 8.70711C13.3558 8.84696 13.5346 8.9422 13.7292 8.98079C13.9239 9.01937 14.1256 8.99957 14.309 8.92388C14.4923 8.84819 14.649 8.72002 14.7593 8.55557C14.8696 8.39112 14.9284 8.19778 14.9284 8C14.9284 7.73478 14.8227 7.48043 14.6345 7.29289C14.4463 7.10536 14.1911 7 13.925 7ZM10.9147 0C8.93019 0 6.99019 0.58649 5.34009 1.6853C3.68998 2.78412 2.40388 4.3459 1.64442 6.17317C0.884963 8.00043 0.686254 10.0111 1.07342 11.9509C1.46059 13.8907 2.41625 15.6725 3.81955 17.0711C5.22285 18.4696 7.01076 19.422 8.95719 19.8079C10.9036 20.1937 12.9211 19.9957 14.7546 19.2388C16.5881 18.4819 18.1553 17.2002 19.2578 15.5557C20.3604 13.9112 20.9489 11.9778 20.9489 10C20.9489 8.68678 20.6893 7.38642 20.1851 6.17317C19.6808 4.95991 18.9417 3.85752 18.0099 2.92893C17.0782 2.00035 15.972 1.26375 14.7546 0.761205C13.5372 0.258658 12.2324 0 10.9147 0ZM10.9147 18C9.3271 18 7.7751 17.5308 6.45502 16.6518C5.13493 15.7727 4.10606 14.5233 3.49849 13.0615C2.89092 11.5997 2.73195 9.99113 3.04169 8.43928C3.35142 6.88743 4.11595 5.46197 5.23859 4.34315C6.36123 3.22433 7.79156 2.4624 9.3487 2.15372C10.9058 1.84504 12.5199 2.00346 13.9867 2.60896C15.4535 3.21447 16.7072 4.23984 17.5892 5.55544C18.4713 6.87103 18.9421 8.41775 18.9421 10C18.9421 12.1217 18.0963 14.1566 16.5909 15.6569C15.0855 17.1571 13.0437 18 10.9147 18Z" fill="#828282"/>
</svg>
