<svg width="12" height="12" viewBox="0 0 12 12" fill="none" xmlns="http://www.w3.org/2000/svg">
<path d="M5.96676 0.331574C4.81813 0.331574 3.69529 0.672182 2.74024 1.31033C1.78519 1.94847 1.04082 2.85549 0.601258 3.91669C0.161696 4.97788 0.0466866 6.14559 0.270773 7.27215C0.49486 8.39871 1.04798 9.43352 1.86018 10.2457C2.67239 11.0579 3.7072 11.611 4.83376 11.8351C5.96032 12.0592 7.12803 11.9442 8.18922 11.5047C9.25042 11.0651 10.1574 10.3207 10.7956 9.36567C11.4337 8.41061 11.7743 7.28778 11.7743 6.13915C11.7744 5.37647 11.6242 4.62125 11.3324 3.91661C11.0406 3.21198 10.6128 2.57173 10.0735 2.03243C9.53418 1.49314 8.89393 1.06536 8.1893 0.77352C7.48466 0.481684 6.72944 0.33151 5.96676 0.331574ZM7.81328 9.13149C7.79155 9.18569 7.75847 9.23462 7.71628 9.27499C7.67409 9.31537 7.62375 9.34626 7.56864 9.36559C7.51354 9.38492 7.45493 9.39225 7.39676 9.38708C7.33859 9.38191 7.2822 9.36437 7.23137 9.33562L5.6548 8.11058L4.64293 9.0441C4.61945 9.06145 4.59199 9.07261 4.56307 9.07656C4.53414 9.08051 4.50469 9.07713 4.47742 9.06671L4.67139 7.33114L4.6776 7.33607L4.68157 7.3018C4.68157 7.3018 7.51857 4.71888 7.63414 4.60883C7.75114 4.49907 7.71254 4.47526 7.71254 4.47526C7.7192 4.34137 7.50258 4.47526 7.50258 4.47526L3.74362 6.89355L2.17819 6.36042C2.17819 6.36042 1.93776 6.27418 1.91511 6.08456C1.8913 5.89639 2.18603 5.79418 2.18603 5.79418L8.41001 3.3216C8.41001 3.3216 8.92165 3.09364 8.92165 3.47115L7.81328 9.13149Z" fill="#D5D6D8"/>
</svg>
