<?xml version="1.0" encoding="utf-8"?>
<!-- Generator: Adobe Illustrator 21.1.0, SVG Export Plug-In . SVG Version: 6.00 Build 0)  -->
<svg version="1.1" id="Слой_1" xmlns="http://www.w3.org/2000/svg" xmlns:xlink="http://www.w3.org/1999/xlink" x="0px" y="0px"
	 viewBox="0 0 24 24" style="enable-background:new 0 0 24 24;" xml:space="preserve">
<g>
	<path d="M12,24C5.4,24,0,18.6,0,12C0,5.4,5.4,0,12,0c6.6,0,12,5.4,12,12C24,18.6,18.6,24,12,24z M12,1C5.9,1,1,5.9,1,12
		s4.9,11,11,11s11-4.9,11-11S18.1,1,12,1z"/>
</g>
<g>
	<g>
		<g>
			<path d="M10.4,9.2C3.5,11.9,4,11.7,4,11.9c0,0.2,0.1,0.3,0.2,0.4c0.1,0,0.8,0.3,1.6,0.6l1.4,0.5l0.6,1.9c0.3,1,0.6,1.9,0.6,1.9
				c0.1,0.1,0.3,0.2,0.4,0.1c0,0,0.5-0.3,0.9-0.7c0.5-0.4,0.9-0.7,1-0.8c0.1,0,0.2,0,0.3,0c0,0,0.7,0.5,1.6,1.1
				c0.8,0.6,1.5,1.1,1.6,1.1c0.2,0.1,0.4,0.1,0.5-0.1c0-0.1,2.2-10.7,2.2-10.8c0-0.2-0.1-0.4-0.4-0.3C16.6,6.8,15,7.4,10.4,9.2z
				 M14.2,9.2C14.2,9.2,14.2,9.3,14.2,9.2c0,0.1-1.1,1.1-2.4,2.4c-1.6,1.4-2.5,2.3-2.5,2.4c-0.1,0.2-0.1,0.3-0.2,1
				c-0.1,0.5-0.1,0.7-0.1,0.7c0,0-0.1,0-0.1,0c-0.1,0-0.1-0.1-0.4-1.2c-0.2-0.7-0.3-1.2-0.3-1.3c0-0.1,0.1-0.4,0.2-0.4
				C8.3,12.8,14.1,9.2,14.2,9.2C14.1,9.2,14.1,9.2,14.2,9.2z"/>
		</g>
	</g>
</g>
</svg>
