<svg width="24" height="24" viewBox="0 0 24 24" fill="none" xmlns="http://www.w3.org/2000/svg">
<circle cx="12" cy="12" r="11.5" stroke="white"/>
<g clip-path="url(#clip0)">
<path d="M10.3604 9.2219C3.46936 11.8803 4.00002 11.6569 4.00002 11.9184C4.00002 12.1063 4.06604 12.2078 4.23615 12.2815C4.30725 12.3119 5.00803 12.576 5.79006 12.868L7.21447 13.3987L7.79338 15.2649C8.1133 16.2932 8.39514 17.1692 8.42053 17.2123C8.50178 17.3469 8.70236 17.4104 8.85471 17.352C8.88772 17.3393 9.30666 17.0067 9.78908 16.6156C10.2715 16.2221 10.7031 15.8819 10.7514 15.8615C10.8606 15.8158 10.985 15.8158 11.0992 15.8641C11.1475 15.8844 11.8457 16.3795 12.6531 16.9635C13.458 17.55 14.1639 18.0578 14.2172 18.0959C14.3899 18.2127 14.6438 18.1696 14.7504 18.0045C14.7961 17.9334 17 7.33791 17 7.18811C17 6.9799 16.8528 6.83518 16.6395 6.84025C16.5582 6.84025 14.9713 7.44201 10.3604 9.2219ZM14.1512 9.20412C14.169 9.2219 14.1817 9.25236 14.1817 9.27775C14.1817 9.30061 13.0721 10.3492 11.7162 11.6112C10.1598 13.0584 9.22287 13.9446 9.17717 14.0182C9.06545 14.1934 9.03498 14.3254 8.9385 15.0389C8.86486 15.5746 8.84201 15.694 8.79885 15.7346C8.75822 15.7752 8.73537 15.7803 8.67951 15.76C8.61096 15.7371 8.59826 15.699 8.27326 14.5692C8.07014 13.8633 7.93811 13.3555 7.93557 13.2844C7.93557 13.1397 8.03713 12.9264 8.14631 12.8502C8.25041 12.774 14.0877 9.17619 14.108 9.17365C14.1156 9.17365 14.1334 9.18635 14.1512 9.20412Z" fill="white"/>
</g>
<defs>
<clipPath id="clip0">
<rect width="13" height="13" fill="white" transform="translate(4 6)"/>
</clipPath>
</defs>
</svg>
