<svg width="24" height="24" viewBox="0 0 24 24" fill="none" xmlns="http://www.w3.org/2000/svg">
<circle cx="12" cy="12" r="11.5" stroke="white"/>
<path d="M14.2695 7.32887C13.2523 7.51208 12.4785 8.09723 12.0629 8.99958C11.8988 9.35505 11.8305 9.6777 11.825 10.1015C11.825 10.3039 11.8332 10.5472 11.8441 10.6402L11.866 10.8125H11.7457C11.6035 10.8125 11.084 10.7468 10.7969 10.6894C9.01133 10.3476 7.39531 9.42614 6.19492 8.06442C6.08828 7.94411 5.99258 7.84294 5.98164 7.83747C5.95156 7.8238 5.82578 8.08083 5.74648 8.31052C5.36914 9.40973 5.64531 10.5773 6.46836 11.3593C6.56953 11.4578 6.69258 11.5644 6.73633 11.5972L6.81836 11.6574L6.70898 11.6437C6.32891 11.5972 6.02539 11.5152 5.79297 11.4004C5.72461 11.3675 5.63984 11.3293 5.6043 11.3183L5.53867 11.2992L5.56055 11.5535C5.65078 12.7129 6.4082 13.6972 7.49375 14.0691L7.78359 14.1675L7.58945 14.1976C7.22852 14.255 7.09453 14.2605 6.83477 14.2304C6.69258 14.214 6.57227 14.2058 6.5668 14.214C6.54492 14.2332 6.69805 14.5914 6.80742 14.78C7.24766 15.5429 8.09258 16.1062 8.91016 16.1883C9.2082 16.2183 9.20547 16.2156 9.02773 16.3441C8.30586 16.8746 7.41719 17.2246 6.44922 17.364C6.14844 17.4078 5.31445 17.4242 5.11484 17.3886C5.05195 17.3777 5 17.3804 5 17.3941C5 17.4215 5.45391 17.6867 5.78477 17.8508C6.6625 18.2855 7.63047 18.5617 8.64766 18.6629C9.06601 18.7039 10.2117 18.6793 10.6055 18.6218C11.5844 18.4742 12.2762 18.2636 13.1074 17.8535C15.4562 16.6941 17.0914 14.3754 17.5098 11.6054C17.5344 11.4468 17.5617 11.0558 17.5699 10.7359L17.5863 10.1507L17.8352 9.95387C18.1469 9.70231 18.6172 9.21559 18.8359 8.90934C18.9289 8.78083 19 8.67145 18.9918 8.66325C18.9863 8.65505 18.8879 8.68512 18.7785 8.72887C18.4586 8.85739 18.1469 8.94762 17.7887 9.02145C17.6082 9.057 17.4551 9.08434 17.4496 9.08161C17.4469 9.07614 17.518 9.01872 17.6055 8.95309C17.8105 8.80544 18.1332 8.46911 18.2699 8.26403C18.3848 8.09177 18.5789 7.69528 18.6062 7.58044C18.6227 7.50661 18.6172 7.50934 18.2562 7.68981C17.8953 7.87302 17.4004 8.05622 16.9984 8.15466L16.7906 8.20934L16.6703 8.0863C16.3969 7.80739 15.8418 7.50114 15.418 7.39177C15.243 7.34802 15.0816 7.33161 14.7617 7.32614C14.5293 7.32067 14.3078 7.32341 14.2695 7.32887Z" fill="white"/>
</svg>
