<svg width="19" height="19" viewBox="0 0 19 19" fill="none" xmlns="http://www.w3.org/2000/svg">
<g clip-path="url(#clip0)">
<path d="M8.52781 0.0600592C7.15476 0.271583 6.25672 1.06572 5.90418 2.3794C5.71492 3.07705 5.62215 4.23857 5.68523 5.0958C5.83367 7.14424 7.08426 8.81045 8.78016 9.22979C9.12527 9.31143 9.87488 9.31143 10.22 9.22979C11.9233 8.81045 13.1702 7.14053 13.3149 5.08467C13.3743 4.2126 13.2852 3.07334 13.096 2.3794C12.7397 1.05088 11.8417 0.267872 10.4389 0.0563483C9.98621 -0.0104486 8.96941 -0.0104486 8.52781 0.0600592Z" fill="white"/>
<path d="M7.05088 9.69353C5.18057 10.0943 4.23428 10.4802 3.54775 11.1297C2.65713 11.9758 2.33799 13.167 2.27861 15.9019L2.25635 16.9039L2.45303 17.1228C3.20635 17.9578 4.74268 18.5738 6.77256 18.8521C8.21982 19.0488 10.7804 19.0488 12.2276 18.8521C14.2575 18.5738 15.7938 17.9578 16.5472 17.1228L16.7438 16.9039L16.7216 15.8648C16.6919 14.4658 16.6065 13.6494 16.4173 12.8961C16.1204 11.7011 15.5118 10.9627 14.3874 10.4283C13.7899 10.1426 12.7397 9.83083 11.8528 9.6824L11.5856 9.63415L11.4075 9.79372C11.1774 9.99411 10.6394 10.2576 10.2794 10.3429C9.89717 10.432 9.10303 10.432 8.7208 10.3429C8.36455 10.2576 7.82275 9.99783 7.6001 9.80115C7.41826 9.63786 7.35889 9.62673 7.05088 9.69353Z" fill="white"/>
</g>
<defs>
<clipPath id="clip0">
<rect width="19" height="19" fill="white"/>
</clipPath>
</defs>
</svg>
