<svg width="21" height="20" viewBox="0 0 21 20" fill="none" xmlns="http://www.w3.org/2000/svg">
<path d="M7.49901 11H9.44795V13C9.44795 13.2652 9.55061 13.5196 9.73336 13.7071C9.91611 13.8946 10.164 14 10.4224 14C10.6809 14 10.9287 13.8946 11.1115 13.7071C11.2942 13.5196 11.3969 13.2652 11.3969 13V11H13.3458C13.6043 11 13.8521 10.8946 14.0349 10.7071C14.2176 10.5196 14.3203 10.2652 14.3203 10C14.3203 9.73478 14.2176 9.48043 14.0349 9.29289C13.8521 9.10536 13.6043 9 13.3458 9H11.3969V7C11.3969 6.73478 11.2942 6.48043 11.1115 6.29289C10.9287 6.10536 10.6809 6 10.4224 6C10.164 6 9.91611 6.10536 9.73336 6.29289C9.55061 6.48043 9.44795 6.73478 9.44795 7V9H7.49901C7.24057 9 6.99271 9.10536 6.80996 9.29289C6.62721 9.48043 6.52454 9.73478 6.52454 10C6.52454 10.2652 6.62721 10.5196 6.80996 10.7071C6.99271 10.8946 7.24057 11 7.49901 11ZM19.1926 0H1.6522C1.39376 0 1.1459 0.105357 0.963149 0.292893C0.780401 0.48043 0.677734 0.734784 0.677734 1V19C0.677734 19.2652 0.780401 19.5196 0.963149 19.7071C1.1459 19.8946 1.39376 20 1.6522 20H19.1926C19.4511 20 19.6989 19.8946 19.8817 19.7071C20.0644 19.5196 20.1671 19.2652 20.1671 19V1C20.1671 0.734784 20.0644 0.48043 19.8817 0.292893C19.6989 0.105357 19.4511 0 19.1926 0ZM18.2182 18H2.62667V2H18.2182V18Z" fill="#408B6E"/>
</svg>
