<?xml version="1.0" encoding="utf-8"?>
<!-- Generator: Adobe Illustrator 21.1.0, SVG Export Plug-In . SVG Version: 6.00 Build 0)  -->
<svg version="1.1" id="Слой_1" xmlns="http://www.w3.org/2000/svg" xmlns:xlink="http://www.w3.org/1999/xlink" x="0px" y="0px"
	 viewBox="0 0 24 24" style="enable-background:new 0 0 24 24;" xml:space="preserve">
<g>
	<path d="M12,24C5.4,24,0,18.6,0,12C0,5.4,5.4,0,12,0c6.6,0,12,5.4,12,12C24,18.6,18.6,24,12,24z M12,1C5.9,1,1,5.9,1,12
		s4.9,11,11,11s11-4.9,11-11S18.1,1,12,1z"/>
</g>
<g>
	<g>
		<g>
			<path d="M10,8.8c-1.1,0-1.4,0.1-1.6,0.4C8.3,9.3,8.3,9.3,8.4,9.3C8.8,9.4,9,9.5,9.1,9.7c0.2,0.4,0.3,1.2,0.1,2
				c-0.1,0.4-0.2,0.6-0.4,0.6c-0.2,0-0.7-0.2-1-0.7c-0.3-0.4-1.1-1.6-1.3-2.1C6.3,9.3,6.3,9.3,6.1,9.2L5.9,9.1l-1.3,0
				c-0.7,0-1.3,0-1.4,0c-0.1,0-0.2,0-0.2,0.1C3,9.3,3,9.3,3,9.4C3,9.5,3,9.6,3.3,10c0.8,1.4,1.7,2.7,2.6,3.7
				c0.7,0.8,1.2,1.2,1.8,1.6c0.9,0.5,1.6,0.8,2.4,0.9c0.4,0.1,1.8,0.1,2,0c0.3-0.1,0.3-0.2,0.4-0.6c0-0.5,0.2-0.8,0.5-1
				c0.3-0.2,0.5,0,1.3,0.6c0.5,0.5,0.7,0.6,1,0.8c0.2,0.1,0.5,0.2,0.6,0.2c0.1,0,1,0,2.1,0l0.8,0l0.1-0.1c0.2-0.1,0.2-0.2,0.2-0.3
				c0-0.4-0.4-0.8-1.6-1.8c-0.9-0.7-1-0.8-0.9-1c0-0.2,0.1-0.3,0.9-1.2c1.1-1.1,1.4-1.6,1.6-2c0.1-0.2,0.1-0.4,0-0.5
				c-0.2-0.1-0.2-0.1-1.8-0.1c-0.9,0-1.6,0-1.6,0c-0.2,0-0.2,0.1-0.4,0.4c-0.1,0.2-0.3,0.5-0.4,0.8c-0.6,1-1.3,1.8-1.8,2
				c-0.1,0-0.1,0-0.2,0c-0.1,0-0.1-0.1-0.2-0.2c-0.1-0.2-0.1-0.4-0.1-1.6c0-1.1,0-1.3-0.1-1.5c0-0.1-0.1-0.1-0.2-0.2
				c-0.1-0.1-0.5-0.1-0.9-0.2c-0.2,0-0.4,0-0.5,0C10.7,8.8,10.3,8.8,10,8.8z"/>
		</g>
	</g>
</g>
</svg>
