<svg width="16" height="9" viewBox="0 0 16 9" fill="none" xmlns="http://www.w3.org/2000/svg">
<path d="M6.98438 0.794997C5.93438 0.825466 5.58125 0.911794 5.33438 1.19871C5.25313 1.29265 5.26875 1.32058 5.43125 1.34851C5.7625 1.40691 5.99688 1.53894 6.1 1.72176C6.29688 2.08738 6.35 2.96844 6.22188 3.76316C6.15625 4.15672 6.03125 4.37 5.84375 4.40301C5.59688 4.44617 5.18125 4.16941 4.82813 3.72761C4.54688 3.37722 3.75938 2.1407 3.5 1.64304C3.3375 1.33074 3.26875 1.25457 3.075 1.17332L2.92188 1.10984L1.67188 1.11746C0.984375 1.12 0.36875 1.13015 0.303125 1.13777C0.2375 1.14539 0.14375 1.18094 0.09375 1.21648C0.0125 1.2698 0 1.29773 0 1.40945C0 1.51609 0.04375 1.61512 0.253125 1.99597C1.04375 3.42293 1.93125 4.68484 2.86875 5.7157C3.61563 6.53836 4.0625 6.92176 4.69063 7.2823C5.57813 7.79265 6.24688 8.0364 7.04688 8.14305C7.42813 8.19383 8.8375 8.19383 9.00938 8.14558C9.28125 8.06433 9.34688 7.96023 9.37813 7.53367C9.41563 7.02586 9.55625 6.72625 9.8375 6.54851C10.1125 6.37586 10.3844 6.51297 11.1313 7.19598C11.625 7.64793 11.875 7.84598 12.1219 7.97293C12.3125 8.07195 12.5844 8.16336 12.7688 8.19383C12.9125 8.21414 13.7719 8.2116 14.85 8.18367L15.6219 8.16336L15.7719 8.08973C15.9438 8.0034 16 7.92976 16 7.78504C16 7.40926 15.5938 6.95476 14.3594 5.95945C13.4469 5.22312 13.3844 5.15457 13.4156 4.92351C13.4438 4.74578 13.5438 4.62137 14.3594 3.73777C15.4156 2.59519 15.7656 2.15086 15.9406 1.73445C16.0219 1.54402 16.0188 1.32566 15.9375 1.25457C15.7813 1.12 15.7594 1.11746 14.125 1.12254C13.2438 1.12254 12.5625 1.13523 12.4938 1.15047C12.3344 1.18347 12.25 1.27742 12.0938 1.5948C12.0188 1.74715 11.8188 2.095 11.65 2.36668C11.0281 3.37722 10.3 4.20242 9.88438 4.36492C9.79375 4.40301 9.77813 4.40047 9.66563 4.35476C9.5875 4.32176 9.525 4.2659 9.47813 4.19226C9.35313 3.99676 9.34063 3.7657 9.37813 2.60789C9.41563 1.46277 9.40625 1.33836 9.27188 1.12508C9.23438 1.0616 9.16563 0.987966 9.12188 0.962575C9.00313 0.891482 8.59688 0.820388 8.23438 0.805154C8.0625 0.797536 7.85313 0.78738 7.76563 0.782302C7.68125 0.779763 7.32813 0.784841 6.98438 0.794997Z" fill="white"/>
</svg>
