<svg width="21" height="20" viewBox="0 0 21 20" fill="none" xmlns="http://www.w3.org/2000/svg">
<path d="M20.2157 9.72032C20.2157 15.0872 15.8294 19.438 10.4174 19.438C8.69991 19.438 7.08659 18.9989 5.68218 18.23L0.257812 19.952L2.02602 14.7366C1.13443 13.2729 0.620955 11.5542 0.620955 9.71967C0.621606 4.35274 5.00665 0.00195312 10.4187 0.00195312C15.83 0.0032542 20.2157 4.35339 20.2157 9.72032ZM10.4167 1.55153C5.87481 1.55153 2.18026 5.21665 2.18026 9.72227C2.18026 11.5099 2.76337 13.1649 3.74932 14.5115L2.72107 17.545L5.88523 16.5399C7.18681 17.3934 8.74416 17.8904 10.4167 17.8904C14.9586 17.8904 18.6545 14.2259 18.6545 9.72032C18.6558 5.21665 14.9592 1.55153 10.4167 1.55153ZM15.3653 11.9588C15.3042 11.8606 15.1441 11.8007 14.9046 11.681C14.6657 11.5613 13.4832 10.9856 13.2639 10.9075C13.0427 10.8275 12.8826 10.7872 12.7225 11.0259C12.5643 11.2647 12.1036 11.8007 11.9623 11.9608C11.8224 12.1201 11.6825 12.1403 11.4424 12.0226C11.2022 11.9016 10.4278 11.6518 9.51015 10.8405C8.79623 10.2082 8.31399 9.42953 8.17472 9.19078C8.0335 8.95268 8.1604 8.82388 8.2795 8.70548C8.38688 8.59814 8.51964 8.42705 8.64004 8.28718C8.76043 8.14862 8.80013 8.05039 8.88018 7.89101C8.95893 7.73163 8.91923 7.59306 8.86001 7.47271C8.80013 7.35301 8.3205 6.18205 8.1194 5.70521C7.91961 5.22901 7.71981 5.30773 7.57924 5.30773C7.43932 5.30773 7.27923 5.28821 7.11913 5.28821C6.95904 5.28821 6.69872 5.34611 6.4794 5.58486C6.26008 5.8236 5.63923 6.39933 5.63923 7.57159C5.63923 8.74516 6.49892 9.87645 6.61932 10.0352C6.74037 10.1933 8.28145 12.6777 10.7226 13.6313C13.165 14.5844 13.165 14.2663 13.6049 14.2259C14.0462 14.1856 15.0263 13.6502 15.2254 13.0946C15.4259 12.5365 15.4259 12.0583 15.3653 11.9588Z" fill="white"/>
</svg>
