<svg width="24" height="24" viewBox="0 0 24 24" fill="none" xmlns="http://www.w3.org/2000/svg">
<circle cx="12" cy="12" r="11.5" stroke="white"/>
<g clip-path="url(#clip0)">
<path d="M5 12V19H12H19V12V5H12H5V12ZM14.3242 12V16.8398H13.832H13.3398V15.0215V13.2031H12.9625H12.5824L11.7703 14.9996C11.3219 15.9895 10.9473 16.807 10.9363 16.8207C10.9254 16.8316 10.641 16.8371 10.302 16.8344L9.68945 16.8262L10.6957 15.0078C11.2508 14.007 11.7102 13.1758 11.7156 13.1621C11.7238 13.1457 11.609 13.0527 11.4613 12.957C10.816 12.5387 10.3102 11.8797 10.1215 11.2207C9.89727 10.4223 9.99844 9.44336 10.3895 8.67773C10.7012 8.06523 11.2234 7.56484 11.7867 7.32969C11.9617 7.25859 12.1176 7.21758 12.3828 7.17656C12.4211 7.17109 12.8723 7.16562 13.3891 7.16289L14.3242 7.16016V12Z" fill="white"/>
<path d="M12.2433 7.99687C12.0383 8.05976 11.8605 8.17187 11.6801 8.35234C11.2754 8.7625 11.0648 9.51445 11.1086 10.3867C11.1578 11.3492 11.4695 11.9918 12.0136 12.2488C12.2406 12.3582 12.4074 12.3828 12.8777 12.3828H13.2851V10.168V7.95312L12.8285 7.95586C12.514 7.95586 12.3281 7.96953 12.2433 7.99687Z" fill="white"/>
</g>
<defs>
<clipPath id="clip0">
<rect width="14" height="14" fill="white" transform="translate(5 5)"/>
</clipPath>
</defs>
</svg>
