<svg width="13" height="13" viewBox="0 0 13 13" fill="none" xmlns="http://www.w3.org/2000/svg">
<path d="M2.85639 1.93214C2.22671 1.96007 1.78999 2.02355 1.38374 2.1505C0.743894 2.35109 0.335105 2.74464 0.154831 3.33624C0.0177217 3.78312 0.0151826 3.81613 0.00502638 6.06828C-0.00512987 8.25441 0.00502639 8.56164 0.10405 9.0466C0.215769 9.59757 0.396042 9.96574 0.710886 10.2857C1.2187 10.8011 1.8687 11.0118 3.123 11.0728C3.49878 11.0905 4.82417 11.0956 6.98237 11.088C10.4533 11.0753 10.5066 11.0753 11.0703 10.956C12.0732 10.7452 12.6089 10.24 12.8451 9.28019C12.9847 8.71906 12.9873 8.65304 12.9873 6.29679C12.9873 4.65148 12.9796 4.07257 12.9543 3.90246C12.807 2.89699 12.4388 2.41457 11.6162 2.1505C11.215 2.02101 10.8011 1.96261 10.0623 1.9296C9.44527 1.90167 3.49116 1.90421 2.85639 1.93214ZM5.80933 4.77082C6.66499 5.19992 8.37124 6.10128 8.42456 6.15207C8.6023 6.31457 8.59722 6.56085 8.41187 6.73097C8.32808 6.80968 5.64429 8.21632 5.50972 8.25187C5.3396 8.29757 5.14663 8.20617 5.06792 8.03859C5.03237 7.96242 5.02729 7.78214 5.02729 6.42882V4.90792L5.08569 4.8216C5.11616 4.77589 5.18218 4.70988 5.22788 4.67941C5.36753 4.58546 5.47163 4.6007 5.80933 4.77082Z" fill="white"/>
</svg>
