<svg width="38" height="48" viewBox="0 0 38 48" fill="none" xmlns="http://www.w3.org/2000/svg">
<path d="M36.0526 41.6744H35.1053V11.4211C35.1053 10.8979 34.6811 10.4737 34.1579 10.4737H31.3158V1.94737C31.3158 1.42419 30.8916 1 30.3684 1H7.63158C7.1084 1 6.68421 1.42419 6.68421 1.94737V10.4737H3.8421C3.31892 10.4737 2.89474 10.8979 2.89474 11.4211V41.6744H1.94737C1.42419 41.6744 1 42.0986 1 42.6217V46.4112C1 46.9344 1.42419 47.3586 1.94737 47.3586H36.0526C36.5758 47.3586 37 46.9344 37 46.4112V42.6217C37 42.0986 36.5758 41.6744 36.0526 41.6744ZM4.78947 12.3684H7.63158C8.15476 12.3684 8.57895 11.9442 8.57895 11.4211V2.89474H29.4211V11.4211C29.4211 11.9442 29.8452 12.3684 30.3684 12.3684H33.2105V41.6744H29.4211V36.8404C29.4211 36.3172 28.9969 35.893 28.4737 35.893H9.52632C9.00314 35.893 8.57895 36.3172 8.57895 36.8404V41.6744H4.78947V12.3684ZM27.5263 41.6744H10.4737V37.7877H27.5263V41.6744ZM35.1053 45.4638H2.89474V43.5691H35.1053V45.4638Z" fill="#164B71"/>
<path d="M18.0526 12.3684H19.9474V9.52634H22.7895V7.6316H19.9474V4.7895H18.0526V7.6316H15.2105V9.52634H18.0526V12.3684Z" fill="#164B71"/>
<path d="M16.1579 21.842H21.8421C22.3653 21.842 22.7895 21.4178 22.7895 20.8946V15.2104C22.7895 14.6872 22.3653 14.263 21.8421 14.263H16.1579C15.6347 14.263 15.2105 14.6872 15.2105 15.2104V20.8946C15.2105 21.4178 15.6347 21.842 16.1579 21.842ZM17.1053 16.1578H20.8947V19.9473H17.1053V16.1578Z" fill="#164B71"/>
<path d="M24.6842 21.842H30.3684C30.8916 21.842 31.3158 21.4178 31.3158 20.8946V15.2104C31.3158 14.6872 30.8916 14.263 30.3684 14.263H24.6842C24.161 14.263 23.7369 14.6872 23.7369 15.2104V20.8946C23.7369 21.4178 24.161 21.842 24.6842 21.842ZM25.6316 16.1578H29.4211V19.9473H25.6316V16.1578Z" fill="#164B71"/>
<path d="M7.63157 21.842H13.3158C13.839 21.842 14.2631 21.4178 14.2631 20.8946V15.2104C14.2631 14.6872 13.839 14.263 13.3158 14.263H7.63157C7.10839 14.263 6.6842 14.6872 6.6842 15.2104V20.8946C6.6842 21.4178 7.10839 21.842 7.63157 21.842ZM8.57894 16.1578H12.3684V19.9473H8.57894V16.1578Z" fill="#164B71"/>
<path d="M16.1579 31.3157H21.8421C22.3653 31.3157 22.7895 30.8916 22.7895 30.3684V24.6842C22.7895 24.161 22.3653 23.7368 21.8421 23.7368H16.1579C15.6347 23.7368 15.2105 24.161 15.2105 24.6842V30.3684C15.2105 30.8916 15.6347 31.3157 16.1579 31.3157ZM17.1053 25.6315H20.8947V29.421H17.1053V25.6315Z" fill="#164B71"/>
<path d="M24.6842 31.3157H30.3684C30.8916 31.3157 31.3158 30.8916 31.3158 30.3684V24.6842C31.3158 24.161 30.8916 23.7368 30.3684 23.7368H24.6842C24.161 23.7368 23.7369 24.161 23.7369 24.6842V30.3684C23.7369 30.8916 24.161 31.3157 24.6842 31.3157ZM25.6316 25.6315H29.4211V29.421H25.6316V25.6315Z" fill="#164B71"/>
<path d="M7.63157 31.3157H13.3158C13.839 31.3157 14.2631 30.8916 14.2631 30.3684V24.6842C14.2631 24.161 13.839 23.7368 13.3158 23.7368H7.63157C7.10839 23.7368 6.6842 24.161 6.6842 24.6842V30.3684C6.6842 30.8916 7.10839 31.3157 7.63157 31.3157ZM8.57894 25.6315H12.3684V29.421H8.57894V25.6315Z" fill="#164B71"/>
<path d="M35.1053 41.6744H34.9553V41.8244H35.1053V41.6744ZM31.3158 10.4737H31.1658V10.6237H31.3158V10.4737ZM6.68421 10.4737V10.6237H6.83421V10.4737H6.68421ZM2.89474 41.6744V41.8244H3.04474V41.6744H2.89474ZM4.78947 12.3684V12.2184H4.63947V12.3684H4.78947ZM8.57895 2.89474V2.74474H8.42895V2.89474H8.57895ZM29.4211 2.89474H29.5711V2.74474H29.4211V2.89474ZM33.2105 12.3684H33.3605V12.2184H33.2105V12.3684ZM33.2105 41.6744V41.8244H33.3605V41.6744H33.2105ZM29.4211 41.6744H29.2711V41.8244H29.4211V41.6744ZM8.57895 41.6744V41.8244H8.72895V41.6744H8.57895ZM4.78947 41.6744H4.63947V41.8244H4.78947V41.6744ZM27.5263 41.6744V41.8244H27.6763V41.6744H27.5263ZM10.4737 41.6744H10.3237V41.8244H10.4737V41.6744ZM10.4737 37.7877V37.6377H10.3237V37.7877H10.4737ZM27.5263 37.7877H27.6763V37.6377H27.5263V37.7877ZM35.1053 45.4638V45.6138H35.2553V45.4638H35.1053ZM2.89474 45.4638H2.74474V45.6138H2.89474V45.4638ZM2.89474 43.5691V43.4191H2.74474V43.5691H2.89474ZM35.1053 43.5691H35.2553V43.4191H35.1053V43.5691ZM18.0526 12.3684H17.9026V12.5184H18.0526V12.3684ZM19.9474 12.3684V12.5184H20.0974V12.3684H19.9474ZM19.9474 9.52634V9.37634H19.7974V9.52634H19.9474ZM22.7895 9.52634V9.67634H22.9395V9.52634H22.7895ZM22.7895 7.6316H22.9395V7.4816H22.7895V7.6316ZM19.9474 7.6316H19.7974V7.7816H19.9474V7.6316ZM19.9474 4.7895H20.0974V4.6395H19.9474V4.7895ZM18.0526 4.7895V4.6395H17.9026V4.7895H18.0526ZM18.0526 7.6316V7.7816H18.2026V7.6316H18.0526ZM15.2105 7.6316V7.4816H15.0605V7.6316H15.2105ZM15.2105 9.52634H15.0605V9.67634H15.2105V9.52634ZM18.0526 9.52634H18.2026V9.37634H18.0526V9.52634ZM17.1053 16.1578V16.0078H16.9553V16.1578H17.1053ZM20.8947 16.1578H21.0447V16.0078H20.8947V16.1578ZM20.8947 19.9473V20.0973H21.0447V19.9473H20.8947ZM17.1053 19.9473H16.9553V20.0973H17.1053V19.9473ZM25.6316 16.1578V16.0078H25.4816V16.1578H25.6316ZM29.4211 16.1578H29.5711V16.0078H29.4211V16.1578ZM29.4211 19.9473V20.0973H29.5711V19.9473H29.4211ZM25.6316 19.9473H25.4816V20.0973H25.6316V19.9473ZM8.57894 16.1578V16.0078H8.42894V16.1578H8.57894ZM12.3684 16.1578H12.5184V16.0078H12.3684V16.1578ZM12.3684 19.9473V20.0973H12.5184V19.9473H12.3684ZM8.57894 19.9473H8.42894V20.0973H8.57894V19.9473ZM17.1053 25.6315V25.4815H16.9553V25.6315H17.1053ZM20.8947 25.6315H21.0447V25.4815H20.8947V25.6315ZM20.8947 29.421V29.571H21.0447V29.421H20.8947ZM17.1053 29.421H16.9553V29.571H17.1053V29.421ZM25.6316 25.6315V25.4815H25.4816V25.6315H25.6316ZM29.4211 25.6315H29.5711V25.4815H29.4211V25.6315ZM29.4211 29.421V29.571H29.5711V29.421H29.4211ZM25.6316 29.421H25.4816V29.571H25.6316V29.421ZM8.57894 25.6315V25.4815H8.42894V25.6315H8.57894ZM12.3684 25.6315H12.5184V25.4815H12.3684V25.6315ZM12.3684 29.421V29.571H12.5184V29.421H12.3684ZM8.57894 29.421H8.42894V29.571H8.57894V29.421ZM36.0526 41.5244H35.1053V41.8244H36.0526V41.5244ZM35.2553 41.6744V11.4211H34.9553V41.6744H35.2553ZM35.2553 11.4211C35.2553 10.815 34.7639 10.3237 34.1579 10.3237V10.6237C34.5982 10.6237 34.9553 10.9807 34.9553 11.4211H35.2553ZM34.1579 10.3237H31.3158V10.6237H34.1579V10.3237ZM31.4658 10.4737V1.94737H31.1658V10.4737H31.4658ZM31.4658 1.94737C31.4658 1.34135 30.9744 0.85 30.3684 0.85V1.15C30.8088 1.15 31.1658 1.50703 31.1658 1.94737H31.4658ZM30.3684 0.85H7.63158V1.15H30.3684V0.85ZM7.63158 0.85C7.02556 0.85 6.53421 1.34134 6.53421 1.94737H6.83421C6.83421 1.50703 7.19124 1.15 7.63158 1.15V0.85ZM6.53421 1.94737V10.4737H6.83421V1.94737H6.53421ZM6.68421 10.3237H3.8421V10.6237H6.68421V10.3237ZM3.8421 10.3237C3.23608 10.3237 2.74474 10.815 2.74474 11.4211H3.04474C3.04474 10.9807 3.40177 10.6237 3.8421 10.6237V10.3237ZM2.74474 11.4211V41.6744H3.04474V11.4211H2.74474ZM2.89474 41.5244H1.94737V41.8244H2.89474V41.5244ZM1.94737 41.5244C1.34135 41.5244 0.85 42.0157 0.85 42.6217H1.15C1.15 42.1814 1.50703 41.8244 1.94737 41.8244V41.5244ZM0.85 42.6217V46.4112H1.15V42.6217H0.85ZM0.85 46.4112C0.85 47.0172 1.34135 47.5086 1.94737 47.5086V47.2086C1.50703 47.2086 1.15 46.8516 1.15 46.4112H0.85ZM1.94737 47.5086H36.0526V47.2086H1.94737V47.5086ZM36.0526 47.5086C36.6587 47.5086 37.15 47.0172 37.15 46.4112H36.85C36.85 46.8516 36.493 47.2086 36.0526 47.2086V47.5086ZM37.15 46.4112V42.6217H36.85V46.4112H37.15ZM37.15 42.6217C37.15 42.0157 36.6587 41.5244 36.0526 41.5244V41.8244C36.493 41.8244 36.85 42.1814 36.85 42.6217H37.15ZM4.78947 12.5184H7.63158V12.2184H4.78947V12.5184ZM7.63158 12.5184C8.2376 12.5184 8.72895 12.0271 8.72895 11.4211H8.42895C8.42895 11.8614 8.07192 12.2184 7.63158 12.2184V12.5184ZM8.72895 11.4211V2.89474H8.42895V11.4211H8.72895ZM8.57895 3.04474H29.4211V2.74474H8.57895V3.04474ZM29.2711 2.89474V11.4211H29.5711V2.89474H29.2711ZM29.2711 11.4211C29.2711 12.0271 29.7624 12.5184 30.3684 12.5184V12.2184C29.9281 12.2184 29.5711 11.8614 29.5711 11.4211H29.2711ZM30.3684 12.5184H33.2105V12.2184H30.3684V12.5184ZM33.0605 12.3684V41.6744H33.3605V12.3684H33.0605ZM33.2105 41.5244H29.4211V41.8244H33.2105V41.5244ZM29.5711 41.6744V36.8404H29.2711V41.6744H29.5711ZM29.5711 36.8404C29.5711 36.2343 29.0797 35.743 28.4737 35.743V36.043C28.914 36.043 29.2711 36.4 29.2711 36.8404H29.5711ZM28.4737 35.743H9.52632V36.043H28.4737V35.743ZM9.52632 35.743C8.92029 35.743 8.42895 36.2343 8.42895 36.8404H8.72895C8.72895 36.4 9.08598 36.043 9.52632 36.043V35.743ZM8.42895 36.8404V41.6744H8.72895V36.8404H8.42895ZM8.57895 41.5244H4.78947V41.8244H8.57895V41.5244ZM4.93947 41.6744V12.3684H4.63947V41.6744H4.93947ZM27.5263 41.5244H10.4737V41.8244H27.5263V41.5244ZM10.6237 41.6744V37.7877H10.3237V41.6744H10.6237ZM10.4737 37.9377H27.5263V37.6377H10.4737V37.9377ZM27.3763 37.7877V41.6744H27.6763V37.7877H27.3763ZM35.1053 45.3138H2.89474V45.6138H35.1053V45.3138ZM3.04474 45.4638V43.5691H2.74474V45.4638H3.04474ZM2.89474 43.7191H35.1053V43.4191H2.89474V43.7191ZM34.9553 43.5691V45.4638H35.2553V43.5691H34.9553ZM18.0526 12.5184H19.9474V12.2184H18.0526V12.5184ZM20.0974 12.3684V9.52634H19.7974V12.3684H20.0974ZM19.9474 9.67634H22.7895V9.37634H19.9474V9.67634ZM22.9395 9.52634V7.6316H22.6395V9.52634H22.9395ZM22.7895 7.4816H19.9474V7.7816H22.7895V7.4816ZM20.0974 7.6316V4.7895H19.7974V7.6316H20.0974ZM19.9474 4.6395H18.0526V4.9395H19.9474V4.6395ZM17.9026 4.7895V7.6316H18.2026V4.7895H17.9026ZM18.0526 7.4816H15.2105V7.7816H18.0526V7.4816ZM15.0605 7.6316V9.52634H15.3605V7.6316H15.0605ZM15.2105 9.67634H18.0526V9.37634H15.2105V9.67634ZM17.9026 9.52634V12.3684H18.2026V9.52634H17.9026ZM16.1579 21.992H21.8421V21.692H16.1579V21.992ZM21.8421 21.992C22.4481 21.992 22.9395 21.5006 22.9395 20.8946H22.6395C22.6395 21.335 22.2824 21.692 21.8421 21.692V21.992ZM22.9395 20.8946V15.2104H22.6395V20.8946H22.9395ZM22.9395 15.2104C22.9395 14.6044 22.4481 14.113 21.8421 14.113V14.413C22.2824 14.413 22.6395 14.7701 22.6395 15.2104H22.9395ZM21.8421 14.113H16.1579V14.413H21.8421V14.113ZM16.1579 14.113C15.5519 14.113 15.0605 14.6044 15.0605 15.2104H15.3605C15.3605 14.7701 15.7176 14.413 16.1579 14.413V14.113ZM15.0605 15.2104V20.8946H15.3605V15.2104H15.0605ZM15.0605 20.8946C15.0605 21.5006 15.5519 21.992 16.1579 21.992V21.692C15.7176 21.692 15.3605 21.335 15.3605 20.8946H15.0605ZM17.1053 16.3078H20.8947V16.0078H17.1053V16.3078ZM20.7447 16.1578V19.9473H21.0447V16.1578H20.7447ZM20.8947 19.7973H17.1053V20.0973H20.8947V19.7973ZM17.2553 19.9473V16.1578H16.9553V19.9473H17.2553ZM24.6842 21.992H30.3684V21.692H24.6842V21.992ZM30.3684 21.992C30.9745 21.992 31.4658 21.5006 31.4658 20.8946H31.1658C31.1658 21.335 30.8088 21.692 30.3684 21.692V21.992ZM31.4658 20.8946V15.2104H31.1658V20.8946H31.4658ZM31.4658 15.2104C31.4658 14.6044 30.9745 14.113 30.3684 14.113V14.413C30.8088 14.413 31.1658 14.7701 31.1658 15.2104H31.4658ZM30.3684 14.113H24.6842V14.413H30.3684V14.113ZM24.6842 14.113C24.0782 14.113 23.5869 14.6044 23.5869 15.2104H23.8869C23.8869 14.7701 24.2439 14.413 24.6842 14.413V14.113ZM23.5869 15.2104V20.8946H23.8869V15.2104H23.5869ZM23.5869 20.8946C23.5869 21.5006 24.0782 21.992 24.6842 21.992V21.692C24.2439 21.692 23.8869 21.335 23.8869 20.8946H23.5869ZM25.6316 16.3078H29.4211V16.0078H25.6316V16.3078ZM29.2711 16.1578V19.9473H29.5711V16.1578H29.2711ZM29.4211 19.7973H25.6316V20.0973H29.4211V19.7973ZM25.7816 19.9473V16.1578H25.4816V19.9473H25.7816ZM7.63157 21.992H13.3158V21.692H7.63157V21.992ZM13.3158 21.992C13.9218 21.992 14.4131 21.5006 14.4131 20.8946H14.1131C14.1131 21.335 13.7561 21.692 13.3158 21.692V21.992ZM14.4131 20.8946V15.2104H14.1131V20.8946H14.4131ZM14.4131 15.2104C14.4131 14.6044 13.9218 14.113 13.3158 14.113V14.413C13.7561 14.413 14.1131 14.7701 14.1131 15.2104H14.4131ZM13.3158 14.113H7.63157V14.413H13.3158V14.113ZM7.63157 14.113C7.02554 14.113 6.5342 14.6044 6.5342 15.2104H6.8342C6.8342 14.7701 7.19123 14.413 7.63157 14.413V14.113ZM6.5342 15.2104V20.8946H6.8342V15.2104H6.5342ZM6.5342 20.8946C6.5342 21.5006 7.02554 21.992 7.63157 21.992V21.692C7.19123 21.692 6.8342 21.335 6.8342 20.8946H6.5342ZM8.57894 16.3078H12.3684V16.0078H8.57894V16.3078ZM12.2184 16.1578V19.9473H12.5184V16.1578H12.2184ZM12.3684 19.7973H8.57894V20.0973H12.3684V19.7973ZM8.72894 19.9473V16.1578H8.42894V19.9473H8.72894ZM16.1579 31.4657H21.8421V31.1657H16.1579V31.4657ZM21.8421 31.4657C22.4481 31.4657 22.9395 30.9744 22.9395 30.3684H22.6395C22.6395 30.8087 22.2824 31.1657 21.8421 31.1657V31.4657ZM22.9395 30.3684V24.6842H22.6395V30.3684H22.9395ZM22.9395 24.6842C22.9395 24.0781 22.4481 23.5868 21.8421 23.5868V23.8868C22.2824 23.8868 22.6395 24.2438 22.6395 24.6842H22.9395ZM21.8421 23.5868H16.1579V23.8868H21.8421V23.5868ZM16.1579 23.5868C15.5519 23.5868 15.0605 24.0781 15.0605 24.6842H15.3605C15.3605 24.2438 15.7176 23.8868 16.1579 23.8868V23.5868ZM15.0605 24.6842V30.3684H15.3605V24.6842H15.0605ZM15.0605 30.3684C15.0605 30.9744 15.5519 31.4657 16.1579 31.4657V31.1657C15.7176 31.1657 15.3605 30.8087 15.3605 30.3684H15.0605ZM17.1053 25.7815H20.8947V25.4815H17.1053V25.7815ZM20.7447 25.6315V29.421H21.0447V25.6315H20.7447ZM20.8947 29.271H17.1053V29.571H20.8947V29.271ZM17.2553 29.421V25.6315H16.9553V29.421H17.2553ZM24.6842 31.4657H30.3684V31.1657H24.6842V31.4657ZM30.3684 31.4657C30.9745 31.4657 31.4658 30.9744 31.4658 30.3684H31.1658C31.1658 30.8087 30.8088 31.1657 30.3684 31.1657V31.4657ZM31.4658 30.3684V24.6842H31.1658V30.3684H31.4658ZM31.4658 24.6842C31.4658 24.0781 30.9745 23.5868 30.3684 23.5868V23.8868C30.8088 23.8868 31.1658 24.2438 31.1658 24.6842H31.4658ZM30.3684 23.5868H24.6842V23.8868H30.3684V23.5868ZM24.6842 23.5868C24.0782 23.5868 23.5869 24.0781 23.5869 24.6842H23.8869C23.8869 24.2438 24.2439 23.8868 24.6842 23.8868V23.5868ZM23.5869 24.6842V30.3684H23.8869V24.6842H23.5869ZM23.5869 30.3684C23.5869 30.9744 24.0782 31.4657 24.6842 31.4657V31.1657C24.2439 31.1657 23.8869 30.8087 23.8869 30.3684H23.5869ZM25.6316 25.7815H29.4211V25.4815H25.6316V25.7815ZM29.2711 25.6315V29.421H29.5711V25.6315H29.2711ZM29.4211 29.271H25.6316V29.571H29.4211V29.271ZM25.7816 29.421V25.6315H25.4816V29.421H25.7816ZM7.63157 31.4657H13.3158V31.1657H7.63157V31.4657ZM13.3158 31.4657C13.9218 31.4657 14.4131 30.9744 14.4131 30.3684H14.1131C14.1131 30.8087 13.7561 31.1657 13.3158 31.1657V31.4657ZM14.4131 30.3684V24.6842H14.1131V30.3684H14.4131ZM14.4131 24.6842C14.4131 24.0781 13.9218 23.5868 13.3158 23.5868V23.8868C13.7561 23.8868 14.1131 24.2438 14.1131 24.6842H14.4131ZM13.3158 23.5868H7.63157V23.8868H13.3158V23.5868ZM7.63157 23.5868C7.02554 23.5868 6.5342 24.0781 6.5342 24.6842H6.8342C6.8342 24.2438 7.19123 23.8868 7.63157 23.8868V23.5868ZM6.5342 24.6842V30.3684H6.8342V24.6842H6.5342ZM6.5342 30.3684C6.5342 30.9744 7.02554 31.4657 7.63157 31.4657V31.1657C7.19123 31.1657 6.8342 30.8087 6.8342 30.3684H6.5342ZM8.57894 25.7815H12.3684V25.4815H8.57894V25.7815ZM12.2184 25.6315V29.421H12.5184V25.6315H12.2184ZM12.3684 29.271H8.57894V29.571H12.3684V29.271ZM8.72894 29.421V25.6315H8.42894V29.421H8.72894Z" fill="white"/>
</svg>
