<svg width="17" height="28" viewBox="0 0 17 28" fill="none" xmlns="http://www.w3.org/2000/svg">
<path d="M12.3441 27.2767L0.805011 15.8557C0.549931 15.6082 0.347468 15.3138 0.209302 14.9894C0.0711361 14.665 6.25816e-07 14.317 6.10454e-07 13.9656C5.95091e-07 13.6141 0.0711361 13.2661 0.209302 12.9417C0.347468 12.6173 0.54993 12.3229 0.805011 12.0754L12.3441 0.787484C12.5971 0.537957 12.8981 0.339901 13.2297 0.204743C13.5614 0.0695849 13.9171 -6.08335e-07 14.2764 -6.24039e-07C14.6356 -6.39743e-07 14.9913 0.0695849 15.323 0.204743C15.6546 0.339901 15.9556 0.537957 16.2086 0.787484C16.7155 1.28629 17 1.96104 17 2.66436C17 3.36768 16.7155 4.04243 16.2086 4.54124L6.57456 13.9656L16.2086 23.3899C16.7114 23.8857 16.9948 24.555 16.9978 25.2534C16.9999 25.6038 16.9313 25.9511 16.7958 26.2755C16.6604 26.5998 16.4608 26.8949 16.2086 27.1436C15.9647 27.4021 15.6709 27.6107 15.3441 27.7574C15.0173 27.9041 14.6641 27.986 14.3047 27.9984C13.9454 28.0107 13.5871 27.9533 13.2506 27.8295C12.9141 27.7056 12.606 27.5177 12.3441 27.2767Z" fill="#4F4F4F"/>
</svg>
