<svg width="17" height="28" viewBox="0 0 17 28" fill="none" xmlns="http://www.w3.org/2000/svg">
<path d="M4.6559 27.2767L16.195 15.8557C16.4501 15.6082 16.6525 15.3138 16.7907 14.9894C16.9289 14.665 17 14.317 17 13.9656C17 13.6141 16.9289 13.2661 16.7907 12.9417C16.6525 12.6173 16.4501 12.3229 16.195 12.0754L4.6559 0.787484C4.4029 0.537957 4.1019 0.339901 3.77026 0.204743C3.43862 0.0695849 3.08291 -6.08335e-07 2.72364 -6.24039e-07C2.36438 -6.39743e-07 2.00866 0.0695849 1.67702 0.204743C1.34539 0.339901 1.04439 0.537957 0.791389 0.787484C0.28451 1.28629 1.82163e-06 1.96104 1.79089e-06 2.66436C1.76014e-06 3.36768 0.28451 4.04243 0.791389 4.54124L10.4254 13.9656L0.791388 23.3899C0.28861 23.8857 0.00516426 24.555 0.00215801 25.2534C8.7241e-05 25.6038 0.0687355 25.9511 0.204169 26.2755C0.339603 26.5998 0.539157 26.8949 0.791388 27.1436C1.03528 27.4021 1.32911 27.6107 1.65589 27.7574C1.98268 27.9041 2.33594 27.986 2.69527 27.9984C3.0546 28.0107 3.41288 27.9533 3.7494 27.8295C4.08593 27.7056 4.39402 27.5177 4.6559 27.2767Z" fill="#4F4F4F"/>
</svg>
