<svg width="39" height="39" viewBox="0 0 39 39" fill="none" xmlns="http://www.w3.org/2000/svg">
<g clip-path="url(#clip0)">
<path d="M38.4114 24.2438C39.2187 21.0431 39.1952 17.6891 38.3432 14.4999L38.3521 14.483L38.3365 14.4738L38.3308 14.45C36.2888 6.83372 29.8617 1.19749 22.0449 0.167936C14.2286 -0.861622 6.5613 2.91829 2.61756 9.74593C1.71921 11.303 1.03949 12.9762 0.597139 14.7185L0.578734 14.7287L0.587937 14.7509C-0.218708 17.9516 -0.194909 21.3056 0.656797 24.4946L0.647594 24.5117L0.663461 24.5206L0.669173 24.5447C2.95456 33.0551 10.658 38.9782 19.4686 39.0004C21.1825 38.9988 22.889 38.7729 24.5445 38.3282C29.5447 37.0025 33.8067 33.7323 36.3818 29.2453C37.2798 27.6889 37.9595 26.0161 38.4022 24.2743L38.4203 24.2638L38.4114 24.2438ZM20.1527 34.0215L20.1496 27.376L26.0779 23.9531L31.8437 27.2817L31.8475 32.8685C29.8928 34.6768 27.5626 36.0308 25.0237 36.8334L20.1527 34.0215ZM1.79537 23.6646C1.16198 21.0063 1.13977 18.2388 1.73031 15.5704L6.47911 12.8327L12.3509 16.2226V22.8756L6.3855 26.316L1.79537 23.6646ZM18.8498 4.96725V11.6153L12.9215 15.0381L7.15565 11.7095L7.15184 6.12312C9.10785 4.31378 11.4399 2.95986 13.9807 2.15818L18.8498 4.96725ZM13.6507 16.2219L19.5914 12.7949L25.3486 16.1159V22.7728L19.4092 26.197L13.6539 22.8756L13.6507 16.2219ZM32.5202 26.1592L26.6516 22.7728L26.6484 16.1159L32.6135 12.6756L37.2037 15.3266C37.837 17.9852 37.8593 20.7527 37.2687 23.4209L32.5202 26.1592ZM33.1473 11.4794V7.45672C34.7091 9.22608 35.909 11.2849 36.6788 13.516L33.1473 11.4794ZM31.8475 6.12947V11.501L25.8957 14.9334L20.1527 11.6187L20.1496 4.86474L24.8996 2.12232C27.4852 2.92368 29.8588 4.29283 31.8475 6.12947ZM19.5289 1.29175C20.7293 1.29239 21.9269 1.41331 23.1032 1.65324L19.4086 3.78694L15.7765 1.68942C17.0099 1.42727 18.2675 1.29397 19.5289 1.29175ZM3.74375 10.3959C4.34826 9.34985 5.05431 8.36599 5.85207 7.45863V11.6895L2.22312 13.781C2.61407 12.6042 3.1237 11.4699 3.74375 10.3959ZM5.85207 27.5118V31.5345C4.29019 29.7652 3.09038 27.7067 2.32054 25.4756L5.85207 27.5118ZM7.15184 32.8618V27.4906L13.1033 24.0579L18.8498 27.3747V34.1268L14.0953 36.8715C11.5119 36.0666 9.14021 34.6968 7.15184 32.8618ZM15.8974 37.3358L19.5926 35.203L23.2318 37.3031C20.8153 37.8153 18.3192 37.8265 15.898 37.3358H15.8974ZM35.2556 28.5953C34.652 29.6417 33.9469 30.6262 33.1504 31.5339L33.1473 27.302L36.7762 25.2102C36.385 26.3874 35.8756 27.5214 35.2556 28.5953Z" fill="#164B71"/>
</g>
<defs>
<clipPath id="clip0">
<rect width="39" height="39" fill="white"/>
</clipPath>
</defs>
</svg>
