<svg width="39" height="50" viewBox="0 0 39 50" fill="none" xmlns="http://www.w3.org/2000/svg">
<path d="M8.50171 21.3842L13.0599 15.8916C13.3181 15.5805 13.2756 15.1188 12.965 14.8602C12.6545 14.6017 12.1934 14.6443 11.9352 14.9553L8.02796 19.6634L7.17396 18.2739C6.96229 17.9295 6.51193 17.822 6.16786 18.0342C5.82397 18.2463 5.71682 18.6975 5.92849 19.0418L7.3165 21.2999C7.57897 21.7267 8.18211 21.7693 8.50171 21.3842Z" fill="#408B6E"/>
<path d="M5.92828 28.7101L7.31628 30.9682C7.57856 31.3949 8.18169 31.4376 8.5013 31.0524L13.0595 25.5598C13.3177 25.2487 13.2752 24.787 12.9646 24.5284C12.6541 24.2699 12.1929 24.3124 11.9348 24.6235L8.02755 29.3316L7.17355 27.9421C6.96187 27.5977 6.51152 27.4902 6.16744 27.7024C5.82366 27.9146 5.71651 28.3658 5.92828 28.7101Z" fill="#408B6E"/>
<path d="M5.92828 38.4426L7.31628 40.7007C7.57856 41.1274 8.18169 41.1701 8.5013 40.7849L13.0595 35.2923C13.3177 34.9812 13.2752 34.5195 12.9646 34.2609C12.6541 34.0024 12.1929 34.0449 11.9348 34.356L8.02755 39.0641L7.17355 37.6746C6.96187 37.3302 6.51152 37.2228 6.16744 37.4349C5.82366 37.6471 5.71651 38.0983 5.92828 38.4426Z" fill="#408B6E"/>
<path d="M38.2687 41.3482C37.8649 41.3482 37.5375 41.676 37.5375 42.0806V47.4121C37.5375 48.0314 37.0345 48.5352 36.4162 48.5352H2.58375C1.9655 48.5352 1.4625 48.0314 1.4625 47.4121V15.3135C1.4625 14.909 1.1351 14.5811 0.73125 14.5811C0.327405 14.5811 0 14.909 0 15.3135V47.4121C0 48.8391 1.15908 50 2.58375 50H36.4162C37.8409 50 39 48.8391 39 47.4121V42.0806C39 41.6761 38.6726 41.3482 38.2687 41.3482Z" fill="#408B6E"/>
<path d="M36.4162 5.64363H32.8392V2.61718C32.8392 1.17412 31.667 0 30.2262 0C28.7853 0 27.6132 1.17402 27.6132 2.61718V5.64363H22.113V2.61718C22.113 1.17402 20.9408 0 19.5 0C18.0592 0 16.887 1.17402 16.887 2.61718V5.64363H11.3867V2.61718C11.3867 1.17412 10.2146 0 8.77373 0C7.33297 0 6.16073 1.17402 6.16073 2.61718V5.64363H2.58375C1.15908 5.64363 0 6.80456 0 8.2315V11.8954C0 12.2999 0.327405 12.6278 0.73125 12.6278C1.1351 12.6278 1.4625 12.2999 1.4625 11.8954V8.2315C1.4625 7.61227 1.9655 7.10846 2.58375 7.10846H6.16073V8.27145C6.16073 9.7145 7.33288 10.8886 8.77373 10.8886C10.2146 10.8886 11.3867 9.7146 11.3867 8.27145V7.10846H16.887V8.27145C16.887 9.7145 18.0591 10.8886 19.5 10.8886C20.9409 10.8886 22.113 9.7146 22.113 8.27145V7.10846H27.6133V8.27145C27.6133 9.7145 28.7854 10.8886 30.2263 10.8886C31.667 10.8886 32.8393 9.7146 32.8393 8.27145V7.10846H36.4162C37.0345 7.10846 37.5375 7.61227 37.5375 8.2315V38.6624C37.5375 39.067 37.8649 39.3948 38.2687 39.3948C38.6726 39.3948 39 39.067 39 38.6624V8.2315C39 6.80456 37.8409 5.64363 36.4162 5.64363ZM9.92433 8.27145C9.92433 8.90689 9.40826 9.42378 8.77383 9.42378C8.13949 9.42378 7.62333 8.90689 7.62333 8.27145C7.62333 6.71022 7.62333 3.10584 7.62333 2.61718C7.62333 1.98173 8.1394 1.46484 8.77383 1.46484C9.40826 1.46484 9.92433 1.98173 9.92433 2.61718V8.27145ZM20.6505 8.27145C20.6505 8.90689 20.1344 9.42378 19.5 9.42378C18.8656 9.42378 18.3495 8.90689 18.3495 8.27145C18.3495 6.71022 18.3495 3.10584 18.3495 2.61718C18.3495 1.98173 18.8656 1.46484 19.5 1.46484C20.1344 1.46484 20.6505 1.98173 20.6505 2.61718V8.27145ZM31.3768 8.27145C31.3768 8.90689 30.8607 9.42378 30.2263 9.42378C29.5918 9.42378 29.0758 8.90689 29.0758 8.27145C29.0758 6.71022 29.0758 3.10584 29.0758 2.61718C29.0758 1.98173 29.5918 1.46484 30.2263 1.46484C30.8606 1.46484 31.3768 1.98173 31.3768 2.61718V8.27145Z" fill="#408B6E"/>
<path d="M16.16 21.9901H31.565C32.8284 21.9901 33.8562 20.9606 33.8562 19.6952C33.8562 18.4297 32.8284 17.4003 31.565 17.4003H16.16C14.8966 17.4003 13.8687 18.4297 13.8687 19.6952C13.8687 20.9606 14.8966 21.9901 16.16 21.9901ZM16.16 18.8651H31.565C32.022 18.8651 32.3937 19.2375 32.3937 19.6952C32.3937 20.1529 32.022 20.5252 31.565 20.5252H16.16C15.703 20.5252 15.3312 20.1529 15.3312 19.6952C15.3312 19.2375 15.703 18.8651 16.16 18.8651Z" fill="#408B6E"/>
<path d="M16.16 31.6789H31.565C32.8284 31.6789 33.8562 30.6494 33.8562 29.384C33.8562 28.1185 32.8284 27.089 31.565 27.089H16.16C14.8966 27.089 13.8687 28.1185 13.8687 29.384C13.8687 30.6494 14.8966 31.6789 16.16 31.6789ZM16.16 28.5539H31.565C32.022 28.5539 32.3937 28.9262 32.3937 29.384C32.3937 29.8417 32.022 30.214 31.565 30.214H16.16C15.703 30.214 15.3312 29.8417 15.3312 29.384C15.3312 28.9262 15.703 28.5539 16.16 28.5539Z" fill="#408B6E"/>
<path d="M16.16 41.3681H31.565C32.8284 41.3681 33.8562 40.3386 33.8562 39.0732C33.8562 37.8078 32.8284 36.7783 31.565 36.7783H16.16C14.8966 36.7783 13.8687 37.8078 13.8687 39.0732C13.8687 40.3386 14.8966 41.3681 16.16 41.3681ZM16.16 38.2431H31.565C32.022 38.2431 32.3937 38.6155 32.3937 39.0732C32.3937 39.5309 32.022 39.9033 31.565 39.9033H16.16C15.703 39.9033 15.3312 39.5309 15.3312 39.0732C15.3312 38.6155 15.703 38.2431 16.16 38.2431Z" fill="#408B6E"/>
</svg>
