<svg width="39" height="36" viewBox="0 0 39 36" fill="none" xmlns="http://www.w3.org/2000/svg">
<path d="M26.5999 21.8795H26.0059C27.0131 21.2248 27.8438 20.3152 28.42 19.2358C28.9961 18.1564 29.299 16.9426 29.3 15.7083V13.2399C29.5791 13.1119 29.8513 12.9682 30.1155 12.8096C30.1963 12.7598 30.2633 12.6889 30.3097 12.604C30.3561 12.5191 30.3804 12.4231 30.3801 12.3254V8.1027L31.0184 7.85417H31.4601V12.4455C31.1545 12.5565 30.888 12.7605 30.6955 13.031C30.503 13.3015 30.3934 13.6259 30.3808 13.9621C30.3683 14.2982 30.4535 14.6305 30.6253 14.9156C30.7971 15.2008 31.0475 15.4256 31.344 15.5608L30.3963 19.4991C30.3763 19.5818 30.3748 19.6682 30.3918 19.7516C30.4088 19.835 30.4439 19.9133 30.4944 19.9806C30.5449 20.0478 30.6095 20.1022 30.6832 20.1396C30.757 20.177 30.838 20.1964 30.9201 20.1964H33.0802C33.1623 20.1964 33.2433 20.177 33.3171 20.1396C33.3908 20.1022 33.4554 20.0478 33.5059 19.9806C33.5564 19.9133 33.5915 19.835 33.6085 19.7516C33.6255 19.6682 33.624 19.5818 33.604 19.4991L32.6563 15.5608C32.9528 15.4256 33.2032 15.2008 33.375 14.9156C33.5468 14.6305 33.632 14.2982 33.6195 13.9621C33.607 13.6259 33.4973 13.3015 33.3048 13.031C33.1123 12.7605 32.8459 12.5565 32.5402 12.4455V7.29316C32.5402 7.14437 32.4833 7.00167 32.382 6.89646C32.2807 6.79125 32.1434 6.73214 32.0002 6.73214H31.0184L26.0599 4.80058V1.68304C26.0599 1.53425 26.003 1.39155 25.9017 1.28634C25.8004 1.18113 25.6631 1.12202 25.5199 1.12202H3.91887C3.20302 1.12292 2.51673 1.41873 2.01055 1.94459C1.50436 2.47045 1.21961 3.18341 1.21875 3.92708V29.7336C1.22032 31.0722 1.73288 32.3555 2.64401 33.3021C3.55514 34.2486 4.79044 34.7811 6.07897 34.7827H25.5199C25.6631 34.7827 25.8004 34.7236 25.9017 34.6184C26.003 34.5132 26.0599 34.3705 26.0599 34.2217V31.9777H33.0802C33.2234 31.9777 33.3608 31.9186 33.4621 31.8134C33.5633 31.7082 33.6202 31.5655 33.6202 31.4167V29.1726C33.6181 27.239 32.8778 25.3853 31.5617 24.018C30.2456 22.6508 28.4612 21.8817 26.5999 21.8795ZM25.2963 23.0015L22.2797 26.1353L19.2631 23.0015H25.2963ZM22.2797 21.8795C20.7048 21.8775 19.195 21.2267 18.0814 20.0699C16.9677 18.913 16.3413 17.3444 16.3394 15.7083V13.6814C18.2612 14.3065 20.2661 14.6119 22.2797 14.5863C24.2933 14.6121 26.2982 14.3068 28.22 13.682V15.7083C28.2181 17.3444 27.5917 18.913 26.4781 20.0699C25.3645 21.2267 23.8546 21.8775 22.2797 21.8795ZM29.3 11.9972C29.0573 12.1301 28.8082 12.2501 28.5537 12.3568C26.5483 13.1338 24.4196 13.5095 22.2797 13.4643C20.1387 13.5095 18.0087 13.1332 16.0025 12.3552C15.749 12.2492 15.501 12.1297 15.2594 11.9972V8.52345L22.0902 11.1849C22.2121 11.2318 22.3462 11.2318 22.4682 11.1849L29.3 8.52345V11.9972ZM32.0002 13.4643C32.107 13.4643 32.2114 13.4972 32.3002 13.5588C32.389 13.6205 32.4582 13.7081 32.4991 13.8106C32.54 13.9131 32.5506 14.0259 32.5298 14.1347C32.509 14.2436 32.4575 14.3435 32.382 14.422C32.3065 14.5005 32.2103 14.5539 32.1055 14.5755C32.0008 14.5972 31.8922 14.5861 31.7935 14.5436C31.6948 14.5011 31.6105 14.4292 31.5511 14.337C31.4918 14.2447 31.4601 14.1363 31.4601 14.0253C31.4601 13.8765 31.517 13.7338 31.6183 13.6286C31.7196 13.5234 31.8569 13.4643 32.0002 13.4643ZM31.6119 19.0744L32.0002 17.4604L32.3884 19.0744H31.6119ZM27.9397 7.85417L22.2797 10.0601L15.1773 7.29316L22.2797 4.52624L27.9419 6.73214H22.2797V7.85417H27.9397ZM6.619 2.24405H24.9798V4.37982L22.4693 3.40142C22.3473 3.35455 22.2132 3.35455 22.0912 3.40142L13.4509 6.76749C13.3477 6.80745 13.2587 6.87921 13.1959 6.97316C13.1331 7.06712 13.0995 7.17877 13.0995 7.29316C13.0995 7.40754 13.1331 7.51919 13.1959 7.61315C13.2587 7.7071 13.3477 7.77887 13.4509 7.81882L14.1793 8.1027V12.3254C14.1793 12.4229 14.2036 12.5187 14.25 12.6034C14.2964 12.6881 14.3633 12.7588 14.444 12.8085C14.708 12.9677 14.9802 13.1117 15.2594 13.2399V15.7083C15.2605 16.9426 15.5633 18.1564 16.1395 19.2358C16.7157 20.3152 17.5463 21.2248 18.5535 21.8795H17.9595C16.8943 21.8801 15.8433 22.1331 14.8864 22.6191C13.9295 23.1052 13.0918 23.8116 12.4372 24.6845H6.619V2.24405ZM2.2988 3.92708C2.2988 3.48072 2.46949 3.05263 2.77331 2.737C3.07713 2.42137 3.4892 2.24405 3.91887 2.24405H5.53895V24.7182C4.44228 24.8431 3.41937 25.3526 2.63902 26.1628C2.51921 26.2889 2.40565 26.4213 2.2988 26.5594V3.92708ZM24.9798 33.6607H6.07897C5.07641 33.6607 4.11491 33.247 3.40599 32.5105C2.69707 31.774 2.2988 30.7752 2.2988 29.7336C2.2988 28.6921 2.69707 27.6932 3.40599 26.9568C4.11491 26.2203 5.07641 25.8065 6.07897 25.8065H11.7379C11.2131 26.8448 10.939 27.9999 10.9392 29.1726V31.4167C10.9392 31.5655 10.9961 31.7082 11.0974 31.8134C11.1986 31.9186 11.336 31.9777 11.4792 31.9777H24.9798V33.6607ZM32.5402 30.8557H12.0192V29.1726C12.0217 27.5757 12.6197 26.0418 13.6877 24.8932C14.7557 23.7446 16.2105 23.0706 17.7467 23.0127L20.9761 26.3676H14.1793V27.4896H30.3801V26.3676H23.5833L26.8127 23.0127C28.3489 23.0706 29.8037 23.7446 30.8717 24.8932C31.9397 26.0418 32.5377 27.5757 32.5402 29.1726V30.8557Z" fill="#164B71"/>
<path d="M9.319 29.1726H4.45878V30.2946H9.319V29.1726Z" fill="#164B71"/>
<path d="M8.77888 22.4405V4.4881H15.7992V3.36607H8.23886C8.09564 3.36607 7.95828 3.42518 7.857 3.53039C7.75573 3.6356 7.69883 3.77829 7.69883 3.92708V23.0015C7.69883 23.1503 7.75573 23.293 7.857 23.3982C7.95828 23.5034 8.09564 23.5625 8.23886 23.5625H11.479V22.4405H8.77888Z" fill="#164B71"/>
</svg>
