<svg width="56" height="50" viewBox="0 0 56 50" fill="none" xmlns="http://www.w3.org/2000/svg">
<path d="M48.623 17.8217H22.592C22.139 17.8217 21.7717 18.1934 21.7717 18.6518C21.7717 19.1102 22.139 19.4818 22.592 19.4818H48.623C49.076 19.4818 49.4433 19.1102 49.4433 18.6518C49.4433 18.1934 49.076 17.8217 48.623 17.8217Z" fill="#408B6E"/>
<path d="M48.623 24.168H22.592C22.139 24.168 21.7717 24.5396 21.7717 24.998C21.7717 25.4564 22.139 25.8281 22.592 25.8281H48.623C49.076 25.8281 49.4433 25.4564 49.4433 24.998C49.4433 24.5396 49.076 24.168 48.623 24.168Z" fill="#408B6E"/>
<path d="M48.623 30.5123H22.592C22.139 30.5123 21.7717 30.8839 21.7717 31.3423C21.7717 31.8007 22.139 32.1724 22.592 32.1724H48.623C49.076 32.1724 49.4433 31.8007 49.4433 31.3423C49.4433 30.8839 49.076 30.5123 48.623 30.5123Z" fill="#408B6E"/>
<path d="M51.2289 10.5622H19.9867C17.356 10.5622 15.2156 12.7278 15.2156 15.39V35.2689C15.2156 37.931 17.3558 40.0968 19.9867 40.0968H41.8845C42.1187 40.0968 42.3363 40.2033 42.4815 40.3894L49.5531 49.4484C49.8318 49.8054 50.2384 50 50.6642 50C50.8225 50 50.9835 49.9731 51.1414 49.9175C51.724 49.7128 52.1005 49.1772 52.1005 48.5532V40.0143C54.3126 39.5962 56 37.6172 56 35.2689V15.3899C56 12.7278 53.8598 10.5622 51.2289 10.5622ZM54.3594 35.2689C54.3594 36.9929 52.9733 38.4134 51.2696 38.4353C50.8207 38.4412 50.4598 38.8111 50.4598 39.2654V47.9317L43.769 39.3603C43.3108 38.7732 42.6239 38.4366 41.8845 38.4366H19.9867C18.2606 38.4366 16.8562 37.0155 16.8562 35.2688V15.3899C16.8562 13.6432 18.2605 12.2222 19.9867 12.2222H51.2289C52.955 12.2222 54.3594 13.6432 54.3594 15.3899V35.2689Z" fill="#408B6E"/>
<path d="M12.0851 24.2875C11.5241 24.3681 11.0216 24.6604 10.6703 25.1104L5.03524 32.3292V25.0944C5.03524 24.64 4.67431 24.2702 4.22544 24.2643C2.80019 24.2459 1.64061 23.0576 1.64061 21.6153V4.3102C1.64061 2.84897 2.8155 1.66011 4.25956 1.66011H31.4568C32.9008 1.66011 34.0757 2.84897 34.0757 4.3102V7.51223C34.0757 7.97064 34.443 8.34228 34.896 8.34228C35.3491 8.34228 35.7163 7.97064 35.7163 7.51223V4.3102C35.7163 1.93359 33.8055 0 31.4568 0H4.25956C1.91087 0 0 1.93359 0 4.3102V21.6153C0 23.6813 1.46244 25.4267 3.39474 25.8347V33.1797C3.39474 33.7693 3.75043 34.2754 4.30101 34.4689C4.45031 34.5214 4.60234 34.5468 4.75196 34.5468C5.15413 34.5468 5.53858 34.3629 5.80184 34.0257L11.9578 26.1395C12.0466 26.0256 12.1738 25.9516 12.3158 25.9312C12.7644 25.8668 13.0764 25.4465 13.0126 24.9927C12.949 24.5388 12.5343 24.2228 12.0851 24.2875Z" fill="#408B6E"/>
</svg>
