<svg width="50" height="43" viewBox="0 0 50 43" fill="none" xmlns="http://www.w3.org/2000/svg">
<path d="M43.8246 25.5305H39.1371C38.7325 25.5305 38.4046 25.8578 38.4046 26.2616C38.4046 26.6653 38.7325 26.9926 39.1371 26.9926H43.8246C44.2291 26.9926 44.557 26.6653 44.557 26.2616C44.557 25.8578 44.2291 25.5305 43.8246 25.5305Z" fill="#408B6E"/>
<path d="M43.8246 28.5363H39.1371C38.7325 28.5363 38.4046 28.8636 38.4046 29.2673C38.4046 29.6711 38.7325 29.9984 39.1371 29.9984H43.8246C44.2291 29.9984 44.557 29.6711 44.557 29.2673C44.557 28.8636 44.2291 28.5363 43.8246 28.5363Z" fill="#408B6E"/>
<path d="M43.8246 22.5248H39.1371C38.7325 22.5248 38.4046 22.8521 38.4046 23.2559C38.4046 23.6596 38.7325 23.9869 39.1371 23.9869H43.8246C44.2291 23.9869 44.557 23.6596 44.557 23.2559C44.557 22.8521 44.2291 22.5248 43.8246 22.5248Z" fill="#408B6E"/>
<path d="M33.1101 21.574C32.4569 21.574 31.9254 22.1045 31.9254 22.7565V23.4492H30.2069C29.5538 23.4492 29.0223 23.9797 29.0223 24.6316V25.2568H27.2991C26.6459 25.2568 26.1145 25.7873 26.1145 26.4392V29.8629C26.1145 30.4612 26.6021 30.9479 27.2014 30.9479H35.2113C35.8106 30.9479 36.2982 30.4612 36.2982 29.8629V22.7565C36.2982 22.1045 35.7668 21.574 35.1136 21.574H33.1101ZM29.0223 29.4857H27.5793V26.7189H29.0223V29.4857ZM31.9254 29.4857H30.4872C30.4872 28.5961 30.4872 25.8183 30.4872 24.9113H31.9254V29.4857ZM34.8333 29.4857H33.395C33.395 24.7573 33.3902 23.2541 33.3902 23.0361H34.8332L34.8333 29.4857Z" fill="#408B6E"/>
<path d="M1.80126 42.9998H14.1764C14.581 42.9998 14.9088 42.6725 14.9088 42.2687C14.9088 41.865 14.581 41.5377 14.1764 41.5377H6.65056V31.7164C6.65056 31.3127 6.32273 30.9854 5.91814 30.9854C5.51355 30.9854 5.18572 31.3127 5.18572 31.7164V41.5377H1.80126C1.61581 41.5377 1.46484 41.3871 1.46484 41.2019V30.8543C1.46484 28.5408 3.10624 27.0243 4.21317 26.5669L8.97565 24.7104L11.8101 27.5395C12.8494 28.5771 14.2985 29.2252 15.8854 29.2251C17.4152 29.225 18.8783 28.6195 19.9608 27.5396L22.7553 24.7501V34.4256C22.7553 35.4601 23.5984 36.3016 24.6348 36.3016H25.1202V41.5379H17.5944C17.1898 41.5379 16.8619 41.8652 16.8619 42.2689C16.8619 42.6727 17.1898 43 17.5944 43H29.9695C30.9628 43 31.7708 42.1935 31.7708 41.2021V36.3016H34.8108V38.5435C33.9048 38.8492 33.2505 39.7053 33.2505 40.7115C33.2505 41.9734 34.279 43 35.5432 43C36.8075 43 37.836 41.9734 37.836 40.7115C37.836 39.7053 37.1817 38.8492 36.2756 38.5435V36.3016H46.4516C47.4879 36.3016 48.3311 35.4601 48.3311 34.4256V27.9677C48.3311 27.5639 48.0032 27.2366 47.5986 27.2366C47.194 27.2366 46.8662 27.5639 46.8662 27.9677V34.4256C46.8662 34.6538 46.6802 34.8395 46.4516 34.8395H24.6349C24.4062 34.8395 24.2202 34.6538 24.2202 34.4256C24.2202 33.965 24.2202 17.7942 24.2202 17.3336H46.8662V24.5561C46.8662 24.9598 47.194 25.2871 47.5986 25.2871C48.0032 25.2871 48.3311 24.9598 48.3311 24.5561V17.3336C49.2511 17.3336 50 16.5865 50 15.6681V14.2591C50 13.3408 49.2516 12.5937 48.3315 12.5937H25.2437C25.0937 11.7966 24.6418 11.0859 23.9999 10.6207C24.0699 10.4262 24.1101 10.2175 24.1101 9.99913V5.27698C24.1101 3.73045 22.7676 2.59516 21.3826 2.70131C21.2103 2.71466 21.0164 2.62655 20.9784 2.43296C20.6576 0.795879 19.6272 0 17.8282 0H11.6125C8.93092 0 6.74939 2.17748 6.74939 4.85403V9.3789C6.74939 10.0129 6.9904 10.5917 7.38552 11.0291C6.81609 11.6052 6.47107 12.3805 6.47107 13.1788C6.47107 14.6693 7.63659 15.9957 9.2819 16.1808C9.51725 17.8599 10.4194 19.4827 11.87 20.5628V22.0123C11.0461 22.3336 4.54598 24.8674 3.67333 25.2076C3.66922 25.2092 3.66512 25.2109 3.66102 25.2126C1.89784 25.9369 0 28.0113 0 30.8543V41.202C0 42.1933 0.808005 42.9998 1.80126 42.9998ZM35.5432 39.885C35.9998 39.885 36.3711 40.2557 36.3711 40.7114C36.3711 41.1671 35.9998 41.5378 35.5432 41.5378C35.0867 41.5378 34.7153 41.1671 34.7153 40.7114C34.7153 40.2557 35.0867 39.885 35.5432 39.885ZM26.5851 36.3016H30.3059V41.202C30.3059 41.3871 30.155 41.5378 29.9695 41.5378H26.5851L26.5851 36.3016ZM13.9734 27.3147C14.8472 26.4365 14.5298 26.7555 15.4064 25.8747L15.409 25.8717C15.4736 25.8064 15.5347 25.7244 15.5721 25.664H16.1862C16.2254 25.728 16.2884 25.8108 16.3521 25.8747L17.7891 27.3187C16.5887 27.9125 15.1725 27.9109 13.9734 27.3147ZM13.3338 22.1869C13.3345 22.1683 13.3349 22.1497 13.3349 22.1309V21.3803C14.8458 21.9821 16.7295 22.0797 18.4317 21.3918L18.4323 22.1365C18.4323 22.1504 18.4326 22.1643 18.4331 22.1783C17.5835 23.0203 17.2158 23.3846 16.3912 24.2018H15.3673C14.8518 23.6912 13.7484 22.5977 13.3338 22.1869ZM18.985 26.4457C18.8444 26.3045 17.7672 25.222 17.6053 25.0592L19.3036 23.3761C20.3361 23.7753 20.2797 23.7535 21.2906 24.1442L18.985 26.4457ZM22.7554 23.1425L19.8972 22.0377L19.8959 20.5704C20.9978 19.7504 21.8349 18.5948 22.2537 17.2565C22.412 17.3064 22.5803 17.3336 22.7549 17.3336L22.7554 23.1425ZM48.3315 14.0556C48.4438 14.0556 48.5352 14.1469 48.5352 14.2589V15.668C48.5352 15.78 48.4438 15.8713 48.3315 15.8713C47.1008 15.8713 24.0097 15.8713 22.7549 15.8713C22.6427 15.8713 22.5513 15.78 22.5513 15.668C22.5513 14.8645 22.5513 15.0383 22.5513 14.2589C22.5513 14.1468 22.6427 14.0555 22.7549 14.0555C24.2647 14.0556 46.8412 14.0556 48.3315 14.0556ZM22.9782 11.7008C23.3216 11.8911 23.5912 12.2153 23.7306 12.5934H22.7549C22.6885 12.5934 22.596 12.6002 22.5513 12.6057V11.8228C22.6964 11.7999 22.8614 11.7503 22.9782 11.7008ZM9.21959 14.6894C8.49001 14.5159 7.93591 13.9111 7.93591 13.1787C7.93591 12.6439 8.25934 12.1056 8.74508 11.7996C8.86051 11.8221 8.97867 11.837 9.09908 11.8429C9.13922 11.8449 9.17936 11.8459 9.21949 11.846L9.21959 14.6894ZM9.22106 10.3838C8.67829 10.3838 8.21422 9.94201 8.21422 9.3788V4.85403C8.21422 2.98369 9.73863 1.46212 11.6125 1.46212H17.8282C19.1852 1.46212 19.4067 2.02893 19.5408 2.71359C19.7164 3.60977 20.5577 4.23098 21.4949 4.15914C22.0375 4.11781 22.6451 4.59183 22.6451 5.27698V9.99884C22.6451 10.2092 22.4632 10.3838 22.2595 10.3838C21.4795 10.3838 20.8589 9.74072 20.8589 8.98578C20.8589 8.11115 19.683 7.82321 19.2737 8.58828C18.6805 9.69569 17.5317 10.3837 16.2758 10.3837C15.2525 10.3838 10.2461 10.3838 9.22106 10.3838ZM10.6844 15.3015V11.8459H16.2758C17.5892 11.8459 18.8457 11.3161 19.7582 10.3801C20.0579 10.9136 20.5246 11.3411 21.0864 11.5938V15.3014C21.0864 18.1503 18.7539 20.4082 15.9701 20.4082C12.7796 20.4083 10.6844 17.9337 10.6844 15.3015ZM12.4388 23.3603C13.552 24.4635 13.1284 24.0436 14.1533 25.0593C13.4097 25.8065 13.6789 25.536 12.7797 26.4396L10.4655 24.1296L12.4388 23.3603Z" fill="#408B6E"/>
</svg>
