<svg width="8" height="9" viewBox="0 0 8 9" fill="none" xmlns="http://www.w3.org/2000/svg">
<path d="M7.76605 0.733946C7.45403 0.422018 6.94824 0.422018 6.63622 0.733946L4.005 3.36516L1.37379 0.733946C1.06026 0.431135 0.561903 0.435465 0.253689 0.743679C-0.0545252 1.05189 -0.0588562 1.55026 0.243955 1.86378L2.87517 4.495L0.243955 7.12621C0.0362413 7.32683 -0.0470627 7.62391 0.0260611 7.90328C0.099185 8.18264 0.317357 8.40082 0.596723 8.47394C0.876088 8.54706 1.17317 8.46376 1.37379 8.25604L4.005 5.62483L6.63622 8.25604C6.94974 8.55886 7.44811 8.55453 7.75632 8.24631C8.06454 7.9381 8.06887 7.43974 7.76605 7.12621L5.13484 4.495L7.76605 1.86378C8.07798 1.55176 8.07798 1.04597 7.76605 0.733946Z" fill="#408B6E"/>
</svg>
