<svg width="15" height="15" viewBox="0 0 15 15" fill="none" xmlns="http://www.w3.org/2000/svg">
<path d="M12.75 0H2.25C1.65326 0 1.08097 0.23705 0.65901 0.659001C0.237053 1.08095 0 1.65324 0 2.24997V9.74986C0 10.3466 0.237053 10.9189 0.65901 11.3408C1.08097 11.7628 1.65326 11.9998 2.25 11.9998H10.9425L13.7175 14.7823C13.7876 14.8518 13.8707 14.9068 13.9621 14.9441C14.0534 14.9814 14.1513 15.0004 14.25 14.9998C14.3484 15.0023 14.446 14.9818 14.535 14.9398C14.672 14.8835 14.7892 14.788 14.872 14.6652C14.9547 14.5424 14.9993 14.3979 15 14.2498V2.24997C15 1.65324 14.7629 1.08095 14.341 0.659001C13.919 0.23705 13.3467 0 12.75 0Z" fill="#408B6E"/>
</svg>
