<svg width="21" height="19" viewBox="0 0 21 19" fill="none" xmlns="http://www.w3.org/2000/svg">
<path d="M0.603145 0.247445C0.361152 0.332248 0.205293 0.46716 0.0822457 0.713856C0.00431585 0.864187 0.000214286 1.01837 0.000214286 6.199C0.000214286 12.0388 -0.016192 11.6726 0.238105 11.9231C0.484199 12.1698 0.603145 12.1968 1.44807 12.2122L2.21506 12.2276V13.4187C2.21506 14.7023 2.22326 14.7486 2.44065 15.0184C2.66623 15.2959 3.20764 15.4 3.55627 15.2304C3.64651 15.188 4.71702 14.498 5.93108 13.6963L8.14183 12.2392L11.4436 12.2199L14.7454 12.2007L14.9422 12.1081C15.1555 12.0118 15.3196 11.8345 15.4057 11.6148C15.4508 11.4953 15.459 10.5008 15.459 6.18743C15.4631 0.952842 15.459 0.906587 15.377 0.73313C15.2663 0.501851 15.1555 0.393922 14.9094 0.285992L14.7043 0.193481L7.73167 0.197336C1.95666 0.197336 0.730294 0.205044 0.603145 0.247445ZM10.9883 3.7436C11.2303 3.78985 11.5174 4.00957 11.6282 4.22543C11.7061 4.38347 11.7225 4.69955 11.6528 4.86144C11.5912 5.01563 11.3698 5.23919 11.1811 5.33171L11.0129 5.41651H7.75218C4.29866 5.41651 4.32737 5.41651 4.08128 5.23534C4.02385 5.19294 3.92542 5.08501 3.86389 4.99635C3.77366 4.86144 3.75315 4.79591 3.75315 4.56078C3.75315 4.31794 3.76545 4.26783 3.8762 4.12135C4.03616 3.90935 4.17151 3.81683 4.4176 3.75516C4.676 3.68963 10.6684 3.67807 10.9883 3.7436ZM11.218 7.30528C11.3082 7.34768 11.4395 7.45561 11.5092 7.54426C11.8414 7.95671 11.7266 8.51563 11.2508 8.77775L11.0539 8.88568L7.8137 8.89724C5.42659 8.90495 4.52835 8.89724 4.3971 8.86255C4.16331 8.80087 3.8803 8.56189 3.79006 8.34603C3.6342 7.95671 3.81877 7.51343 4.22073 7.31684L4.44221 7.20891L7.74808 7.21662C10.9596 7.22819 11.058 7.23204 11.218 7.30528Z" fill="white"/>
<path d="M17.2677 7.57823C17.2677 11.5514 17.2759 11.4241 16.9888 11.9708C16.6114 12.6823 15.8977 13.1916 15.0405 13.3526C14.7739 13.405 14.3063 13.4125 11.7346 13.4125H8.74045L7.24337 14.3711C6.41895 14.8991 5.74219 15.3448 5.74219 15.3597C5.74219 15.3785 5.79961 15.4346 5.86934 15.4871C6.15235 15.7043 6.00469 15.6968 9.54026 15.6968H12.7969L15.0446 17.1347C16.2833 17.9249 17.3497 18.5989 17.4194 18.6289C17.7476 18.7862 18.1741 18.7375 18.4571 18.5128C18.7771 18.2656 18.7853 18.2357 18.7853 16.8838V15.6968H19.5358C20.2618 15.6968 20.2946 15.693 20.4997 15.5994C20.6433 15.532 20.7581 15.4459 20.8484 15.3298L20.9796 15.1538L20.9919 9.94864C21.0001 6.27133 20.9919 4.70229 20.9591 4.60119C20.8976 4.41395 20.6925 4.20425 20.4669 4.11063C20.2905 4.03573 20.2003 4.03199 18.7771 4.02075L17.2677 4.00952V7.57823Z" fill="white"/>
</svg>
