<svg width="50" height="50" viewBox="0 0 50 50" fill="none" xmlns="http://www.w3.org/2000/svg">
<path d="M32.029 4.95519H16.8148C16.4102 4.95519 16.0823 5.2832 16.0823 5.68802C16.0823 6.09284 16.4102 6.42086 16.8148 6.42086H32.029C32.4336 6.42086 32.7614 6.09284 32.7614 5.68802C32.7614 5.2832 32.4336 4.95519 32.029 4.95519Z" fill="#408B6E"/>
<path d="M32.029 9.24419H16.8148C16.4102 9.24419 16.0823 9.5722 16.0823 9.97703C16.0823 10.3818 16.4102 10.7099 16.8148 10.7099H32.029C32.4336 10.7099 32.7614 10.3818 32.7614 9.97703C32.7614 9.5722 32.4336 9.24419 32.029 9.24419Z" fill="#408B6E"/>
<path d="M46.0472 25.3294H41.6991V23.2835C41.6991 20.587 39.5066 18.3934 36.8117 18.3934H28.5773C25.8824 18.3934 23.6899 20.587 23.6899 23.2835V25.3294H19.3417C17.1548 25.3294 15.3891 27.1035 15.3891 29.2843V46.0441C15.3891 48.2248 17.1623 49.999 19.3417 49.999H46.0473C48.2267 49.999 49.9999 48.2249 49.9999 46.0441V42.8685C49.9999 42.4637 49.6721 42.1357 49.2675 42.1357C48.8629 42.1357 48.5351 42.4637 48.5351 42.8685V46.0441C48.5351 47.4167 47.4191 48.5334 46.0473 48.5334H19.3417C17.97 48.5334 16.8539 47.4167 16.8539 46.0441V35.6576C18.0081 37.0815 19.7445 38.0149 21.697 38.0912V39.2101C21.697 40.6868 22.8978 41.8883 24.3737 41.8883C25.8496 41.8883 27.0503 40.6868 27.0503 39.2101V38.0962H38.3386V39.2101C38.3386 40.6868 39.5394 41.8883 41.0153 41.8883C42.4912 41.8883 43.6919 40.6868 43.6919 39.2101V38.0912C45.6445 38.0149 47.3808 37.0815 48.535 35.6576V39.4424C48.535 39.8472 48.8628 40.1753 49.2674 40.1753C49.672 40.1753 49.9998 39.8472 49.9998 39.4424V29.2841C49.9998 27.1041 48.2349 25.3294 46.0472 25.3294ZM25.1547 23.2835C25.1547 21.3953 26.6901 19.8591 28.5773 19.8591H36.8117C38.6989 19.8591 40.2342 21.3953 40.2342 23.2835V25.3294H38.7089V23.2835C38.7089 22.2369 37.8579 21.3853 36.8117 21.3853H28.5773C27.5312 21.3853 26.6801 22.2369 26.6801 23.2835V25.3294H25.1547V23.2835ZM28.145 25.3294V23.2835C28.145 23.0451 28.3388 22.851 28.5773 22.851H36.8117C37.05 22.851 37.2441 23.045 37.2441 23.2835V25.3294H28.145ZM25.5855 39.2101C25.5855 39.8787 25.0419 40.4226 24.3737 40.4226C23.7054 40.4226 23.1619 39.8787 23.1619 39.2101V36.5903C23.1619 35.9217 23.7054 35.3778 24.3737 35.3778C25.0419 35.3778 25.5855 35.9217 25.5855 36.5903V39.2101ZM42.2271 39.2101C42.2271 39.8787 41.6835 40.4226 41.0153 40.4226C40.347 40.4226 39.8035 39.8787 39.8035 39.2101V37.3709C39.8035 37.3684 39.8036 37.3659 39.8036 37.3634C39.8036 37.361 39.8035 37.3583 39.8035 37.3559V36.5904C39.8035 35.9218 40.347 35.3779 41.0153 35.3779C41.6835 35.3779 42.2271 35.9218 42.2271 36.5904V39.2101ZM43.6919 36.624V36.5904C43.6919 35.1137 42.4912 33.9122 41.0153 33.9122C39.5394 33.9122 38.3386 35.1137 38.3386 36.5904V36.6306H27.0503V36.5904C27.0503 35.1137 25.8496 33.9122 24.3737 33.9122C22.8978 33.9122 21.697 35.1137 21.697 36.5904V36.624C19.0036 36.4883 16.8539 34.2531 16.8539 31.525V29.2841C16.8539 27.9096 17.9673 26.795 19.3417 26.795H46.0473C47.4182 26.795 48.5351 27.9061 48.5351 29.2842V31.525C48.535 34.2531 46.3854 36.4883 43.6919 36.624Z" fill="#408B6E"/>
<path d="M14.445 48.5343H3.62197C2.43252 48.5343 1.46484 47.5661 1.46484 46.376V11.1749C1.46484 11.0167 1.48174 10.8612 1.51475 10.7102H8.18027C9.57197 10.7102 10.7042 9.57734 10.7042 8.18494V1.51561C10.8551 1.48268 11.0105 1.46568 11.1687 1.46568H36.0015C37.1909 1.46568 38.1586 2.43391 38.1586 3.62404V16.1978C38.1586 16.6026 38.4864 16.9307 38.891 16.9307C39.2956 16.9307 39.6234 16.6026 39.6234 16.1978V3.62404C39.6234 1.62573 37.9986 0 36.0015 0H11.1686C10.2011 0 9.29141 0.376875 8.60732 1.06135L1.06074 8.61233C0.37666 9.29681 0 10.2069 0 11.1749V46.376C0 48.3743 1.6248 50 3.62197 50H14.445C14.8496 50 15.1774 49.672 15.1774 49.2672C15.1774 48.8623 14.8496 48.5343 14.445 48.5343ZM9.23926 2.50211V8.18494C9.23926 8.76916 8.76416 9.24453 8.18018 9.24453H2.50068L9.23926 2.50211Z" fill="#408B6E"/>
</svg>
