<svg width="39" height="39" viewBox="0 0 39 39" fill="none" xmlns="http://www.w3.org/2000/svg">
<path d="M39 22.7097L38.35 12.3097C38.3397 12.1444 38.2667 11.9892 38.1459 11.8759C38.0251 11.7626 37.8656 11.6997 37.7 11.7H35.1C34.9344 11.6997 34.7749 11.7626 34.6541 11.8759C34.5333 11.9892 34.4603 12.1444 34.45 12.3097L33.8396 22.1H32.4604L31.85 12.3097C31.8397 12.1444 31.7667 11.9892 31.6459 11.8759C31.5251 11.7626 31.3656 11.6997 31.2 11.7H28.6C28.4344 11.6997 28.2749 11.7626 28.1541 11.8759C28.0333 11.9892 27.9603 12.1444 27.95 12.3097L27.3396 22.1H25.9603L25.35 12.3097C25.3397 12.1444 25.2667 11.9892 25.1459 11.8759C25.0251 11.7626 24.8656 11.6997 24.7 11.7H22.1C21.9344 11.6997 21.7749 11.7626 21.6541 11.8759C21.5333 11.9892 21.4603 12.1444 21.45 12.3097L20.8396 22.1H19.4604L18.85 12.3097C18.8397 12.1444 18.7667 11.9892 18.6459 11.8759C18.5251 11.7626 18.3656 11.6997 18.2 11.7H15.6C15.4344 11.6997 15.2749 11.7626 15.1541 11.8759C15.0333 11.9892 14.9603 12.1444 14.95 12.3097L14.3 22.75V27.95H10.4V0.65C10.4 0.477609 10.3315 0.312279 10.2096 0.190381C10.0877 0.0684819 9.92239 0 9.75 0H0.65C0.477609 0 0.312279 0.0684819 0.190381 0.190381C0.0684819 0.312279 0 0.477609 0 0.65V38.35C0 38.5224 0.0684819 38.6877 0.190381 38.8096C0.312279 38.9315 0.477609 39 0.65 39H9.75C9.92239 39 10.0877 38.9315 10.2096 38.8096C10.3315 38.6877 10.4 38.5224 10.4 38.35V33.15H14.3V38.35C14.3 38.5224 14.3685 38.6877 14.4904 38.8096C14.6123 38.9315 14.7776 39 14.95 39H38.35C38.5224 39 38.6877 38.9315 38.8096 38.8096C38.9315 38.6877 39 38.5224 39 38.35V22.7097ZM6.5 37.7H3.9V31.2H6.5V37.7ZM9.1 37.7H7.8V30.55C7.8 30.3776 7.73152 30.2123 7.60962 30.0904C7.48772 29.9685 7.32239 29.9 7.15 29.9H3.25C3.07761 29.9 2.91228 29.9685 2.79038 30.0904C2.66848 30.2123 2.6 30.3776 2.6 30.55V37.7H1.3V1.3H9.1V37.7ZM35.7104 13H37.0896L37.659 22.1H35.1416L35.7104 13ZM29.2104 13H30.5896L31.1584 22.1H28.6416L29.2104 13ZM22.7103 13H24.0896L24.6584 22.1H22.1416L22.7103 13ZM17.5896 13L18.1584 22.1H15.6416L16.2104 13H17.5896ZM10.4 31.85V29.25H14.3V31.85H10.4ZM33.8 29.9H19.5V28.6H33.8V29.9ZM19.5 31.2H33.8V32.5H19.5V31.2ZM19.5 33.8H33.8V35.1H19.5V33.8ZM19.5 36.4H33.8V37.7H19.5V36.4ZM35.1 37.7V27.95C35.1 27.7776 35.0315 27.6123 34.9096 27.4904C34.7877 27.3685 34.6224 27.3 34.45 27.3H18.85C18.6776 27.3 18.5123 27.3685 18.3904 27.4904C18.2685 27.6123 18.2 27.7776 18.2 27.95V37.7H15.6V23.4H37.7V37.7H35.1Z" fill="#164B71"/>
<path d="M35.854 9.75007H37.154C37.1456 9.33084 37.2971 8.92413 37.5778 8.61257C38.0103 8.07502 38.2461 7.40581 38.2461 6.71587C38.2461 6.02594 38.0103 5.35673 37.5778 4.81917C37.2971 4.50761 37.1456 4.10091 37.154 3.68167C37.1457 3.26284 37.2972 2.85656 37.5778 2.54547C38.0181 2.01285 38.255 1.3411 38.246 0.650073H36.946C36.9543 1.06891 36.8027 1.47518 36.5222 1.78627C36.0818 2.3189 35.845 2.99064 35.854 3.68167C35.845 4.37309 36.0818 5.04523 36.5222 5.57837C36.7955 5.89433 36.9459 6.29812 36.9459 6.71587C36.9459 7.13363 36.7955 7.53742 36.5222 7.85337C36.0818 8.38651 35.845 9.05865 35.854 9.75007Z" fill="#164B71"/>
<path d="M29.3542 9.75007H30.6542C30.6458 9.33084 30.7974 8.92413 31.078 8.61257C31.5105 8.07502 31.7463 7.40581 31.7463 6.71587C31.7463 6.02594 31.5105 5.35673 31.078 4.81917C30.7974 4.50761 30.6458 4.10091 30.6542 3.68167C30.6459 3.26284 30.7974 2.85656 31.078 2.54547C31.5184 2.01285 31.7552 1.3411 31.7462 0.650073H30.4462C30.4545 1.06891 30.303 1.47518 30.0224 1.78627C29.582 2.3189 29.3452 2.99064 29.3542 3.68167C29.3453 4.37309 29.5821 5.04523 30.0224 5.57837C30.2957 5.89433 30.4461 6.29812 30.4461 6.71587C30.4461 7.13363 30.2957 7.53742 30.0224 7.85337C29.5821 8.38651 29.3453 9.05865 29.3542 9.75007Z" fill="#164B71"/>
<path d="M22.854 9.75007H24.154C24.1456 9.33084 24.2972 8.92413 24.5778 8.61257C25.0103 8.07502 25.2461 7.40581 25.2461 6.71587C25.2461 6.02594 25.0103 5.35673 24.5778 4.81917C24.2972 4.50761 24.1456 4.10091 24.154 3.68167C24.1457 3.26284 24.2972 2.85656 24.5778 2.54547C25.0182 2.01285 25.255 1.3411 25.246 0.650073H23.946C23.9543 1.06891 23.8028 1.47518 23.5222 1.78627C23.0819 2.3189 22.845 2.99064 22.854 3.68167C22.8451 4.37309 23.0819 5.04523 23.5222 5.57837C23.7955 5.89433 23.9459 6.29812 23.9459 6.71587C23.9459 7.13363 23.7955 7.53742 23.5222 7.85337C23.0819 8.38651 22.8451 9.05865 22.854 9.75007Z" fill="#164B71"/>
<path d="M16.354 9.75007H17.654C17.6456 9.33084 17.7971 8.92413 18.0778 8.61257C18.5103 8.07502 18.7461 7.40581 18.7461 6.71587C18.7461 6.02594 18.5103 5.35673 18.0778 4.81917C17.7971 4.50761 17.6456 4.10091 17.654 3.68167C17.6457 3.26284 17.7972 2.85656 18.0778 2.54547C18.5181 2.01285 18.755 1.3411 18.746 0.650073H17.446C17.4543 1.06891 17.3027 1.47518 17.0222 1.78627C16.5818 2.3189 16.345 2.99064 16.354 3.68167C16.345 4.37309 16.5818 5.04523 17.0222 5.57837C17.2955 5.89433 17.4459 6.29812 17.4459 6.71587C17.4459 7.13363 17.2955 7.53742 17.0222 7.85337C16.5818 8.38651 16.345 9.05865 16.354 9.75007Z" fill="#164B71"/>
<path d="M3.24993 6.50007H7.14993C7.32232 6.50007 7.48765 6.43159 7.60955 6.30969C7.73145 6.18779 7.79993 6.02246 7.79993 5.85007V3.25007C7.79993 3.07768 7.73145 2.91235 7.60955 2.79046C7.48765 2.66856 7.32232 2.60007 7.14993 2.60007H3.24993C3.07754 2.60007 2.91221 2.66856 2.79031 2.79046C2.66841 2.91235 2.59993 3.07768 2.59993 3.25007V5.85007C2.59993 6.02246 2.66841 6.18779 2.79031 6.30969C2.91221 6.43159 3.07754 6.50007 3.24993 6.50007ZM3.89993 3.90007H6.49993V5.20007H3.89993V3.90007Z" fill="#164B71"/>
<path d="M3.24993 11.7H7.14993C7.32232 11.7 7.48765 11.6315 7.60955 11.5096C7.73145 11.3877 7.79993 11.2223 7.79993 11.05V8.44995C7.79993 8.27757 7.73145 8.11223 7.60955 7.99034C7.48765 7.86844 7.32232 7.79995 7.14993 7.79995H3.24993C3.07754 7.79995 2.91221 7.86844 2.79031 7.99034C2.66841 8.11223 2.59993 8.27757 2.59993 8.44995V11.05C2.59993 11.2223 2.66841 11.3877 2.79031 11.5096C2.91221 11.6315 3.07754 11.7 3.24993 11.7ZM3.89993 9.09995H6.49993V10.4H3.89993V9.09995Z" fill="#164B71"/>
<path d="M3.24993 16.8996H7.14993C7.32232 16.8996 7.48765 16.8311 7.60955 16.7092C7.73145 16.5873 7.79993 16.422 7.79993 16.2496V13.6496C7.79993 13.4772 7.73145 13.3119 7.60955 13.19C7.48765 13.0681 7.32232 12.9996 7.14993 12.9996H3.24993C3.07754 12.9996 2.91221 13.0681 2.79031 13.19C2.66841 13.3119 2.59993 13.4772 2.59993 13.6496V16.2496C2.59993 16.422 2.66841 16.5873 2.79031 16.7092C2.91221 16.8311 3.07754 16.8996 3.24993 16.8996ZM3.89993 14.2996H6.49993V15.5996H3.89993V14.2996Z" fill="#164B71"/>
<path d="M3.24993 22.1H7.14993C7.32232 22.1 7.48765 22.0315 7.60955 21.9096C7.73145 21.7877 7.79993 21.6224 7.79993 21.45V18.85C7.79993 18.6776 7.73145 18.5123 7.60955 18.3904C7.48765 18.2685 7.32232 18.2 7.14993 18.2H3.24993C3.07754 18.2 2.91221 18.2685 2.79031 18.3904C2.66841 18.5123 2.59993 18.6776 2.59993 18.85V21.45C2.59993 21.6224 2.66841 21.7877 2.79031 21.9096C2.91221 22.0315 3.07754 22.1 3.24993 22.1ZM3.89993 19.5H6.49993V20.8H3.89993V19.5Z" fill="#164B71"/>
<path d="M3.24993 27.3001H7.14993C7.32232 27.3001 7.48765 27.2317 7.60955 27.1098C7.73145 26.9879 7.79993 26.8225 7.79993 26.6501V24.0501C7.79993 23.8777 7.73145 23.7124 7.60955 23.5905C7.48765 23.4686 7.32232 23.4001 7.14993 23.4001H3.24993C3.07754 23.4001 2.91221 23.4686 2.79031 23.5905C2.66841 23.7124 2.59993 23.8777 2.59993 24.0501V26.6501C2.59993 26.8225 2.66841 26.9879 2.79031 27.1098C2.91221 27.2317 3.07754 27.3001 3.24993 27.3001ZM3.89993 24.7001H6.49993V26.0001H3.89993V24.7001Z" fill="#164B71"/>
</svg>
