<svg width="24" height="24" viewBox="0 0 24 24" fill="none" xmlns="http://www.w3.org/2000/svg">
<circle cx="12" cy="12" r="11.5" stroke="white"/>
<g clip-path="url(#clip0)">
<path d="M12.8554 6.0375C12.1687 6.15234 11.5874 6.47578 11.2031 6.95391C10.9335 7.28672 10.7742 7.61484 10.664 8.05781C10.5726 8.41875 10.5468 8.77734 10.5468 9.62344V10.3125H9.71947C8.91088 10.3125 8.88978 10.3148 8.83822 10.3617C8.8101 10.3875 8.77728 10.4367 8.76322 10.4695C8.73275 10.5516 8.7351 12.5367 8.76791 12.6281C8.82181 12.7828 8.82885 12.7852 9.73119 12.7922L10.5468 12.7992L10.5515 15.3281L10.5585 17.857L10.6265 17.9273L10.6968 18H11.8312H12.9656L13.0335 17.9273L13.1015 17.8547V15.3258V12.7992L14.0578 12.7922C15.0843 12.7852 15.0773 12.7852 15.1453 12.6586C15.1687 12.6141 15.1757 12.368 15.1757 11.5266V10.4484L15.0984 10.3805L15.0234 10.3125H14.0601H13.0968L13.1062 9.57891C13.1179 8.75391 13.1296 8.69062 13.289 8.53125C13.4484 8.37187 13.5117 8.36016 14.3437 8.34609C15.171 8.32969 15.1874 8.32734 15.2343 8.15859C15.2507 8.10234 15.2578 7.74375 15.2531 7.10859L15.246 6.14297L15.1781 6.07266L15.1078 6L14.0765 6.00234C13.3265 6.00469 12.9913 6.01406 12.8554 6.0375Z" fill="white"/>
</g>
<defs>
<clipPath id="clip0">
<rect width="12" height="12" fill="white" transform="translate(6 6)"/>
</clipPath>
</defs>
</svg>
