<svg width="8" height="12" viewBox="0 0 8 12" fill="none" xmlns="http://www.w3.org/2000/svg">
<path d="M4.85541 0.0374998C4.16869 0.152344 3.58744 0.475781 3.20306 0.953906C2.93353 1.28672 2.77416 1.61484 2.664 2.05781C2.5726 2.41875 2.54681 2.77734 2.54681 3.62344V4.3125H1.71947C0.910876 4.3125 0.889783 4.31484 0.83822 4.36172C0.810095 4.3875 0.777283 4.43672 0.76322 4.46953C0.732751 4.55156 0.735095 6.53672 0.767908 6.62812C0.821814 6.78281 0.828845 6.78516 1.73119 6.79219L2.54681 6.79922L2.5515 9.32812L2.55853 11.857L2.6265 11.9273L2.69681 12H3.83119H4.96556L5.03353 11.9273L5.1015 11.8547V9.32578V6.79922L6.05775 6.79219C7.08431 6.78516 7.07728 6.78516 7.14525 6.65859C7.16869 6.61406 7.17572 6.36797 7.17572 5.52656V4.44844L7.09838 4.38047L7.02338 4.3125H6.0601H5.09681L5.10619 3.57891C5.11791 2.75391 5.12963 2.69062 5.289 2.53125C5.44838 2.37187 5.51166 2.36016 6.34369 2.34609C7.17103 2.32969 7.18744 2.32734 7.23431 2.15859C7.25072 2.10234 7.25775 1.74375 7.25306 1.10859L7.24603 0.142969L7.17806 0.0726561L7.10775 -1.78814e-07L6.0765 0.00234357C5.3265 0.00468732 4.99135 0.0140623 4.85541 0.0374998Z" fill="white"/>
</svg>
