<svg width="12" height="13" viewBox="0 0 12 13" fill="none" xmlns="http://www.w3.org/2000/svg">
<path d="M11.1384 0.391998H0.800943C0.631514 0.391998 0.469024 0.459304 0.349219 0.579108C0.229415 0.698913 0.162109 0.861403 0.162109 1.03083V11.3683C0.162109 11.4522 0.178633 11.5353 0.210738 11.6128C0.242842 11.6903 0.289898 11.7607 0.349219 11.82C0.408541 11.8794 0.478965 11.9264 0.556472 11.9585C0.633979 11.9906 0.71705 12.0072 0.800943 12.0072H6.3646V7.50628H4.85463V5.76401H6.3646V4.4573C6.33332 4.15052 6.36954 3.84061 6.47072 3.54931C6.57189 3.25801 6.73557 2.99237 6.95028 2.77102C7.16498 2.54967 7.42551 2.37798 7.7136 2.26798C8.00169 2.15799 8.31035 2.11235 8.61794 2.13427C9.06996 2.13149 9.52176 2.15476 9.97111 2.20396V3.77201H9.0477C8.31595 3.77201 8.17657 4.12046 8.17657 4.62572V5.74658H9.91884L9.69234 7.48886H8.17657V12.0072H11.1384C11.2223 12.0072 11.3054 11.9906 11.3829 11.9585C11.4604 11.9264 11.5308 11.8794 11.5902 11.82C11.6495 11.7607 11.6965 11.6903 11.7286 11.6128C11.7607 11.5353 11.7773 11.4522 11.7773 11.3683V1.03083C11.7773 0.946939 11.7607 0.863868 11.7286 0.786361C11.6965 0.708854 11.6495 0.63843 11.5902 0.579108C11.5308 0.519787 11.4604 0.472731 11.3829 0.440627C11.3054 0.408522 11.2223 0.391998 11.1384 0.391998Z" fill="#D5D6D8"/>
</svg>
