<svg width="90" height="90" viewBox="0 0 90 90" fill="none" xmlns="http://www.w3.org/2000/svg">
<g clip-path="url(#clip0)">
<path d="M27.162 31.9847C26.9916 32.182 22.041 46.7198 22.041 47.0068C22.041 47.2131 22.2294 47.5539 22.3459 47.5539C22.3549 47.5539 23.7091 48.0202 25.3593 48.5852C27.153 49.2041 28.4714 49.6166 28.6238 49.5987C28.7763 49.5807 28.9467 49.4821 29.0364 49.3476C29.1261 49.222 30.2561 46.0113 31.5565 42.2087L33.9242 35.294L34.4175 35.4644C35.0452 35.6887 36.1035 35.7604 36.7761 35.6348C37.0631 35.581 37.6909 35.3748 38.1573 35.1775C39.3052 34.6842 39.8434 34.5766 40.498 34.729C40.9196 34.8187 52.0673 38.6213 52.1391 38.6931C52.148 38.711 52.0942 38.8993 52.0225 39.1146C51.6727 40.1549 51.1077 40.5944 50.1301 40.5764C49.6638 40.5764 49.0898 40.406 46.7401 39.6079C44.4442 38.8276 43.8612 38.6662 43.6729 38.7289C43.4935 38.7917 43.3679 38.998 43.072 39.6617C41.655 42.9441 39.2514 44.1548 35.8345 43.3028C34.839 43.0517 34.7762 43.0428 34.5609 43.1952C34.3905 43.3028 34.3278 43.4194 34.3278 43.6347C34.3278 44.1279 34.4533 44.2176 35.5833 44.5136C36.534 44.7557 38.2918 44.8454 39.099 44.684C41.2066 44.2804 43.1079 42.684 44.0137 40.5764C44.1213 40.3253 44.2558 40.1101 44.3007 40.1101C44.3455 40.1101 45.4845 40.4778 46.8208 40.9352C48.9822 41.6616 49.3499 41.7603 50.0225 41.7962C50.9642 41.841 51.6458 41.6168 52.2377 41.0697C52.9821 40.3881 53.6547 38.442 53.3229 37.9397C53.2153 37.7693 52.0494 37.3478 47.2782 35.6976C44.0226 34.5766 41.1886 33.6169 40.9644 33.5721C40.4532 33.4555 39.4218 33.4555 38.9106 33.5721C38.6954 33.6169 38.1304 33.8232 37.6551 34.0295C36.4353 34.5497 35.7448 34.5855 34.6327 34.1999C31.144 32.9623 27.7987 31.8591 27.5566 31.8591C27.3952 31.8591 27.2158 31.9129 27.162 31.9847ZM32.3009 36.2447C32.0318 37.016 31.0005 40.0294 29.996 42.9441L28.1844 48.2444L25.8078 47.4373C24.4984 46.9889 23.4222 46.6212 23.4132 46.6122C23.3952 46.6032 24.3728 43.7423 25.5746 40.2356C26.7763 36.738 27.7987 33.7246 27.8615 33.5452L27.9691 33.2134L30.3817 34.0295L32.7852 34.8456L32.3009 36.2447Z" fill="white"/>
<path d="M57.4209 33.3839C54.4882 34.8278 54.264 34.9713 54.3626 35.4018C54.3896 35.5004 55.8873 38.5856 57.6899 42.2626L60.9634 48.9441L60.3625 49.5091C57.672 52.0203 55.9232 53.3656 53.7438 54.5763C52.0578 55.518 41.4571 60.6479 41.206 60.6479C40.8562 60.6479 40.4167 60.4237 40.2015 60.1277C39.9324 59.76 39.9504 59.0336 40.2463 58.7107C40.3809 58.5672 41.7261 57.8498 43.6185 56.9081C45.3494 56.0561 46.8202 55.2938 46.883 55.213C47.0444 55.0247 47.0354 54.5673 46.865 54.4059C46.7933 54.3341 46.6139 54.2624 46.4704 54.2624C46.3 54.2624 44.5781 55.0606 41.6813 56.4776C39.1881 57.6973 37.0087 58.7107 36.8383 58.7376C36.1747 58.8184 35.5558 58.2533 35.5558 57.5628C35.5558 56.7825 35.5469 56.7915 40.4795 54.388C42.9458 53.1862 45.0086 52.1548 45.0714 52.092C45.1341 52.0293 45.1969 51.8409 45.1969 51.6795C45.2059 51.3028 44.892 51.0158 44.5512 51.0786C44.4256 51.1055 42.1297 52.2086 39.4392 53.527C36.3182 55.0516 34.4169 55.9305 34.1837 55.9574C33.4752 56.0471 32.8922 55.5 32.8922 54.7467C32.8922 54.0472 33.0267 53.9664 37.9145 51.5808C40.354 50.388 42.4077 49.3746 42.4795 49.3208C42.6768 49.1594 42.7575 48.8275 42.6678 48.5854C42.5871 48.3701 42.2284 48.2087 41.9593 48.2625C41.8876 48.2715 40.0221 49.1683 37.8159 50.2535C35.6007 51.3297 33.6904 52.2176 33.5649 52.2176C32.677 52.2176 32.0671 51.1324 32.5335 50.3791C32.7129 50.0921 32.9998 49.9217 34.946 48.98C36.1567 48.3881 37.224 47.832 37.3137 47.7603C37.5199 47.5719 37.511 47.0877 37.3047 46.8993C37.215 46.8096 37.0356 46.7469 36.9101 46.7469C36.5782 46.7469 32.3182 48.8544 31.9057 49.2221C31.3945 49.6885 31.1523 50.2445 31.1523 51.0069C31.1523 51.7512 31.4393 52.397 31.9505 52.8185L32.2644 53.0786L32.0043 53.5718C31.1344 55.1503 32.0582 56.9709 33.8429 57.204L34.3003 57.2579L34.3541 57.7691C34.4617 59.0336 35.4482 59.9215 36.7307 59.9304C37.1881 59.9304 37.4482 59.8677 38.0311 59.6165C38.4257 59.4461 38.7576 59.3027 38.7576 59.3027C38.7665 59.3027 38.7755 59.4731 38.7934 59.6883C38.8473 60.4955 39.5468 61.4102 40.3091 61.6703C40.8472 61.8587 41.6544 61.8497 42.0938 61.6703C42.7127 61.4102 53.1788 56.2803 54.1026 55.7781C56.4613 54.5045 57.9769 53.3745 60.8917 50.7019L62.1203 49.5809L65.0171 48.137L67.9139 46.702L67.9409 46.3881C67.9588 46.128 67.3848 44.8814 64.5508 39.1237C62.6764 35.3031 61.071 32.1193 60.9903 32.0566C60.9096 32.0028 60.7123 31.9489 60.5688 31.9579C60.4074 31.9579 59.098 32.5498 57.4209 33.3839ZM63.4566 39.7425C65.1427 43.2133 66.5149 46.0652 66.4969 46.0832C66.3714 46.2087 61.9948 48.2715 61.9679 48.2087C61.9499 48.1728 60.5509 45.3119 58.8648 41.8591L55.7797 35.5812L57.9949 34.487C59.2056 33.8951 60.237 33.4108 60.2908 33.4198C60.3356 33.4287 61.7616 36.2807 63.4566 39.7425Z" fill="white"/>
</g>
<circle cx="45.4595" cy="45.4591" r="33.1939" stroke="white" stroke-width="8"/>
<circle cx="45" cy="45" r="44.5" stroke="white" stroke-dasharray="6 4"/>
<defs>
<clipPath id="clip0">
<rect width="45.9184" height="45.9184" fill="white" transform="translate(22.041 23.8776)"/>
</clipPath>
</defs>
</svg>
