<svg width="24" height="24" viewBox="0 0 24 24" fill="none" xmlns="http://www.w3.org/2000/svg">
<circle cx="12" cy="12" r="11.5" stroke="white"/>
<g clip-path="url(#clip0)">
<path d="M8.81738 7.21991C8.58008 7.27089 8.41309 7.35878 8.26543 7.50995C8.08438 7.69452 8 7.91425 8 8.2078C8 8.60682 8.1916 8.92323 8.53613 9.09374C8.79453 9.2203 9.15488 9.24843 9.44492 9.16405C9.91426 9.02694 10.2061 8.62264 10.1744 8.14803C10.1357 7.56971 9.69805 7.19003 9.07754 7.1953C8.99316 7.1953 8.87539 7.2076 8.81738 7.21991Z" fill="white"/>
<path d="M14.6006 9.8582C13.9484 9.91973 13.4773 10.1816 13.1293 10.6738L13.0537 10.7828L13.0484 10.3855L13.0449 9.98828H12.0729H11.1025V12.8975V15.8066H12.0746H13.0449V14.1666C13.0449 13.2666 13.0537 12.4527 13.0625 12.3596C13.0713 12.2664 13.0959 12.1469 13.1152 12.0959C13.3139 11.5949 13.7938 11.3189 14.3018 11.4139C14.6199 11.4719 14.8502 11.6881 14.9697 12.0361C15.0523 12.2822 15.0523 12.2857 15.0611 14.0963L15.0682 15.8066H16.035H17V13.9715C17 11.9781 16.9982 11.9289 16.9016 11.5352C16.7873 11.0693 16.6098 10.7389 16.3162 10.4436C16.223 10.3521 16.1 10.2449 16.042 10.208C15.8064 10.0533 15.5182 9.94082 15.2369 9.89336C15.0857 9.86699 14.7201 9.84766 14.6006 9.8582Z" fill="white"/>
<path d="M8.10547 12.8975V15.8066H9.08105H10.0566V12.8975V9.98828H9.08105H8.10547V12.8975Z" fill="white"/>
</g>
<defs>
<clipPath id="clip0">
<rect width="9" height="9" fill="white" transform="translate(8 7)"/>
</clipPath>
</defs>
</svg>
