<svg width="9" height="9" viewBox="0 0 9 9" fill="none" xmlns="http://www.w3.org/2000/svg">
<g clip-path="url(#clip0)">
<path d="M0.817383 0.21991C0.580078 0.270886 0.413086 0.358777 0.26543 0.509949C0.084375 0.694519 0 0.914246 0 1.2078C0 1.60682 0.191602 1.92323 0.536133 2.09374C0.794531 2.2203 1.15488 2.24843 1.44492 2.16405C1.91426 2.02694 2.20605 1.62264 2.17441 1.14803C2.13574 0.569715 1.69805 0.190027 1.07754 0.1953C0.993164 0.1953 0.875391 0.207605 0.817383 0.21991Z" fill="white"/>
<path d="M6.60059 2.8582C5.94844 2.91973 5.47734 3.18164 5.1293 3.67383L5.05371 3.78281L5.04844 3.38555L5.04492 2.98828H4.07285H3.10254V5.89746V8.80664H4.07461H5.04492V7.1666C5.04492 6.2666 5.05371 5.45274 5.0625 5.35957C5.07129 5.26641 5.0959 5.14688 5.11523 5.0959C5.31387 4.59492 5.79375 4.31895 6.30176 4.41387C6.61992 4.47188 6.8502 4.68809 6.96973 5.03613C7.05234 5.28223 7.05234 5.28574 7.06113 7.09629L7.06816 8.80664H8.03496H9V6.97148C9 4.97813 8.99824 4.92891 8.90156 4.53516C8.7873 4.06934 8.60977 3.73887 8.31621 3.44356C8.22305 3.35215 8.1 3.24492 8.04199 3.20801C7.80645 3.05332 7.51816 2.94082 7.23691 2.89336C7.08574 2.86699 6.72012 2.84766 6.60059 2.8582Z" fill="white"/>
<path d="M0.105469 5.89746V8.80664H1.08105H2.05664V5.89746V2.98828H1.08105H0.105469V5.89746Z" fill="white"/>
</g>
<defs>
<clipPath id="clip0">
<rect width="9" height="9" fill="white"/>
</clipPath>
</defs>
</svg>
