<svg width="12" height="13" viewBox="0 0 12 13" fill="none" xmlns="http://www.w3.org/2000/svg">
<path d="M10.8866 0.516927H1.04854C0.937949 0.515391 0.828141 0.535655 0.725384 0.576561C0.622628 0.617468 0.528936 0.678215 0.449659 0.755335C0.370382 0.832454 0.307074 0.924435 0.263349 1.02602C0.219624 1.12761 0.196339 1.23682 0.194824 1.34741V11.3016C0.196339 11.4122 0.219624 11.5214 0.263349 11.623C0.307074 11.7246 0.370382 11.8166 0.449659 11.8937C0.528936 11.9708 0.622628 12.0315 0.725384 12.0724C0.828141 12.1134 0.937949 12.1336 1.04854 12.1321H10.8866C10.9972 12.1336 11.107 12.1134 11.2097 12.0724C11.3125 12.0315 11.4062 11.9708 11.4855 11.8937C11.5647 11.8166 11.628 11.7246 11.6718 11.623C11.7155 11.5214 11.7388 11.4122 11.7403 11.3016V1.34741C11.7388 1.23682 11.7155 1.12761 11.6718 1.02602C11.628 0.924435 11.5647 0.832454 11.4855 0.755335C11.4062 0.678215 11.3125 0.617468 11.2097 0.576561C11.107 0.535655 10.9972 0.515391 10.8866 0.516927ZM3.69679 10.2388H1.95452V5.01199H3.69679V10.2388ZM2.82566 4.28024C2.58538 4.28024 2.35493 4.18478 2.18503 4.01488C2.01513 3.84498 1.91967 3.61454 1.91967 3.37425C1.91967 3.13397 2.01513 2.90353 2.18503 2.73363C2.35493 2.56372 2.58538 2.46827 2.82566 2.46827C2.95325 2.4538 3.08245 2.46645 3.20482 2.50537C3.32718 2.5443 3.43995 2.60864 3.53572 2.69416C3.6315 2.77969 3.70813 2.88449 3.7606 3.00169C3.81307 3.11889 3.84019 3.24585 3.84019 3.37425C3.84019 3.50266 3.81307 3.62962 3.7606 3.74682C3.70813 3.86402 3.6315 3.96881 3.53572 4.05434C3.43995 4.13987 3.32718 4.20421 3.20482 4.24314C3.08245 4.28206 2.95325 4.29471 2.82566 4.28024ZM9.98059 10.2388H8.23832V7.43375C8.23832 6.73103 7.98859 6.27223 7.35557 6.27223C7.15966 6.27367 6.96889 6.33512 6.80898 6.4483C6.64907 6.56149 6.52769 6.72097 6.4612 6.90526C6.41575 7.04176 6.39606 7.18552 6.40312 7.32921V10.233H4.66085C4.66085 10.233 4.66085 5.4824 4.66085 5.00618H6.40312V5.74375C6.5614 5.46911 6.7916 5.24285 7.06893 5.08935C7.34626 4.93584 7.66021 4.86091 7.97698 4.87261C9.13849 4.87261 9.98059 5.62179 9.98059 7.23049V10.2388Z" fill="#D5D6D8"/>
</svg>
