<svg width="12" height="13" viewBox="0 0 12 13" fill="none" xmlns="http://www.w3.org/2000/svg">
<path d="M5.96969 5.06942C5.68483 5.06942 5.40636 5.15389 5.16951 5.31215C4.93266 5.47041 4.74805 5.69535 4.63904 5.95852C4.53003 6.2217 4.50151 6.51129 4.55708 6.79068C4.61266 7.07007 4.74983 7.3267 4.95125 7.52813C5.15268 7.72955 5.40932 7.86673 5.6887 7.9223C5.96809 7.97787 6.25768 7.94935 6.52086 7.84034C6.78403 7.73133 7.00897 7.54672 7.16723 7.30987C7.32549 7.07302 7.40997 6.79456 7.40997 6.50969C7.40997 6.32055 7.37271 6.13327 7.30033 5.95852C7.22795 5.78378 7.12186 5.62501 6.98812 5.49126C6.85437 5.35752 6.6956 5.25143 6.52086 5.17905C6.34611 5.10667 6.15883 5.06942 5.96969 5.06942ZM11.7366 3.64656C11.7336 3.19807 11.651 2.75369 11.4927 2.33405C11.3761 2.02698 11.1958 1.74812 10.9635 1.51587C10.7313 1.28362 10.4524 1.10326 10.1453 0.986689C9.7257 0.828412 9.28131 0.745826 8.83282 0.742771C8.08364 0.702118 7.86296 0.702118 5.96969 0.702118C4.07642 0.702118 3.85573 0.702118 3.10655 0.742771C2.65807 0.745826 2.21368 0.828412 1.79404 0.986689C1.48697 1.10326 1.20811 1.28362 0.975859 1.51587C0.743609 1.74812 0.563249 2.02698 0.446681 2.33405C0.288403 2.75369 0.205818 3.19807 0.202762 3.64656C0.162109 4.39574 0.162109 4.61642 0.162109 6.50969C0.162109 8.40296 0.162109 8.62365 0.202762 9.37283C0.209014 9.82289 0.291487 10.2686 0.446681 10.6912C0.562732 10.9968 0.742942 11.2741 0.97517 11.5042C1.20642 11.7379 1.48588 11.9182 1.79404 12.0327C2.21368 12.191 2.65807 12.2736 3.10655 12.2766C3.85573 12.3173 4.07642 12.3173 5.96969 12.3173C7.86296 12.3173 8.08364 12.3173 8.83282 12.2766C9.28131 12.2736 9.7257 12.191 10.1453 12.0327C10.4535 11.9182 10.7329 11.7379 10.9642 11.5042C11.1964 11.2741 11.3766 10.9968 11.4927 10.6912C11.6508 10.2695 11.7334 9.82319 11.7366 9.37283C11.7773 8.62365 11.7773 8.40296 11.7773 6.50969C11.7773 4.61642 11.7773 4.39574 11.7366 3.64656ZM10.2615 8.29262C10.2428 8.65101 10.1664 9.00402 10.035 9.33799C9.92225 9.61657 9.75464 9.86963 9.54213 10.0821C9.32962 10.2946 9.07656 10.4623 8.79798 10.575C8.46085 10.699 8.10587 10.7677 7.7468 10.7783C7.28801 10.7783 7.16605 10.7783 5.96969 10.7783C4.77333 10.7783 4.65137 10.7783 4.19257 10.7783C3.8335 10.7677 3.47852 10.699 3.1414 10.575C2.8534 10.468 2.59332 10.2972 2.3806 10.0755C2.17018 9.8672 2.00767 9.61551 1.90438 9.33799C1.77984 9.00121 1.71308 8.64582 1.70692 8.28681C1.70692 7.82801 1.70692 7.70606 1.70692 6.50969C1.70692 5.31333 1.70692 5.19137 1.70692 4.73258C1.71308 4.37357 1.77984 4.01818 1.90438 3.6814C2.01141 3.39341 2.18214 3.13333 2.40383 2.92061C2.6131 2.71132 2.86453 2.54898 3.1414 2.44439C3.47852 2.32034 3.8335 2.2517 4.19257 2.24113C4.65137 2.24113 4.77333 2.24113 5.96969 2.24113C7.16605 2.24113 7.28801 2.24113 7.7468 2.24113C8.10587 2.2517 8.46085 2.32034 8.79798 2.44439C9.08597 2.55141 9.34605 2.72215 9.55877 2.94384C9.7692 3.15219 9.93171 3.40388 10.035 3.6814C10.159 4.01853 10.2277 4.37351 10.2383 4.73258C10.2383 5.19137 10.2383 5.31333 10.2383 6.50969C10.2383 7.70606 10.2789 7.82801 10.2615 8.28681V8.29262ZM9.33227 3.97178C9.26313 3.78419 9.15411 3.61383 9.01273 3.47246C8.87136 3.33108 8.701 3.22206 8.5134 3.15292C8.25582 3.06363 7.98454 3.02038 7.71196 3.02515C7.25897 3.02515 7.1312 3.02515 5.96969 3.02515C4.80817 3.02515 4.6804 3.02515 4.22741 3.02515C3.95345 3.02783 3.68212 3.07895 3.42597 3.17615C3.24125 3.24215 3.07269 3.34672 2.9315 3.4829C2.79031 3.61908 2.67973 3.78376 2.6071 3.96598C2.52276 4.22463 2.48156 4.49539 2.48514 4.76742C2.48514 5.22041 2.48514 5.34818 2.48514 6.50969C2.48514 7.67121 2.48514 7.79898 2.48514 8.25197C2.4909 8.52562 2.54192 8.79643 2.63614 9.05341C2.70528 9.24101 2.8143 9.41137 2.95568 9.55274C3.09705 9.69411 3.26741 9.80313 3.45501 9.87228C3.7028 9.96341 3.96355 10.0144 4.22741 10.0233C4.6804 10.0233 4.80817 10.0233 5.96969 10.0233C7.1312 10.0233 7.25897 10.0233 7.71196 10.0233C7.98592 10.0206 8.25725 9.96948 8.5134 9.87228C8.701 9.80313 8.87136 9.69411 9.01273 9.55274C9.15411 9.41137 9.26313 9.24101 9.33227 9.05341C9.42947 8.79726 9.48059 8.52593 9.48327 8.25197C9.48327 7.79898 9.48327 7.67121 9.48327 6.50969C9.48327 5.34818 9.48327 5.22041 9.48327 4.76742C9.48344 4.49319 9.43222 4.22135 9.33227 3.96598V3.97178ZM5.96969 8.72819C5.67862 8.72819 5.39042 8.67076 5.12158 8.5592C4.85275 8.44764 4.60857 8.28414 4.40302 8.07806C4.19748 7.87197 4.03462 7.62736 3.92376 7.35824C3.8129 7.08911 3.75624 6.80076 3.757 6.50969C3.757 6.07067 3.88726 5.64152 4.13129 5.27656C4.37532 4.91161 4.72214 4.62726 5.12786 4.45952C5.53358 4.29178 5.97994 4.24819 6.41044 4.33426C6.84094 4.42034 7.23623 4.6322 7.54626 4.94305C7.85629 5.25389 8.06712 5.64973 8.15207 6.08046C8.23701 6.51119 8.19225 6.95743 8.02344 7.36271C7.85464 7.76798 7.56939 8.11406 7.20379 8.35713C6.8382 8.6002 6.40871 8.72934 5.96969 8.72819ZM8.29272 4.72677C8.16434 4.71318 8.04553 4.65256 7.95918 4.55659C7.87283 4.46062 7.82505 4.33609 7.82505 4.20699C7.82505 4.07789 7.87283 3.95336 7.95918 3.85739C8.04553 3.76142 8.16434 3.7008 8.29272 3.68721C8.4211 3.7008 8.53991 3.76142 8.62626 3.85739C8.7126 3.95336 8.76038 4.07789 8.76038 4.20699C8.76038 4.33609 8.7126 4.46062 8.62626 4.55659C8.53991 4.65256 8.4211 4.71318 8.29272 4.72677Z" fill="#D5D6D8"/>
</svg>
