<?xml version="1.0" encoding="utf-8"?>
<!-- Generator: Adobe Illustrator 21.1.0, SVG Export Plug-In . SVG Version: 6.00 Build 0)  -->
<svg version="1.1" id="Слой_1" xmlns="http://www.w3.org/2000/svg" xmlns:xlink="http://www.w3.org/1999/xlink" x="0px" y="0px"
	 viewBox="0 0 24 24" style="enable-background:new 0 0 24 24;" xml:space="preserve">
<g>
	<path d="M12,24C5.4,24,0,18.6,0,12C0,5.4,5.4,0,12,0c6.6,0,12,5.4,12,12C24,18.6,18.6,24,12,24z M12,1C5.9,1,1,5.9,1,12
		s4.9,11,11,11s11-4.9,11-11S18.1,1,12,1z"/>
</g>
<g>
	<g>
		<g>
			<path d="M9.5,7C8.9,7.1,8.3,7.5,7.8,7.9C7.4,8.3,7.1,8.9,7,9.5c0,0.3,0,5.7,0,6c0.1,0.6,0.4,1.2,0.8,1.6c0.4,0.4,1,0.8,1.7,0.9
				c0.3,0,5.7,0,6,0c0.6-0.1,1.2-0.4,1.6-0.8c0.4-0.4,0.8-1,0.9-1.7c0-0.3,0-5.7,0-6c-0.1-0.6-0.4-1.2-0.9-1.7
				c-0.4-0.4-1-0.7-1.6-0.8C15.3,7,9.7,7,9.5,7z M15.5,8c0.1,0,0.3,0.1,0.4,0.2c0.4,0.2,0.7,0.5,0.9,0.9C16.9,9.2,17,9.4,17,9.5
				l0,0.2v2.8v2.8l0,0.2c0,0.1-0.1,0.3-0.2,0.4c-0.2,0.4-0.5,0.7-0.9,0.9c-0.1,0.1-0.3,0.1-0.4,0.2l-0.2,0h-2.8H9.7l-0.2,0
				c-0.1,0-0.3-0.1-0.4-0.2c-0.4-0.2-0.7-0.5-0.9-0.9C8.1,15.8,8,15.6,8,15.5l0-0.2v-2.8V9.7l0-0.2c0-0.1,0.1-0.3,0.2-0.4
				c0.2-0.4,0.5-0.7,0.9-0.9C9.3,8,9.5,7.9,9.7,7.9c0,0,1.3,0,2.9,0l2.8,0L15.5,8z"/>
		</g>
		<g>
			<path d="M15.2,9.3c-0.4,0.1-0.5,0.6-0.1,0.8c0.1,0,0.1,0.1,0.2,0.1c0.3,0,0.4-0.2,0.4-0.4C15.7,9.4,15.5,9.2,15.2,9.3z"/>
		</g>
		<g>
			<path d="M12.1,10c-1,0.2-1.8,1-2,2c-0.1,0.3,0,0.7,0,1c0.2,0.9,0.9,1.6,1.8,1.8c0.1,0,0.2,0,0.6,0c0.4,0,0.4,0,0.6-0.1
				c0.1,0,0.3-0.1,0.4-0.1c0.7-0.3,1.3-1,1.4-1.7c0-0.2,0.1-0.7,0-0.9c-0.2-1.1-1-1.9-2-2.1C12.7,10,12.3,10,12.1,10z M12.8,10.9
				c0.4,0.1,0.8,0.3,1,0.7c0.4,0.6,0.3,1.4-0.2,1.9c-0.6,0.6-1.6,0.6-2.2,0C11.1,13.3,11,13,11,12.7c0-0.3,0-0.7,0.2-1
				c0.1-0.2,0.4-0.5,0.6-0.6c0.2-0.1,0.5-0.2,0.8-0.2C12.6,10.9,12.7,10.9,12.8,10.9z"/>
		</g>
	</g>
</g>
</svg>
