<svg width="39" height="40" viewBox="0 0 39 40" fill="none" xmlns="http://www.w3.org/2000/svg">
<g clip-path="url(#clip0)">
<path fill-rule="evenodd" clip-rule="evenodd" d="M35.0395 2.49554C35.0395 1.80737 34.4926 1.24777 33.8208 1.24777H11.2739C10.6017 1.24777 10.0551 1.80737 10.0551 2.49554L10.0551 29.0352L8.83639 30.2406V24.3315H5.18014C4.84302 24.3315 4.57077 24.0527 4.57077 23.7076C4.57077 23.3624 4.84302 23.0837 5.18014 23.0837H8.83639V20.5882H5.18014C4.84302 20.5882 4.57077 20.3085 4.57077 19.9643C4.57077 19.6201 4.84302 19.3404 5.18014 19.3404H8.83639V16.8449H5.18014C4.84302 16.8449 4.57077 16.5652 4.57077 16.221C4.57077 15.8767 4.84302 15.5971 5.18014 15.5971H8.83639V13.1016H5.18014C4.84302 13.1016 4.57077 12.8219 4.57077 12.4777C4.57077 12.1334 4.84302 11.8538 5.18014 11.8538H8.83639V4.36719H1.52389V31.1942H3.96139C4.29821 31.1942 4.57077 31.4729 4.57077 31.8181V34.3136H4.71825L3.58829 35.4312C3.56584 35.4134 3.54464 35.394 3.52485 35.3732L0.488904 32.265C0.472655 32.2488 0.457291 32.2316 0.442892 32.2137C0.345479 32.0923 0.299561 31.9424 0.305141 31.7942V3.7433C0.305141 3.39907 0.577396 3.11942 0.914516 3.11942H8.83639V2.49554C8.83639 1.11921 9.92958 0 11.2739 0H33.8227C35.1659 0.00109737 36.2583 1.11989 36.2583 2.49554V3.11942L35.0395 4.32481V3.76062L35.0393 3.7433L35.0395 3.72598V2.49554ZM2.38483 32.442L3.35202 33.4322V32.442H2.38483Z" fill="#164B71"/>
<path fill-rule="evenodd" clip-rule="evenodd" d="M35.0395 4.32481L10.0551 29.0352V29.037L8.83639 30.2424V30.2406L4.71825 34.3136H4.72035L3.5895 35.4321C3.69853 35.5183 3.82974 35.5616 3.96116 35.5616L3.97759 35.5614H8.83639V37.433C8.83639 38.8094 9.92958 39.9286 11.2739 39.9286H33.8208C35.1648 39.9286 36.2583 38.8094 36.2583 37.433V14.6071L38.5167 12.2949C38.6313 12.1782 38.6955 12.0192 38.6955 11.8538V3.7433C38.6955 3.39907 38.423 3.11942 38.0862 3.11942H36.2583L35.0395 4.32481ZM4.72035 34.3136H8.83639V30.2424L4.72035 34.3136ZM35.0395 4.32481V14.3252C35.0389 14.3413 35.0389 14.3574 35.0395 14.3734V33.6897C35.0395 34.3779 34.4926 34.9375 33.8208 34.9375H11.2739C10.8302 34.9375 10.4138 35.0594 10.0551 35.2723V29.037L35.0395 4.32481ZM35.0395 37.433V35.8504C34.6808 36.0633 34.2644 36.1853 33.8208 36.1853V37.4309L33.8208 37.433C33.8208 37.7782 33.5482 38.0569 33.2114 38.0569H11.8833C11.5461 38.0569 11.2739 37.7782 11.2739 37.433L11.2739 36.1853C10.6017 36.1853 10.0551 36.7449 10.0551 37.433C10.0551 38.1212 10.6017 38.6808 11.2739 38.6808H33.8208C34.4926 38.6808 35.0395 38.1212 35.0395 37.433ZM36.2583 12.843L37.4768 11.5955V4.36719H36.2583V12.843ZM12.4926 36.8092V36.1853H32.602V36.8092H12.4926Z" fill="#164B71"/>
<path fill-rule="evenodd" clip-rule="evenodd" d="M22.2386 21.8496H17.973C17.6361 21.8496 17.3636 22.1287 17.3636 22.4735C17.3636 22.8187 17.6361 23.0974 17.973 23.0974H27.723C28.0601 23.0974 28.3323 22.8187 28.3323 22.4735C28.3323 22.1287 28.0601 21.8496 27.723 21.8496H23.4573V10.617H27.4865L25.9367 15.3781C25.9088 15.4496 25.8935 15.5277 25.8935 15.6094C25.8935 16.9857 26.9867 18.105 28.331 18.105C29.6631 18.105 30.7487 17.0053 30.7682 15.6467C30.7727 15.5695 30.7632 15.4902 30.7378 15.4123L28.9142 9.80993C28.8581 9.62406 28.7182 9.46762 28.5245 9.40116C28.4501 9.37575 28.3747 9.36567 28.3015 9.36921H23.4573V8.12144C23.4573 7.7769 23.1851 7.49756 22.848 7.49756C22.5111 7.49756 22.2386 7.7769 22.2386 8.12144V9.36921H17.3907C17.2014 9.36008 17.0205 9.44264 16.9 9.58812C16.8438 9.65548 16.8014 9.73524 16.7772 9.82284L14.9663 15.3861C14.9403 15.4554 14.9261 15.5307 14.9261 15.6094C14.9261 16.9857 16.0193 18.105 17.3636 18.105C18.6976 18.105 19.7843 17.0023 19.8009 15.6411C19.8046 15.5657 19.7949 15.4883 19.7702 15.4123L18.2092 10.617H22.2386V21.8496ZM27.349 14.9855L28.3317 11.9666L29.3144 14.9855H27.349ZM16.3811 14.9855L17.364 11.9662L18.3468 14.9855H16.3811ZM17.3636 16.8572C16.9133 16.8572 16.5193 16.606 16.3083 16.2333H18.4189C18.2079 16.606 17.8139 16.8572 17.3636 16.8572ZM28.331 16.8572C27.8807 16.8572 27.4867 16.606 27.2757 16.2333H29.3862C29.1752 16.606 28.7813 16.8572 28.331 16.8572Z" fill="#164B71"/>
<path d="M15.5332 27.4625H30.163C30.5001 27.4625 30.7723 27.1835 30.7723 26.8386C30.7723 26.4935 30.5001 26.2148 30.163 26.2148H15.5332C15.1964 26.2148 14.9238 26.4935 14.9238 26.8386C14.9238 27.1835 15.1964 27.4625 15.5332 27.4625Z" fill="#164B71"/>
<path d="M26.5064 29.3335H19.1904C18.8535 29.3335 18.581 29.0545 18.581 28.7096C18.581 28.3645 18.8535 28.0857 19.1904 28.0857H26.5064C26.8436 28.0857 27.1158 28.3645 27.1158 28.7096C27.1158 29.0545 26.8436 29.3335 26.5064 29.3335Z" fill="#164B71"/>
</g>
<defs>
<clipPath id="clip0">
<rect width="39" height="39.9286" fill="white"/>
</clipPath>
</defs>
</svg>
