<svg width="180" height="180" viewBox="0 0 180 180" fill="none" xmlns="http://www.w3.org/2000/svg">
<path d="M177 99.0002C175.343 99.0002 174 100.343 174 102C174 106.97 169.97 111 165 111H120C118.343 111 117 109.657 117 108C117 106.343 118.343 105 120 105H138C139.657 105 141 103.657 141 102C141 100.343 139.657 99.0002 138 99.0002H120C118.343 99.0002 117 97.6569 117 96.0002C117 94.3434 118.343 93.0002 120 93.0002H138C139.657 93.0002 141 91.6569 141 90.0002C141 88.3434 139.657 87.0001 138 87.0001H120C118.343 87.0001 117 85.6569 117 84.0001C117 82.3434 118.343 81.0001 120 81.0001H138C139.657 81.0001 141 79.6569 141 78.0001C141 76.3434 139.657 75.0001 138 75.0001H120C118.343 75.0001 117 73.6569 117 72.0001C117 70.3434 118.343 69.0001 120 69.0001H147C148.657 69.0001 150 67.6569 150 66.0001C150 64.3434 148.657 63.0001 147 63.0001H138C136.343 63.0001 135 61.6569 135 60.0001V57.0001C135 55.3434 136.343 54.0001 138 54.0001H150C154.97 54.0001 159 58.0299 159 63.0001V66.0001C159 67.6569 160.343 69.0001 162 69.0001H165C169.97 69.0001 174 73.0299 174 78.0001C174 79.6569 175.343 81.0001 177 81.0001C178.657 81.0001 180 79.6569 180 78.0001C180 69.7164 173.284 63.0001 165 63.0001C165 54.7164 158.284 48.0001 150 48.0001H138C133.03 48.0001 129 52.0299 129 57.0001V57.2096C119.31 45.7105 105.038 39.0733 90 39.0733C74.9619 39.0733 60.6899 45.7105 51 57.2096V57.0001C51 52.0299 46.9702 48.0001 42 48.0001H30C21.7163 48.0001 15 54.7164 15 63.0001C6.71631 63.0001 0 69.7164 0 78.0001C0 79.6569 1.34326 81.0001 3 81.0001C4.65674 81.0001 6 79.6569 6 78.0001C6 73.0299 10.0298 69.0001 15 69.0001H18C19.6567 69.0001 21 67.6569 21 66.0001V63.0001C21 58.0299 25.0298 54.0001 30 54.0001H42C43.6567 54.0001 45 55.3434 45 57.0001V60.0001C45 61.6569 43.6567 63.0001 42 63.0001H33C31.3433 63.0001 30 64.3434 30 66.0001C30 67.6569 31.3433 69.0001 33 69.0001H60C61.6567 69.0001 63 70.3434 63 72.0001C63 73.6569 61.6567 75.0001 60 75.0001H42C40.3433 75.0001 39 76.3434 39 78.0001C39 79.6569 40.3433 81.0001 42 81.0001H60C61.6567 81.0001 63 82.3434 63 84.0001C63 85.6569 61.6567 87.0001 60 87.0001H42C40.3433 87.0001 39 88.3434 39 90.0002C39 91.6569 40.3433 93.0002 42 93.0002H60C61.6567 93.0002 63 94.3434 63 96.0002C63 97.6569 61.6567 99.0002 60 99.0002H42C40.3433 99.0002 39 100.343 39 102C39 103.657 40.3433 105 42 105H60C61.6567 105 63 106.343 63 108C63 109.657 61.6567 111 60 111H15C10.0298 111 6 106.97 6 102C6 100.343 4.65674 99.0002 3 99.0002C1.34326 99.0002 0 100.343 0 102C0 110.284 6.71631 117 15 117H46.7695C56.0933 131.895 72.4277 140.942 90 140.942C107.572 140.942 123.907 131.895 133.23 117H165C173.284 117 180 110.284 180 102C180 100.343 178.657 99.0002 177 99.0002ZM90 135C75.8364 135 62.499 128.331 54 117H60C64.9702 117 69 112.97 69 108C68.9956 105.784 68.1724 103.648 66.6899 102C69.7456 98.5841 69.7456 93.4162 66.6899 90.0002C69.7456 86.5841 69.7456 81.4162 66.6899 78.0001C68.1724 76.3522 68.9956 74.2164 69 72.0001C69 67.0299 64.9702 63.0001 60 63.0001H54C62.499 51.6695 75.8364 45.0001 90 45.0001C104.164 45.0001 117.501 51.6695 126 63.0001H120C115.03 63.0001 111 67.0299 111 72.0001C111.004 74.2164 111.828 76.3522 113.31 78.0001C110.254 81.4162 110.254 86.5841 113.31 90.0002C110.254 93.4162 110.254 98.5841 113.31 102C111.828 103.648 111.004 105.784 111 108C111 112.97 115.03 117 120 117H126C117.501 128.331 104.164 135 90 135Z" fill="#644C6E"/>
<path d="M90 165C88.3433 165 87 166.343 87 168V177C87 178.657 88.3433 180 90 180C91.6568 180 93 178.657 93 177V168C93 166.343 91.6568 165 90 165Z" fill="#644C6E"/>
<path d="M90 147C88.3433 147 87 148.344 87 150V156C87 157.657 88.3433 159 90 159C91.6568 159 93 157.657 93 156V150C93 148.344 91.6568 147 90 147Z" fill="#644C6E"/>
<path d="M90 15C91.6568 15 93 13.6568 93 12V3C93 1.34326 91.6568 0 90 0C88.3433 0 87 1.34326 87 3V12C87 13.6568 88.3433 15 90 15Z" fill="#644C6E"/>
<path d="M90 33.0002C91.6568 33.0002 93 31.6569 93 30.0002V24.0002C93 22.3434 91.6568 21.0002 90 21.0002C88.3433 21.0002 87 22.3434 87 24.0002V30.0002C87 31.6569 88.3433 33.0002 90 33.0002Z" fill="#644C6E"/>
<path d="M106.5 118.53C96.2783 124.382 83.7217 124.382 73.5 118.53C72.0761 117.786 70.3169 118.295 69.5127 119.687C68.707 121.078 69.1435 122.858 70.5 123.721C82.5469 130.763 97.4531 130.763 109.5 123.721C110.856 122.858 111.293 121.078 110.487 119.687C109.683 118.295 107.924 117.786 106.5 118.53Z" fill="#644C6E"/>
<path d="M73.5 61.4709C83.7217 55.6188 96.2783 55.6188 106.5 61.4709C106.957 61.7287 107.474 61.8635 108 61.8605C109.059 61.8605 110.041 61.301 110.58 60.3898C110.982 59.7028 111.095 58.8825 110.893 58.1105C110.691 57.34 110.19 56.6808 109.5 56.2795C97.415 49.3815 82.5849 49.3815 70.5 56.2795C69.1435 57.1423 68.707 58.9221 69.5127 60.3137C70.3169 61.7053 72.0761 62.215 73.5 61.4709Z" fill="#644C6E"/>
<path d="M111 32.9998H123V41.9998C123 43.6565 124.343 44.9998 126 44.9998C127.657 44.9998 129 43.6565 129 41.9998V29.9998C129 28.343 127.657 26.9998 126 26.9998H118.83L141 7.05003L163.17 26.9998H156C154.343 26.9998 153 28.343 153 29.9998V41.9998C153 43.6565 154.343 44.9998 156 44.9998C157.657 44.9998 159 43.6565 159 41.9998V32.9998H171C172.236 32.9968 173.345 32.2337 173.79 31.0794C174.236 29.9236 173.927 28.6126 173.01 27.7791L143.01 0.779027C141.869 -0.250759 140.131 -0.250759 138.99 0.779027L108.99 27.7791C108.073 28.6126 107.764 29.9236 108.209 31.0794C108.655 32.2337 109.764 32.9968 111 32.9998Z" fill="#644C6E"/>
<path d="M62.9999 147H50.9999V138C50.9999 136.343 49.6567 135 47.9999 135C46.3432 135 44.9999 136.343 44.9999 138V150C44.9999 151.657 46.3432 153 47.9999 153H55.1703L32.9999 172.95L10.8295 153H17.9999C19.6567 153 20.9999 151.657 20.9999 150V126C20.9999 124.343 19.6567 123 17.9999 123C16.3432 123 14.9999 124.343 14.9999 126V147H2.99993C1.76361 147.003 0.654719 147.766 0.209407 148.92C-0.235906 150.076 0.0731759 151.387 0.990168 152.221L30.9902 179.221C32.1313 180.25 33.8686 180.25 35.0097 179.221L65.0097 152.221C65.9267 151.387 66.2358 150.076 65.7905 148.92C65.3451 147.766 64.2363 147.003 62.9999 147Z" fill="#644C6E"/>
<path d="M94.4369 74.4135H85.2573C83.8314 74.4135 82.6755 75.5984 82.6755 77.0601V87.8564H80.0119C78.5861 87.8564 77.4302 89.0413 77.4302 90.5029C77.4302 91.9646 78.5861 93.1495 80.0119 93.1495H82.6755V95.9221H80.0119C78.5861 95.9221 77.4302 97.1069 77.4302 98.5686C77.4302 100.03 78.5861 101.215 80.0119 101.215H82.6755V103.946C82.6755 105.407 83.8314 106.592 85.2573 106.592C86.6832 106.592 87.8391 105.407 87.8391 103.946V101.215H93.1255C94.5513 101.215 95.7072 100.03 95.7072 98.5686C95.7072 97.1069 94.5513 95.9221 93.1255 95.9221H87.8391V93.1495H94.4369C99.4759 93.1495 103.575 88.947 103.575 83.7815C103.575 78.616 99.476 74.4135 94.4369 74.4135ZM94.4369 87.8562H87.8391V79.7065H94.4369C96.6287 79.7065 98.4119 81.5344 98.4119 83.7813C98.4119 86.0282 96.6288 87.8562 94.4369 87.8562Z" fill="#644C6E"/>
</svg>
