<svg width="35" height="35" viewBox="0 0 35 35" fill="none" xmlns="http://www.w3.org/2000/svg">
<path d="M7.29304 32.0832L25.8576 32.0833C26.8811 32.0829 27.8721 31.7238 28.6581 31.0683C29.4441 30.4128 29.9755 29.5025 30.1597 28.4958L32.0118 18.2874C32.1272 17.6568 32.1026 17.0085 31.9397 16.3884C31.7768 15.7683 31.4797 15.1916 31.0692 14.6991C30.6588 14.2066 30.1451 13.8103 29.5646 13.5383C28.9841 13.2663 28.3508 13.1251 27.7097 13.1249L21.0597 13.1249L21.8764 11.0395C22.2161 10.1264 22.3292 9.14456 22.2061 8.17814C22.0829 7.21173 21.7272 6.28961 21.1694 5.49088C20.6115 4.69216 19.8683 4.04067 19.0034 3.5923C18.1385 3.14393 17.1777 2.91206 16.2035 2.91659C15.9229 2.91718 15.6485 2.99866 15.4131 3.15127C15.1778 3.30388 14.9914 3.52114 14.8764 3.77701L10.7201 13.1249L7.29304 13.1249C6.13272 13.1249 5.01992 13.5859 4.19945 14.4063C3.37898 15.2268 2.91804 16.3396 2.91804 17.4999L2.91804 27.7083C2.91804 28.8686 3.37898 29.9814 4.19945 30.8018C5.01992 31.6223 6.13272 32.0832 7.29304 32.0832ZM13.1264 14.8895L17.093 5.96451C17.4989 6.08731 17.8753 6.29191 18.1991 6.5657C18.5229 6.8395 18.7872 7.17669 18.9758 7.5565C19.1643 7.93632 19.2731 8.35071 19.2954 8.77416C19.3177 9.19761 19.2531 9.62114 19.1055 10.0187L18.3326 12.1041C18.1679 12.5449 18.1123 13.019 18.1706 13.4859C18.2288 13.9528 18.3992 14.3988 18.6671 14.7856C18.935 15.1724 19.2925 15.4887 19.7092 15.7074C20.1258 15.9261 20.5892 16.0408 21.0597 16.0416L27.7097 16.0416C27.924 16.0412 28.1356 16.0881 28.3297 16.1788C28.5238 16.2696 28.6955 16.402 28.8326 16.5666C28.9731 16.7289 29.076 16.9203 29.134 17.127C29.192 17.3337 29.2036 17.5507 29.168 17.7624L27.316 27.9708C27.2538 28.3105 27.0732 28.6171 26.8061 28.8361C26.5391 29.0551 26.2029 29.1722 25.8576 29.1666L13.1264 29.1666L13.1264 14.8895ZM5.83471 17.4999C5.83471 17.1131 5.98836 16.7422 6.26184 16.4687C6.53534 16.1952 6.90627 16.0416 7.29304 16.0416L10.2097 16.0416L10.2097 29.1666L7.29304 29.1666C6.90627 29.1666 6.53533 29.0129 6.26184 28.7394C5.98835 28.466 5.83471 28.095 5.83471 27.7083L5.83471 17.4999Z" fill="#408B6E"/>
</svg>
