<svg width="13" height="13" viewBox="0 0 13 13" fill="none" xmlns="http://www.w3.org/2000/svg">
<g clip-path="url(#clip0)">
<path d="M0 2.32324V3.02148H0.248828C0.535742 3.02148 0.655078 3.04941 0.761719 3.14082C0.924219 3.27793 0.914063 3.0418 0.914063 6.52539C0.914063 10.075 0.929297 9.80332 0.728711 9.90742C0.639844 9.95312 0.566211 9.96328 0.312305 9.97344L0 9.98359V10.6793V11.375H1.86621H3.73242V10.6768V9.97852H3.2627H2.79297V6.74121V3.50391H2.8666C2.93516 3.50391 2.94531 3.5166 2.97578 3.62324C2.99609 3.6918 3.49121 5.46152 4.07774 7.55879L5.1416 11.375H6.02266H6.90625L6.92149 11.3191C6.9291 11.2861 7.4293 9.51895 8.03106 7.38867L9.12793 3.5166L9.19903 3.50898L9.26758 3.50137V6.73867V9.97852H8.81055H8.35352V10.6768V11.375H10.6768H13V10.6793V9.98613L12.5633 9.9709C12.0961 9.9582 11.9133 9.92012 11.7254 9.79062L11.6416 9.73477V6.52539V3.31348L11.7635 3.23223C12.0047 3.06973 12.1316 3.03926 12.5887 3.02656L13 3.01641V2.3207V1.625H10.499H8.00059L7.97774 1.70625C7.96504 1.75195 7.60703 3.00625 7.18301 4.48906C6.64473 6.37559 6.40606 7.17539 6.39082 7.14238C6.38066 7.11699 6.0252 5.86777 5.60117 4.36719L4.83184 1.6377L2.41465 1.63008L0 1.625V2.32324Z" fill="white"/>
</g>
<defs>
<clipPath id="clip0">
<rect width="13" height="13" fill="white"/>
</clipPath>
</defs>
</svg>
