<svg width="45" height="46" viewBox="0 0 45 46" fill="none" xmlns="http://www.w3.org/2000/svg">
<g filter="url(#filter0_d)">
<path d="M38.9531 7.3125H30.4219V3.04688C30.4219 2.56203 30.2293 2.09704 29.8864 1.7542C29.5436 1.41136 29.0786 1.21875 28.5938 1.21875H16.4062C15.9214 1.21875 15.4564 1.41136 15.1136 1.7542C14.7707 2.09704 14.5781 2.56203 14.5781 3.04688V7.3125H6.04688C5.56203 7.3125 5.09704 7.50511 4.7542 7.84795C4.41136 8.19078 4.21875 8.65578 4.21875 9.14062V32.2969C4.21875 32.7817 4.41136 33.2467 4.7542 33.5896C5.09704 33.9324 5.56203 34.125 6.04688 34.125H23.7188V37.1719C23.7188 37.3335 23.783 37.4885 23.8972 37.6028C24.0115 37.717 24.1665 37.7812 24.3281 37.7812H36.5156C36.6772 37.7812 36.8322 37.717 36.9465 37.6028C37.0608 37.4885 37.125 37.3335 37.125 37.1719V34.125H38.9531C39.438 34.125 39.903 33.9324 40.2458 33.5896C40.5886 33.2467 40.7812 32.7817 40.7812 32.2969V9.14062C40.7812 8.65578 40.5886 8.19078 40.2458 7.84795C39.903 7.50511 39.438 7.3125 38.9531 7.3125ZM15.7969 3.04688C15.7969 2.88526 15.8611 2.73026 15.9754 2.61598C16.0896 2.5017 16.2446 2.4375 16.4062 2.4375H28.5938C28.7554 2.4375 28.9104 2.5017 29.0246 2.61598C29.1389 2.73026 29.2031 2.88526 29.2031 3.04688V7.3125H27.9844V4.26562C27.9844 4.10401 27.9202 3.94901 27.8059 3.83473C27.6916 3.72045 27.5366 3.65625 27.375 3.65625H17.625C17.4634 3.65625 17.3084 3.72045 17.1941 3.83473C17.0798 3.94901 17.0156 4.10401 17.0156 4.26562V7.3125H15.7969V3.04688ZM26.7656 7.3125H18.2344V4.875H26.7656V7.3125ZM6.04688 8.53125H38.9531C39.1147 8.53125 39.2697 8.59545 39.384 8.70973C39.4983 8.82401 39.5625 8.97901 39.5625 9.14062V15.8438H35.5906C35.4553 15.6804 35.3127 15.522 35.164 15.3703C34.5419 14.7476 33.8031 14.2537 32.9899 13.9166C32.1768 13.5796 31.3052 13.4062 30.4249 13.4062C29.5447 13.4062 28.6731 13.5796 27.8599 13.9166C27.0468 14.2537 26.308 14.7476 25.6858 15.3703C25.5341 15.522 25.3915 15.6804 25.2593 15.8438H21.5104C20.8707 14.7324 19.9495 13.8093 18.8394 13.1675C17.7294 12.5256 16.4698 12.1876 15.1875 12.1876C13.9052 12.1876 12.6456 12.5256 11.5356 13.1675C10.4255 13.8093 9.50428 14.7324 8.86462 15.8438H5.4375V9.14062C5.4375 8.97901 5.5017 8.82401 5.61598 8.70973C5.73026 8.59545 5.88526 8.53125 6.04688 8.53125ZM30.4219 26.8125C29.291 26.8112 28.2067 26.3614 27.407 25.5617C26.6074 24.762 26.1575 23.6778 26.1562 22.5469V20.5853L30.4219 19.5189L34.6875 20.5853V22.5469C34.6862 23.6778 34.2364 24.762 33.4367 25.5617C32.637 26.3614 31.5528 26.8112 30.4219 26.8125ZM30.57 18.2995C30.4728 18.2746 30.3709 18.2746 30.2738 18.2995L25.4725 19.5H24.971C25.12 18.1585 25.7584 16.9191 26.7641 16.0189C27.7698 15.1187 29.0722 14.621 30.4219 14.621C31.7716 14.621 33.0739 15.1187 34.0796 16.0189C35.0853 16.9191 35.7237 18.1585 35.8727 19.5H35.3712L30.57 18.2995ZM15.1875 13.4062C16.3927 13.4062 17.5709 13.7636 18.573 14.4332C19.5751 15.1028 20.3562 16.0545 20.8174 17.168C21.2786 18.2815 21.3993 19.5068 21.1642 20.6888C20.929 21.8709 20.3487 22.9567 19.4964 23.8089C18.6442 24.6612 17.5584 25.2415 16.3763 25.4767C15.1943 25.7118 13.969 25.5911 12.8555 25.1299C11.742 24.6687 10.7903 23.8876 10.1207 22.8855C9.45114 21.8834 9.09375 20.7052 9.09375 19.5C9.09552 17.8844 9.73811 16.3354 10.8805 15.193C12.0229 14.0506 13.5719 13.408 15.1875 13.4062ZM6.04688 32.9062C5.88526 32.9062 5.73026 32.842 5.61598 32.7278C5.5017 32.6135 5.4375 32.4585 5.4375 32.2969V17.0625H8.30156C7.90714 18.1661 7.78375 19.3483 7.94179 20.5096C8.09983 21.6709 8.53468 22.7771 9.20968 23.7352C9.88468 24.6932 10.7801 25.475 11.8204 26.0147C12.8607 26.5543 14.0155 26.836 15.1875 26.836C16.3595 26.836 17.5143 26.5543 18.5546 26.0147C19.5949 25.475 20.4903 24.6932 21.1653 23.7352C21.8403 22.7771 22.2752 21.6709 22.4332 20.5096C22.5912 19.3483 22.4679 18.1661 22.0734 17.0625H24.4537C23.9699 18.0052 23.718 19.0498 23.7188 20.1094C23.7188 20.271 23.783 20.426 23.8972 20.5403C24.0115 20.6545 24.1665 20.7188 24.3281 20.7188H24.9375V22.5469C24.938 23.454 25.1636 24.3467 25.5942 25.1452C26.0247 25.9436 26.6466 26.6226 27.4043 27.1215C26.3292 27.4956 25.397 28.1946 24.7367 29.1218C24.0764 30.049 23.7207 31.1586 23.7188 32.2969V32.9062H6.04688ZM35.9062 36.5625H24.9375V32.2969C24.9388 31.166 25.3886 30.0817 26.1883 29.282C26.988 28.4824 28.0722 28.0325 29.2031 28.0312H29.8125V33.5156H31.0312V28.0312H31.6406C32.7715 28.0325 33.8558 28.4824 34.6555 29.282C35.4551 30.0817 35.905 31.166 35.9062 32.2969V36.5625ZM38.9531 32.9062H37.125V32.2969C37.123 31.1586 36.7673 30.049 36.107 29.1218C35.4467 28.1946 34.5146 27.4956 33.4395 27.1215C34.1971 26.6226 34.8191 25.9436 35.2496 25.1452C35.6801 24.3467 35.9058 23.454 35.9062 22.5469V20.7188H36.5156C36.6772 20.7188 36.8322 20.6545 36.9465 20.5403C37.0608 20.426 37.125 20.271 37.125 20.1094C37.1258 19.0498 36.8739 18.0052 36.3901 17.0625H39.5625V32.2969C39.5625 32.4585 39.4983 32.6135 39.384 32.7278C39.2697 32.842 39.1147 32.9062 38.9531 32.9062Z" fill="#164B71"/>
<path d="M7.875 28.6406H6.65625V31.0781C6.65625 31.2397 6.72045 31.3947 6.83473 31.509C6.94901 31.6233 7.10401 31.6875 7.26562 31.6875H9.70312V30.4688H7.875V28.6406Z" fill="#164B71"/>
<path d="M20.6719 9.75H24.3281V10.9688H20.6719V9.75Z" fill="#164B71"/>
<path d="M13.9687 22.5469L13.962 23.74L15.1808 23.7461L15.1875 22.5469H16.4062L16.3995 23.74L17.6183 23.7461L17.625 22.4354C17.9089 22.3372 18.1639 22.1701 18.367 21.9489C18.5702 21.7277 18.7152 21.4595 18.7889 21.1683C18.8627 20.8772 18.8629 20.5723 18.7894 20.281C18.716 19.9898 18.5714 19.7214 18.3684 19.5C18.5715 19.2781 18.7162 19.0092 18.7893 18.7174C18.8624 18.4257 18.8617 18.1203 18.7873 17.8289C18.7128 17.5375 18.567 17.2692 18.3629 17.0483C18.1588 16.8273 17.9029 16.6607 17.6183 16.5634L17.625 15.2374L16.4062 15.2344L16.3995 16.4531H15.1808L15.1869 15.2344H13.9687L13.962 16.4531H11.5312V17.6719H12.75V21.3281H11.5312V22.5469H13.9687ZM17.0156 21.3281H13.9687V20.1094H17.0156C17.1772 20.1094 17.3322 20.1736 17.4465 20.2879C17.5608 20.4021 17.625 20.5571 17.625 20.7188C17.625 20.8804 17.5608 21.0354 17.4465 21.1496C17.3322 21.2639 17.1772 21.3281 17.0156 21.3281ZM17.0156 18.8906H13.9687V17.6719H17.0156C17.1772 17.6719 17.3322 17.7361 17.4465 17.8504C17.5608 17.9646 17.625 18.1196 17.625 18.2813C17.625 18.4429 17.5608 18.5979 17.4465 18.7121C17.3322 18.8264 17.1772 18.8906 17.0156 18.8906Z" fill="#164B71"/>
</g>
<defs>
<filter id="filter0_d" x="-1" y="0" width="47" height="47" filterUnits="userSpaceOnUse" color-interpolation-filters="sRGB">
<feFlood flood-opacity="0" result="BackgroundImageFix"/>
<feColorMatrix in="SourceAlpha" type="matrix" values="0 0 0 0 0 0 0 0 0 0 0 0 0 0 0 0 0 0 127 0"/>
<feOffset dy="4"/>
<feGaussianBlur stdDeviation="2"/>
<feColorMatrix type="matrix" values="0 0 0 0 0 0 0 0 0 0 0 0 0 0 0 0 0 0 0.25 0"/>
<feBlend mode="normal" in2="BackgroundImageFix" result="effect1_dropShadow"/>
<feBlend mode="normal" in="SourceGraphic" in2="effect1_dropShadow" result="shape"/>
</filter>
</defs>
</svg>
