<?xml version="1.0" encoding="utf-8"?>
<!-- Generator: Adobe Illustrator 21.1.0, SVG Export Plug-In . SVG Version: 6.00 Build 0)  -->
<svg version="1.1" id="Слой_1" xmlns="http://www.w3.org/2000/svg" xmlns:xlink="http://www.w3.org/1999/xlink" x="0px" y="0px"
	 viewBox="0 0 24 24" style="enable-background:new 0 0 24 24;" xml:space="preserve">
<g>
	<path d="M12,24C5.4,24,0,18.6,0,12S5.4,0,12,0s12,5.4,12,12S18.6,24,12,24z M12,1C5.9,1,1,5.9,1,12s4.9,11,11,11s11-4.9,11-11
		S18.1,1,12,1z"/>
</g>
<g>
	<path d="M11.5,6c-0.4,0.1-0.8,0.2-1.2,0.5C9.6,7,9.2,7.6,9,8.4c0,0.3-0.1,0.9,0,1.2c0.2,1,0.8,1.7,1.6,2.2c0.5,0.2,1,0.3,1.6,0.3
		c1.3-0.1,2.4-1,2.7-2.3c0.3-1.1-0.1-2.3-1-3.1C13.5,6.3,13,6.1,12.5,6C12.3,6,11.7,6,11.5,6z M12.4,7.6c0.4,0.1,0.7,0.4,0.9,0.7
		c0.1,0.3,0.2,0.6,0.1,0.9c-0.1,0.6-0.5,1-1.1,1.1c-0.3,0.1-0.6,0.1-0.9,0c-0.4-0.1-0.7-0.4-0.8-0.7c-0.2-0.3-0.2-0.6-0.1-0.9
		c0.1-0.5,0.4-0.8,0.8-1c0.3-0.1,0.4-0.1,0.7-0.1C12.2,7.6,12.4,7.6,12.4,7.6z"/>
</g>
<g>
	<path d="M9,12c-0.2,0-0.4,0.2-0.5,0.4s-0.1,0.5,0,0.6c0.1,0.3,0.6,0.6,1.1,0.9c0.4,0.2,0.9,0.3,1.5,0.4c0.1,0,0.3,0,0.3,0
		s-0.5,0.5-1.1,1.2C8.9,17,8.9,16.9,9,17.3c0,0.2,0.1,0.4,0.2,0.5C9.3,17.9,9.5,18,9.7,18c0.3,0,0.3,0,1.3-1
		c0.6-0.6,0.9-0.9,0.9-0.9s0.3,0.3,1,0.9c0.6,0.6,0.9,0.9,1,1c0.2,0.1,0.4,0.1,0.6,0c0.2-0.1,0.4-0.2,0.5-0.4
		c0.1-0.1,0.1-0.1,0.1-0.3c0-0.2,0-0.2-0.1-0.3c0-0.1-0.4-0.5-1.2-1.3c-0.6-0.6-1.1-1.2-1.1-1.2s0.1,0,0.2,0c0.3,0,0.7-0.1,1-0.2
		c0.7-0.2,1.5-0.8,1.7-1.1c0.1-0.1,0.1-0.1,0.1-0.3c0-0.5-0.4-0.8-0.9-0.7c-0.2,0-0.3,0.1-0.6,0.3c-0.4,0.3-0.8,0.4-1.3,0.5
		c-0.3,0.1-1,0.1-1.4,0c-0.6-0.1-1.1-0.3-1.7-0.7C9.4,12.1,9.2,12,9,12z"/>
</g>
</svg>
