<svg width="24" height="24" viewBox="0 0 24 24" fill="none" xmlns="http://www.w3.org/2000/svg">
<circle cx="12" cy="12" r="11.5" stroke="white"/>
<path d="M11.4739 6.03521C11.0966 6.10083 10.6536 6.27896 10.3231 6.49927C9.64346 6.95161 9.19111 7.61958 9.02002 8.42114C8.95439 8.73755 8.94736 9.33989 9.01064 9.62114C9.22627 10.5938 9.79814 11.3415 10.656 11.7727C11.1247 12.0071 11.6802 12.1125 12.2403 12.068C13.5481 11.9649 14.6333 11.0508 14.9521 9.78521C15.231 8.67896 14.8372 7.44849 13.97 6.71724C13.5341 6.34927 13.0747 6.1313 12.5263 6.03755C12.2708 5.99302 11.7364 5.99302 11.4739 6.03521ZM12.4466 7.63599C12.831 7.77192 13.1474 8.03911 13.3138 8.36724C13.4544 8.6438 13.5036 9.00474 13.445 9.30708C13.3325 9.86958 12.9294 10.3055 12.3903 10.4532C12.1302 10.5258 11.7599 10.5118 11.5138 10.425C11.1528 10.2961 10.8552 10.0313 10.6864 9.69146C10.5317 9.37505 10.4919 9.08442 10.5622 8.74927C10.6583 8.28521 10.9442 7.91724 11.3661 7.71567C11.6216 7.5938 11.7388 7.57036 12.0481 7.57974C12.238 7.58677 12.3552 7.60317 12.4466 7.63599Z" fill="white"/>
<path d="M8.97947 12.0492C8.76384 12.0914 8.59041 12.2414 8.46619 12.4921C8.37947 12.6679 8.37478 12.9445 8.45916 13.0992C8.59744 13.364 9.06619 13.732 9.59822 13.9992C9.95213 14.175 10.5474 14.3437 11.0982 14.4257C11.2388 14.4468 11.3584 14.4679 11.3631 14.4726C11.3701 14.4773 10.8521 15.007 10.2146 15.6492C8.89978 16.9734 8.93963 16.9242 8.95838 17.25C8.97009 17.4679 9.03806 17.6156 9.19041 17.7656C9.34744 17.9226 9.49041 17.9859 9.70838 17.9953C10.0318 18.0117 10.0271 18.0164 11.056 16.9804C11.6982 16.3359 11.9677 16.0781 12.0052 16.0781C12.0427 16.0781 12.317 16.3382 12.9615 16.9781C13.5756 17.5898 13.8967 17.8945 13.9693 17.932C14.1263 18.0093 14.3631 18.0187 14.5365 17.9531C14.7052 17.8898 14.9115 17.707 14.9959 17.5453C15.0498 17.4421 15.0592 17.3976 15.0592 17.2148C15.0592 17.039 15.0498 16.9875 15.0029 16.8984C14.9677 16.8281 14.5646 16.4062 13.7982 15.6398C13.1654 15.0046 12.6545 14.4773 12.6638 14.4703C12.6709 14.4609 12.781 14.4398 12.9076 14.4211C13.217 14.3765 13.6271 14.2851 13.899 14.1984C14.567 13.9875 15.3802 13.4414 15.5537 13.0875C15.6076 12.975 15.6146 12.9398 15.6052 12.7898C15.5724 12.3 15.1834 11.9671 14.7357 12.0492C14.567 12.0796 14.4545 12.1312 14.1474 12.3281C13.742 12.5836 13.3013 12.7617 12.8092 12.8671C12.4763 12.9398 11.8037 12.9562 11.4474 12.9046C10.8146 12.8109 10.3552 12.6375 9.72009 12.2461C9.42009 12.0632 9.20213 12.0046 8.97947 12.0492Z" fill="white"/>
</svg>
