<svg width="10" height="14" viewBox="0 0 10 14" fill="none" xmlns="http://www.w3.org/2000/svg">
<path d="M4.38467 0.0411345C3.94444 0.117697 3.42764 0.32551 3.04209 0.582541C2.24912 1.11028 1.72139 1.88957 1.52178 2.82473C1.44522 3.19387 1.43701 3.8966 1.51084 4.22473C1.7624 5.35949 2.42959 6.23176 3.43037 6.73488C3.97725 7.00832 4.62529 7.13137 5.27881 7.07941C6.80459 6.9591 8.07061 5.8927 8.44248 4.41613C8.76787 3.12551 8.3085 1.68996 7.29678 0.836838C6.78818 0.407541 6.25225 0.153244 5.6124 0.0438689C5.31436 -0.00808421 4.69092 -0.00808421 4.38467 0.0411345ZM5.51944 1.90871C5.96787 2.06731 6.33701 2.37902 6.53115 2.76184C6.69522 3.08449 6.75264 3.50559 6.68428 3.85832C6.55303 4.51457 6.08272 5.02317 5.45381 5.19543C5.15029 5.2802 4.71826 5.26379 4.43115 5.16262C4.01006 5.01223 3.66279 4.70324 3.46592 4.30676C3.28545 3.93762 3.23897 3.59856 3.321 3.20754C3.43311 2.66613 3.7667 2.23684 4.25889 2.00168C4.55694 1.85949 4.69365 1.83215 5.05459 1.84309C5.27608 1.85129 5.41279 1.87043 5.51944 1.90871Z" fill="white"/>
<path d="M1.47533 7.05743C1.22376 7.10665 1.02142 7.28165 0.876498 7.57423C0.775326 7.77931 0.769857 8.10196 0.868295 8.28243C1.02962 8.59142 1.5765 9.02071 2.1972 9.33243C2.61009 9.53751 3.30462 9.73439 3.9472 9.83009C4.11126 9.8547 4.25072 9.87931 4.25618 9.88478C4.26439 9.89025 3.66009 10.5082 2.91634 11.2574C1.38236 12.8024 1.42884 12.7449 1.45072 13.125C1.46439 13.3793 1.54368 13.5516 1.72142 13.7266C1.90462 13.9098 2.07142 13.9836 2.32572 13.9945C2.70306 14.0137 2.69759 14.0192 3.89798 12.8106C4.6472 12.0586 4.96165 11.7578 5.0054 11.7578C5.04915 11.7578 5.36907 12.0613 6.12103 12.8078C6.83743 13.5215 7.21204 13.877 7.29681 13.9207C7.48001 14.011 7.75618 14.0219 7.95853 13.9453C8.1554 13.8715 8.39603 13.6582 8.49446 13.4695C8.55735 13.3492 8.56829 13.2973 8.56829 13.084C8.56829 12.8789 8.55735 12.8188 8.50267 12.7149C8.46165 12.6328 7.99134 12.1406 7.0972 11.2465C6.35892 10.5055 5.76282 9.89025 5.77376 9.88204C5.78196 9.87111 5.91048 9.8465 6.05814 9.82462C6.41907 9.77267 6.89759 9.66603 7.21478 9.56486C7.99407 9.31876 8.9429 8.68165 9.14524 8.26876C9.20814 8.13751 9.21634 8.09649 9.2054 7.92149C9.16712 7.35001 8.71321 6.96173 8.19095 7.05743C7.99407 7.09298 7.86282 7.15314 7.50462 7.38282C7.03157 7.68087 6.51751 7.88868 5.94329 8.01173C5.55501 8.09649 4.77025 8.11564 4.35462 8.05548C3.61634 7.9461 3.0804 7.74376 2.33939 7.28712C1.98939 7.07384 1.73509 7.00548 1.47533 7.05743Z" fill="white"/>
</svg>
