<svg width="21" height="21" viewBox="0 0 21 21" fill="none" xmlns="http://www.w3.org/2000/svg">
<path d="M3.83078 0.102667C3.67902 0.176495 3.22375 0.611261 2.00558 1.83353C1.07042 2.77689 0.336245 3.54388 0.278823 3.65052C0.221401 3.75306 0.131166 3.97044 0.0819477 4.1386C-0.00418512 4.41751 -0.00828669 4.49544 0.0122211 5.14349C0.0368305 5.93099 0.122963 6.40267 0.410073 7.36243C0.898159 8.98665 1.81281 10.7011 3.15812 12.5099C4.12609 13.8101 5.54523 15.3154 7.13664 16.7386C9.06027 18.4572 11.4597 19.8845 13.5679 20.5654C14.1872 20.7663 14.4702 20.8279 15.1716 20.9222C15.8771 21.0165 16.4677 21.0206 16.7876 20.9386C17.3495 20.791 17.4152 20.7417 19.1829 18.9781C21.0327 17.1365 21.0204 17.1529 20.9917 16.6566C20.9753 16.349 20.8523 16.1152 20.6226 15.9429C20.438 15.8034 16.3569 13.3876 16.0986 13.2646C15.8196 13.1333 15.3234 13.1292 14.9829 13.2564C14.7737 13.3343 14.6507 13.4368 13.9616 14.1177C13.3095 14.7576 13.1577 14.8888 13.0593 14.8888C12.4728 14.8888 11.0249 14.0562 9.9257 13.0882C9.1341 12.3909 8.05949 11.2835 7.5796 10.6765C7.03 9.98333 6.57472 9.24505 6.31632 8.63392C6.13996 8.21556 6.09074 8.01048 6.13175 7.84642C6.14816 7.77669 6.41066 7.47728 6.80851 7.07532C7.17765 6.69798 7.49347 6.34525 7.54269 6.24271C7.67394 5.98431 7.72316 5.65208 7.67394 5.41419C7.61242 5.12298 5.22941 0.611261 4.99972 0.352862C4.90128 0.24212 4.74953 0.119073 4.65519 0.0780575C4.4132 -0.0326846 4.08097 -0.0244815 3.83078 0.102667Z" fill="white"/>
</svg>
