<?xml version="1.0" encoding="utf-8"?>
<!-- Generator: Adobe Illustrator 21.1.0, SVG Export Plug-In . SVG Version: 6.00 Build 0)  -->
<svg version="1.1" id="Слой_1" xmlns="http://www.w3.org/2000/svg" xmlns:xlink="http://www.w3.org/1999/xlink" x="0px" y="0px"
	 viewBox="0 0 24 24" style="enable-background:new 0 0 24 24;" xml:space="preserve">
<g>
	<path d="M12,24C5.4,24,0,18.6,0,12C0,5.4,5.4,0,12,0c6.6,0,12,5.4,12,12C24,18.6,18.6,24,12,24z M12,1C5.9,1,1,5.9,1,12
		s4.9,11,11,11s11-4.9,11-11S18.1,1,12,1z"/>
</g>
<g>
	<path d="M11.1,6c-2,0.2-3.6,1.6-3.9,3.4c-0.1,0.3,0,0.9,0,1.2c0.2,0.9,0.6,1.5,1.2,1.8c0.1,0.1,0.2,0.1,0.3,0.1
		c0.3,0,0.3-0.1,0.5-0.6c0-0.2,0.1-0.3,0.1-0.4c0-0.1,0-0.2-0.2-0.5c-0.2-0.3-0.3-0.6-0.3-1.1c0-0.7,0.3-1.4,0.8-1.9
		C9.8,8,10,7.8,10.3,7.7c0.6-0.3,1.4-0.4,2.1-0.2c0.8,0.2,1.3,0.7,1.5,1.5c0.1,0.2,0.1,0.2,0.1,0.7c0,0.5,0,0.7-0.1,1.2
		c-0.2,0.7-0.5,1.2-0.9,1.5c-0.2,0.1-0.3,0.2-0.5,0.2c-0.6,0.2-1.1-0.2-1.1-0.7c0-0.2,0-0.3,0.2-1c0.3-0.9,0.3-1.2,0.3-1.5
		c0-0.3-0.1-0.6-0.3-0.7c-0.2-0.2-0.4-0.3-0.7-0.3c-0.6,0-1.1,0.5-1.3,1.2c0,0.1,0,0.3-0.1,0.5c0,0.3,0,0.6,0.1,0.9l0.1,0.2
		l-0.4,1.6c-0.2,0.9-0.4,1.7-0.4,1.9c-0.1,0.7-0.2,1.5-0.1,1.8C8.9,16.9,9,17,9.3,17c0.1,0,0.1,0,0.2-0.1c0.2-0.1,0.4-0.4,0.6-0.9
		c0.3-0.5,0.4-0.9,0.6-1.8c0.1-0.4,0.2-0.7,0.2-0.7c0,0,0.1,0,0.1,0.1c0.2,0.1,0.3,0.2,0.5,0.3c0.3,0.1,0.4,0.1,0.8,0.1
		c0.5,0,0.9-0.1,1.4-0.3c1.1-0.6,1.9-1.8,2.1-3.4c0-0.3,0-1,0-1.2c-0.2-1.2-0.9-2.1-2-2.7c-0.5-0.2-0.9-0.4-1.4-0.4
		C12.1,6,11.4,6,11.1,6z"/>
</g>
</svg>
