<svg width="24" height="24" viewBox="0 0 24 24" fill="none" xmlns="http://www.w3.org/2000/svg">
<circle cx="12" cy="12" r="11.5" stroke="white"/>
<path d="M11.1024 6.02363C9.08717 6.23418 7.52096 7.62207 7.21374 9.46973C7.16002 9.78555 7.16432 10.3635 7.22233 10.6857C7.37272 11.543 7.78092 12.1617 8.40612 12.4818C8.54792 12.5527 8.58444 12.5635 8.71979 12.5635C8.98405 12.5635 9.05709 12.4732 9.17741 11.9834C9.21608 11.8287 9.24616 11.6525 9.24616 11.5902C9.24616 11.4635 9.22682 11.4291 9.02057 11.1326C8.80788 10.8297 8.73913 10.5568 8.75417 10.082C8.77995 9.34942 9.05065 8.72207 9.56413 8.21289C9.79616 7.98086 9.99167 7.84551 10.3075 7.69512C10.9133 7.40508 11.6782 7.33848 12.3721 7.51465C13.1585 7.71445 13.6741 8.21504 13.8782 8.97559C13.9319 9.17754 13.9362 9.21836 13.9362 9.65235C13.9362 10.1594 13.9083 10.4021 13.7965 10.8555C13.6333 11.5279 13.326 12.0736 12.9415 12.3809C12.776 12.5119 12.6729 12.5678 12.4881 12.6193C11.9188 12.7826 11.3924 12.441 11.3903 11.9082C11.3903 11.7471 11.4311 11.5816 11.6395 10.8877C11.8995 10.0305 11.9639 9.7168 11.9424 9.39668C11.9188 9.07227 11.82 8.82949 11.6331 8.64902C11.4376 8.46426 11.2292 8.38477 10.9262 8.38477C10.3247 8.38692 9.82838 8.84024 9.63073 9.57715C9.59635 9.69961 9.58131 9.83926 9.57272 10.0627C9.55983 10.4086 9.58991 10.6578 9.68659 10.9844L9.7403 11.167L9.35143 12.8105C9.13874 13.715 8.94538 14.5594 8.92174 14.6904C8.80143 15.3736 8.76706 16.1771 8.8444 16.5188C8.92174 16.8604 9.0442 17 9.26549 17C9.36217 17 9.40514 16.9871 9.48678 16.9377C9.70592 16.798 9.91217 16.5166 10.1249 16.0697C10.3784 15.5326 10.503 15.1588 10.7372 14.2479C10.8296 13.8891 10.9069 13.5904 10.9112 13.5883C10.9133 13.584 10.9671 13.6184 11.0315 13.6656C11.1969 13.7902 11.3387 13.8697 11.5321 13.9449C11.8587 14.0717 11.9489 14.0889 12.3592 14.0867C12.9071 14.0867 13.2551 14.0072 13.7235 13.7752C14.8729 13.2059 15.6163 11.9834 15.7967 10.3613C15.8354 10.0176 15.8311 9.40098 15.7881 9.1582C15.5755 7.96367 14.8643 7.01836 13.76 6.45977C13.3089 6.22988 12.9092 6.10957 12.3657 6.03223C12.1165 5.99785 11.4032 5.99141 11.1024 6.02363Z" fill="white"/>
</svg>
