<svg width="11" height="11" viewBox="0 0 11 11" fill="none" xmlns="http://www.w3.org/2000/svg">
<path d="M5.10241 0.0236342C3.08717 0.234181 1.52096 1.62207 1.21374 3.46973C1.16002 3.78555 1.16432 4.36348 1.22233 4.68574C1.37272 5.54297 1.78092 6.16172 2.40612 6.48184C2.54792 6.55274 2.58444 6.56348 2.71979 6.56348C2.98405 6.56348 3.05709 6.47324 3.17741 5.9834C3.21608 5.82871 3.24616 5.65254 3.24616 5.59024C3.24616 5.46348 3.22682 5.4291 3.02057 5.13262C2.80788 4.82969 2.73913 4.55684 2.75417 4.08203C2.77995 3.34942 3.05065 2.72207 3.56413 2.21289C3.79616 1.98086 3.99167 1.84551 4.30749 1.69512C4.91334 1.40508 5.67819 1.33848 6.37213 1.51465C7.15846 1.71445 7.67409 2.21504 7.87819 2.97559C7.9319 3.17754 7.9362 3.21836 7.9362 3.65235C7.9362 4.15938 7.90827 4.40215 7.79655 4.85547C7.63327 5.52793 7.32604 6.07363 6.94147 6.38086C6.77604 6.51191 6.67292 6.56777 6.48815 6.61934C5.91881 6.78262 5.39245 6.44102 5.3903 5.9082C5.3903 5.74707 5.43112 5.58164 5.63952 4.8877C5.89948 4.03047 5.96393 3.7168 5.94245 3.39668C5.91881 3.07227 5.81999 2.82949 5.63307 2.64902C5.43756 2.46426 5.22916 2.38477 4.92624 2.38477C4.32467 2.38692 3.82838 2.84024 3.63073 3.57715C3.59635 3.69961 3.58131 3.83926 3.57272 4.0627C3.55983 4.40859 3.58991 4.65781 3.68659 4.98438L3.7403 5.16699L3.35143 6.81055C3.13874 7.71504 2.94538 8.55938 2.92174 8.69043C2.80143 9.37363 2.76706 10.1771 2.8444 10.5188C2.92174 10.8604 3.0442 11 3.26549 11C3.36217 11 3.40514 10.9871 3.48678 10.9377C3.70592 10.798 3.91217 10.5166 4.12487 10.0697C4.37838 9.53262 4.50299 9.15879 4.73717 8.24785C4.82956 7.88906 4.9069 7.59043 4.9112 7.58828C4.91334 7.58399 4.96706 7.61836 5.03151 7.66563C5.19694 7.79023 5.33874 7.86973 5.53209 7.94492C5.85866 8.07168 5.94889 8.08887 6.35924 8.08672C6.90709 8.08672 7.25514 8.00723 7.7235 7.7752C8.87292 7.20586 9.61627 5.9834 9.79674 4.36133C9.83542 4.01758 9.83112 3.40098 9.78815 3.1582C9.57545 1.96367 8.86432 1.01836 7.76002 0.459767C7.30885 0.229884 6.90924 0.109572 6.36569 0.0322279C6.11647 -0.00214631 5.40319 -0.00859163 5.10241 0.0236342Z" fill="white"/>
</svg>
