<svg width="181" height="181" viewBox="0 0 181 181" fill="none" xmlns="http://www.w3.org/2000/svg">
<path d="M119.235 29.2354C119.235 19.6286 111.423 11.816 101.816 11.816C92.2093 11.816 84.3967 19.6286 84.3967 29.2354C84.3967 38.8422 92.2093 46.6547 101.816 46.6547C111.423 46.6547 119.235 38.8422 119.235 29.2354ZM90.2031 29.2354C90.2031 22.8309 95.4115 17.6225 101.816 17.6225C108.221 17.6225 113.429 22.8309 113.429 29.2354C113.429 35.6399 108.221 40.8483 101.816 40.8483C95.4115 40.8483 90.2031 35.6399 90.2031 29.2354ZM148.268 20.5257C141.898 20.5257 135.816 22.3809 130.631 25.8299C128.938 11.4212 116.669 0.203125 101.816 0.203125C85.8076 0.203125 72.7838 13.227 72.7838 29.2354C72.7838 40.1602 78.8544 49.6857 87.7934 54.6386C87.0328 55.2512 86.3302 55.9393 85.7728 56.7754L71.457 78.2476C69.178 81.6647 65.967 84.2341 62.2886 85.7467C65.2151 82.228 66.9773 77.7105 66.9773 72.7838C66.9773 61.5773 57.8583 52.4612 46.6547 52.4612C35.4512 52.4612 26.3322 61.5773 26.3322 72.7838C26.3322 78.6076 28.8086 83.8538 32.7483 87.5612C23.4754 88.7951 15.5409 94.8483 11.9902 103.723L0.908609 131.429C0.44119 132.602 0.203125 133.836 0.203125 135.093V135.493C0.203125 140.937 4.63054 145.364 10.0741 145.364C14.0747 145.364 17.6486 142.978 19.1844 139.291L29.2354 115.171V133.171L15.4828 166.183C14.9747 167.397 14.7193 168.677 14.7193 169.99V170.3C14.7193 175.761 19.1612 180.203 24.6193 180.203C28.5851 180.203 32.1589 177.846 33.7209 174.202L48.3096 140.165L55.3644 151.624V170.3C55.3644 175.761 59.8064 180.203 65.2644 180.203H162.784V80.8722C173.108 75.5738 180.203 64.8435 180.203 52.4612C180.203 34.8531 165.876 20.5257 148.268 20.5257ZM78.5902 29.2354C78.5902 16.4293 89.0099 6.00958 101.816 6.00958C114.622 6.00958 125.042 16.4293 125.042 29.2354C125.042 42.0415 114.622 52.4612 101.816 52.4612C89.0099 52.4612 78.5902 42.0415 78.5902 29.2354ZM73.617 141.111L72.6851 139.558H87.2999V174.397H74.7754C75.3473 173.145 75.687 171.766 75.687 170.3V148.581C75.687 145.951 74.9728 143.367 73.617 141.111ZM93.1064 139.558H97.2115L104.719 132.05V174.397H93.1064V139.558ZM110.526 126.244L122.139 114.631V174.397H110.526V126.244ZM127.945 108.824L139.558 97.2115V174.397H127.945V108.824ZM94.8076 133.752H69.2012L66.9773 130.044V127.945H91.4051L137.032 82.318C139.378 83.2035 141.846 83.8305 144.415 84.1412L94.8076 133.752ZM89.0012 122.139H66.9773V107.019C76.0151 104.586 83.8886 98.7444 88.8212 90.7286L93.1064 83.7667V87.2999C93.1064 92.1018 97.0141 96.0096 101.816 96.0096C106.618 96.0096 110.526 92.1018 110.526 87.2999V56.9293C112.607 56.2731 114.573 55.3673 116.425 54.2844C117.035 64.9886 122.917 74.2789 131.531 79.6093L89.0012 122.139ZM98.9128 58.1196C99.868 58.2154 100.835 58.2676 101.816 58.2676C102.797 58.2676 103.764 58.2154 104.719 58.1196V87.2999C104.719 88.8996 103.419 90.2031 101.816 90.2031C100.213 90.2031 98.9128 88.8996 98.9128 87.2999V58.1196ZM32.1386 72.7838C32.1386 64.7796 38.6505 58.2676 46.6547 58.2676C54.6589 58.2676 61.1709 64.7796 61.1709 72.7838C61.1709 80.788 54.6589 87.2999 46.6547 87.2999C38.6505 87.2999 32.1386 80.788 32.1386 72.7838ZM65.2644 174.397C63.0086 174.397 61.1709 172.559 61.1709 170.3V151.624C61.1709 150.552 60.8718 149.502 60.3086 148.581L51.1809 133.752H44.7415L28.3847 171.914C27.7373 173.424 26.2625 174.397 24.6193 174.397C22.3634 174.397 20.5257 172.559 20.5257 170.3V169.99C20.5257 169.447 20.6302 168.918 20.8393 168.416L35.0418 134.332V104.719H27.2989L13.8251 137.058C13.1951 138.577 11.7231 139.558 10.0741 139.558C7.8328 139.558 6.00958 137.735 6.00958 135.493V135.093C6.00958 134.576 6.10829 134.065 6.3028 133.583L17.3815 105.881C20.4851 98.1202 27.8912 93.1064 36.2496 93.1064H54.5486C63.3076 93.1064 71.4309 88.7573 76.288 81.4702L90.6038 59.998C91.1873 59.1212 92.096 58.5522 93.1064 58.3576V72.688L83.877 87.686C79.3654 95.0138 71.9389 100.187 63.5022 101.874L61.1709 102.339V131.652L68.638 144.102C69.4509 145.454 69.8805 147.005 69.8805 148.581V170.3C69.8805 172.559 68.0428 174.397 65.787 174.397H65.2644ZM156.977 174.397H145.364V91.4051L152.718 84.0512C154.17 83.848 155.592 83.5547 156.977 83.1599V174.397ZM148.268 78.5902C133.859 78.5902 122.139 66.867 122.139 52.4612C122.139 51.5525 122.232 50.6583 122.324 49.7641C126.676 45.418 129.623 39.6899 130.529 33.3144C135.372 28.8202 141.622 26.3322 148.268 26.3322C162.676 26.3322 174.397 38.0554 174.397 52.4612C174.397 66.867 162.676 78.5902 148.268 78.5902Z" fill="#644C6E"/>
<path d="M153.117 38.9931H144.843C143.557 38.9931 142.516 40.0611 142.516 41.3785V51.1096H140.115C138.83 51.1096 137.788 52.1776 137.788 53.495C137.788 54.8125 138.83 55.8805 140.115 55.8805H142.516V58.3795H140.115C138.83 58.3795 137.788 59.4475 137.788 60.7649C137.788 62.0824 138.83 63.1504 140.115 63.1504H142.516V65.6115C142.516 66.929 143.557 67.997 144.843 67.997C146.128 67.997 147.17 66.929 147.17 65.6115V63.1504H151.934C153.22 63.1504 154.262 62.0824 154.262 60.7649C154.262 59.4475 153.22 58.3795 151.934 58.3795H147.17V55.8805H153.117C157.658 55.8805 161.353 52.0926 161.353 47.4368C161.353 42.7809 157.658 38.9931 153.117 38.9931ZM153.117 51.1095H147.17V43.7638H153.117C155.092 43.7638 156.699 45.4114 156.699 47.4366C156.699 49.4618 155.092 51.1095 153.117 51.1095Z" fill="#644C6E"/>
</svg>
