<svg width="180" height="180" viewBox="0 0 180 180" fill="none" xmlns="http://www.w3.org/2000/svg">
<path d="M57.4742 43.2051C57.1641 42.2506 56.339 41.5549 55.3458 41.4108L38.6382 38.9829L31.1661 23.8432C30.7217 22.9432 29.8052 22.3733 28.8015 22.3733C27.7977 22.3733 26.8812 22.9432 26.4368 23.8432L18.9651 38.9829L2.25743 41.4108C1.26427 41.5549 0.439148 42.2506 0.12907 43.2051C-0.181008 44.1596 0.0777416 45.2076 0.796335 45.9079L12.8862 57.6927L10.0322 74.3328C9.86278 75.3221 10.2692 76.322 11.0813 76.9115C11.5408 77.2455 12.0847 77.4153 12.6313 77.4153C13.0508 77.4153 13.4723 77.3151 13.8579 77.1126L28.8015 69.2563L43.7453 77.1126C44.6344 77.5795 45.7109 77.5018 46.522 76.9119C47.3341 76.322 47.7405 75.3225 47.571 74.3332L44.717 57.693L56.8066 45.9083C57.5255 45.2076 57.7843 44.16 57.4742 43.2051ZM40.0437 54.884C39.4222 55.4898 39.1388 56.3627 39.2854 57.2181L41.4707 69.9587L30.0288 63.9435C29.6445 63.7417 29.223 63.6408 28.8018 63.6408C28.3806 63.6408 27.9591 63.7417 27.5749 63.9435L16.1333 69.9587L18.3186 57.2181C18.4652 56.3627 18.1818 55.4898 17.5602 54.884L8.3036 45.8608L21.0959 44.0018C21.9548 43.877 22.6969 43.3377 23.0812 42.5593L28.8022 30.9672L34.5231 42.5593C34.9074 43.3373 35.6495 43.877 36.5084 44.0018L49.3007 45.8608L40.0437 54.884Z" fill="#644C6E"/>
<path d="M179.871 43.2051C179.561 42.2506 178.736 41.5549 177.743 41.4108L161.035 38.9829L153.563 23.8432C153.119 22.9432 152.202 22.3733 151.199 22.3733C150.195 22.3733 149.278 22.9432 148.834 23.8432L141.362 38.9829L124.655 41.4108C123.661 41.5549 122.836 42.2506 122.526 43.2051C122.216 44.1596 122.475 45.2076 123.193 45.9079L135.283 57.6927L132.429 74.3328C132.26 75.3221 132.666 76.322 133.478 76.9115C134.29 77.5014 135.366 77.5795 136.255 77.1123L151.199 69.2559L166.142 77.1123C166.528 77.3151 166.949 77.415 167.369 77.415C167.915 77.415 168.46 77.2452 168.919 76.9112C169.731 76.3213 170.137 75.3218 169.968 74.3325L167.114 57.6923L179.204 45.9076C179.922 45.2076 180.181 44.16 179.871 43.2051ZM162.44 54.884C161.819 55.4898 161.535 56.3627 161.682 57.2181L163.867 69.9587L152.426 63.9435C151.657 63.5399 150.74 63.5399 149.972 63.9435L138.53 69.9587L140.715 57.2181C140.862 56.3627 140.579 55.4898 139.957 54.884L130.7 45.8608L143.493 44.0018C144.352 43.877 145.094 43.3377 145.478 42.5593L151.199 30.9672L156.92 42.5593C157.304 43.3373 158.046 43.877 158.905 44.0018L171.697 45.8608L162.44 54.884Z" fill="#644C6E"/>
<path d="M74.0844 35.3194L71.2304 51.9599C71.061 52.9488 71.4674 53.9487 72.2795 54.5386C73.0913 55.1282 74.1678 55.2062 75.0562 54.7393L90 46.8826L104.944 54.739C105.33 54.9418 105.751 55.0417 106.17 55.0417C106.717 55.0417 107.261 54.8719 107.72 54.5382C108.532 53.9483 108.939 52.9485 108.769 51.9595L105.915 35.319L118.005 23.5343C118.723 22.8336 118.982 21.786 118.672 20.8315C118.362 19.877 117.537 19.1813 116.544 19.0371L99.836 16.6092L92.3646 1.46988C91.9203 0.569883 91.0037 0 90 0C88.9963 0 88.0798 0.569883 87.6354 1.46988L80.1637 16.6096L63.456 19.0375C62.4628 19.1816 61.6377 19.8773 61.3276 20.8318C61.0176 21.7863 61.2763 22.8343 61.9949 23.5347L74.0844 35.3194ZM82.2938 21.6288C83.1526 21.504 83.8948 20.9647 84.279 20.1864L90 8.5943L95.721 20.1864C96.1053 20.9644 96.8474 21.504 97.7063 21.6288L110.499 23.4879L101.242 32.5111C100.62 33.1168 100.337 33.9898 100.484 34.8448L102.669 47.5857L91.227 41.5705C90.8427 41.3687 90.4212 41.2678 90 41.2678C89.5785 41.2678 89.1573 41.3687 88.7731 41.5705L77.3315 47.5857L79.5164 34.8448C79.663 33.9894 79.3797 33.1168 78.7581 32.5111L69.5015 23.4879L82.2938 21.6288Z" fill="#644C6E"/>
<path d="M139.127 100.232C137.031 100.232 135.072 100.832 133.414 101.869C132.481 96.854 128.073 93.0448 122.791 93.0448C120.689 93.0448 118.725 93.6484 117.064 94.6912C116.101 89.7134 111.71 85.9422 106.455 85.9422C104.435 85.9422 102.543 86.4994 100.924 87.468V71.8874C100.924 65.9298 96.0767 61.0828 90.1188 61.0828C84.1609 61.0828 79.3139 65.9298 79.3139 71.8878V92.2703C79.3139 93.7265 80.4944 94.907 81.9506 94.907C83.4068 94.907 84.5873 93.7265 84.5873 92.2703V71.8878C84.5873 68.8376 87.0686 66.3563 90.1188 66.3563C93.169 66.3563 95.6503 68.8376 95.6503 71.8874V116.28C95.6503 117.736 96.8308 118.916 98.287 118.916C99.7432 118.916 100.924 117.736 100.924 116.28V96.7471C100.924 93.6973 103.405 91.216 106.455 91.216C109.505 91.216 111.986 93.6973 111.986 96.7471V116.28C111.986 117.736 113.167 118.916 114.623 118.916C116.079 118.916 117.26 117.736 117.26 116.28V103.85C117.26 100.8 119.741 98.3186 122.791 98.3186C125.841 98.3186 128.323 100.8 128.323 103.85V116.28C128.323 117.736 129.503 118.916 130.959 118.916C132.416 118.916 133.596 117.736 133.596 116.28V111.037C133.596 107.987 136.078 105.506 139.127 105.506C142.177 105.506 144.659 107.987 144.659 111.037V120.432C144.659 121.888 145.839 123.069 147.296 123.069C148.752 123.069 149.932 121.888 149.932 120.432V111.037C149.932 105.079 145.085 100.232 139.127 100.232Z" fill="#644C6E"/>
<path d="M147.296 130.093C145.839 130.093 144.659 131.273 144.659 132.73V143.448C144.659 146.393 144.263 149.326 143.482 152.166L140.847 161.749C140.784 161.976 140.752 162.212 140.752 162.448V174.727H86.2443V158.896C86.2443 158.333 86.0636 157.784 85.7293 157.331L64.7174 128.861C64.6394 128.755 64.5533 128.655 64.4604 128.562C62.2576 126.359 62.2576 122.774 64.4604 120.572C66.6637 118.368 70.2479 118.368 72.4511 120.572L80.0863 128.207C80.8408 128.961 81.9753 129.187 82.9597 128.778C83.9451 128.37 84.5874 127.409 84.5874 126.342V104.59C84.5874 103.134 83.4069 101.953 81.9507 101.953C80.4945 101.953 79.314 103.134 79.314 104.59V119.977L76.1798 116.843C71.921 112.583 64.9902 112.584 60.7314 116.843C56.5222 121.052 56.4733 127.87 60.5838 132.141L80.9709 159.764V177.363C80.9709 178.819 82.1514 180 83.6076 180H143.389C144.845 180 146.026 178.819 146.026 177.363V162.803L148.567 153.564C149.473 150.268 149.932 146.865 149.932 143.448V132.729C149.932 131.273 148.752 130.093 147.296 130.093Z" fill="#644C6E"/>
</svg>
