<svg width="47" height="33" viewBox="0 0 47 33" fill="none" xmlns="http://www.w3.org/2000/svg">
<path d="M45.7802 15.9778L42.7802 13.0253C42.6396 12.8869 42.4488 12.8091 42.2499 12.809H30.2498C30.0509 12.8091 29.8601 12.8869 29.7195 13.0253L26.7195 15.9778C26.5788 16.1162 26.4997 16.3039 26.4997 16.4996V20.9283C26.5016 21.3846 26.6468 21.8293 26.9153 22.2013C27.1838 22.5734 27.5625 22.8547 27.9997 23.0068V31.2619C27.9997 31.4576 28.0787 31.6454 28.2194 31.7838C28.3601 31.9222 28.5508 32 28.7497 32H43.75C43.9489 32 44.1397 31.9222 44.2803 31.7838C44.421 31.6454 44.5 31.4576 44.5 31.2619V23.0068C44.9372 22.8547 45.3159 22.5734 45.5844 22.2013C45.8529 21.8293 45.9981 21.3846 46 20.9283V16.4996C46 16.3039 45.9209 16.1162 45.7802 15.9778ZM41.4999 20.9283C41.4999 21.1241 41.4209 21.3118 41.2803 21.4502C41.1396 21.5886 40.9488 21.6664 40.7499 21.6664C40.551 21.6664 40.3602 21.5886 40.2196 21.4502C40.0789 21.3118 39.9999 21.1241 39.9999 20.9283V20.1902H41.4999V20.9283ZM38.4999 20.9283C38.4999 21.1241 38.4209 21.3118 38.2802 21.4502C38.1396 21.5886 37.9488 21.6664 37.7499 21.6664C37.551 21.6664 37.3602 21.5886 37.2195 21.4502C37.0789 21.3118 36.9999 21.1241 36.9999 20.9283V20.1902H38.4999V20.9283ZM35.4998 20.9283C35.4998 21.1241 35.4208 21.3118 35.2802 21.4502C35.1395 21.5886 34.9487 21.6664 34.7498 21.6664C34.5509 21.6664 34.3601 21.5886 34.2195 21.4502C34.0788 21.3118 33.9998 21.1241 33.9998 20.9283V20.1902H35.4998V20.9283ZM32.4998 20.9283C32.4998 21.1241 32.4208 21.3118 32.2801 21.4502C32.1395 21.5886 31.9487 21.6664 31.7498 21.6664C31.5509 21.6664 31.3601 21.5886 31.2194 21.4502C31.0788 21.3118 30.9998 21.1241 30.9998 20.9283V20.1902H32.4998V20.9283ZM29.4997 20.9283C29.4997 21.1241 29.4207 21.3118 29.2801 21.4502C29.1394 21.5886 28.9487 21.6664 28.7497 21.6664C28.5508 21.6664 28.3601 21.5886 28.2194 21.4502C28.0787 21.3118 27.9997 21.1241 27.9997 20.9283V20.1902H29.4997V20.9283ZM27.9997 18.714V17.2377H44.5V18.714H27.9997ZM30.5603 14.2853H41.9394L43.4395 15.7615H29.0602L30.5603 14.2853ZM31.7498 30.5238V26.0951H34.7498V30.5238H31.7498ZM36.2498 30.5238V25.357C36.2498 25.1612 36.1708 24.9735 36.0302 24.8351C35.8895 24.6966 35.6988 24.6189 35.4998 24.6189H30.9998C30.8009 24.6189 30.6101 24.6966 30.4694 24.8351C30.3288 24.9735 30.2498 25.1612 30.2498 25.357V30.5238H29.4997V23.0068C29.7769 22.9091 30.0317 22.7586 30.2498 22.564C30.6587 22.9342 31.1941 23.1397 31.7498 23.1397C32.3055 23.1397 32.8409 22.9342 33.2498 22.564C33.6588 22.9342 34.1941 23.1397 34.7498 23.1397C35.3055 23.1397 35.8409 22.9342 36.2498 22.564C36.6588 22.9342 37.1942 23.1397 37.7499 23.1397C38.3056 23.1397 38.841 22.9342 39.2499 22.564C39.6588 22.9342 40.1942 23.1397 40.7499 23.1397C41.3056 23.1397 41.841 22.9342 42.2499 22.564C42.4682 22.7584 42.723 22.9088 43 23.0068V30.5238H36.2498ZM44.5 20.9283C44.5 21.1241 44.421 21.3118 44.2803 21.4502C44.1397 21.5886 43.9489 21.6664 43.75 21.6664C43.5511 21.6664 43.3603 21.5886 43.2196 21.4502C43.079 21.3118 43 21.1241 43 20.9283V20.1902H44.5V20.9283Z" fill="#164B71"/>
<path d="M41.5016 24.6203H37.7516C37.5527 24.6203 37.3619 24.6981 37.2212 24.8365C37.0806 24.9749 37.0016 25.1627 37.0016 25.3584V28.3109C37.0016 28.5066 37.0806 28.6944 37.2212 28.8328C37.3619 28.9712 37.5527 29.049 37.7516 29.049H41.5016C41.7006 29.049 41.8913 28.9712 42.032 28.8328C42.1726 28.6944 42.2516 28.5066 42.2516 28.3109V25.3584C42.2516 25.1627 42.1726 24.9749 42.032 24.8365C41.8913 24.6981 41.7006 24.6203 41.5016 24.6203ZM40.7516 27.5728H38.5016V26.0965H40.7516V27.5728Z" fill="#164B71"/>
<path d="M20.2805 15.9778L17.2805 13.0253C17.1399 12.8869 16.9491 12.8091 16.7502 12.809H4.75006C4.55116 12.8091 4.36042 12.8869 4.2198 13.0253L1.21975 15.9778C1.07909 16.1162 1.00004 16.3039 1 16.4996V20.9283C1.00192 21.3846 1.14707 21.8293 1.41557 22.2013C1.68408 22.5734 2.06283 22.8547 2.50002 23.0068V31.2619C2.50002 31.4576 2.57904 31.6454 2.7197 31.7838C2.86035 31.9222 3.05112 32 3.25003 32H18.2503C18.4492 32 18.6399 31.9222 18.7806 31.7838C18.9213 31.6454 19.0003 31.4576 19.0003 31.2619V23.0068C19.4375 22.8547 19.8162 22.5734 20.0847 22.2013C20.3532 21.8293 20.4984 21.3846 20.5003 20.9283V16.4996C20.5003 16.3039 20.4212 16.1162 20.2805 15.9778ZM16.0002 20.9283C16.0002 21.1241 15.9212 21.3118 15.7806 21.4502C15.6399 21.5886 15.4491 21.6664 15.2502 21.6664C15.0513 21.6664 14.8605 21.5886 14.7199 21.4502C14.5792 21.3118 14.5002 21.1241 14.5002 20.9283V20.1902H16.0002V20.9283ZM13.0002 20.9283C13.0002 21.1241 12.9212 21.3118 12.7805 21.4502C12.6399 21.5886 12.4491 21.6664 12.2502 21.6664C12.0513 21.6664 11.8605 21.5886 11.7198 21.4502C11.5792 21.3118 11.5002 21.1241 11.5002 20.9283V20.1902H13.0002V20.9283ZM10.0001 20.9283C10.0001 21.1241 9.92112 21.3118 9.78046 21.4502C9.63981 21.5886 9.44904 21.6664 9.25013 21.6664C9.05121 21.6664 8.86044 21.5886 8.71979 21.4502C8.57913 21.3118 8.50011 21.1241 8.50011 20.9283V20.1902H10.0001V20.9283ZM7.00009 20.9283C7.00009 21.1241 6.92107 21.3118 6.78042 21.4502C6.63976 21.5886 6.449 21.6664 6.25008 21.6664C6.05116 21.6664 5.8604 21.5886 5.71974 21.4502C5.57909 21.3118 5.50007 21.1241 5.50007 20.9283V20.1902H7.00009V20.9283ZM4.00005 20.9283C4.00005 21.1241 3.92103 21.3118 3.78037 21.4502C3.63972 21.5886 3.44895 21.6664 3.25003 21.6664C3.05112 21.6664 2.86035 21.5886 2.7197 21.4502C2.57904 21.3118 2.50002 21.1241 2.50002 20.9283V20.1902H4.00005V20.9283ZM2.50002 18.714V17.2377H19.0003V18.714H2.50002ZM5.06056 14.2853H16.4397L17.9398 15.7615H3.56054L5.06056 14.2853ZM6.25008 30.5238V26.0951H9.25013V30.5238H6.25008ZM10.7501 30.5238V25.357C10.7501 25.1612 10.6711 24.9735 10.5305 24.8351C10.3898 24.6966 10.1991 24.6189 10.0001 24.6189H5.50007C5.30115 24.6189 5.11039 24.6966 4.96973 24.8351C4.82908 24.9735 4.75006 25.1612 4.75006 25.357V30.5238H4.00005V23.0068C4.27717 22.9091 4.53202 22.7586 4.75006 22.564C5.15901 22.9342 5.6944 23.1397 6.25008 23.1397C6.80576 23.1397 7.34116 22.9342 7.7501 22.564C8.15905 22.9342 8.69444 23.1397 9.25013 23.1397C9.80581 23.1397 10.3412 22.9342 10.7501 22.564C11.1591 22.9342 11.6945 23.1397 12.2502 23.1397C12.8059 23.1397 13.3412 22.9342 13.7502 22.564C14.1591 22.9342 14.6945 23.1397 15.2502 23.1397C15.8059 23.1397 16.3413 22.9342 16.7502 22.564C16.9685 22.7584 17.2233 22.9088 17.5003 23.0068V30.5238H10.7501ZM19.0003 20.9283C19.0003 21.1241 18.9213 21.3118 18.7806 21.4502C18.6399 21.5886 18.4492 21.6664 18.2503 21.6664C18.0513 21.6664 17.8606 21.5886 17.7199 21.4502C17.5793 21.3118 17.5003 21.1241 17.5003 20.9283V20.1902H19.0003V20.9283Z" fill="#164B71"/>
<path d="M15.9997 24.6203H12.2496C12.0507 24.6203 11.8599 24.6981 11.7193 24.8365C11.5786 24.9749 11.4996 25.1627 11.4996 25.3584V28.3109C11.4996 28.5066 11.5786 28.6944 11.7193 28.8328C11.8599 28.9712 12.0507 29.049 12.2496 29.049H15.9997C16.1986 29.049 16.3894 28.9712 16.53 28.8328C16.6707 28.6944 16.7497 28.5066 16.7497 28.3109V25.3584C16.7497 25.1627 16.6707 24.9749 16.53 24.8365C16.3894 24.6981 16.1986 24.6203 15.9997 24.6203ZM15.2497 27.5728H12.9996V26.0965H15.2497V27.5728Z" fill="#164B71"/>
<path d="M33.2493 1H34.7493V2.47623H33.2493V1Z" fill="#164B71"/>
<path d="M36.2511 1H37.7511V2.47623H36.2511V1Z" fill="#164B71"/>
<path d="M39.2507 1H40.7507V2.47623H39.2507V1Z" fill="#164B71"/>
<path d="M39.2507 3.95198H40.7507V5.42821H39.2507V3.95198Z" fill="#164B71"/>
<path d="M39.2507 6.90508H40.7507V8.3813H39.2507V6.90508Z" fill="#164B71"/>
<path d="M39.2507 9.85706H40.7507V11.3333H39.2507V9.85706Z" fill="#164B71"/>
<path d="M12.2501 1H13.7501V2.47623H12.2501V1Z" fill="#164B71"/>
<path d="M24.1447 1H25.6447V2.47623H24.1447V1Z" fill="#164B71"/>
<path d="M14.9286 1H16.4287V2.47623H14.9286V1Z" fill="#164B71"/>
<path d="M26.8232 1H28.3233V2.47623H26.8232V1Z" fill="#164B71"/>
<path d="M29.9287 1H31.4288V2.47623H29.9287V1Z" fill="#164B71"/>
<path d="M9.2513 1H10.7513V2.47623H9.2513V1Z" fill="#164B71"/>
<path d="M21.1459 1H22.6459V2.47623H21.1459V1Z" fill="#164B71"/>
<path d="M6.24835 1H7.74838V2.47623H6.24835V1Z" fill="#164B71"/>
<path d="M18.143 1H19.643V2.47623H18.143V1Z" fill="#164B71"/>
<path d="M6.24868 3.95198H7.7487V5.42821H6.24868V3.95198Z" fill="#164B71"/>
<path d="M6.24868 6.90508H7.7487V8.3813H6.24868V6.90508Z" fill="#164B71"/>
<path d="M6.24868 9.85706H7.7487V11.3333H6.24868V9.85706Z" fill="#164B71"/>
<path d="M45.7802 15.9778L42.7802 13.0253C42.6396 12.8869 42.4488 12.8091 42.2499 12.809H30.2498C30.0509 12.8091 29.8601 12.8869 29.7195 13.0253L26.7195 15.9778C26.5788 16.1162 26.4997 16.3039 26.4997 16.4996V20.9283C26.5016 21.3846 26.6468 21.8293 26.9153 22.2013C27.1838 22.5734 27.5625 22.8547 27.9997 23.0068V31.2619C27.9997 31.4576 28.0787 31.6454 28.2194 31.7838C28.3601 31.9222 28.5508 32 28.7497 32H43.75C43.9489 32 44.1397 31.9222 44.2803 31.7838C44.421 31.6454 44.5 31.4576 44.5 31.2619V23.0068C44.9372 22.8547 45.3159 22.5734 45.5844 22.2013C45.8529 21.8293 45.9981 21.3846 46 20.9283V16.4996C46 16.3039 45.9209 16.1162 45.7802 15.9778ZM41.4999 20.9283C41.4999 21.1241 41.4209 21.3118 41.2803 21.4502C41.1396 21.5886 40.9488 21.6664 40.7499 21.6664C40.551 21.6664 40.3602 21.5886 40.2196 21.4502C40.0789 21.3118 39.9999 21.1241 39.9999 20.9283V20.1902H41.4999V20.9283ZM38.4999 20.9283C38.4999 21.1241 38.4209 21.3118 38.2802 21.4502C38.1396 21.5886 37.9488 21.6664 37.7499 21.6664C37.551 21.6664 37.3602 21.5886 37.2195 21.4502C37.0789 21.3118 36.9999 21.1241 36.9999 20.9283V20.1902H38.4999V20.9283ZM35.4998 20.9283C35.4998 21.1241 35.4208 21.3118 35.2802 21.4502C35.1395 21.5886 34.9487 21.6664 34.7498 21.6664C34.5509 21.6664 34.3601 21.5886 34.2195 21.4502C34.0788 21.3118 33.9998 21.1241 33.9998 20.9283V20.1902H35.4998V20.9283ZM32.4998 20.9283C32.4998 21.1241 32.4208 21.3118 32.2801 21.4502C32.1395 21.5886 31.9487 21.6664 31.7498 21.6664C31.5509 21.6664 31.3601 21.5886 31.2194 21.4502C31.0788 21.3118 30.9998 21.1241 30.9998 20.9283V20.1902H32.4998V20.9283ZM29.4997 20.9283C29.4997 21.1241 29.4207 21.3118 29.2801 21.4502C29.1394 21.5886 28.9487 21.6664 28.7497 21.6664C28.5508 21.6664 28.3601 21.5886 28.2194 21.4502C28.0787 21.3118 27.9997 21.1241 27.9997 20.9283V20.1902H29.4997V20.9283ZM27.9997 18.714V17.2377H44.5V18.714H27.9997ZM30.5603 14.2853H41.9394L43.4395 15.7615H29.0602L30.5603 14.2853ZM31.7498 30.5238V26.0951H34.7498V30.5238H31.7498ZM36.2498 30.5238V25.357C36.2498 25.1612 36.1708 24.9735 36.0302 24.8351C35.8895 24.6966 35.6988 24.6189 35.4998 24.6189H30.9998C30.8009 24.6189 30.6101 24.6966 30.4694 24.8351C30.3288 24.9735 30.2498 25.1612 30.2498 25.357V30.5238H29.4997V23.0068C29.7769 22.9091 30.0317 22.7586 30.2498 22.564C30.6587 22.9342 31.1941 23.1397 31.7498 23.1397C32.3055 23.1397 32.8409 22.9342 33.2498 22.564C33.6588 22.9342 34.1941 23.1397 34.7498 23.1397C35.3055 23.1397 35.8409 22.9342 36.2498 22.564C36.6588 22.9342 37.1942 23.1397 37.7499 23.1397C38.3056 23.1397 38.841 22.9342 39.2499 22.564C39.6588 22.9342 40.1942 23.1397 40.7499 23.1397C41.3056 23.1397 41.841 22.9342 42.2499 22.564C42.4682 22.7584 42.723 22.9088 43 23.0068V30.5238H36.2498ZM44.5 20.9283C44.5 21.1241 44.421 21.3118 44.2803 21.4502C44.1397 21.5886 43.9489 21.6664 43.75 21.6664C43.5511 21.6664 43.3603 21.5886 43.2196 21.4502C43.079 21.3118 43 21.1241 43 20.9283V20.1902H44.5V20.9283Z" stroke="white" stroke-width="0.3"/>
<path d="M41.5016 24.6203H37.7516C37.5527 24.6203 37.3619 24.6981 37.2212 24.8365C37.0806 24.9749 37.0016 25.1627 37.0016 25.3584V28.3109C37.0016 28.5066 37.0806 28.6944 37.2212 28.8328C37.3619 28.9712 37.5527 29.049 37.7516 29.049H41.5016C41.7006 29.049 41.8913 28.9712 42.032 28.8328C42.1726 28.6944 42.2516 28.5066 42.2516 28.3109V25.3584C42.2516 25.1627 42.1726 24.9749 42.032 24.8365C41.8913 24.6981 41.7006 24.6203 41.5016 24.6203ZM40.7516 27.5728H38.5016V26.0965H40.7516V27.5728Z" stroke="white" stroke-width="0.3"/>
<path d="M20.2805 15.9778L17.2805 13.0253C17.1399 12.8869 16.9491 12.8091 16.7502 12.809H4.75006C4.55116 12.8091 4.36042 12.8869 4.2198 13.0253L1.21975 15.9778C1.07909 16.1162 1.00004 16.3039 1 16.4996V20.9283C1.00192 21.3846 1.14707 21.8293 1.41557 22.2013C1.68408 22.5734 2.06283 22.8547 2.50002 23.0068V31.2619C2.50002 31.4576 2.57904 31.6454 2.7197 31.7838C2.86035 31.9222 3.05112 32 3.25003 32H18.2503C18.4492 32 18.6399 31.9222 18.7806 31.7838C18.9213 31.6454 19.0003 31.4576 19.0003 31.2619V23.0068C19.4375 22.8547 19.8162 22.5734 20.0847 22.2013C20.3532 21.8293 20.4984 21.3846 20.5003 20.9283V16.4996C20.5003 16.3039 20.4212 16.1162 20.2805 15.9778ZM16.0002 20.9283C16.0002 21.1241 15.9212 21.3118 15.7806 21.4502C15.6399 21.5886 15.4491 21.6664 15.2502 21.6664C15.0513 21.6664 14.8605 21.5886 14.7199 21.4502C14.5792 21.3118 14.5002 21.1241 14.5002 20.9283V20.1902H16.0002V20.9283ZM13.0002 20.9283C13.0002 21.1241 12.9212 21.3118 12.7805 21.4502C12.6399 21.5886 12.4491 21.6664 12.2502 21.6664C12.0513 21.6664 11.8605 21.5886 11.7198 21.4502C11.5792 21.3118 11.5002 21.1241 11.5002 20.9283V20.1902H13.0002V20.9283ZM10.0001 20.9283C10.0001 21.1241 9.92112 21.3118 9.78046 21.4502C9.63981 21.5886 9.44904 21.6664 9.25013 21.6664C9.05121 21.6664 8.86044 21.5886 8.71979 21.4502C8.57913 21.3118 8.50011 21.1241 8.50011 20.9283V20.1902H10.0001V20.9283ZM7.00009 20.9283C7.00009 21.1241 6.92107 21.3118 6.78042 21.4502C6.63976 21.5886 6.449 21.6664 6.25008 21.6664C6.05116 21.6664 5.8604 21.5886 5.71974 21.4502C5.57909 21.3118 5.50007 21.1241 5.50007 20.9283V20.1902H7.00009V20.9283ZM4.00005 20.9283C4.00005 21.1241 3.92103 21.3118 3.78037 21.4502C3.63972 21.5886 3.44895 21.6664 3.25003 21.6664C3.05112 21.6664 2.86035 21.5886 2.7197 21.4502C2.57904 21.3118 2.50002 21.1241 2.50002 20.9283V20.1902H4.00005V20.9283ZM2.50002 18.714V17.2377H19.0003V18.714H2.50002ZM5.06056 14.2853H16.4397L17.9398 15.7615H3.56054L5.06056 14.2853ZM6.25008 30.5238V26.0951H9.25013V30.5238H6.25008ZM10.7501 30.5238V25.357C10.7501 25.1612 10.6711 24.9735 10.5305 24.8351C10.3898 24.6966 10.1991 24.6189 10.0001 24.6189H5.50007C5.30115 24.6189 5.11039 24.6966 4.96973 24.8351C4.82908 24.9735 4.75006 25.1612 4.75006 25.357V30.5238H4.00005V23.0068C4.27717 22.9091 4.53202 22.7586 4.75006 22.564C5.15901 22.9342 5.6944 23.1397 6.25008 23.1397C6.80576 23.1397 7.34116 22.9342 7.7501 22.564C8.15905 22.9342 8.69444 23.1397 9.25013 23.1397C9.80581 23.1397 10.3412 22.9342 10.7501 22.564C11.1591 22.9342 11.6945 23.1397 12.2502 23.1397C12.8059 23.1397 13.3412 22.9342 13.7502 22.564C14.1591 22.9342 14.6945 23.1397 15.2502 23.1397C15.8059 23.1397 16.3413 22.9342 16.7502 22.564C16.9685 22.7584 17.2233 22.9088 17.5003 23.0068V30.5238H10.7501ZM19.0003 20.9283C19.0003 21.1241 18.9213 21.3118 18.7806 21.4502C18.6399 21.5886 18.4492 21.6664 18.2503 21.6664C18.0513 21.6664 17.8606 21.5886 17.7199 21.4502C17.5793 21.3118 17.5003 21.1241 17.5003 20.9283V20.1902H19.0003V20.9283Z" stroke="white" stroke-width="0.3"/>
<path d="M15.9997 24.6203H12.2496C12.0507 24.6203 11.8599 24.6981 11.7193 24.8365C11.5786 24.9749 11.4996 25.1627 11.4996 25.3584V28.3109C11.4996 28.5066 11.5786 28.6944 11.7193 28.8328C11.8599 28.9712 12.0507 29.049 12.2496 29.049H15.9997C16.1986 29.049 16.3894 28.9712 16.53 28.8328C16.6707 28.6944 16.7497 28.5066 16.7497 28.3109V25.3584C16.7497 25.1627 16.6707 24.9749 16.53 24.8365C16.3894 24.6981 16.1986 24.6203 15.9997 24.6203ZM15.2497 27.5728H12.9996V26.0965H15.2497V27.5728Z" stroke="white" stroke-width="0.3"/>
<path d="M33.2493 1H34.7493V2.47623H33.2493V1Z" stroke="white" stroke-width="0.3"/>
<path d="M36.2511 1H37.7511V2.47623H36.2511V1Z" stroke="white" stroke-width="0.3"/>
<path d="M39.2507 1H40.7507V2.47623H39.2507V1Z" stroke="white" stroke-width="0.3"/>
<path d="M39.2507 3.95198H40.7507V5.42821H39.2507V3.95198Z" stroke="white" stroke-width="0.3"/>
<path d="M39.2507 6.90508H40.7507V8.3813H39.2507V6.90508Z" stroke="white" stroke-width="0.3"/>
<path d="M39.2507 9.85706H40.7507V11.3333H39.2507V9.85706Z" stroke="white" stroke-width="0.3"/>
<path d="M12.2501 1H13.7501V2.47623H12.2501V1Z" stroke="white" stroke-width="0.3"/>
<path d="M24.1447 1H25.6447V2.47623H24.1447V1Z" stroke="white" stroke-width="0.3"/>
<path d="M14.9286 1H16.4287V2.47623H14.9286V1Z" stroke="white" stroke-width="0.3"/>
<path d="M26.8232 1H28.3233V2.47623H26.8232V1Z" stroke="white" stroke-width="0.3"/>
<path d="M29.9287 1H31.4288V2.47623H29.9287V1Z" stroke="white" stroke-width="0.3"/>
<path d="M9.2513 1H10.7513V2.47623H9.2513V1Z" stroke="white" stroke-width="0.3"/>
<path d="M21.1459 1H22.6459V2.47623H21.1459V1Z" stroke="white" stroke-width="0.3"/>
<path d="M6.24835 1H7.74838V2.47623H6.24835V1Z" stroke="white" stroke-width="0.3"/>
<path d="M18.143 1H19.643V2.47623H18.143V1Z" stroke="white" stroke-width="0.3"/>
<path d="M6.24868 3.95198H7.7487V5.42821H6.24868V3.95198Z" stroke="white" stroke-width="0.3"/>
<path d="M6.24868 6.90508H7.7487V8.3813H6.24868V6.90508Z" stroke="white" stroke-width="0.3"/>
<path d="M6.24868 9.85706H7.7487V11.3333H6.24868V9.85706Z" stroke="white" stroke-width="0.3"/>
</svg>
