<svg width="12" height="13" viewBox="0 0 12 13" fill="none" xmlns="http://www.w3.org/2000/svg">
<path d="M11.4485 7.63864C11.5311 7.25185 11.5723 6.85736 11.5714 6.46184C11.5673 5.73862 11.4206 5.0233 11.1399 4.35677C10.8592 3.69025 10.4498 3.08559 9.93525 2.57737C9.42068 2.06915 8.81098 1.66734 8.14102 1.3949C7.47106 1.12247 6.75398 0.984752 6.03076 0.989629C5.71436 0.988816 5.39853 1.01637 5.08706 1.07197C4.60351 0.768135 4.04774 0.598595 3.47693 0.580787C2.90612 0.562979 2.34087 0.697546 1.83932 0.970647C1.33776 1.24375 0.918009 1.64552 0.62323 2.13465C0.328451 2.62378 0.169287 3.1826 0.162109 3.75365C0.162475 4.31663 0.313582 4.86926 0.599733 5.3541C0.528737 5.71464 0.492051 6.08109 0.490168 6.44855C0.496231 7.16677 0.64489 7.87664 0.927517 8.53694C1.21014 9.19724 1.62111 9.79484 2.13656 10.295C2.65201 10.7952 3.26168 11.188 3.93017 11.4507C4.59867 11.7134 5.31268 11.8406 6.03076 11.8251C6.37052 11.8277 6.70965 11.7954 7.04283 11.7288C7.50263 12.0076 8.02459 12.1676 8.56165 12.1944C9.1035 12.2046 9.63885 12.0752 10.1161 11.8184C10.5934 11.5617 10.9965 11.1863 11.2866 10.7286C11.5767 10.2708 11.7439 9.74601 11.7723 9.20481C11.8007 8.66361 11.6891 8.12422 11.4485 7.63864ZM8.54769 8.70582C8.30734 9.028 7.97993 9.27477 7.60403 9.4171C7.13885 9.60227 6.6408 9.69062 6.14032 9.67675C5.55895 9.69561 4.98163 9.57372 4.4575 9.32146C4.15093 9.15815 3.88808 8.92356 3.69111 8.63745C3.51625 8.39831 3.4164 8.11261 3.40421 7.81662C3.40284 7.7414 3.41807 7.66681 3.44884 7.59816C3.4796 7.52951 3.52514 7.4685 3.58219 7.41947C3.70515 7.30774 3.8671 7.24882 4.03311 7.25542C4.16739 7.24988 4.29904 7.29384 4.40305 7.37895C4.51717 7.48539 4.6059 7.61611 4.6627 7.76145C4.73295 7.94367 4.82987 8.11445 4.95028 8.2682C5.06041 8.41271 5.20649 8.52582 5.37397 8.59626C5.60324 8.69287 5.85046 8.7395 6.09917 8.73305C6.45099 8.75231 6.80008 8.66156 7.09799 8.47341C7.213 8.40618 7.3087 8.3104 7.37583 8.19533C7.44296 8.08027 7.47925 7.94982 7.48117 7.81662C7.48511 7.7225 7.46883 7.62864 7.43343 7.54135C7.39804 7.45406 7.34434 7.37537 7.27597 7.31058C7.12531 7.16792 6.94196 7.06438 6.74199 7.00903C6.52354 6.94065 6.222 6.87224 5.85279 6.79057C5.42876 6.70088 5.01258 6.5774 4.60825 6.42133C4.29747 6.2968 4.02411 6.09413 3.81464 5.83295C3.6165 5.56949 3.51498 5.24591 3.5271 4.91647C3.5267 4.58013 3.63736 4.25308 3.84189 3.98607C4.07364 3.69725 4.3817 3.47916 4.73111 3.35653C5.17464 3.20019 5.64298 3.12614 6.1131 3.13803C6.48336 3.13329 6.85224 3.18388 7.20755 3.28812C7.48397 3.36819 7.74345 3.49805 7.97324 3.6713C8.15636 3.80779 8.30999 3.97992 8.42486 4.17733C8.51263 4.33169 8.5597 4.50584 8.56165 4.6834C8.56186 4.76038 8.54616 4.83657 8.51553 4.90719C8.48491 4.97782 8.44002 5.04135 8.38368 5.0938C8.32747 5.15274 8.25939 5.19908 8.18395 5.22976C8.1085 5.26044 8.02741 5.27476 7.94602 5.27178C7.81391 5.2796 7.68326 5.24082 7.5768 5.16222C7.46688 5.05946 7.37446 4.93945 7.30319 4.80693C7.19432 4.58985 7.04036 4.39852 6.8516 4.24574C6.59855 4.08742 6.30098 4.01542 6.00354 4.04054C5.69639 4.02622 5.3918 4.10243 5.12758 4.25971C5.0327 4.31074 4.95263 4.38544 4.89514 4.47655C4.83766 4.56767 4.80472 4.6721 4.79952 4.77971C4.80026 4.89793 4.83863 5.01284 4.90909 5.10777C4.99383 5.2094 5.10181 5.28912 5.22389 5.34019C5.34857 5.40821 5.48195 5.45893 5.62033 5.49095C5.75715 5.53214 5.97633 5.58658 6.29041 5.65499C6.67359 5.73733 7.02957 5.83297 7.34434 5.92857C7.62937 6.01301 7.90103 6.13732 8.15125 6.29782C8.36432 6.43785 8.54224 6.62511 8.67121 6.84504C8.80304 7.09342 8.8689 7.37147 8.86249 7.65259C8.87875 8.02905 8.76786 8.40003 8.54769 8.70582Z" fill="#D5D6D8"/>
</svg>
