<svg width="12" height="11" viewBox="0 0 12 11" fill="none" xmlns="http://www.w3.org/2000/svg">
<path d="M11.9799 4.16099C11.942 4.05578 11.8732 3.96337 11.7817 3.89496C11.6903 3.82656 11.5801 3.7851 11.4646 3.77561L8.05521 3.2982L6.52729 0.32447C6.47823 0.227223 6.40162 0.145208 6.30625 0.087822C6.21087 0.0304362 6.10059 0 5.98803 0C5.87547 0 5.76518 0.0304362 5.66981 0.087822C5.57443 0.145208 5.49783 0.227223 5.44876 0.32447L3.92084 3.29245L0.511482 3.77561C0.400586 3.79074 0.296329 3.83541 0.210541 3.90454C0.124754 3.97368 0.060871 4.06451 0.0261423 4.16674C-0.00564746 4.26664 -0.00850021 4.37296 0.0178902 4.47429C0.0442806 4.57562 0.0989178 4.66815 0.175938 4.74193L2.65057 7.04269L2.05139 10.3098C2.03 10.4176 2.0412 10.5291 2.08367 10.631C2.12613 10.7329 2.1981 10.821 2.29106 10.885C2.38167 10.9471 2.48854 10.9838 2.59967 10.991C2.7108 10.9981 2.8218 10.9753 2.9202 10.9252L5.98803 9.38947L9.04387 10.931C9.12796 10.9765 9.22294 11.0003 9.31949 11C9.44642 11.0004 9.5702 10.9622 9.67301 10.8907C9.76597 10.8268 9.83794 10.7387 9.88041 10.6367C9.92288 10.5348 9.93408 10.4234 9.91269 10.3155L9.3135 7.04844L11.7881 4.74768C11.8746 4.67732 11.9386 4.58485 11.9725 4.48099C12.0065 4.37714 12.009 4.26618 11.9799 4.16099Z" fill="#408B6E"/>
</svg>
