<svg width="180" height="180" viewBox="0 0 180 180" fill="none" xmlns="http://www.w3.org/2000/svg">
<path d="M45 160.428C45 158.811 46.2592 157.5 47.8125 157.5C49.3658 157.5 50.625 158.811 50.625 160.428V171.447C50.625 173.064 49.3658 174.375 47.8125 174.375C46.2592 174.375 45 173.064 45 171.447V160.428Z" fill="#644C6E"/>
<path d="M129.375 160.428C129.375 158.811 130.634 157.5 132.188 157.5C133.741 157.5 135 158.811 135 160.428V171.447C135 173.064 133.741 174.375 132.188 174.375C130.634 174.375 129.375 173.064 129.375 171.447V160.428Z" fill="#644C6E"/>
<path d="M176.585 14.0625C175.045 14.0625 173.743 12.953 172.987 11.5555C171.923 9.58856 170.294 7.98004 168.31 6.94185C166.979 6.24458 165.938 4.93654 165.938 3.38469V2.92756C165.938 1.31071 164.678 0 163.125 0C161.572 0 160.312 1.31071 160.312 2.92756V3.38469C160.312 4.93654 159.271 6.24458 157.94 6.94185C155.956 7.98004 154.327 9.58856 153.263 11.5555C152.507 12.953 151.205 14.0625 149.665 14.0625H148.952C147.46 14.0625 146.25 15.3217 146.25 16.875C146.25 18.4283 147.46 19.6875 148.952 19.6875H149.665C151.205 19.6875 152.507 20.797 153.263 22.1945C154.327 24.1614 155.956 25.77 157.94 26.8081C159.271 27.5054 160.312 28.8135 160.312 30.3653V30.8224C160.312 32.4393 161.572 33.75 163.125 33.75C164.678 33.75 165.938 32.4393 165.938 30.8224V30.3653C165.938 28.8135 166.979 27.5054 168.31 26.8081C170.294 25.77 171.923 24.1614 172.987 22.1945C173.743 20.797 175.045 19.6875 176.585 19.6875H177.298C178.79 19.6875 180 18.4283 180 16.875C180 15.3217 178.79 14.0625 177.298 14.0625H176.585ZM163.125 22.5C160.019 22.5 157.5 19.9814 157.5 16.875C157.5 13.7686 160.019 11.25 163.125 11.25C166.231 11.25 168.75 13.7686 168.75 16.875C168.75 19.9814 166.231 22.5 163.125 22.5Z" fill="#644C6E"/>
<path d="M147.406 129.938L109.688 118.834V108.38L118.125 102.755V95.0619L119.553 93.3165C122.263 89.9972 123.745 85.8458 123.75 81.5625C123.746 77.9878 121.494 74.8018 118.125 73.6056V56.25C118.117 50.6909 114.057 45.9681 108.563 45.1263C104.079 39.2431 88.1433 35.2826 75.4404 37.3384C66.172 38.8435 50.625 44.761 50.625 67.5V72.0511L54.6941 70.0172C56.9847 69.1273 59.4182 68.67 61.875 68.67V73.6056C58.5063 74.8018 56.2541 77.9878 56.25 81.5625C56.2541 85.8485 57.7359 90.0027 60.4468 93.3247L61.875 95.0619V102.75L70.3125 108.375V118.828L32.5937 129.938C26.6295 131.721 22.5316 137.193 22.5 143.418V180H28.125V143.418C28.1401 139.68 30.5997 136.394 34.1798 135.324L61.875 127.179V180H67.5V125.522L70.9648 124.504C72.9341 132.178 79.3419 137.903 87.1875 138.999V157.5H92.8125V138.999C100.658 137.903 107.066 132.178 109.035 124.504L112.5 125.522V180H118.125V127.179L145.82 135.335C149.396 136.403 151.854 139.684 151.875 143.418V180H157.5V143.418C157.468 137.193 153.371 131.721 147.406 129.938ZM56.4381 63.63C57.9007 49.3148 67.5275 44.4795 75.7068 43.0005C89.2941 40.5368 103.269 46.2126 104.205 48.701L104.847 50.625H106.875C109.981 50.625 112.5 53.1436 112.5 56.25V64.2068C109.131 63.0107 106.879 59.8246 106.875 56.25H101.25C101.331 57.6205 100.819 58.9595 99.8438 59.9263C95.8804 63.7646 84.4423 63.4103 74.3541 63.1041C68.3803 62.6797 62.3776 62.8569 56.4381 63.63ZM104.062 120.602L103.995 120.884C103.287 128.083 97.2331 133.57 90 133.57C82.7669 133.57 76.7134 128.083 76.0048 120.884L75.9375 120.62V112.129L80.7193 115.312H99.2807L104.062 112.129V120.602ZM97.5943 109.687H82.4057L67.5 99.7449V93.0597L64.8001 89.7638C62.9118 87.447 61.8791 84.5508 61.875 81.5625C61.875 80.0093 63.1343 78.75 64.6875 78.75H67.5V68.5684C69.6739 68.5917 71.9302 68.6563 74.1742 68.7263C85.8485 69.0834 97.9143 69.4542 103.635 64.0777C105.699 67.1388 108.883 69.266 112.5 70.0035V78.75H115.312C116.866 78.75 118.125 80.0093 118.125 81.5625C118.122 84.5508 117.088 87.4457 115.2 89.761L112.5 93.0597V99.7449L97.5943 109.687Z" fill="#644C6E"/>
<path d="M96.8225 8.74801C94.5897 8.55955 92.8125 6.6585 92.8125 4.32664V2.92756C92.8125 1.31071 91.5533 0 90 0C88.4467 0 87.1875 1.31071 87.1875 2.92756V4.32664C87.1875 6.6585 85.4103 8.55955 83.1775 8.74801C43.6927 12.0806 12.2639 43.4096 8.77635 82.8496C8.56276 85.2651 6.66305 87.1875 4.33272 87.1875H2.70196C1.20971 87.1875 0 88.4467 0 90C0 91.5533 1.20971 92.8125 2.70197 92.8125H4.33771C6.67341 92.8125 8.57638 94.7397 8.78881 97.1609C9.67927 107.31 12.4631 117.209 17.0004 126.341C17.6911 127.731 19.3402 128.238 20.6739 127.515C22.0695 126.759 22.5818 124.953 21.8664 123.494C17.8256 115.256 15.3114 106.358 14.441 97.2311C14.2114 94.8245 16.0812 92.8125 18.4046 92.8125H19.798C21.2903 92.8125 22.5 91.5533 22.5 90C22.5 88.4467 21.2903 87.1875 19.798 87.1875H18.3995C16.0709 87.1875 14.1981 85.1662 14.4302 82.7544C17.9208 46.4919 46.7907 17.7266 83.1007 14.3977C85.3279 14.1935 87.1875 16.0658 87.1875 18.3931V19.5724C87.1875 21.1893 88.4467 22.5 90 22.5C91.5533 22.5 92.8125 21.1893 92.8125 19.5724V18.3931C92.8125 16.0658 94.6721 14.1935 96.8993 14.3977C133.209 17.7266 162.079 46.4919 165.57 82.7544C165.802 85.1662 163.929 87.1875 161.6 87.1875H160.202C158.71 87.1875 157.5 88.4467 157.5 90C157.5 91.5533 158.71 92.8125 160.202 92.8125H161.596C163.919 92.8125 165.789 94.8241 165.56 97.2307C164.692 106.36 162.178 115.263 158.137 123.504C157.423 124.962 157.936 126.766 159.33 127.52C160.662 128.24 162.307 127.733 162.997 126.346C167.534 117.211 170.318 107.311 171.21 97.1604C171.423 94.7393 173.326 92.8125 175.662 92.8125H177.298C178.79 92.8125 180 91.5533 180 90C180 88.4467 178.79 87.1875 177.298 87.1875H175.667C173.337 87.1875 171.437 85.2651 171.224 82.8496C167.736 43.4096 136.307 12.0806 96.8225 8.74801Z" fill="#644C6E"/>
<path d="M139.556 116.795C140.889 117.519 142.541 117.014 143.216 115.615C150.267 101.001 150.971 84.1126 145.16 68.9619C144.601 67.5044 142.991 66.8546 141.601 67.4616C140.146 68.0964 139.493 69.8555 140.065 71.3849C145.097 84.8389 144.476 99.7655 138.346 112.756C137.651 114.228 138.16 116.037 139.556 116.795Z" fill="#644C6E"/>
<path d="M38.4008 67.4639C37.0095 66.8572 35.3991 67.5075 34.8397 68.9658C29.0285 84.1155 29.7331 101.003 36.7847 115.617C37.4592 117.015 39.1098 117.52 40.4426 116.797C41.8397 116.039 42.3487 114.231 41.6541 112.759C35.5244 99.7691 34.9055 84.8433 39.9383 71.3914C40.5112 69.8602 39.8569 68.0989 38.4008 67.4639Z" fill="#644C6E"/>
<path d="M87.1875 81.6776C87.1875 80.0607 85.9283 78.75 84.375 78.75C82.8217 78.75 81.5625 80.0607 81.5625 81.6776V89.7699C81.5625 93.0036 84.0809 95.625 87.1875 95.625H90.1105C91.6028 95.625 92.8125 94.3658 92.8125 92.8125C92.8125 91.2592 91.6028 90 90.1105 90H90C88.4467 90 87.1875 88.6893 87.1875 87.0725V81.6776Z" fill="#644C6E"/>
</svg>
