<svg width="13" height="13" viewBox="0 0 13 13" fill="none" xmlns="http://www.w3.org/2000/svg">
<g clip-path="url(#clip0)">
<path d="M6.36037 3.2219C-0.530642 5.88029 2.21753e-05 5.65686 2.21753e-05 5.91838C2.21753e-05 6.10627 0.0660378 6.20783 0.236155 6.28147C0.307249 6.31193 1.00803 6.576 1.79006 6.86799L3.21447 7.39865L3.79338 9.26486C4.1133 10.2932 4.39514 11.1692 4.42053 11.2123C4.50178 11.3469 4.70236 11.4104 4.85471 11.352C4.88772 11.3393 5.30666 11.0067 5.78908 10.6156C6.2715 10.2221 6.70314 9.88186 6.75139 9.86154C6.86057 9.81584 6.98498 9.81584 7.09924 9.86408C7.14748 9.8844 7.84572 10.3795 8.65314 10.9635C9.45803 11.55 10.1639 12.0578 10.2172 12.0959C10.3899 12.2127 10.6438 12.1696 10.7504 12.0045C10.7961 11.9334 13 1.33791 13 1.18811C13 0.979903 12.8528 0.835177 12.6395 0.840255C12.5582 0.840255 10.9713 1.44201 6.36037 3.2219ZM10.1512 3.20412C10.169 3.2219 10.1817 3.25236 10.1817 3.27775C10.1817 3.30061 9.07209 4.34924 7.71623 5.61115C6.15979 7.05842 5.22287 7.94455 5.17717 8.01818C5.06545 8.19338 5.03498 8.32541 4.9385 9.03889C4.86486 9.57463 4.84201 9.69397 4.79885 9.73459C4.75822 9.77522 4.73537 9.78029 4.67951 9.75998C4.61096 9.73713 4.59826 9.69904 4.27326 8.56916C4.07014 7.8633 3.93811 7.35549 3.93557 7.2844C3.93557 7.13967 4.03713 6.92639 4.14631 6.85022C4.25041 6.77404 10.0877 3.17619 10.108 3.17365C10.1156 3.17365 10.1334 3.18635 10.1512 3.20412Z" fill="white"/>
</g>
<defs>
<clipPath id="clip0">
<rect width="13" height="13" fill="white"/>
</clipPath>
</defs>
</svg>
