<svg width="14" height="14" viewBox="0 0 14 14" fill="none" xmlns="http://www.w3.org/2000/svg">
<path d="M9.26953 1.32887C8.25234 1.51208 7.47851 2.09723 7.06289 2.99958C6.89883 3.35505 6.83047 3.6777 6.825 4.10153C6.825 4.30387 6.8332 4.54723 6.84414 4.6402L6.86601 4.81247H6.7457C6.60351 4.81247 6.08398 4.74684 5.79687 4.68942C4.01133 4.34762 2.39531 3.42614 1.19492 2.06442C1.08828 1.94411 0.992578 1.84294 0.98164 1.83747C0.951562 1.8238 0.825781 2.08083 0.746484 2.31052C0.369141 3.40973 0.645312 4.57731 1.46836 5.35934C1.56953 5.45778 1.69258 5.56442 1.73633 5.59723L1.81836 5.65739L1.70898 5.64372C1.32891 5.59723 1.02539 5.5152 0.792969 5.40036C0.724609 5.36755 0.639844 5.32927 0.604297 5.31833L0.538672 5.29919L0.560547 5.55348C0.650781 6.71286 1.4082 7.69723 2.49375 8.06911L2.78359 8.16755L2.58945 8.19763C2.22852 8.25505 2.09453 8.26052 1.83477 8.23044C1.69258 8.21403 1.57227 8.20583 1.5668 8.21403C1.54492 8.23317 1.69805 8.59138 1.80742 8.78005C2.24766 9.54294 3.09258 10.1062 3.91016 10.1883C4.2082 10.2183 4.20547 10.2156 4.02773 10.3441C3.30586 10.8746 2.41719 11.2246 1.44922 11.364C1.14844 11.4078 0.314453 11.4242 0.114844 11.3886C0.0519531 11.3777 0 11.3804 0 11.3941C0 11.4215 0.453906 11.6867 0.784765 11.8508C1.6625 12.2855 2.63047 12.5617 3.64766 12.6629C4.06601 12.7039 5.21172 12.6793 5.60547 12.6218C6.58437 12.4742 7.27617 12.2636 8.10742 11.8535C10.4562 10.6941 12.0914 8.37536 12.5098 5.60544C12.5344 5.44684 12.5617 5.05583 12.5699 4.73591L12.5863 4.15075L12.8352 3.95387C13.1469 3.70231 13.6172 3.21559 13.8359 2.90934C13.9289 2.78083 14 2.67145 13.9918 2.66325C13.9863 2.65505 13.8879 2.68512 13.7785 2.72887C13.4586 2.85739 13.1469 2.94762 12.7887 3.02145C12.6082 3.057 12.4551 3.08434 12.4496 3.08161C12.4469 3.07614 12.518 3.01872 12.6055 2.95309C12.8105 2.80544 13.1332 2.46911 13.2699 2.26403C13.3848 2.09177 13.5789 1.69528 13.6062 1.58044C13.6227 1.50661 13.6172 1.50934 13.2562 1.68981C12.8953 1.87302 12.4004 2.05622 11.9984 2.15466L11.7906 2.20934L11.6703 2.0863C11.3969 1.80739 10.8418 1.50114 10.418 1.39177C10.243 1.34802 10.0816 1.33161 9.76172 1.32614C9.52929 1.32067 9.30781 1.32341 9.26953 1.32887Z" fill="white"/>
</svg>
