<?xml version="1.0" encoding="utf-8"?>
<!-- Generator: Adobe Illustrator 21.1.0, SVG Export Plug-In . SVG Version: 6.00 Build 0)  -->
<svg version="1.1" id="Слой_1" xmlns="http://www.w3.org/2000/svg" xmlns:xlink="http://www.w3.org/1999/xlink" x="0px" y="0px"
	 viewBox="0 0 24 24" style="enable-background:new 0 0 24 24;" xml:space="preserve">
<g>
	<path d="M12,24C5.4,24,0,18.6,0,12C0,5.4,5.4,0,12,0c6.6,0,12,5.4,12,12C24,18.6,18.6,24,12,24z M12,1C5.9,1,1,5.9,1,12
		s4.9,11,11,11s11-4.9,11-11S18.1,1,12,1z"/>
</g>
<g>
	<path d="M14.3,7.3c-1,0.2-1.8,0.8-2.2,1.7c-0.2,0.4-0.2,0.7-0.2,1.1c0,0.2,0,0.4,0,0.5l0,0.2h-0.1c-0.1,0-0.7-0.1-0.9-0.1
		C9,10.3,7.4,9.4,6.2,8.1C6.1,7.9,6,7.8,6,7.8c0,0-0.2,0.2-0.2,0.5c-0.4,1.1-0.1,2.3,0.7,3c0.1,0.1,0.2,0.2,0.3,0.2l0.1,0.1l-0.1,0
		c-0.4,0-0.7-0.1-0.9-0.2c-0.1,0-0.2-0.1-0.2-0.1l-0.1,0l0,0.3c0.1,1.2,0.8,2.1,1.9,2.5l0.3,0.1l-0.2,0c-0.4,0.1-0.5,0.1-0.8,0
		c-0.1,0-0.3,0-0.3,0c0,0,0.1,0.4,0.2,0.6c0.4,0.8,1.3,1.3,2.1,1.4c0.3,0,0.3,0,0.1,0.2c-0.7,0.5-1.6,0.9-2.6,1
		c-0.3,0-1.1,0.1-1.3,0c-0.1,0-0.1,0-0.1,0c0,0,0.5,0.3,0.8,0.5c0.9,0.4,1.8,0.7,2.9,0.8c0.4,0,1.6,0,2,0c1-0.1,1.7-0.4,2.5-0.8
		c2.3-1.2,4-3.5,4.4-6.2c0-0.2,0.1-0.5,0.1-0.9l0-0.6l0.2-0.2c0.3-0.3,0.8-0.7,1-1C18.9,8.8,19,8.7,19,8.7c0,0-0.1,0-0.2,0.1
		c-0.3,0.1-0.6,0.2-1,0.3c-0.2,0-0.3,0.1-0.3,0.1c0,0,0.1-0.1,0.2-0.1c0.2-0.1,0.5-0.5,0.7-0.7c0.1-0.2,0.3-0.6,0.3-0.7
		c0-0.1,0-0.1-0.3,0.1c-0.4,0.2-0.9,0.4-1.3,0.5l-0.2,0.1l-0.1-0.1c-0.3-0.3-0.8-0.6-1.3-0.7c-0.2,0-0.3-0.1-0.7-0.1
		C14.5,7.3,14.3,7.3,14.3,7.3z"/>
</g>
</svg>
