<?xml version="1.0" encoding="utf-8"?>
<!-- Generator: Adobe Illustrator 21.1.0, SVG Export Plug-In . SVG Version: 6.00 Build 0)  -->
<svg version="1.1" id="Слой_1" xmlns="http://www.w3.org/2000/svg" xmlns:xlink="http://www.w3.org/1999/xlink" x="0px" y="0px"
	 viewBox="0 0 24 23" style="enable-background:new 0 0 24 23;" xml:space="preserve">
<style type="text/css">
	.st0{fill:#C4C4C4;}
	.st1{fill:#FFFFFF;}
</style>
<rect class="st0" width="24" height="23"/>
<path class="st1" d="M15.342,14.637c0.887-0.694,1.534-1.645,1.852-2.721c0.318-1.076,0.29-2.225-0.079-3.285
	C16.745,7.57,16.053,6.651,15.134,6c-0.919-0.651-2.019-1-3.148-1c-1.128,0-2.228,0.35-3.148,1C7.92,6.651,7.228,7.57,6.859,8.63
	c-0.369,1.06-0.397,2.208-0.079,3.285c0.318,1.076,0.965,2.028,1.852,2.721c-1.519,0.605-2.845,1.609-3.836,2.905
	c-0.991,1.296-1.609,2.834-1.79,4.452c-0.013,0.118-0.003,0.238,0.031,0.352c0.033,0.114,0.089,0.22,0.164,0.313
	c0.151,0.187,0.371,0.307,0.61,0.333c0.24,0.026-0.095-0.016,0.546,0c1.357,0,0,0,1.357,0c0.904,0-0.452,0,1.809,0
	c1.495,0,2.685,0,4.464,0c1.779,0,1.867,0,3.676,0c1.357,0,2.261,0,3.166,0c0.452,0,0,0,0.452,0c0.37,0,0.596,0.001,0.819,0h0.1
	c0.237-0.027,0.454-0.146,0.603-0.332s0.219-0.422,0.193-0.658c-0.181-1.622-0.803-3.165-1.799-4.462S16.868,15.239,15.342,14.637z"
	/>
</svg>
