<svg width="18" height="18" viewBox="0 0 18 18" fill="none" xmlns="http://www.w3.org/2000/svg">
<path d="M12.3421 9.63654C13.2288 8.94287 13.876 7.99163 14.1937 6.91518C14.5114 5.83872 14.4837 4.69058 14.1146 3.63048C13.7455 2.57037 13.0532 1.65103 12.1341 1.00035C11.215 0.349665 10.1148 0 8.98659 0C7.85834 0 6.75814 0.349665 5.83906 1.00035C4.91997 1.65103 4.22771 2.57037 3.85858 3.63048C3.48945 4.69058 3.4618 5.83872 3.77948 6.91518C4.09717 7.99163 4.74439 8.94287 5.6311 9.63654C4.1117 10.2418 2.78598 11.2457 1.79525 12.5412C0.80453 13.8367 0.185949 15.3753 0.00545546 16.9929C-0.0076096 17.111 0.00284753 17.2305 0.0362296 17.3446C0.0696116 17.4586 0.125265 17.5651 0.200012 17.6578C0.35097 17.845 0.570537 17.9649 0.810411 17.9911C1.05028 18.0174 0.715006 17.9755 1.35667 17.9914C2.71333 17.9914 1.35667 17.9914 2.71333 17.9914C3.61778 17.9914 2.26111 17.9914 4.52222 17.9914C6.01712 17.9914 7.20745 17.9911 8.98659 17.9911C10.7657 17.9911 10.8533 17.9911 12.6622 17.9914C14.0189 17.9914 14.9233 17.9914 15.8278 17.9914C16.28 17.9914 15.8278 17.9914 16.28 17.9914C16.6501 17.9914 16.8759 17.9925 17.0994 17.9911H17.1989C17.436 17.964 17.6527 17.8448 17.8018 17.6595C17.9509 17.4742 18.0203 17.2378 17.9948 17.0019C17.8135 15.3797 17.1916 13.8372 16.1958 12.5397C15.2 11.2422 13.8678 10.2386 12.3421 9.63654Z" fill="white"/>
</svg>
