<svg width="24" height="24" viewBox="0 0 24 24" fill="none" xmlns="http://www.w3.org/2000/svg">
<circle cx="12" cy="12" r="11.5" stroke="white"/>
<g clip-path="url(#clip0)">
<path d="M9.98438 8.795C8.93438 8.82547 8.58125 8.91179 8.33438 9.19871C8.25313 9.29265 8.26875 9.32058 8.43125 9.34851C8.7625 9.40691 8.99688 9.53894 9.1 9.72176C9.29688 10.0874 9.35 10.9684 9.22188 11.7632C9.15625 12.1567 9.03125 12.37 8.84375 12.403C8.59688 12.4462 8.18125 12.1694 7.82813 11.7276C7.54688 11.3772 6.75938 10.1407 6.5 9.64304C6.3375 9.33074 6.26875 9.25457 6.075 9.17332L5.92188 9.10984L4.67188 9.11746C3.98438 9.12 3.36875 9.13015 3.30313 9.13777C3.2375 9.14539 3.14375 9.18094 3.09375 9.21648C3.0125 9.2698 3 9.29773 3 9.40945C3 9.51609 3.04375 9.61512 3.25313 9.99597C4.04375 11.4229 4.93125 12.6848 5.86875 13.7157C6.61563 14.5384 7.0625 14.9218 7.69063 15.2823C8.57813 15.7927 9.24688 16.0364 10.0469 16.143C10.4281 16.1938 11.8375 16.1938 12.0094 16.1456C12.2813 16.0643 12.3469 15.9602 12.3781 15.5337C12.4156 15.0259 12.5563 14.7262 12.8375 14.5485C13.1125 14.3759 13.3844 14.513 14.1313 15.196C14.625 15.6479 14.875 15.846 15.1219 15.9729C15.3125 16.072 15.5844 16.1634 15.7688 16.1938C15.9125 16.2141 16.7719 16.2116 17.85 16.1837L18.6219 16.1634L18.7719 16.0897C18.9438 16.0034 19 15.9298 19 15.785C19 15.4093 18.5938 14.9548 17.3594 13.9595C16.4469 13.2231 16.3844 13.1546 16.4156 12.9235C16.4438 12.7458 16.5438 12.6214 17.3594 11.7378C18.4156 10.5952 18.7656 10.1509 18.9406 9.73445C19.0219 9.54402 19.0188 9.32566 18.9375 9.25457C18.7813 9.12 18.7594 9.11746 17.125 9.12254C16.2438 9.12254 15.5625 9.13523 15.4938 9.15047C15.3344 9.18347 15.25 9.27742 15.0938 9.5948C15.0188 9.74715 14.8188 10.095 14.65 10.3667C14.0281 11.3772 13.3 12.2024 12.8844 12.3649C12.7938 12.403 12.7781 12.4005 12.6656 12.3548C12.5875 12.3218 12.525 12.2659 12.4781 12.1923C12.3531 11.9968 12.3406 11.7657 12.3781 10.6079C12.4156 9.46277 12.4063 9.33836 12.2719 9.12508C12.2344 9.0616 12.1656 8.98797 12.1219 8.96258C12.0031 8.89148 11.5969 8.82039 11.2344 8.80515C11.0625 8.79754 10.8531 8.78738 10.7656 8.7823C10.6813 8.77976 10.3281 8.78484 9.98438 8.795Z" fill="white"/>
</g>
<defs>
<clipPath id="clip0">
<rect width="16" height="13" fill="white" transform="translate(3 6)"/>
</clipPath>
</defs>
</svg>
