<svg width="12" height="13" viewBox="0 0 12 13" fill="none" xmlns="http://www.w3.org/2000/svg">
<path d="M7.75432 0.454437H4.19112C0.936439 0.454437 0.162109 1.22877 0.162109 4.47738V8.04058C0.162109 11.2952 0.930417 12.0696 4.18505 12.0696H7.74826C11.0029 12.0696 11.7773 11.3013 11.7773 8.04661V4.48344C11.7773 1.22877 11.009 0.454437 7.75432 0.454437ZM9.53891 8.74232H8.69199C8.37138 8.74232 8.27457 8.48218 7.69987 7.90748C7.19773 7.42353 6.98601 7.36302 6.85897 7.36302C6.68355 7.36302 6.63512 7.41141 6.63512 7.6534V8.41564C6.63512 8.62134 6.56859 8.74232 6.0302 8.74232C5.50774 8.70722 5.00109 8.5485 4.55199 8.27925C4.10288 8.01 3.72416 7.63791 3.44702 7.19362C2.78908 6.3747 2.3313 5.41356 2.11008 4.38664C2.11008 4.2596 2.15846 4.14465 2.40046 4.14465H3.24738C3.46517 4.14465 3.54383 4.24145 3.62851 4.46529C4.03986 5.67519 4.74164 6.72782 5.02595 6.72782C5.13485 6.72782 5.18323 6.67943 5.18323 6.4072V5.16097C5.14693 4.59234 4.84447 4.54392 4.84447 4.33825C4.84845 4.28399 4.87342 4.23342 4.91409 4.19727C4.95475 4.16112 5.0079 4.14225 5.06225 4.14465H6.39317C6.57466 4.14465 6.63512 4.23539 6.63512 4.45317V6.13497C6.63512 6.31646 6.71378 6.37693 6.76823 6.37693C6.87712 6.37693 6.9618 6.31646 7.16144 6.11682C7.59043 5.59367 7.94096 5.01082 8.20197 4.38664C8.22861 4.31153 8.27911 4.24721 8.34575 4.20352C8.41239 4.15982 8.49151 4.13914 8.57101 4.14465H9.41793C9.67202 4.14465 9.72646 4.27169 9.67202 4.45317C9.36385 5.1433 8.98257 5.79838 8.53471 6.4072C8.44397 6.54633 8.40767 6.61892 8.53471 6.78226C8.61939 6.9093 8.91584 7.15733 9.11547 7.39326C9.40584 7.68291 9.64695 8.01803 9.82929 8.38541C9.90189 8.62134 9.78091 8.74232 9.53891 8.74232Z" fill="#D5D6D8"/>
</svg>
