<svg width="14" height="14" viewBox="0 0 14 14" fill="none" xmlns="http://www.w3.org/2000/svg">
<g clip-path="url(#clip0)">
<path d="M0 7V14H7H14V7V-2.08616e-07H7H0V7ZM9.32422 7V11.8398H8.83203H8.33985V10.0215V8.20312H7.9625H7.58242L6.77031 9.99961C6.32188 10.9895 5.94727 11.807 5.93633 11.8207C5.92539 11.8316 5.64102 11.8371 5.30195 11.8344L4.68945 11.8262L5.6957 10.0078C6.25078 9.00703 6.71016 8.17578 6.71563 8.16211C6.72383 8.1457 6.60899 8.05273 6.46133 7.95703C5.81602 7.53867 5.31016 6.87969 5.12149 6.2207C4.89727 5.42227 4.99844 4.44336 5.38945 3.67773C5.70117 3.06523 6.22344 2.56484 6.78672 2.32969C6.96172 2.25859 7.11758 2.21758 7.38281 2.17656C7.4211 2.17109 7.87227 2.16562 8.38906 2.16289L9.32422 2.16016V7Z" fill="white"/>
<path d="M7.24333 2.99687C7.03825 3.05976 6.86052 3.17187 6.68005 3.35234C6.27536 3.7625 6.06482 4.51445 6.10857 5.38672C6.15779 6.34922 6.4695 6.9918 7.01364 7.24883C7.2406 7.3582 7.4074 7.38281 7.87771 7.38281H8.28513V5.16797V2.95312L7.82849 2.95586C7.51404 2.95586 7.3281 2.96953 7.24333 2.99687Z" fill="white"/>
</g>
<defs>
<clipPath id="clip0">
<rect width="14" height="14" fill="white"/>
</clipPath>
</defs>
</svg>
