<?xml version="1.0" encoding="utf-8"?>
<!-- Generator: Adobe Illustrator 21.1.0, SVG Export Plug-In . SVG Version: 6.00 Build 0)  -->
<svg version="1.1" id="Слой_1" xmlns="http://www.w3.org/2000/svg" xmlns:xlink="http://www.w3.org/1999/xlink" x="0px" y="0px"
	 viewBox="0 0 24 24" style="enable-background:new 0 0 24 24;" xml:space="preserve">
<g>
	<path d="M12,24C5.4,24,0,18.6,0,12C0,5.4,5.4,0,12,0c6.6,0,12,5.4,12,12C24,18.6,18.6,24,12,24z M12,1C5.9,1,1,5.9,1,12
		s4.9,11,11,11s11-4.9,11-11S18.1,1,12,1z"/>
</g>
<path d="M13.4,7.2c-0.5,0-1,0-1,0c-0.3,0-0.4,0.1-0.6,0.2c-0.6,0.2-1.1,0.7-1.4,1.3c-0.4,0.8-0.5,1.7-0.3,2.5
	c0.2,0.7,0.7,1.3,1.3,1.7c0.1,0.1,0.3,0.2,0.3,0.2c0,0-0.5,0.8-1,1.8l-1,1.8l0.6,0c0.3,0,0.6,0,0.6,0c0,0,0.4-0.8,0.8-1.8l0.8-1.8
	H13h0.4V15v1.8h0.5h0.5V12V7.2L13.4,7.2z M13.3,10.2v2.2h-0.4c-0.5,0-0.6,0-0.9-0.1c-0.5-0.3-0.9-0.9-0.9-1.9c0-0.9,0.2-1.6,0.6-2
	C11.9,8.2,12,8.1,12.2,8c0.1,0,0.3,0,0.6,0l0.5,0V10.2z"/>
</svg>
