<svg width="14" height="10" viewBox="0 0 14 10" fill="none" xmlns="http://www.w3.org/2000/svg">
<path d="M13.3565 4.11664C13.3852 3.28537 13.2034 2.46033 12.828 1.71811C12.5733 1.41356 12.2198 1.20804 11.8291 1.13735C10.2132 0.990724 8.59053 0.930627 6.96816 0.957316C5.35171 0.929416 3.73491 0.987574 2.12464 1.13154C1.80628 1.18945 1.51166 1.33878 1.27674 1.5613C0.754054 2.04333 0.695978 2.86801 0.637903 3.56492C0.553642 4.81794 0.553642 6.07521 0.637903 7.32823C0.654704 7.72047 0.713107 8.10983 0.81213 8.48974C0.882155 8.78306 1.02383 9.05444 1.22447 9.27957C1.46099 9.51388 1.76247 9.6717 2.0898 9.73256C3.34186 9.88711 4.60344 9.95116 5.86472 9.92421C7.89737 9.95325 9.6803 9.92421 11.7884 9.7616C12.1238 9.70448 12.4338 9.54646 12.677 9.30861C12.8396 9.14595 12.961 8.94686 13.0313 8.72785C13.239 8.09054 13.341 7.42354 13.3333 6.75328C13.3565 6.42805 13.3565 4.46509 13.3565 4.11664ZM5.65565 7.10173V3.50684L9.09373 5.313C8.12968 5.8473 6.85782 6.45128 5.65565 7.10173Z" fill="#D5D6D8"/>
</svg>
