<?xml version="1.0" encoding="utf-8"?>
<!-- Generator: Adobe Illustrator 21.1.0, SVG Export Plug-In . SVG Version: 6.00 Build 0)  -->
<svg version="1.1" id="Слой_1" xmlns="http://www.w3.org/2000/svg" xmlns:xlink="http://www.w3.org/1999/xlink" x="0px" y="0px"
	 viewBox="0 0 24 24" style="enable-background:new 0 0 24 24;" xml:space="preserve">
<g>
	<path d="M12,24C5.4,24,0,18.6,0,12C0,5.4,5.4,0,12,0c6.6,0,12,5.4,12,12C24,18.6,18.6,24,12,24z M12,1C5.9,1,1,5.9,1,12
		s4.9,11,11,11s11-4.9,11-11S18.1,1,12,1z"/>
</g>
<g>
	<path d="M8.9,7.9C8.2,8,7.8,8,7.4,8.2c-0.6,0.2-1,0.6-1.2,1.2C6,9.8,6,9.8,6,12.1c0,2.2,0,2.5,0.1,3c0.1,0.6,0.3,0.9,0.6,1.2
		c0.5,0.5,1.2,0.7,2.4,0.8c0.4,0,1.7,0,3.9,0c3.5,0,3.5,0,4.1-0.1c1-0.2,1.5-0.7,1.8-1.7c0.1-0.6,0.1-0.6,0.1-3c0-1.6,0-2.2,0-2.4
		c-0.1-1-0.5-1.5-1.3-1.8C17.2,8,16.8,8,16.1,7.9C15.4,7.9,9.5,7.9,8.9,7.9z M11.8,10.8c0.9,0.4,2.6,1.3,2.6,1.4
		c0.2,0.2,0.2,0.4,0,0.6c-0.1,0.1-2.8,1.5-2.9,1.5c-0.2,0-0.4,0-0.4-0.2c0-0.1,0-0.3,0-1.6v-1.5l0.1-0.1c0,0,0.1-0.1,0.1-0.1
		C11.4,10.6,11.5,10.6,11.8,10.8z"/>
</g>
</svg>
