<svg width="24" height="24" viewBox="0 0 24 24" fill="none" xmlns="http://www.w3.org/2000/svg">
<circle cx="12" cy="12" r="11.5" stroke="white"/>
<path d="M8.85639 7.93214C8.22671 7.96007 7.78999 8.02355 7.38374 8.1505C6.74389 8.35109 6.3351 8.74464 6.15483 9.33624C6.01772 9.78312 6.01518 9.81613 6.00503 12.0683C5.99487 14.2544 6.00503 14.5616 6.10405 15.0466C6.21577 15.5976 6.39604 15.9657 6.71089 16.2857C7.2187 16.8011 7.8687 17.0118 9.123 17.0728C9.49878 17.0905 10.8242 17.0956 12.9824 17.088C16.4533 17.0753 16.5066 17.0753 17.0703 16.956C18.0732 16.7452 18.6089 16.24 18.8451 15.2802C18.9847 14.7191 18.9873 14.653 18.9873 12.2968C18.9873 10.6515 18.9796 10.0726 18.9543 9.90246C18.807 8.89699 18.4388 8.41457 17.6162 8.1505C17.215 8.02101 16.8011 7.96261 16.0623 7.9296C15.4453 7.90167 9.49116 7.90421 8.85639 7.93214ZM11.8093 10.7708C12.665 11.1999 14.3712 12.1013 14.4246 12.1521C14.6023 12.3146 14.5972 12.5609 14.4119 12.731C14.3281 12.8097 11.6443 14.2163 11.5097 14.2519C11.3396 14.2976 11.1466 14.2062 11.0679 14.0386C11.0324 13.9624 11.0273 13.7821 11.0273 12.4288V10.9079L11.0857 10.8216C11.1162 10.7759 11.1822 10.7099 11.2279 10.6794C11.3675 10.5855 11.4716 10.6007 11.8093 10.7708Z" fill="white"/>
</svg>
