<svg width="600" height="159" viewBox="0 0 600 159" fill="none" xmlns="http://www.w3.org/2000/svg">
<path d="M143.401 128.1C141.201 125.1 137.701 123.6 134.101 123.6C125.801 123.6 119.901 130.9 119.901 139C119.901 147.6 125.701 154.4 134.101 154.4C138.601 154.4 142.201 152.6 144.901 149.2L148.201 152C144.901 156.5 140.101 158.5 134.101 158.5C123.401 158.5 115.201 150.2 115.201 139C115.201 128.1 123.101 119.5 134.101 119.5C139.101 119.5 144.101 121.2 147.201 125.3L143.401 128.1Z" fill="#98979B"/>
<path d="M180.5 120.5H185V136.2H204.8V120.5H209.2V157.7H204.8V140.3H185V157.7H180.5V120.5Z" fill="#98979B"/>
<path d="M244.701 120.5H250.301L271.801 151.3H271.901V120.5H276.401V157.7H270.801L249.301 126.8H249.201V157.7H244.701V120.5Z" fill="#98979B"/>
<path d="M309.701 139.1C309.701 127.9 317.901 119.6 329.101 119.6C340.401 119.6 348.501 127.9 348.501 139.1C348.501 150.3 340.401 158.6 329.101 158.6C317.901 158.6 309.701 150.3 309.701 139.1ZM343.901 139.1C343.901 130.5 337.901 123.7 329.201 123.7C320.501 123.7 314.501 130.6 314.501 139.1C314.501 147.7 320.501 154.5 329.201 154.5C337.901 154.5 343.901 147.6 343.901 139.1Z" fill="#98979B"/>
<path d="M381.9 120.5H386.4V153.6H403.4V157.7H381.9V120.5Z" fill="#98979B"/>
<path d="M432.301 139.1C432.301 127.9 440.401 119.6 451.701 119.6C463.001 119.6 471.101 127.9 471.101 139.1C471.101 150.3 462.901 158.6 451.701 158.6C440.501 158.6 432.301 150.3 432.301 139.1ZM466.501 139.1C466.501 130.5 460.501 123.7 451.801 123.7C443.101 123.7 437.101 130.6 437.101 139.1C437.101 147.7 443.101 154.5 451.801 154.5C460.501 154.5 466.501 147.6 466.501 139.1Z" fill="#98979B"/>
<path d="M536.2 155.1C531.9 157.5 527.1 158.6 522.3 158.6C510.7 158.6 502.4 150.7 502.4 139.1C502.4 127.4 511.3 119.6 522.4 119.6C527.3 119.6 532 120.9 535.5 124.5L532.2 128C529.7 125.3 525.9 123.7 522.1 123.7C513.6 123.7 507.1 130.1 507.1 139.1C507.1 148 513.4 154.5 522.5 154.5C525.5 154.5 529 153.7 531.7 152.3V140.9H523.1V136.8H536.1V155.1" fill="#98979B"/>
<path d="M580.5 141.6L566.6 120.5H572.2L582.7 137.3L593.4 120.5H598.7L584.9 141.6V157.7H580.5V141.6Z" fill="#98979B"/>
<path d="M2.50039 44.4001C7.00039 39.8001 13.6004 37.6001 20.0004 37.6001C33.0004 37.6001 38.5004 43.8001 38.5004 56.2001V75.1001C38.5004 77.6001 38.8004 80.5001 39.2004 82.7001H32.0004C31.5004 80.7001 31.5004 78.0001 31.5004 76.1001H31.3004C28.4004 80.6001 23.5004 83.8001 16.8004 83.8001C7.90039 83.8001 0.400391 79.3001 0.400391 70.7001C0.400391 56.1001 17.3004 55.3001 28.2004 55.3001H31.0004V54.0001C31.0004 47.6001 26.9004 44.3001 20.1004 44.3001C15.4004 44.3001 10.5004 45.9001 7.00039 49.1001L2.50039 44.4001ZM23.7004 61.6001C14.4004 61.6001 8.40039 64.1001 8.40039 70.1001C8.40039 75.6001 12.6004 77.7001 18.1004 77.7001C26.6004 77.7001 30.9004 71.6001 31.1004 64.4001V61.6001H23.7004Z" fill="#717073"/>
<path d="M113.301 72.3002C113.301 76.4002 113.701 79.8002 113.701 82.8002H106.701C106.701 80.4002 106.501 78.0002 106.501 75.5002H106.301C104.301 79.8002 98.9008 83.9002 91.6008 83.9002C80.0008 83.9002 74.8008 76.6002 74.8008 65.9002V38.7002H82.1008V65.1002C82.1008 72.4002 85.3008 77.1002 92.2008 77.1002C101.701 77.1002 105.801 70.2002 105.801 60.2002V38.7002H113.101V72.3002" fill="#717073"/>
<path d="M177.4 44.9002H164.4V66.9002C164.4 72.5002 164.5 77.1002 171 77.1002C173.2 77.1002 175.5 76.6002 177.5 75.6002L177.8 82.3002C175.3 83.4002 172 83.9002 169.2 83.9002C158.7 83.9002 157.1 78.3002 157.1 69.1002V44.9002H147.5V38.7002H157.1V26.2002H164.4V38.7002H177.4V44.9002Z" fill="#717073"/>
<path d="M279.201 49.2001C279.201 45.1001 278.801 41.7001 278.801 38.7001H285.801C285.801 41.1001 286.001 43.5001 286.001 46.0001H286.201C288.201 41.7001 293.601 37.6001 300.901 37.6001C310.401 37.6001 313.401 43.0001 314.801 46.0001C318.001 40.8001 322.001 37.6001 328.701 37.6001C341.301 37.6001 345.501 44.7001 345.501 56.0001V82.7001H338.201V56.3001C338.201 50.2001 336.001 44.2001 327.501 44.2001C321.301 44.2001 316.101 49.3001 316.101 57.2001V82.6001H308.801V57.7001C308.801 48.0001 306.401 44.2001 300.301 44.2001C290.801 44.2001 286.701 51.1001 286.701 61.1001V82.6001H279.401V49.2001" fill="#717073"/>
<path d="M383.4 44.4001C387.9 39.8001 394.5 37.6001 400.9 37.6001C413.9 37.6001 419.3 43.8001 419.3 56.2001V75.1001C419.3 77.6001 419.6 80.5001 420 82.7001H413C412.5 80.7001 412.5 78.0001 412.5 76.1001H412.3C409.4 80.6001 404.5 83.8001 397.8 83.8001C388.9 83.8001 381.4 79.3001 381.4 70.7001C381.4 56.1001 398.3 55.3001 409.2 55.3001H412V54.0001C412 47.6001 407.9 44.3001 401.1 44.3001C396.4 44.3001 391.5 45.9001 388 49.1001L383.4 44.4001ZM404.7 61.6001C395.4 61.6001 389.4 64.1001 389.4 70.1001C389.4 75.6001 393.5 77.7001 399.1 77.7001C407.6 77.7001 411.9 71.6001 412.1 64.4001V61.6001H404.7Z" fill="#717073"/>
<path d="M481.5 44.9002H468.5V66.9002C468.5 72.5002 468.6 77.1002 475.1 77.1002C477.3 77.1002 479.6 76.6002 481.6 75.6002L481.9 82.3002C479.4 83.4002 476.1 83.9002 473.3 83.9002C462.8 83.9002 461.1 78.3002 461.1 69.1002V44.9002H451.5V38.7002H461.1V26.2002H468.4V38.7002H481.4V44.9002" fill="#717073"/>
<path d="M519.4 16.1001C522.4 16.1001 524.7 18.6001 524.7 21.5001C524.7 24.6001 522.4 26.9001 519.4 26.9001C516.3 26.9001 514 24.6001 514 21.5001C514.1 18.6001 516.4 16.1001 519.4 16.1001ZM515.8 38.7001H523.1V82.7001H515.8V38.7001Z" fill="#717073"/>
<path d="M593.601 49.7001C590.501 45.9001 586.901 44.3001 582.501 44.3001C572.601 44.3001 567.601 51.6001 567.601 60.7001C567.601 69.7001 573.501 77.1001 582.501 77.1001C587.301 77.1001 591.001 75.4001 593.701 71.6001L599.201 76.8001C595.001 81.7001 588.901 83.9001 582.501 83.9001C568.901 83.9001 559.701 74.3001 559.701 60.8001C559.701 47.4001 568.901 37.6001 582.501 37.6001C589.001 37.6001 595.001 39.8001 599.401 44.6001L593.601 49.7001Z" fill="#717073"/>
<path d="M200.9 28.1001C200.9 43.3001 213.3 55.6001 228.4 55.6001C243.6 55.6001 255.9 43.2001 255.9 28.1001C255.9 12.9001 243.5 0.600098 228.4 0.600098C213.2 0.600098 200.9 12.9001 200.9 28.1001ZM208.5 28.1001C208.5 17.1001 217.4 8.20009 228.4 8.20009C239.4 8.20009 248.3 17.1001 248.3 28.1001C248.3 39.1001 239.4 48.0001 228.4 48.0001C217.4 48.0001 208.5 39.1001 208.5 28.1001Z" fill="#717073"/>
<path d="M240.1 61.8999H215.9V69.5999H240.1V61.8999Z" fill="#FAA634"/>
<path d="M240.1 75.1001H215.9V82.8001H240.1V75.1001Z" fill="#FAA634"/>
</svg>
