<svg width="601" height="115" viewBox="0 0 601 115" fill="none" xmlns="http://www.w3.org/2000/svg">
<path d="M57.0996 92.0999C37.6996 92.0999 25.1996 78.0999 25.1996 57.2999C25.1996 36.4999 37.5996 22.4999 57.0996 22.4999C70.5996 22.4999 80.5996 28.7999 86.1996 38.3999L103 23.8999C94.0996 10.1999 79.3996 0.399902 57.0996 0.399902C21.5996 0.399902 0.599609 26.7999 0.599609 57.2999C0.599609 87.7999 21.5996 114.2 57.0996 114.2C79.2996 114.2 93.9996 104.4 103 90.6999L86.1996 76.1999C80.5996 85.7999 70.5996 92.0999 57.0996 92.0999ZM219.6 114.2C252.9 114.2 276.3 90.6999 276.3 57.2999C276.3 23.8999 252.8 0.399902 219.6 0.399902C186.4 0.399902 163 23.8999 163 57.2999C163 90.7999 186.3 114.2 219.6 114.2ZM219.6 92.2999C200.5 92.2999 187.2 77.8999 187.2 57.2999C187.2 36.5999 200.5 22.2999 219.6 22.2999C238.9 22.2999 252.2 36.6999 252.2 57.2999C252.1 77.9999 238.8 92.2999 219.6 92.2999ZM368.3 112.4H393.8V24.4999H431.1L429.2 2.09991H333.3L331.4 24.4999H368.3V112.4ZM560.5 85.7999C560.5 75.7999 563 71.0999 572.9 59.8999L583.4 47.9999C595.5 34.1999 600.5 22.9999 600.5 4.59991V2.19992H575.3V4.09991C575.3 19.8999 572.5 25.7999 562.7 36.9999L555.4 45.3999C551.2 50.2999 548.2 54.9999 548.2 54.9999C548.2 54.9999 545.2 50.2999 541 45.3999L533.6 36.9999C523.8 25.7999 521 19.8999 521 4.09991V2.19992H495.1V4.59991C495.1 22.9999 500.2 34.1999 512.3 47.9999L522.8 59.8999C532.8 71.0999 535.2 75.7999 535.2 85.7999V112.4H560.4V85.7999H560.5Z" fill="#3D195B"/>
</svg>
