<svg width="114" height="116" viewBox="0 0 114 116" fill="none" xmlns="http://www.w3.org/2000/svg">
<path d="M35.0016 96.7784V107.619C35.0016 110.699 33.4746 112.342 30.6999 112.342C27.9096 112.342 26.3734 110.651 26.3734 107.488V96.7902H22.5346V107.619C22.5346 112.947 25.4924 116.001 30.6493 116.001C35.855 116.001 38.8404 112.889 38.8404 107.463V96.7784H35.0016ZM49.1253 96.7784L40.7878 115.706H44.7063L46.3157 112.04L46.4309 111.765H55.0924L56.7912 115.706H60.8162L52.5562 96.8904L52.4819 96.7783L49.1253 96.7784ZM71.9505 96.7784L67.6541 109.802L63.4719 96.7881H59.3866L65.9812 115.717H69.1601L73.4651 103.282L77.7668 115.717H80.9727L87.5512 96.7881H83.5703L79.3794 109.802L75.082 96.7784H71.9505ZM109.517 96.7784V115.689H113.305V96.7784H109.517ZM0.861328 96.7795V115.716H4.70123V108.025H13.3714V115.716H17.2124V96.7795H13.3714V104.419H4.70123V96.7795H0.861328ZM90.6472 96.7923V115.703H104.939V112.255H94.4354V107.566H101.42V104.117H94.4354V100.24H104.573V96.7923H90.6472ZM50.7519 101.571L53.4895 107.911H53.4799L53.6661 108.348H47.8584L48.0424 107.911H48.0392L50.7519 101.571Z" fill="#232527"/>
<path d="M48.676 0.000244296C47.1529 0.13505 43.0371 1.07248 43.0371 1.07248C33.7601 3.47186 31.5657 11.8959 31.5657 11.8959C31.1127 13.3124 30.9069 14.7641 30.8463 16.1319V17.9934C30.9695 20.8695 31.6087 23.0171 31.6087 23.0171C34.7075 36.7665 49.9439 59.3588 53.2185 64.1048C53.4509 64.3354 53.6369 64.2521 53.6369 64.2521C53.9903 64.1544 53.9627 63.8152 53.9627 63.8152L53.9694 63.8169C59.0131 13.3716 48.676 0.000244296 48.676 0.000244296ZM65.3414 0.000244296C65.3414 0.000244296 54.9592 13.3787 60.0068 63.8533H60.0135C60.0526 64.1738 60.2798 64.2405 60.2798 64.2405C60.6175 64.3715 60.7907 64.0468 60.7907 64.0468L60.7924 64.05C64.151 59.1829 79.3006 36.7135 82.3857 23.0168C82.3857 23.0168 84.0585 16.3876 82.4437 11.8956C82.4437 11.8956 80.1502 3.34115 70.8615 1.08052C70.8615 1.08052 68.1845 0.400786 65.3414 0.000244296ZM17.4535 15.144C17.4535 15.144 8.61425 23.539 8.17492 32.4389H8.17843V33.7875C8.18515 33.889 8.19027 33.9918 8.19667 34.0952C8.57744 41.2718 13.9729 45.5192 13.9729 45.5192C22.666 53.9971 43.7155 64.7009 48.6068 67.1295C48.6753 67.1551 48.928 67.2378 49.0765 67.0501C49.0765 67.0501 49.1537 66.9915 49.1889 66.8862V66.6627C49.1854 66.6499 49.1787 66.637 49.1723 66.623C35.7771 37.342 17.4535 15.144 17.4535 15.144ZM96.5424 15.144C96.5424 15.144 78.2726 37.2726 64.8834 66.4942L64.8885 66.4925C64.8885 66.4925 64.7304 66.8313 64.9861 67.0501C64.9861 67.0501 65.0624 67.1078 65.168 67.1311H65.3532C65.3865 67.1215 65.4222 67.1087 65.4574 67.0847C70.4815 64.5896 91.3681 53.9594 100.02 45.5206C100.02 45.5206 105.499 41.1178 105.786 34.0486C106.419 24.2303 96.5424 15.144 96.5424 15.144ZM112.986 44.2137C112.986 44.2137 83.2009 60.2082 67.8004 70.6028L67.8056 70.6077C67.8056 70.6077 67.5262 70.7908 67.6237 71.119C67.6237 71.119 67.7699 71.3838 67.9826 71.3838C73.4988 71.3934 94.3723 71.4185 94.8956 71.3209C94.8956 71.3209 97.5947 71.213 100.93 69.9309C100.93 69.9309 108.354 67.5689 112.211 59.134C112.211 59.134 113.973 55.607 113.999 50.652V50.442C113.986 48.5311 113.716 46.4157 112.986 44.2137ZM1.00139 44.2883C-1.70863 52.6832 1.93974 59.4476 1.94563 59.4585C5.74769 67.4971 13.0052 69.9328 13.0052 69.9328C16.3559 71.3102 19.7074 71.4055 19.7074 71.4055C20.2308 71.5012 40.5482 71.4151 45.9921 71.3895C46.2225 71.3878 46.3493 71.156 46.3493 71.156C46.3653 71.1304 46.3794 71.1048 46.3857 71.0814V70.8714C46.3406 70.7308 46.2204 70.6316 46.2204 70.6316L46.2239 70.6298C30.8311 60.2386 1.00139 44.2883 1.00139 44.2883ZM45.3704 73.9702L10.3313 75.1997C14.1311 81.9777 20.5305 87.2454 27.1968 85.6276C31.7972 84.4767 42.2192 77.2026 45.6598 74.7446L45.6482 74.735C45.9158 74.4946 45.8202 74.3015 45.8202 74.3015C45.7322 73.9867 45.3704 73.9871 45.3704 73.9871L45.3704 73.9702ZM68.5776 73.9958L68.5741 74.0086C68.5741 74.0086 68.2665 74.0477 68.1805 74.2783C68.1805 74.2783 68.1058 74.5934 68.3128 74.7498L68.3093 74.753C71.664 77.1602 81.8334 84.2744 86.7326 85.6558C86.7326 85.6558 87.4748 85.9085 88.7186 85.9536H89.466C92.7484 85.8384 98.4666 84.1511 103.663 75.2179L68.5776 73.9958Z" fill="#CF0A2C"/>
</svg>
