<?xml version="1.0" encoding="utf-8"?>
<!-- Generator: Adobe Illustrator 21.1.0, SVG Export Plug-In . SVG Version: 6.00 Build 0)  -->
<svg version="1.1" id="Слой_1" xmlns="http://www.w3.org/2000/svg" xmlns:xlink="http://www.w3.org/1999/xlink" x="0px" y="0px"
	 viewBox="0 0 130 130" style="enable-background:new 0 0 130 130;" xml:space="preserve">
<style type="text/css">
	.st0{fill:#408B6E;}
	.st1{fill:#FFFFFF;}
</style>
<path class="st0" d="M20,0h90c11.046,0,20,8.954,20,20v90c0,11.046-8.954,20-20,20H20c-11.046,0-20-8.954-20-20V20
	C0,8.954,8.954,0,20,0z"/>
<path class="st1" d="M50.742,78.034l-0.075-26.069h-4.953l-9.608,16.2l-9.757-16.2h-4.99v26.069h5.661V62.728l7.634,12.55h2.719
	l7.672-12.885l0.037,15.641H50.742z M76.069,64.479c2.123-1.117,3.464-3.128,3.464-5.735c0-4.059-3.352-6.778-9.869-6.778H56.927
	v26.069h13.481c6.853,0,10.428-2.607,10.428-7.113C80.836,67.644,78.974,65.41,76.069,64.479z M68.918,56.509
	c2.942,0,4.543,1.006,4.543,3.054c0,2.048-1.601,3.091-4.543,3.091h-5.996v-6.145H68.918z M69.961,73.491h-7.039v-6.443h7.039
	c3.128,0,4.804,1.043,4.804,3.24C74.765,72.523,73.089,73.491,69.961,73.491z M97.879,78.481c4.543,0,8.305-1.639,10.763-4.655
	l-3.873-3.575c-1.75,2.048-3.948,3.091-6.554,3.091c-4.879,0-8.342-3.426-8.342-8.342c0-4.916,3.463-8.342,8.342-8.342
	c2.607,0,4.804,1.043,6.554,3.054l3.873-3.575c-2.458-2.979-6.219-4.618-10.726-4.618c-8.119,0-14.152,5.623-14.152,13.481
	C83.765,72.858,89.798,78.481,97.879,78.481z"/>
</svg>
