<svg width="270" height="91" viewBox="0 0 270 91" fill="none" xmlns="http://www.w3.org/2000/svg">
<path fill-rule="evenodd" clip-rule="evenodd" d="M146.102 60.8967C145.871 60.6679 145.755 60.3901 145.755 60.0633V49.0323L134.024 28.4902C133.924 28.1961 133.875 28.0163 133.875 27.9509C133.875 27.6568 133.982 27.4116 134.197 27.2155C134.411 27.0194 134.651 26.9214 134.915 26.9214H139.37C139.997 26.9214 140.508 27.2319 140.904 27.8529L149.22 42.0706L157.586 27.8529C157.718 27.6241 157.908 27.4116 158.155 27.2155C158.403 27.0194 158.708 26.9214 159.071 26.9214H163.526C163.823 26.9214 164.071 27.0194 164.269 27.2155C164.467 27.4116 164.566 27.6568 164.566 27.9509C164.566 28.147 164.516 28.3268 164.417 28.4902L152.735 49.0323V60.0633C152.735 60.4228 152.62 60.7088 152.389 60.9212C152.158 61.1337 151.861 61.2399 151.498 61.2399H146.943C146.613 61.2399 146.333 61.1255 146.102 60.8967ZM174.299 60.9212C174.035 60.7088 173.821 60.4064 173.656 60.0142L164.35 37.266C164.317 37.1679 164.3 37.0208 164.3 36.8247C164.3 36.5306 164.407 36.2773 164.622 36.0648C164.836 35.8524 165.076 35.7461 165.34 35.7461H169.448C170.108 35.7461 170.554 36.0566 170.785 36.6776L177.319 53.7879L183.853 36.6776C183.919 36.4488 184.059 36.2364 184.274 36.0403C184.488 35.8442 184.777 35.7461 185.14 35.7461H189.249C189.546 35.7461 189.793 35.8524 189.991 36.0648C190.189 36.2773 190.288 36.5306 190.288 36.8247C190.288 37.0208 190.272 37.1679 190.239 37.266L180.982 60.0142C180.619 60.8313 180.025 61.2399 179.2 61.2399H175.438C174.943 61.2399 174.563 61.1337 174.299 60.9212ZM196.433 60.7251C195.03 60.0551 193.925 59.1481 193.116 58.0042C192.308 56.8602 191.903 55.6019 191.903 54.2291C191.903 52.0066 192.811 50.2089 194.626 48.8362C196.441 47.4635 198.933 46.532 202.101 46.0417L208.882 45.0612V44.0316C208.882 42.6262 208.519 41.5639 207.793 40.8449C207.067 40.1258 205.912 39.7663 204.328 39.7663C203.239 39.7663 202.365 39.9624 201.705 40.3546C201.045 40.7468 200.508 41.1472 200.096 41.5558L199.279 42.3647C199.147 42.7569 198.9 42.953 198.537 42.953H194.676C194.379 42.953 194.123 42.855 193.908 42.6589C193.694 42.4628 193.587 42.2013 193.587 41.8744C193.62 41.0573 194.024 40.134 194.799 39.1044C195.575 38.0749 196.771 37.1761 198.388 36.408C200.005 35.6399 202.002 35.2559 204.378 35.2559C208.272 35.2559 211.11 36.122 212.892 37.8543C214.674 39.5865 215.565 41.8581 215.565 44.669V60.0633C215.565 60.3901 215.458 60.6679 215.243 60.8967C215.029 61.1255 214.74 61.2399 214.377 61.2399H210.268C209.938 61.2399 209.658 61.1255 209.427 60.8967C209.196 60.6679 209.08 60.3901 209.08 60.0633V58.1512C208.354 59.1971 207.331 60.0551 206.011 60.7251C204.691 61.3952 203.041 61.7302 201.061 61.7302C199.378 61.7302 197.835 61.3952 196.433 60.7251ZM207.199 55.2587C208.354 54.082 208.932 52.3825 208.932 50.1599V49.1794L203.982 49.9638C200.187 50.5521 198.289 51.8105 198.289 53.7388C198.289 54.7847 198.726 55.5937 199.601 56.1657C200.475 56.7376 201.523 57.0236 202.744 57.0236C204.559 57.0236 206.044 56.4353 207.199 55.2587ZM221.833 60.8967C221.602 60.6679 221.487 60.3901 221.487 60.0633V55.1116C221.487 54.7847 221.602 54.5069 221.833 54.2781C222.064 54.0493 222.345 53.935 222.675 53.935H227.675C228.005 53.935 228.285 54.0493 228.516 54.2781C228.747 54.5069 228.863 54.7847 228.863 55.1116V60.0633C228.863 60.3901 228.755 60.6679 228.541 60.8967C228.326 61.1255 228.038 61.2399 227.675 61.2399H222.675C222.345 61.2399 222.064 61.1255 221.833 60.8967ZM237.829 60.7251C236.426 60.0551 235.321 59.1481 234.512 58.0042C233.704 56.8602 233.299 55.6019 233.299 54.2291C233.299 52.0066 234.207 50.2089 236.022 48.8362C237.837 47.4635 240.329 46.532 243.497 46.0417L250.278 45.0612V44.0316C250.278 42.6262 249.915 41.5639 249.189 40.8449C248.463 40.1258 247.308 39.7663 245.724 39.7663C244.635 39.7663 243.761 39.9624 243.101 40.3546C242.441 40.7468 241.904 41.1472 241.492 41.5558L240.675 42.3647C240.543 42.7569 240.296 42.953 239.933 42.953H236.072C235.774 42.953 235.519 42.855 235.304 42.6589C235.09 42.4628 234.982 42.2013 234.982 41.8744C235.015 41.0573 235.42 40.134 236.195 39.1044C236.971 38.0749 238.167 37.1761 239.784 36.408C241.401 35.6399 243.398 35.2559 245.774 35.2559C249.668 35.2559 252.506 36.122 254.288 37.8543C256.07 39.5865 256.961 41.8581 256.961 44.669V60.0633C256.961 60.3901 256.854 60.6679 256.639 60.8967C256.425 61.1255 256.136 61.2399 255.773 61.2399H251.664C251.334 61.2399 251.054 61.1255 250.823 60.8967C250.592 60.6679 250.476 60.3901 250.476 60.0633V58.1512C249.75 59.1971 248.727 60.0551 247.407 60.7251C246.087 61.3952 244.437 61.7302 242.457 61.7302C240.774 61.7302 239.231 61.3952 237.829 60.7251ZM248.595 55.2587C249.75 54.082 250.328 52.3825 250.328 50.1599V49.1794L245.378 49.9638C241.583 50.5521 239.685 51.8105 239.685 53.7388C239.685 54.7847 240.122 55.5937 240.997 56.1657C241.871 56.7376 242.919 57.0236 244.14 57.0236C245.955 57.0236 247.44 56.4353 248.595 55.2587ZM263.328 31.2357C263.097 31.0069 262.982 30.7291 262.982 30.4023V26.8233C262.982 26.4638 263.097 26.1696 263.328 25.9408C263.559 25.7121 263.84 25.5977 264.17 25.5977H268.724C269.087 25.5977 269.384 25.7121 269.615 25.9408C269.846 26.1696 269.962 26.4638 269.962 26.8233V30.4023C269.962 30.7291 269.838 31.0069 269.59 31.2357C269.343 31.4645 269.054 31.5789 268.724 31.5789H264.17C263.84 31.5789 263.559 31.4645 263.328 31.2357ZM263.526 60.8967C263.295 60.6679 263.18 60.3901 263.18 60.0633V36.9228C263.18 36.5632 263.295 36.2773 263.526 36.0648C263.757 35.8524 264.038 35.7461 264.368 35.7461H268.576C268.906 35.7461 269.186 35.8605 269.417 36.0893C269.648 36.3181 269.764 36.5959 269.764 36.9228V60.0633C269.764 60.3901 269.648 60.6679 269.417 60.8967C269.186 61.1255 268.906 61.2399 268.576 61.2399H264.368C264.038 61.2399 263.757 61.1255 263.526 60.8967Z" fill="#2369F0"/>
<path d="M5.56126 28.3102C8.63266 28.3102 11.1225 30.794 11.1225 33.858C11.1225 36.9219 8.63266 39.4058 5.56126 39.4058C2.48986 39.4058 0 36.9219 0 33.858C0 30.794 2.48986 28.3102 5.56126 28.3102Z" fill="#2369F0"/>
<path opacity="0.8" d="M22.2445 17.4919C24.3944 17.4919 26.1373 19.2306 26.1373 21.3753C26.1373 23.5201 24.3944 25.2588 22.2445 25.2588C20.0945 25.2588 18.3516 23.5201 18.3516 21.3753C18.3516 19.2306 20.0945 17.4919 22.2445 17.4919Z" fill="#2369F0"/>
<path opacity="0.6" d="M38.928 17.7585C41.078 17.7585 42.8209 19.4972 42.8209 21.6419C42.8209 23.7867 41.078 25.5254 38.928 25.5254C36.7781 25.5254 35.0352 23.7867 35.0352 21.6419C35.0352 19.4972 36.7781 17.7585 38.928 17.7585Z" fill="#2369F0"/>
<path opacity="0.8" d="M38.928 28.3019C41.078 28.3019 42.8209 30.0406 42.8209 32.1854C42.8209 34.3302 41.078 36.0688 38.928 36.0688C36.7781 36.0688 35.0352 34.3302 35.0352 32.1854C35.0352 30.0406 36.7781 28.3019 38.928 28.3019Z" fill="#2369F0"/>
<path opacity="0.6" d="M55.6136 27.4382C57.7636 27.4382 59.5065 29.1769 59.5065 31.3216C59.5065 33.4664 57.7636 35.2051 55.6136 35.2051C53.4636 35.2051 51.7207 33.4664 51.7207 31.3216C51.7207 29.1769 53.4636 27.4382 55.6136 27.4382Z" fill="#2369F0"/>
<path opacity="0.8" d="M55.6136 38.3752C57.7636 38.3752 59.5065 40.1139 59.5065 42.2586C59.5065 44.4034 57.7636 46.1421 55.6136 46.1421C53.4636 46.1421 51.7207 44.4034 51.7207 42.2586C51.7207 40.1139 53.4636 38.3752 55.6136 38.3752Z" fill="#2369F0"/>
<path opacity="0.6" d="M88.9808 28.3098C91.1308 28.3098 92.8737 30.0484 92.8737 32.1932C92.8737 34.338 91.1308 36.0767 88.9808 36.0767C86.8308 36.0767 85.0879 34.338 85.0879 32.1932C85.0879 30.0484 86.8308 28.3098 88.9808 28.3098Z" fill="#2369F0"/>
<path opacity="0.8" d="M72.2972 50.7785C74.4472 50.7785 76.1901 52.5172 76.1901 54.662C76.1901 56.8067 74.4472 58.5454 72.2972 58.5454C70.1472 58.5454 68.4043 56.8067 68.4043 54.662C68.4043 52.5172 70.1472 50.7785 72.2972 50.7785Z" fill="#2369F0"/>
<path opacity="0.8" d="M88.9808 39.6828C91.1308 39.6828 92.8737 41.4215 92.8737 43.5663C92.8737 45.711 91.1308 47.4497 88.9808 47.4497C86.8308 47.4497 85.0879 45.711 85.0879 43.5663C85.0879 41.4215 86.8308 39.6828 88.9808 39.6828Z" fill="#2369F0"/>
<path opacity="0.8" d="M105.664 28.7985C107.814 28.7985 109.557 30.5372 109.557 32.682C109.557 34.8267 107.814 36.5654 105.664 36.5654C103.514 36.5654 101.771 34.8267 101.771 32.682C101.771 30.5372 103.514 28.7985 105.664 28.7985Z" fill="#2369F0"/>
<path opacity="0.8" d="M38.928 52.7175C41.078 52.7175 42.8209 54.4561 42.8209 56.6009C42.8209 58.7457 41.078 60.4844 38.928 60.4844C36.7781 60.4844 35.0352 58.7457 35.0352 56.6009C35.0352 54.4561 36.7781 52.7175 38.928 52.7175Z" fill="#2369F0"/>
<path opacity="0.8" d="M55.6136 63.5778C57.7636 63.5778 59.5065 65.3165 59.5065 67.4613C59.5065 69.606 57.7636 71.3447 55.6136 71.3447C53.4636 71.3447 51.7207 69.606 51.7207 67.4613C51.7207 65.3165 53.4636 63.5778 55.6136 63.5778Z" fill="#2369F0"/>
<path opacity="0.6" d="M55.6136 74.5153C57.7636 74.5153 59.5065 76.254 59.5065 78.3988C59.5065 80.5435 57.7636 82.2822 55.6136 82.2822C53.4636 82.2822 51.7207 80.5435 51.7207 78.3988C51.7207 76.254 53.4636 74.5153 55.6136 74.5153Z" fill="#2369F0"/>
<path d="M22.2449 28.3102C25.3163 28.3102 27.8061 30.794 27.8061 33.858C27.8061 36.9219 25.3163 39.4058 22.2449 39.4058C19.1735 39.4058 16.6836 36.9219 16.6836 33.858C16.6836 30.794 19.1735 28.3102 22.2449 28.3102Z" fill="#2369F0"/>
<path d="M38.9284 38.8453C41.9998 38.8453 44.4897 41.3292 44.4897 44.3931C44.4897 47.4571 41.9998 49.9409 38.9284 49.9409C35.857 49.9409 33.3672 47.4571 33.3672 44.3931C33.3672 41.3292 35.857 38.8453 38.9284 38.8453Z" fill="#2369F0"/>
<path d="M55.612 49.3121C58.6834 49.3121 61.1733 51.796 61.1733 54.8599C61.1733 57.9239 58.6834 60.4077 55.612 60.4077C52.5406 60.4077 50.0508 57.9239 50.0508 54.8599C50.0508 51.796 52.5406 49.3121 55.612 49.3121Z" fill="#2369F0"/>
<path d="M72.2956 61.5968C75.367 61.5968 77.8569 64.0806 77.8569 67.1446C77.8569 70.2086 75.367 72.6924 72.2956 72.6924C69.2242 72.6924 66.7344 70.2086 66.7344 67.1446C66.7344 64.0806 69.2242 61.5968 72.2956 61.5968Z" fill="#2369F0"/>
<path d="M88.9792 51.0558C92.0507 51.0558 94.5405 53.5396 94.5405 56.6036C94.5405 59.6675 92.0507 62.1514 88.9792 62.1514C85.9078 62.1514 83.418 59.6675 83.418 56.6036C83.418 53.5396 85.9078 51.0558 88.9792 51.0558Z" fill="#2369F0"/>
<path d="M105.665 39.4054C108.736 39.4054 111.226 41.8892 111.226 44.9532C111.226 48.0171 108.736 50.501 105.665 50.501C102.593 50.501 100.104 48.0171 100.104 44.9532C100.104 41.8892 102.593 39.4054 105.665 39.4054Z" fill="#2369F0"/>
<path opacity="0.4" d="M38.9286 8.32459C40.7714 8.32459 42.2653 9.81489 42.2653 11.6533C42.2653 13.4916 40.7714 14.9819 38.9286 14.9819C37.0857 14.9819 35.5918 13.4916 35.5918 11.6533C35.5918 9.81489 37.0857 8.32459 38.9286 8.32459Z" fill="#2369F0"/>
<path opacity="0.4" d="M55.6121 17.6107C57.455 17.6107 58.9489 19.101 58.9489 20.9394C58.9489 22.7778 57.455 24.2681 55.6121 24.2681C53.7693 24.2681 52.2754 22.7778 52.2754 20.9394C52.2754 19.101 53.7693 17.6107 55.6121 17.6107Z" fill="#2369F0"/>
<path opacity="0.4" d="M88.9793 18.0468C90.8222 18.0468 92.3161 19.5371 92.3161 21.3754C92.3161 23.2138 90.8222 24.7041 88.9793 24.7041C87.1365 24.7041 85.6426 23.2138 85.6426 21.3754C85.6426 19.5371 87.1365 18.0468 88.9793 18.0468Z" fill="#2369F0"/>
<path opacity="0.6" d="M105.737 20.4433C107.274 20.4433 108.52 21.678 108.52 23.2009C108.52 24.7239 107.274 25.9585 105.737 25.9585C104.199 25.9585 102.953 24.7239 102.953 23.2009C102.953 21.678 104.199 20.4433 105.737 20.4433Z" fill="#2369F0"/>
<path opacity="0.3" d="M38.928 6.58035e-05C40.4653 6.58035e-05 41.7115 1.24198 41.7115 2.77396C41.7115 4.30594 40.4653 5.54785 38.928 5.54785C37.3907 5.54785 36.1445 4.30594 36.1445 2.77396C36.1445 1.24198 37.3907 6.58035e-05 38.928 6.58035e-05Z" fill="#2369F0"/>
<path opacity="0.3" d="M55.6136 8.89264C57.1508 8.89264 58.397 10.1346 58.397 11.6665C58.397 13.1985 57.1508 14.4404 55.6136 14.4404C54.0763 14.4404 52.8301 13.1985 52.8301 11.6665C52.8301 10.1346 54.0763 8.89264 55.6136 8.89264Z" fill="#2369F0"/>
<path opacity="0.4" d="M55.6136 85.4522C57.1508 85.4522 58.397 86.6941 58.397 88.2261C58.397 89.7581 57.1508 91 55.6136 91C54.0763 91 52.8301 89.7581 52.8301 88.2261C52.8301 86.6941 54.0763 85.4522 55.6136 85.4522Z" fill="#2369F0"/>
<path opacity="0.6" d="M38.928 63.2608C40.4653 63.2608 41.7115 64.5027 41.7115 66.0347C41.7115 67.5667 40.4653 68.8086 38.928 68.8086C37.3907 68.8086 36.1445 67.5667 36.1445 66.0347C36.1445 64.5027 37.3907 63.2608 38.928 63.2608Z" fill="#2369F0"/>
<path opacity="0.6" d="M22.2444 8.89264C23.7817 8.89264 25.0279 10.1346 25.0279 11.6665C25.0279 13.1985 23.7817 14.4404 22.2444 14.4404C20.7071 14.4404 19.4609 13.1985 19.4609 11.6665C19.4609 10.1346 20.7071 8.89264 22.2444 8.89264Z" fill="#2369F0"/>
<path opacity="0.6" d="M5.62919 20.5782C7.16646 20.5782 8.41267 21.8201 8.41267 23.3521C8.41267 24.8841 7.16646 26.126 5.62919 26.126C4.09191 26.126 2.8457 24.8841 2.8457 23.3521C2.8457 21.8201 4.09191 20.5782 5.62919 20.5782Z" fill="#2369F0"/>
<path opacity="0.6" d="M5.52762 41.8712C7.0649 41.8712 8.31111 43.1131 8.31111 44.6451C8.31111 46.177 7.0649 47.4189 5.52762 47.4189C3.99035 47.4189 2.74414 46.177 2.74414 44.6451C2.74414 43.1131 3.99035 41.8712 5.52762 41.8712Z" fill="#2369F0"/>
<path opacity="0.3" d="M88.9808 8.89264C90.5181 8.89264 91.7643 10.1346 91.7643 11.6665C91.7643 13.1985 90.5181 14.4404 88.9808 14.4404C87.4435 14.4404 86.1973 13.1985 86.1973 11.6665C86.1973 10.1346 87.4435 8.89264 88.9808 8.89264Z" fill="#2369F0"/>
<path opacity="0.6" d="M72.2971 42.1793C73.8344 42.1793 75.0806 43.4212 75.0806 44.9532C75.0806 46.4851 73.8344 47.7271 72.2971 47.7271C70.7599 47.7271 69.5137 46.4851 69.5137 44.9532C69.5137 43.4212 70.7599 42.1793 72.2971 42.1793Z" fill="#2369F0"/>
</svg>
