<?xml version="1.0" encoding="utf-8"?>
<!-- Generator: Adobe Illustrator 21.1.0, SVG Export Plug-In . SVG Version: 6.00 Build 0)  -->
<svg version="1.1" id="Слой_1" xmlns="http://www.w3.org/2000/svg" xmlns:xlink="http://www.w3.org/1999/xlink" x="0px" y="0px"
	 viewBox="0 0 956 344" style="enable-background:new 0 0 956 344;" xml:space="preserve">
<style type="text/css">
	.st0{opacity:0.15;fill:#408B6E;enable-background:new    ;}
	.st1{fill:#263238;}
	.st2{fill:#455A64;}
	.st3{fill:#EBEBEB;}
	.st4{fill:#E0E0E0;}
	.st5{fill:#F5F5F5;}
	.st6{fill:#408B6E;}
	.st7{fill:#FAFAFA;}
	.st8{fill:#EB996E;}
	.st9{opacity:0.4;}
	.st10{opacity:0.4;fill:#FFFFFF;enable-background:new    ;}
	.st11{opacity:0.3;}
	.st12{opacity:0.3;enable-background:new    ;}
	.st13{fill:#FFBE9D;}
	.st14{fill:#FBD1C1;}
	.st15{fill:#FFFFFF;}
	.st16{fill:#CDA295;}
</style>
<path class="st0" d="M307.327,205.786h-53.981v-62.031h-72.449v62.031H91.876L236.773,6.434h-80.499L0.013,216.677v51.614H178.53
	v69.607h74.816v-69.607h53.981V205.786z M472.326,343.58c81.919,0,142.056-62.031,142.056-171.414
	c0-109.383-60.137-171.414-142.056-171.414c-81.445,0-142.055,62.031-142.055,171.414
	C330.271,281.549,390.881,343.58,472.326,343.58z M472.326,278.708c-37.881,0-64.398-31.252-64.398-106.542
	c0-75.289,26.517-106.542,64.398-106.542c38.355,0,64.872,31.252,64.872,106.542C537.198,247.456,510.681,278.708,472.326,278.708z
	 M955.179,205.786h-53.981v-62.031h-72.449v62.031h-89.021L884.625,6.434h-80.499L647.865,216.677v51.614h178.517v69.607h74.816
	v-69.607h53.981V205.786z"/>
<path class="st1" d="M702.059,313.542c0,0.09-100.761,0.168-225.017,0.168c-124.255,0-225.042-0.078-225.042-0.168
	c0-0.09,100.735-0.174,225.042-0.174S702.059,313.445,702.059,313.542z"/>
<path class="st1" d="M565.185,125.885H305.779c-5.598,0-10.135,4.538-10.135,10.136v164.673c0,5.597,4.538,10.135,10.135,10.135
	h259.406c5.597,0,10.135-4.538,10.135-10.135V136.021C575.32,130.423,570.782,125.885,565.185,125.885z"/>
<path class="st2" d="M284.339,297.153h303.002v3.805c0,3.284-1.305,6.433-3.627,8.756c-2.322,2.322-5.472,3.626-8.756,3.626H296.749
	c-3.284,0-6.434-1.304-8.756-3.626c-2.322-2.323-3.627-5.472-3.627-8.756v-3.805H284.339z"/>
<path class="st3" d="M567.417,133.231H303.538v156.186h263.879V133.231z"/>
<path class="st1" d="M408.299,297.153h0.292h0.891h3.443l12.786-0.048l42.747-0.091h0.32l-0.16,0.272l-1.697,2.907l-1.823,3.033
	l-0.055,0.084h-0.105l-52.903-0.098h-0.049l-2.783-4.507l-0.695-1.141l-0.223-0.376c0,0,0.098,0.132,0.265,0.397
	c0.166,0.264,0.424,0.647,0.737,1.141l2.831,4.396h-0.069l52.903-0.104l-0.153,0.09l1.795-3.075l1.697-2.9l0.153,0.271
	l-42.573-0.098l-12.842-0.048h-3.478h-1.238L408.299,297.153z"/>
<path class="st4" d="M400.101,162.289c0.477-0.645,1.041-1.221,1.677-1.711l-0.404-2.191l3.381-1.44l1.301,1.802
	c0.796-0.108,1.603-0.108,2.4,0l1.259-1.829l3.409,1.391l-0.348,2.198c0.643,0.479,1.219,1.043,1.711,1.676l2.184-0.403l1.44,3.381
	l-1.794,1.301c0.107,0.796,0.107,1.604,0,2.4l1.829,1.259l-1.391,3.409l-2.191-0.348c-0.481,0.642-1.045,1.217-1.677,1.711
	l0.397,2.184l-3.381,1.44l-1.301-1.795c-0.794,0.108-1.599,0.108-2.393,0l-1.266,1.829l-3.409-1.391l0.355-2.191
	c-0.644-0.479-1.219-1.043-1.711-1.677l-2.192,0.397l-1.44-3.381l1.802-1.301c-0.108-0.794-0.108-1.599,0-2.393l-1.829-1.266
	l1.391-3.409l2.198,0.355L400.101,162.289z M403.753,166.087c-0.291,0.724-0.36,1.518-0.2,2.282
	c0.161,0.764,0.544,1.462,1.102,2.008c0.558,0.546,1.265,0.914,2.032,1.057c0.767,0.144,1.559,0.057,2.277-0.25
	c0.717-0.307,1.327-0.819,1.753-1.473c0.427-0.654,0.649-1.419,0.64-2.199c-0.009-0.78-0.249-1.54-0.69-2.184
	c-0.441-0.644-1.063-1.142-1.787-1.432c-0.97-0.389-2.056-0.376-3.017,0.035C404.902,164.341,404.143,165.117,403.753,166.087z"/>
<path class="st5" d="M386.396,233.167c1.396-1.862,3.034-3.53,4.869-4.96l-1.154-6.33l9.794-4.174l3.771,5.217
	c2.305-0.333,4.644-0.358,6.956-0.076l3.659-5.294l9.885,3.972l-1.022,6.351c1.863,1.395,3.531,3.033,4.96,4.87l6.33-1.162
	l4.174,9.795l-5.21,3.777c0.334,2.305,0.357,4.645,0.069,6.957l5.294,3.659l-3.965,9.878l-6.358-1.023
	c-1.395,1.864-3.032,3.532-4.87,4.96l1.169,6.31l-9.795,4.173l-3.77-5.217c-2.305,0.333-4.645,0.359-6.957,0.077l-3.659,5.293
	l-9.906-3.979l1.023-6.351c-1.863-1.394-3.531-3.032-4.96-4.869l-6.33,1.154l-4.174-9.794l5.217-3.771
	c-0.337-2.305-0.362-4.644-0.076-6.956l-5.308-3.624l3.972-9.879l6.351,1.016H386.396z M396.991,244.179
	c-0.842,2.097-1.043,4.395-0.578,6.606s1.575,4.234,3.19,5.814c1.615,1.579,3.661,2.645,5.882,3.061
	c2.22,0.417,4.514,0.166,6.591-0.721c2.078-0.887,3.846-2.37,5.081-4.262c1.234-1.892,1.88-4.107,1.856-6.366
	s-0.718-4.46-1.993-6.324c-1.275-1.865-3.074-3.31-5.17-4.152c-1.393-0.559-2.881-0.839-4.382-0.823
	c-1.5,0.016-2.982,0.328-4.362,0.917c-1.38,0.589-2.63,1.444-3.68,2.517C398.377,241.518,397.55,242.787,396.991,244.179z"/>
<path class="st1" d="M342.765,252.451c0.152-0.5,0.387-0.97,0.696-1.392c0.839-1.197,2.069-2.065,3.478-2.455
	c1.041-0.297,2.14-0.326,3.195-0.082c1.055,0.243,2.031,0.75,2.836,1.473c0.47,0.412,0.873,0.893,1.197,1.426
	c0.353,0.549,0.611,1.154,0.765,1.788c0.351,1.338,0.263,2.753-0.252,4.037c-0.515,1.284-1.429,2.369-2.607,3.093
	c-0.554,0.347-1.16,0.603-1.795,0.759c-0.602,0.166-1.227,0.234-1.85,0.201c-1.082-0.037-2.138-0.349-3.067-0.904
	c-0.929-0.556-1.703-1.339-2.248-2.275c-0.74-1.257-1.02-2.733-0.793-4.174c0.072-0.52,0.23-1.026,0.466-1.495
	c-0.135,0.499-0.245,1.005-0.327,1.516c-0.161,1.398,0.147,2.81,0.876,4.014c0.498,0.822,1.182,1.515,1.997,2.024
	c0.932,0.585,2.003,0.911,3.102,0.946c1.226,0.042,2.437-0.282,3.478-0.932c1.112-0.685,1.975-1.709,2.462-2.921
	c0.487-1.212,0.572-2.548,0.244-3.813c-0.138-0.599-0.373-1.173-0.696-1.697c-0.303-0.518-0.683-0.987-1.127-1.391
	c-0.82-0.736-1.821-1.243-2.9-1.468c-0.94-0.192-1.912-0.161-2.838,0.09c-1.361,0.358-2.562,1.165-3.409,2.289
	C343.33,251.539,343.035,251.988,342.765,252.451z"/>
<path class="st1" d="M336.901,246.363h-0.223l-0.696-0.097l-2.636-0.39l0.063-0.034c-0.55,1.391-1.28,3.248-2.163,5.474v-0.104
	l2.936,2.01l0.056,0.035v0.028c-0.151,1.268-0.132,2.55,0.056,3.812v0.07l-0.056,0.041l-2.88,2.087l0.042-0.16l2.324,5.419
	l-0.153-0.09l3.478-0.64h0.09l0.056,0.07c0.785,1.002,1.699,1.896,2.72,2.657l0.077,0.056v0.097
	c-0.174,1.085-0.369,2.289-0.564,3.513l-0.097-0.174l5.468,2.191l-0.202,0.056l2.024-2.929l0.056-0.083h0.104
	c1.263,0.153,2.54,0.137,3.798-0.049h0.104l0.063,0.084l2.087,2.887l-0.216-0.063l5.419-2.31l-0.104,0.195
	c-0.202-1.106-0.424-2.302-0.64-3.478v-0.111l0.084-0.07c1.002-0.779,1.896-1.689,2.657-2.706l0.063-0.09h0.111l3.513,0.563
	l-0.195,0.111l2.198-5.467l0.063,0.215l-2.95-2.017l-0.09-0.063v-0.104c0.171-1.26,0.171-2.538,0-3.798v-0.105l0.083-0.062
	l2.887-2.087l-0.055,0.209c-0.793-1.851-1.559-3.66-2.31-5.42l0.181,0.098l-3.478,0.64h-0.098l-0.062-0.077
	c-0.798-1.004-1.727-1.898-2.762-2.657l-0.076-0.056v-0.09c0.194-1.211,0.382-2.379,0.57-3.513l0.09,0.16l-5.46-2.205l0.167-0.056
	l-2.032,2.929l-0.049,0.062h-0.028c-1.263-0.171-2.543-0.171-3.805,0h-0.077l-0.042-0.062l-2.087-2.894l0.125,0.042l-5.426,2.281
	l0.049-0.083l0.612,3.478v0.035c-0.759,0.587-1.459,1.249-2.087,1.975l-0.466,0.543l-0.153,0.181
	c0.038-0.071,0.082-0.139,0.132-0.202c0.09-0.125,0.237-0.32,0.438-0.563c0.624-0.745,1.324-1.423,2.087-2.025v0.056l-0.661-3.478
	v-0.063h0.063l5.405-2.337l0.076-0.035l0.056,0.07l2.087,2.88l-0.111-0.049c1.284-0.188,2.587-0.205,3.875-0.049l-0.125,0.049
	l2.017-2.929l0.063-0.09l0.104,0.042l5.468,2.184l0.111,0.042v0.118c-0.187,1.141-0.368,2.309-0.563,3.52l-0.056-0.153
	c1.043,0.778,1.978,1.69,2.783,2.713l-0.16-0.056l3.478-0.647h0.132l0.049,0.118c0.751,1.76,1.53,3.569,2.316,5.42l0.056,0.125
	l-0.111,0.083l-2.887,2.087l0.076-0.167c0.185,1.289,0.199,2.596,0.042,3.889l-0.076-0.167l2.928,2.017l0.119,0.084l-0.049,0.132
	c-0.798,1.827-1.558,3.668-2.282,5.523l-0.056,0.139h-0.139l-3.478-0.563l0.174-0.07c-0.778,1.046-1.692,1.982-2.72,2.783
	l0.07-0.174c0.215,1.204,0.438,2.4,0.64,3.478v0.139l-0.133,0.056l-5.419,2.31l-0.132,0.055l-0.076-0.111l-2.087-2.887l0.167,0.07
	c-1.289,0.183-2.596,0.197-3.889,0.041l0.16-0.076c-0.696,1.015-1.391,2.017-2.024,2.928l-0.077,0.112l-0.125-0.049l-5.51-2.247
	l-0.125-0.049v-0.125c0.202-1.224,0.396-2.428,0.57-3.478l0.063,0.146c-1.046-0.777-1.982-1.692-2.783-2.72l0.146,0.056
	l-3.478,0.633h-0.111l-0.049-0.104l-2.296-5.427l-0.042-0.097l0.083-0.056l2.894-2.087l-0.049,0.112
	c-0.173-1.284-0.173-2.585,0-3.868l0.042,0.097l-2.922-2.038l-0.056-0.042v-0.062l2.233-5.454v-0.049h0.049l2.602,0.452l0.696,0.126
	L336.901,246.363z"/>
<path class="st4" d="M323.519,174.031c1.106-3.008,2.607-5.855,4.466-8.466l-4.014-7.916l11.304-9.37l7.033,5.405
	c2.91-1.344,5.986-2.294,9.148-2.824l2.782-8.438l14.609,1.391l1.148,8.8c3.009,1.105,5.857,2.61,8.466,4.473l7.916-4.021
	l9.371,11.304l-5.413,7.033c1.35,2.908,2.302,5.985,2.832,9.148l8.438,2.783l-1.391,14.608l-8.786,1.085
	c-1.106,3.01-2.61,5.857-4.473,8.466l4.02,7.917l-11.304,9.391l-7.033-5.412c-2.908,1.35-5.985,2.302-9.147,2.831l-2.783,8.438
	l-14.609-1.391l-1.148-8.8c-3.009-1.105-5.857-2.61-8.466-4.473l-7.916,4.021l-9.356-11.249l5.405-7.033
	c-1.347-2.918-2.296-6.004-2.824-9.175l-8.438-2.783l1.391-14.608l8.8-1.148L323.519,174.031z M341.849,184.417
	c-0.291,3.103,0.345,6.223,1.828,8.964c1.482,2.742,3.745,4.982,6.501,6.438c2.756,1.455,5.881,2.061,8.981,1.74
	c3.101-0.321,6.036-1.554,8.435-3.544c2.399-1.989,4.155-4.645,5.044-7.633c0.889-2.987,0.873-6.171-0.048-9.148
	c-0.92-2.978-2.703-5.616-5.122-7.58c-2.42-1.964-5.368-3.167-8.471-3.456c-2.06-0.192-4.137,0.023-6.114,0.633
	c-1.976,0.61-3.813,1.604-5.405,2.925c-1.592,1.32-2.909,2.941-3.875,4.771C342.637,180.355,342.041,182.357,341.849,184.417z"/>
<path class="st6" d="M629.138,105.586H405.335c-1.256,0-2.274,1.018-2.274,2.275v151.435c0,1.256,1.018,2.274,2.274,2.274h223.803
	c1.256,0,2.275-1.018,2.275-2.274V107.861C631.413,106.605,630.394,105.586,629.138,105.586z"/>
<path class="st7" d="M631.628,261.737l-229.368,0.856l0.563-145.682h228.805V261.737z"/>
<path class="st1" d="M419.341,111.777c-0.006,0.285-0.095,0.562-0.258,0.797c-0.162,0.234-0.391,0.416-0.656,0.521
	c-0.265,0.105-0.556,0.129-0.835,0.07c-0.279-0.06-0.534-0.2-0.733-0.404c-0.199-0.204-0.334-0.463-0.387-0.743
	c-0.053-0.28-0.021-0.57,0.09-0.833c0.111-0.263,0.298-0.487,0.536-0.644c0.238-0.157,0.518-0.24,0.803-0.239
	c0.386,0.006,0.754,0.164,1.024,0.44C419.195,111.019,419.345,111.391,419.341,111.777z"/>
<path class="st1" d="M411.026,111.826c-0.005,0.285-0.093,0.563-0.254,0.798c-0.162,0.235-0.389,0.417-0.654,0.524
	c-0.265,0.106-0.555,0.132-0.834,0.074c-0.28-0.058-0.535-0.198-0.736-0.401c-0.2-0.203-0.336-0.461-0.39-0.741
	c-0.054-0.28-0.024-0.57,0.086-0.833c0.11-0.263,0.295-0.488,0.533-0.646c0.237-0.158,0.516-0.243,0.802-0.243
	c0.386,0.004,0.755,0.16,1.026,0.435C410.876,111.069,411.027,111.44,411.026,111.826z"/>
<path class="st1" d="M415.281,111.777c-0.005,0.285-0.095,0.562-0.257,0.796c-0.162,0.234-0.39,0.415-0.655,0.521
	c-0.265,0.105-0.555,0.13-0.834,0.071c-0.278-0.059-0.534-0.199-0.733-0.402c-0.2-0.203-0.335-0.461-0.388-0.741
	c-0.054-0.28-0.024-0.569,0.086-0.832c0.111-0.263,0.296-0.487,0.533-0.645c0.238-0.158,0.516-0.242,0.801-0.242
	c0.192,0.002,0.382,0.041,0.558,0.117c0.177,0.075,0.337,0.184,0.471,0.321c0.135,0.137,0.241,0.299,0.312,0.477
	C415.247,111.395,415.283,111.585,415.281,111.777z"/>
<path class="st3" d="M619.349,209.362H416.924v43.13h202.425V209.362z"/>
<path class="st1" d="M600.423,217.112c0,0.097-39.29,0.181-87.749,0.181c-48.458,0-87.755-0.084-87.755-0.181
	c0-0.098,39.283-0.181,87.755-0.181C561.147,216.931,600.423,217,600.423,217.112z"/>
<path class="st1" d="M508.12,242.106c0-0.035,0.501,0,1.392-0.181c1.357-0.281,2.604-0.951,3.589-1.927
	c0.764-0.76,1.345-1.685,1.699-2.703c0.353-1.019,0.469-2.104,0.339-3.175c-0.082-0.642-0.248-1.271-0.494-1.871
	c-0.275-0.633-0.636-1.225-1.071-1.76c-0.964-1.16-2.272-1.981-3.736-2.344c-0.789-0.177-1.598-0.247-2.406-0.209h-2.56h-5.447
	h-12.014h-27.52c-1.187,0.009-2.354,0.312-3.395,0.883c-1.022,0.575-1.885,1.395-2.511,2.386c-0.603,0.954-0.965,2.04-1.055,3.165
	c-0.089,1.125,0.096,2.255,0.54,3.293c0.445,1.037,1.135,1.95,2.011,2.662c0.876,0.711,1.912,1.198,3.019,1.419
	c1.074,0.144,2.159,0.192,3.242,0.147h3.207l22.483,0.041l15.151,0.056l4.118,0.035h1.071h0.369h-0.369h-1.071h-4.118l-15.151,0.062
	l-22.483,0.035h-3.207c-1.106,0.048-2.214-0.001-3.312-0.146c-1.465-0.3-2.804-1.043-3.835-2.127
	c-1.032-1.083-1.707-2.457-1.934-3.936c-0.227-1.479,0.004-2.992,0.662-4.336c0.659-1.343,1.713-2.453,3.02-3.18
	c1.094-0.604,2.32-0.924,3.569-0.932h27.52h12.014h5.446h2.56c0.83-0.04,1.662,0.037,2.47,0.229
	c1.513,0.381,2.864,1.237,3.854,2.442c0.443,0.557,0.81,1.17,1.092,1.823c0.246,0.621,0.412,1.271,0.494,1.934
	c0.211,1.801-0.266,3.616-1.335,5.081c-1.069,1.465-2.652,2.472-4.432,2.821c-0.354,0.063-0.712,0.098-1.071,0.105L508.12,242.106z"
	/>
<path class="st1" d="M583.867,242.106c0-0.035,0.501,0,1.391-0.181c1.343-0.29,2.574-0.959,3.548-1.927
	c0.763-0.761,1.343-1.686,1.695-2.704c0.352-1.019,0.467-2.104,0.336-3.174c-0.082-0.642-0.248-1.272-0.493-1.871
	c-0.276-0.631-0.634-1.223-1.065-1.76c-0.963-1.16-2.272-1.981-3.735-2.345c-0.79-0.176-1.599-0.246-2.407-0.208h-2.567h-5.447
	h-12.007h-27.527c-1.187,0.01-2.353,0.313-3.394,0.883c-1.253,0.687-2.264,1.744-2.896,3.026c-0.631,1.282-0.852,2.727-0.633,4.139
	c0.219,1.412,0.867,2.723,1.857,3.753c0.99,1.031,2.273,1.732,3.675,2.007c1.074,0.143,2.159,0.192,3.242,0.146h3.214l22.476,0.042
	l15.151,0.056l4.125,0.035h1.072h0.361h-0.361h-1.072h-4.125l-15.151,0.062l-22.476,0.035h-3.214
	c-1.106,0.048-2.214-0.001-3.311-0.146c-1.161-0.235-2.247-0.748-3.166-1.495c-0.919-0.747-1.643-1.706-2.109-2.795
	c-0.467-1.088-0.662-2.273-0.57-3.454s0.47-2.321,1.1-3.324c0.653-1.046,1.56-1.91,2.637-2.511c1.093-0.603,2.32-0.923,3.568-0.932
	h27.527h12.007h5.447h2.567c0.83-0.04,1.661,0.037,2.469,0.229c1.51,0.382,2.859,1.238,3.847,2.442
	c0.445,0.555,0.813,1.168,1.092,1.823c0.246,0.621,0.412,1.271,0.494,1.934c0.211,1.801-0.266,3.616-1.335,5.081
	c-1.069,1.465-2.652,2.472-4.432,2.821c-0.351,0.063-0.707,0.097-1.064,0.104L583.867,242.106z"/>
<path class="st6" d="M488.309,129.07H415.28v69.614h73.029V129.07z"/>
<path class="st1" d="M486.602,195.547c0,0,0-0.411,0-1.176s0-1.92,0-3.402c0-2.977,0-7.332-0.041-12.869
	c0-11.082-0.049-26.908-0.077-45.913l0.153,0.16h-68.451l0.181-0.181c0,23.109,0,44.82,0,63.38l-0.16-0.16l49.537,0.076
	l13.947,0.042h3.694h0.953h0.327h-1.245h-3.659l-13.913,0.042l-49.634,0.083h-0.16v-0.083c0-18.56,0-40.271,0-63.38v-0.181h0.188
	h68.451h0.153v0.153c-0.035,19.068-0.063,34.928-0.077,46.031c0,5.523,0,9.864-0.041,12.834c0,1.468,0,2.602,0,3.367
	S486.602,195.547,486.602,195.547z"/>
<path class="st1" d="M486.595,162.066c-0.099-0.059-0.192-0.126-0.278-0.202l-0.779-0.619l-2.943-2.393l-10.546-8.716h0.188
	l-20.021,16.389l-3.415,2.783l-0.118,0.097l-0.119-0.104l-10.476-9.544h0.222l-14.281,12.327l-4.084,3.478l-1.092,0.918l-0.278,0.23
	l-0.104,0.07c0,0,0-0.035,0.083-0.09l0.265-0.25l1.057-0.953l4.021-3.555l14.198-12.424l0.111-0.097l0.104,0.097l10.498,9.523h-0.23
	l3.409-2.783l20.062-16.341l0.098-0.076l0.09,0.084l10.497,8.807l2.894,2.463l0.751,0.647
	C486.457,161.903,486.529,161.982,486.595,162.066z"/>
<path class="st1" d="M456.531,145.961c-0.042,0,0-0.459-0.229-1.245c-0.306-1.113-0.974-2.092-1.9-2.783
	c-0.626-0.473-1.355-0.79-2.128-0.925c-0.884-0.157-1.793-0.078-2.637,0.23c-0.963,0.355-1.795,0.997-2.383,1.839
	c-0.589,0.842-0.905,1.844-0.907,2.871c0.002,1.065,0.34,2.102,0.967,2.964c0.583,0.802,1.392,1.412,2.323,1.753
	c0.844,0.307,1.753,0.387,2.637,0.23c0.773-0.135,1.502-0.453,2.128-0.925c0.926-0.69,1.594-1.669,1.9-2.783
	c0.208-0.786,0.187-1.252,0.229-1.252c0.009,0.111,0.009,0.223,0,0.334c-0.005,0.321-0.045,0.641-0.118,0.953
	c-0.263,1.166-0.925,2.204-1.871,2.936c-0.653,0.512-1.419,0.86-2.233,1.016c-0.774,0.153-1.571,0.132-2.336-0.061
	c-0.764-0.192-1.476-0.552-2.085-1.052c-0.609-0.501-1.099-1.13-1.436-1.842s-0.512-1.491-0.512-2.279
	c0-0.788,0.175-1.567,0.512-2.279c0.337-0.713,0.827-1.342,1.436-1.842c0.609-0.501,1.321-0.86,2.085-1.052
	c0.765-0.193,1.562-0.213,2.336-0.061c0.814,0.157,1.579,0.505,2.233,1.016c0.946,0.731,1.608,1.769,1.871,2.936
	c0.073,0.313,0.113,0.632,0.118,0.953C456.542,145.725,456.542,145.843,456.531,145.961z"/>
<path class="st8" d="M650.46,197.427l-7.84-9.795c0,0-12.654,9.872-14.045,9.12c-7.944-4.174-14.365-11.826-16.543-14.608
	c-0.076-0.501-0.153-1.099-0.215-1.802c-0.046-0.608,0.011-1.219,0.167-1.809c0.168-0.728,0.435-1.43,0.793-2.087
	c0.093-0.112,0.148-0.251,0.157-0.396c0.01-0.145-0.026-0.29-0.103-0.414c-0.077-0.124-0.19-0.22-0.325-0.276
	c-0.134-0.056-0.283-0.068-0.425-0.034c-0.598,0.209-1.718,1.767-2.087,3.972c-0.368,2.205-2.087-0.863-2.782-1.969
	c-0.696-1.106-2.825-4.438-3.325-4.508c-0.731-0.097-0.974,0.696-0.293,1.76c0.682,1.064,2.47,4.501,1.872,4.814
	c-0.599,0.313-3.833-5.37-3.833-5.37s-0.494-1.322-1.204-0.981c-1.273,0.619,2.616,6.4,2.998,6.956
	c0.265,0.376-0.375,0.737-0.64,0.32c-0.264-0.417-3.095-5.739-4.403-5.12c-1.002,0.466,3.151,4.786,3.13,6.212
	c-0.021,1.426-2.817-3.596-3.756-3.103c-0.348,0.181-0.584,0.369,1.433,3.019c1.527,1.848,3.153,3.613,4.869,5.287
	c0,0,18.706,28.751,31.701,21.078C649.542,199.514,650.46,197.427,650.46,197.427z"/>
<path class="st6" d="M680.829,319.373l-4.049-3.144l5.83-7.652l5.975,4.528l-0.334,0.501c-1.488,2.191-7.742,11.047-9.245,12.125
	C677.337,326.983,680.829,319.373,680.829,319.373z"/>
<g class="st9">
	<path class="st10" d="M679.241,323.193c0,0-1.086,2.782-0.494,2.782c0.591,0,7.248-8.702,9.843-12.807l-0.181-0.111l-7.652,10.219
		C680.757,323.276,679.595,322.761,679.241,323.193z"/>
</g>
<path class="st1" d="M688.498,312.917l-0.09,0.139l-0.265,0.397l-0.994,1.433c-0.856,1.203-2.087,2.845-3.423,4.64
	c-1.335,1.794-2.636,3.38-3.568,4.521c-0.439,0.529-0.814,0.974-1.114,1.343l-0.313,0.355l-0.111,0.125c0,0,0-0.049,0.091-0.139
	l0.299-0.369l1.085-1.391c0.918-1.148,2.177-2.748,3.541-4.543c1.363-1.795,2.574-3.422,3.478-4.612l1.029-1.391l0.286-0.383
	C688.457,312.959,688.491,312.91,688.498,312.917z"/>
<path class="st1" d="M680.852,323.351c-0.275-0.114-0.562-0.196-0.856-0.243c-0.298-0.012-0.597,0.009-0.891,0.062
	c0.268-0.167,0.587-0.231,0.898-0.18C680.322,322.996,680.626,323.126,680.852,323.351z"/>
<path class="st1" d="M681.44,320.229c0,0-0.215,0.042-0.473,0c-0.257-0.042-0.473-0.07-0.466-0.104c0.156-0.034,0.317-0.034,0.473,0
	C681.136,320.122,681.295,320.158,681.44,320.229z"/>
<path class="st1" d="M681.574,319.373c0,0-0.167,0.091-0.383,0.133c-0.216,0.041-0.404,0.048-0.411,0
	c-0.006-0.049,0.167-0.091,0.39-0.133C681.393,319.332,681.567,319.332,681.574,319.373z"/>
<path class="st1" d="M681.157,318.42c-0.054,0.162-0.142,0.311-0.257,0.438c-0.167,0.222-0.32,0.389-0.348,0.369
	c0.054-0.163,0.142-0.312,0.257-0.439C680.976,318.566,681.129,318.406,681.157,318.42z"/>
<path class="st1" d="M680.75,317.898c0,0,0,0.271-0.209,0.543c-0.208,0.271-0.389,0.438-0.41,0.417
	c0.09-0.169,0.195-0.329,0.313-0.48C680.536,318.212,680.639,318.052,680.75,317.898z"/>
<path class="st1" d="M680.563,319.978c-0.094,0.184-0.222,0.349-0.375,0.487c-0.157,0.163-0.329,0.31-0.515,0.438
	c-0.108,0.08-0.225,0.148-0.348,0.202c-0.08,0.032-0.17,0.032-0.25,0c-0.041-0.021-0.076-0.053-0.1-0.092
	c-0.025-0.039-0.038-0.084-0.039-0.13c0.033-0.166,0.104-0.322,0.205-0.458c0.102-0.135,0.233-0.246,0.382-0.324
	c0.15-0.079,0.316-0.123,0.485-0.13c0.169-0.007,0.337,0.024,0.493,0.091c0.097,0.041,0.146,0.083,0.139,0.09
	c-0.19-0.065-0.391-0.093-0.591-0.083c-0.214,0.009-0.42,0.081-0.592,0.208c-0.106,0.069-0.197,0.159-0.268,0.264
	c-0.07,0.106-0.119,0.224-0.142,0.348c0,0.126,0.111,0.167,0.229,0.119c0.116-0.05,0.226-0.113,0.327-0.188
	c0.184-0.122,0.358-0.257,0.522-0.404C680.403,320.152,680.549,319.971,680.563,319.978z"/>
<path class="st1" d="M680.501,320.125c-0.148-0.017-0.285-0.089-0.382-0.202c-0.121-0.111-0.21-0.253-0.258-0.41
	c-0.042-0.097-0.058-0.203-0.047-0.307c0.011-0.105,0.049-0.205,0.11-0.291c0.047-0.042,0.107-0.065,0.17-0.065
	s0.124,0.023,0.171,0.065c0.068,0.071,0.12,0.157,0.153,0.25c0.061,0.147,0.101,0.301,0.118,0.459c0.037,0.142,0.037,0.29,0,0.431
	c0,0,0-0.16-0.063-0.417c-0.032-0.148-0.079-0.292-0.139-0.431c-0.049-0.146-0.202-0.334-0.32-0.223
	c-0.037,0.075-0.056,0.157-0.056,0.24s0.019,0.166,0.056,0.24c0.039,0.142,0.111,0.273,0.209,0.383
	C680.306,319.949,680.399,320.042,680.501,320.125z"/>
<path class="st1" d="M686.313,311.478c0,0-0.188,0.201-0.41,0.577c-0.29,0.491-0.441,1.051-0.439,1.621
	c0.019,0.567,0.192,1.118,0.501,1.593c0.237,0.369,0.452,0.55,0.432,0.563c-0.056-0.032-0.108-0.072-0.153-0.118
	c-0.129-0.121-0.245-0.253-0.348-0.396c-0.337-0.483-0.526-1.054-0.543-1.642c-0.011-0.59,0.156-1.169,0.48-1.663
	c0.091-0.15,0.201-0.288,0.327-0.41C686.23,311.513,686.313,311.471,686.313,311.478z"/>
<path class="st1" d="M682.511,309.843c0.563,0.344,1.104,0.723,1.621,1.134c0.541,0.374,1.057,0.783,1.544,1.224
	c0,0-0.737-0.487-1.614-1.134C683.523,310.688,683.005,310.279,682.511,309.843z"/>
<path class="st1" d="M684.927,316.271c-0.194,0.428-0.442,0.83-0.738,1.196c-0.265,0.391-0.583,0.742-0.946,1.044
	c0,0,0.39-0.494,0.849-1.114C684.551,316.778,684.927,316.25,684.927,316.271z"/>
<path class="st1" d="M686.077,314.768c0.034,0,0.076,0.125,0.153,0.264c0.076,0.139,0.153,0.244,0.132,0.264
	c-0.021,0.021-0.153-0.048-0.237-0.208C686.042,314.928,686.049,314.775,686.077,314.768z"/>
<path class="st1" d="M685.803,313.668c0.034,0,0.076,0.111,0.097,0.251c0.021,0.139,0,0.257,0,0.257s-0.069-0.104-0.09-0.244
	C685.789,313.793,685.775,313.675,685.803,313.668z"/>
<path class="st1" d="M686.107,312.619c0,0-0.063,0.125-0.104,0.271c-0.042,0.146-0.049,0.271-0.084,0.271s-0.09-0.132,0-0.306
	C686.01,312.681,686.086,312.598,686.107,312.619z"/>
<path class="st1" d="M686.384,311.93c0,0,0,0.083,0,0.167c0,0.083-0.069,0.139-0.104,0.132c-0.035-0.007-0.035-0.084,0-0.167
	C686.315,311.978,686.35,311.923,686.384,311.93z"/>
<g class="st11">
	<path class="st12" d="M686.077,311.332l-5.948,7.527l-0.911-0.717l6.421-7.241L686.077,311.332z"/>
</g>
<path class="st6" d="M649.38,334.384l-0.647-5.085l9.516-1.266l1.023,7.43l-0.584,0.118c-2.609,0.494-13.287,2.337-15.117,2.038
	C641.533,337.285,649.38,334.384,649.38,334.384z"/>
<g class="st9">
	<path class="st10" d="M645.574,335.943c0,0-2.727,1.196-2.31,1.614c0.418,0.417,11.277-1.037,16-2.087l-0.042-0.209l-12.66,1.802
		C646.562,337.063,646.13,335.894,645.574,335.943z"/>
</g>
<path class="st1" d="M659.374,335.228l-0.16,0.042l-0.466,0.09l-1.718,0.306c-1.454,0.244-3.478,0.564-5.697,0.863
	s-4.258,0.528-5.725,0.695l-1.74,0.16l-0.473,0.035h-0.166h0.166l0.467-0.055l1.739-0.195c1.46-0.167,3.478-0.404,5.711-0.696
	c2.233-0.292,4.243-0.605,5.704-0.835l1.725-0.271l0.466-0.07C659.259,335.266,659.316,335.243,659.374,335.228z"/>
<path class="st1" d="M646.594,337.202c-0.117-0.274-0.261-0.535-0.432-0.779c-0.208-0.22-0.442-0.416-0.695-0.584
	c0.31,0.07,0.585,0.25,0.772,0.508C646.46,336.578,646.586,336.883,646.594,337.202z"/>
<path class="st1" d="M649.206,335.408c-0.138-0.083-0.256-0.195-0.348-0.327c-0.167-0.202-0.285-0.383-0.257-0.404
	s0.181,0.125,0.348,0.327S649.234,335.373,649.206,335.408z"/>
<path class="st1" d="M649.924,334.894c0,0-0.181-0.056-0.362-0.181s-0.32-0.244-0.299-0.272c0.021-0.027,0.181,0.056,0.362,0.181
	C649.805,334.748,649.945,334.866,649.924,334.894z"/>
<path class="st1" d="M650.292,333.932c-0.151,0.078-0.318,0.121-0.487,0.126c-0.167,0.041-0.341,0.041-0.508,0
	c0.154-0.077,0.322-0.12,0.494-0.126C649.955,333.891,650.127,333.891,650.292,333.932z"/>
<path class="st1" d="M650.379,333.286c-0.15,0.133-0.337,0.216-0.536,0.237c-0.187,0.063-0.39,0.063-0.577,0
	c0.181-0.056,0.367-0.094,0.556-0.112C650.004,333.356,650.19,333.314,650.379,333.286z"/>
<path class="st1" d="M648.748,334.614c-0.197,0.065-0.404,0.093-0.612,0.084c-0.233,0.002-0.466-0.019-0.695-0.063
	c-0.136-0.014-0.27-0.047-0.397-0.097c-0.077-0.035-0.138-0.097-0.174-0.174c-0.017-0.044-0.021-0.091-0.011-0.137
	c0.01-0.046,0.033-0.088,0.067-0.12c0.142-0.092,0.302-0.151,0.47-0.173c0.167-0.023,0.337-0.008,0.499,0.042
	c0.161,0.051,0.309,0.136,0.434,0.25c0.124,0.113,0.222,0.253,0.287,0.409c0.024,0.05,0.036,0.105,0.035,0.16
	c-0.09-0.179-0.207-0.344-0.348-0.487c-0.161-0.14-0.359-0.232-0.57-0.264c-0.242-0.044-0.492,0.008-0.696,0.146
	c-0.09,0.084-0.035,0.195,0.077,0.244c0.12,0.043,0.243,0.075,0.368,0.097c0.213,0.045,0.43,0.073,0.647,0.083
	C648.54,334.628,648.748,334.601,648.748,334.614z"/>
<path class="st1" d="M648.623,334.677c-0.091-0.12-0.135-0.268-0.126-0.417c-0.007-0.162,0.029-0.323,0.105-0.466
	c0.038-0.099,0.101-0.185,0.183-0.252c0.082-0.067,0.179-0.112,0.283-0.131c0.064,0.005,0.123,0.035,0.166,0.083
	c0.043,0.048,0.065,0.11,0.063,0.174c-0.002,0.099-0.026,0.196-0.069,0.285c-0.063,0.146-0.142,0.284-0.237,0.411
	c-0.167,0.216-0.313,0.306-0.32,0.292c-0.007-0.014,0.105-0.125,0.251-0.341c0.082-0.125,0.152-0.258,0.208-0.396
	c0.063-0.146,0.091-0.383-0.062-0.39c-0.153-0.007-0.292,0.181-0.369,0.313c-0.074,0.128-0.116,0.271-0.125,0.418
	C648.576,334.4,648.593,334.54,648.623,334.677z"/>
<path class="st1" d="M658.835,332.653c0,0-0.278,0-0.695,0.118c-0.55,0.14-1.051,0.429-1.447,0.835
	c-0.39,0.414-0.659,0.926-0.78,1.482c-0.09,0.431-0.062,0.695-0.09,0.695c-0.009-0.062-0.009-0.125,0-0.188
	c-0.018-0.175-0.018-0.353,0-0.528c0.093-0.584,0.362-1.125,0.771-1.551c0.409-0.427,0.939-0.718,1.518-0.835
	c0.172-0.035,0.346-0.054,0.521-0.056C658.702,332.62,658.771,332.63,658.835,332.653z"/>
<path class="st1" d="M657.315,328.819c0.264,1.289,0.454,2.592,0.571,3.903c-0.148-0.641-0.262-1.288-0.341-1.941
	C657.427,330.133,657.351,329.477,657.315,328.819z"/>
<path class="st1" d="M654.487,335.08c-0.448,0.17-0.915,0.28-1.392,0.327c-0.458,0.087-0.926,0.11-1.391,0.07
	c0,0,0.626-0.077,1.391-0.188C653.861,335.178,654.48,335.045,654.487,335.08z"/>
<path class="st1" d="M656.349,334.829c0,0,0,0.139-0.077,0.285c-0.076,0.146-0.063,0.285-0.09,0.285c-0.028,0-0.07-0.139,0-0.313
	C656.251,334.912,656.328,334.808,656.349,334.829z"/>
<path class="st1" d="M656.943,333.863c0,0,0,0.125-0.111,0.236c-0.111,0.112-0.174,0.188-0.202,0.167
	c-0.028-0.021,0-0.125,0.111-0.236C656.853,333.919,656.915,333.842,656.943,333.863z"/>
<path class="st1" d="M657.896,333.328c0,0-0.132,0.049-0.264,0.118c-0.132,0.07-0.223,0.154-0.251,0.133
	c-0.027-0.021,0.035-0.16,0.195-0.237C657.736,333.266,657.896,333.286,657.896,333.328z"/>
<path class="st1" d="M658.584,333.043c0,0,0,0.083-0.111,0.125c-0.111,0.041-0.146,0.048-0.16,0c-0.014-0.049,0-0.084,0.104-0.125
	C658.522,333.001,658.57,333.015,658.584,333.043z"/>
<g class="st11">
	<path class="st12" d="M658.786,332.394l-9.524,1.113l-0.139-1.148l9.558-1.21L658.786,332.394z"/>
</g>
<path class="st6" d="M662.741,180.897c1.492-0.107,2.989,0.101,4.395,0.611c1.405,0.509,2.688,1.309,3.765,2.346l1.962,9.669
	l-3.36,13.551c-0.988,3.966,1.899,9.503,2.671,16l-26.545,4.668l-0.077-15.909l-2.783-8.466l-4.368,2.831l-9.329-10.81l8.654-6.894
	c4.159-4.049,9.618-6.494,15.409-6.901"/>
<path class="st1" d="M645.545,194.337c0,0.056-0.577,0.264-1.391,0.87c-1.02,0.795-1.768,1.886-2.143,3.123
	c-0.337,1.25-0.272,2.574,0.188,3.784c0.348,0.933,0.752,1.426,0.696,1.461c-0.433-0.371-0.76-0.851-0.946-1.391
	c-0.561-1.254-0.658-2.666-0.276-3.986c0.382-1.319,1.219-2.46,2.363-3.221C644.477,194.64,644.996,194.42,645.545,194.337z"/>
<path class="st1" d="M652.339,181.511c0.075,0.877,0.311,1.733,0.696,2.525c0.431,0.838,1.064,1.556,1.843,2.087
	c0.969,0.624,2.113,0.921,3.263,0.849c1.15-0.073,2.247-0.512,3.13-1.253c0.707-0.623,1.246-1.415,1.565-2.302
	c0.271-0.835,0.389-1.711,0.348-2.588c0.086,0.222,0.133,0.458,0.139,0.696c0.042,0.663-0.041,1.329-0.243,1.962
	c-0.303,0.95-0.853,1.802-1.593,2.47c-0.929,0.808-2.098,1.287-3.326,1.364c-1.229,0.076-2.449-0.254-3.471-0.94
	c-0.815-0.573-1.465-1.35-1.885-2.254c-0.282-0.6-0.445-1.25-0.48-1.913C652.281,181.981,652.285,181.741,652.339,181.511z"/>
<path class="st13" d="M626.859,216.891c-0.745-1.037-5.948-1.92-5.503-2.783c0.571-1.141,5.384,1.169,5.809,1.336
	c0.424,0.167,0.654-0.446,0.264-0.578c-0.556-0.181-6.358-2.268-5.802-3.387c0.306-0.62,1.392,0.069,1.392,0.069
	s5.294,2.351,5.565,1.816c0.271-0.536-2.818-2.039-3.889-2.463c-1.071-0.424-1.294-1.099-0.73-1.391
	c0.382-0.216,3.68,1.015,4.723,1.468c1.044,0.452,3.903,1.725,2.978-0.063l-0.042-0.083c-0.953-1.733-1.113-3.381-0.835-3.889
	c0.073-0.103,0.173-0.183,0.289-0.234c0.115-0.05,0.243-0.068,0.368-0.051c0.125,0.016,0.243,0.066,0.342,0.145
	c0.099,0.078,0.174,0.182,0.218,0.3c0.045,0.084,0.071,0.176,0.077,0.271c0,0.049,0,0.105,0,0.153
	c0.192,0.649,0.451,1.276,0.772,1.872c0.28,0.538,0.646,1.027,1.085,1.446c0.515,0.48,0.974,0.877,1.392,1.197
	c3.478,0.626,13.398,2.031,22.086-0.188c1.572-0.403,7.138-18.01,7.138-18.01l10.622,5.169c-0.431,2.086-2.344,7.304-5.113,16.125
	c-4.529,14.399-37.565,4.299-37.565,4.299l-0.292-0.035c-2.34-0.309-4.662-0.743-6.956-1.301c-2.825-0.828-2.783-1.085-2.616-1.391
	C623.012,215.812,627.61,217.934,626.859,216.891z"/>
<path class="st1" d="M658.176,208.765c0.153-0.733,0.364-1.451,0.633-2.15l1.649-5.127c0.598-1.961,1.14-3.735,1.579-5.154
	c0.18-0.712,0.413-1.41,0.695-2.087c-0.093,0.741-0.247,1.474-0.459,2.191c-0.341,1.343-0.849,3.179-1.482,5.189
	c-0.633,2.011-1.266,3.82-1.76,5.107C658.802,207.433,658.515,208.112,658.176,208.765z"/>
<path class="st6" d="M667.957,181.885c0,0,7.29,1.301,7.582,13.217c0.15,7.254-1.401,14.442-4.529,20.988l-12.834-6.72
	c2.881-5.765,5.049-11.86,6.455-18.149l3.319-9.343L667.957,181.885z"/>
<path class="st1" d="M657.91,209.197c0.656,0.273,1.29,0.594,1.899,0.96c1.162,0.612,2.783,1.453,4.564,2.33
	c1.781,0.876,3.478,1.607,4.66,2.136c0.665,0.249,1.309,0.549,1.927,0.897c-0.694-0.156-1.371-0.378-2.024-0.661
	c-1.231-0.466-2.915-1.176-4.723-2.045c-1.809-0.87-3.402-1.76-4.529-2.435C659.056,210.043,658.462,209.647,657.91,209.197z"/>
<path class="st1" d="M675.264,201.148c-0.025,0.724-0.118,1.444-0.278,2.15c-0.237,1.315-0.633,3.123-1.169,5.092
	s-1.099,3.736-1.523,5.002c-0.199,0.696-0.457,1.373-0.773,2.024c0.117-0.709,0.294-1.407,0.529-2.087l1.391-5.022
	c0.536-1.962,0.974-3.75,1.274-5.051C674.846,202.541,675.03,201.837,675.264,201.148z"/>
<path class="st1" d="M665.855,158.721c0.814,0.319,1.495,0.907,1.929,1.666c0.434,0.759,0.595,1.644,0.457,2.508
	c0.887,0.073,1.729,0.421,2.408,0.996c0.679,0.575,1.161,1.348,1.379,2.211c0.218,0.863,0.16,1.772-0.165,2.6
	c-0.324,0.828-0.9,1.535-1.646,2.019c0.641,0.885,0.942,1.971,0.848,3.06c-0.095,1.089-0.579,2.107-1.363,2.868
	c-0.785,0.761-1.817,1.213-2.909,1.275c-1.091,0.061-2.167-0.273-3.032-0.942c-0.427,0.785-1.083,1.421-1.881,1.824
	s-1.7,0.553-2.585,0.43c-1.779-0.283-3.382-1.236-4.48-2.664c-0.746,0.909-1.79,1.525-2.947,1.739
	c-1.157,0.213-2.352,0.011-3.373-0.573c-1.022-0.583-1.804-1.509-2.208-2.614c-0.404-1.105-0.404-2.317-0.001-3.422
	c-0.71-0.089-1.367-0.422-1.86-0.94c-0.493-0.519-0.792-1.192-0.846-1.905c-0.032-0.716,0.121-1.428,0.444-2.067
	s0.805-1.185,1.4-1.585c0,0-3.478-5.788,3.109-5.377"/>
<path class="st13" d="M663.196,182.094l0.855-20.292l-8.139-6.163l-7.395,3.617c0,0-0.243,9.287,0,13.315
	c0.244,4.028,4.306,4.452,4.306,4.452s-0.118,2.226-0.243,4.563c-0.071,1.388,0.405,2.748,1.326,3.789
	c0.921,1.04,2.213,1.678,3.599,1.776c0.708,0.053,1.42-0.037,2.092-0.264c0.673-0.228,1.293-0.588,1.824-1.06
	c0.531-0.471,0.961-1.045,1.266-1.686C662.992,183.499,663.165,182.803,663.196,182.094z"/>
<path class="st1" d="M649.353,165.88c0,0.102,0.03,0.201,0.086,0.286c0.057,0.085,0.137,0.151,0.231,0.19
	c0.094,0.039,0.198,0.049,0.298,0.029c0.1-0.02,0.191-0.069,0.263-0.141c0.072-0.072,0.121-0.164,0.141-0.264
	c0.02-0.1,0.01-0.203-0.029-0.297c-0.039-0.094-0.105-0.174-0.19-0.231c-0.084-0.057-0.184-0.087-0.286-0.087
	c-0.136,0-0.267,0.054-0.364,0.151C649.407,165.613,649.353,165.744,649.353,165.88z"/>
<path class="st1" d="M648.851,165.316c0.07,0.07,0.452-0.25,1.002-0.285c0.549-0.035,0.974,0.236,1.029,0.167
	c0.056-0.07-0.041-0.16-0.222-0.285c-0.245-0.16-0.536-0.236-0.828-0.216c-0.291,0.019-0.568,0.128-0.793,0.313
	C648.872,165.163,648.823,165.288,648.851,165.316z"/>
<path class="st1" d="M655.32,165.88c-0.001,0.104,0.028,0.205,0.085,0.292c0.056,0.087,0.137,0.155,0.233,0.195
	c0.095,0.04,0.2,0.052,0.302,0.033c0.101-0.019,0.195-0.068,0.268-0.141c0.074-0.073,0.125-0.166,0.145-0.267
	c0.021-0.101,0.011-0.207-0.028-0.302c-0.04-0.096-0.106-0.178-0.192-0.235c-0.086-0.058-0.187-0.088-0.291-0.088
	c-0.137,0-0.269,0.054-0.366,0.15C655.378,165.612,655.322,165.743,655.32,165.88z"/>
<path class="st1" d="M655.009,165.463c0.069,0.069,0.452-0.257,1.002-0.285c0.549-0.028,0.973,0.237,1.029,0.16
	c0.056-0.077,0-0.153-0.223-0.278c-0.244-0.161-0.535-0.237-0.827-0.216c-0.291,0.019-0.568,0.128-0.793,0.313
	C655.009,165.303,655.009,165.435,655.009,165.463z"/>
<path class="st8" d="M652.854,177.023c1.915-0.077,3.767-0.703,5.336-1.802c0,0-1.349,2.964-5.391,2.783L652.854,177.023z"/>
<path class="st1" d="M653.005,170.151c-0.298-0.071-0.604-0.108-0.911-0.111c-0.139,0-0.278,0-0.306-0.132
	c-0.022-0.155,0.005-0.313,0.076-0.452c0.119-0.362,0.244-0.744,0.383-1.148c0.264-0.821,0.487-1.565,0.64-2.087
	c0.103-0.288,0.173-0.587,0.209-0.89c-0.157,0.263-0.276,0.546-0.355,0.842c-0.195,0.536-0.445,1.266-0.696,2.087l-0.362,1.155
	c-0.082,0.184-0.101,0.389-0.055,0.584c0.022,0.048,0.054,0.091,0.095,0.125c0.041,0.034,0.09,0.058,0.141,0.07
	c0.079,0.013,0.159,0.013,0.237,0C652.403,170.215,652.707,170.202,653.005,170.151z"/>
<path class="st1" d="M650.285,155.347c-0.277-0.066-0.558-0.115-0.842-0.146c-0.316-0.007-0.628,0.077-0.898,0.244
	c-0.269,0.167-0.485,0.408-0.62,0.694c-0.134,0.287-0.183,0.606-0.14,0.92c0.044,0.314,0.178,0.608,0.385,0.848
	c0.327,0.383,0.654,0.487,0.633,0.543c-0.021,0.056-0.382,0-0.814-0.369c-0.213-0.206-0.374-0.46-0.468-0.742
	c-0.094-0.281-0.119-0.581-0.072-0.874c0.046-0.293,0.162-0.57,0.339-0.809c0.176-0.238,0.408-0.431,0.674-0.56
	c0.312-0.141,0.656-0.192,0.995-0.146C650.055,155.034,650.313,155.319,650.285,155.347z"/>
<path class="st1" d="M643.962,172.321c0,0,0.056-0.118,0.049-0.313c-0.004-0.13-0.051-0.255-0.134-0.354
	c-0.083-0.1-0.198-0.169-0.325-0.195c-0.092-0.011-0.185-0.003-0.274,0.023c-0.089,0.026-0.172,0.069-0.244,0.128
	c-0.072,0.058-0.131,0.13-0.175,0.212c-0.044,0.082-0.071,0.171-0.079,0.263c-0.009,0.24,0.065,0.476,0.207,0.669
	c0.143,0.193,0.347,0.333,0.579,0.395c0.237,0.072,0.488,0.084,0.73,0.035c0.243-0.048,0.47-0.156,0.661-0.314
	c0.322-0.272,0.539-0.649,0.612-1.064c0.041-0.133,0.053-0.273,0.035-0.411s-0.065-0.271-0.139-0.389
	c-0.118-0.16-0.244-0.181-0.237-0.209c0.007-0.028,0.146-0.056,0.341,0.111c0.113,0.124,0.195,0.273,0.24,0.435
	c0.045,0.162,0.051,0.332,0.018,0.497c-0.052,0.493-0.282,0.951-0.647,1.287c-0.234,0.204-0.516,0.344-0.819,0.407
	c-0.303,0.063-0.618,0.048-0.914-0.045c-0.308-0.089-0.576-0.281-0.758-0.545c-0.183-0.264-0.269-0.582-0.243-0.902
	c0.02-0.14,0.07-0.274,0.145-0.394c0.076-0.12,0.176-0.223,0.293-0.301c0.207-0.13,0.457-0.172,0.696-0.118
	c0.101,0.026,0.195,0.072,0.276,0.137c0.082,0.065,0.149,0.146,0.197,0.239c0.069,0.132,0.093,0.284,0.069,0.431
	C644.108,172.265,643.976,172.341,643.962,172.321z"/>
<path class="st1" d="M669.828,168.788c0.111,0.209,0.257,0.397,0.431,0.557c0.207,0.176,0.461,0.287,0.731,0.32
	c0.355,0.039,0.714-0.044,1.015-0.236c0.382-0.273,0.681-0.646,0.865-1.078c0.184-0.432,0.246-0.906,0.179-1.371
	c-0.031-0.557-0.201-1.098-0.494-1.572c-0.154-0.246-0.357-0.457-0.596-0.62c-0.24-0.163-0.511-0.274-0.795-0.327
	c-0.267-0.06-0.544-0.053-0.807,0.02c-0.264,0.073-0.505,0.209-0.703,0.398l-0.883,0.911l0.598-1.113
	c0.502-0.837,0.728-1.81,0.647-2.783c-0.039-0.374-0.172-0.732-0.386-1.04s-0.502-0.559-0.839-0.727
	c-0.228-0.101-0.476-0.154-0.726-0.154c-0.251,0-0.499,0.052-0.727,0.154c-0.32,0.16-0.439,0.341-0.467,0.32
	c-0.027-0.021,0.077-0.216,0.404-0.424c0.239-0.143,0.507-0.23,0.784-0.254c0.277-0.024,0.556,0.015,0.816,0.115
	c0.388,0.17,0.725,0.437,0.978,0.776c0.254,0.339,0.415,0.738,0.469,1.158c0.109,1.033-0.115,2.074-0.64,2.97l-0.285-0.202
	c0.238-0.231,0.529-0.401,0.848-0.494s0.656-0.108,0.981-0.042c0.334,0.062,0.651,0.194,0.93,0.387
	c0.279,0.193,0.515,0.443,0.691,0.733c0.324,0.525,0.508,1.123,0.536,1.739c0.036,0.555-0.062,1.111-0.285,1.621
	c-0.198,0.452-0.538,0.828-0.967,1.071c-0.355,0.208-0.771,0.285-1.176,0.216c-0.299-0.059-0.575-0.204-0.793-0.417
	C669.807,169.115,669.814,168.781,669.828,168.788z"/>
<path class="st1" d="M665.809,166.088c0.512-1.299,0.665-2.712,0.445-4.09c-0.089-1.154-0.499-2.26-1.183-3.193
	c-0.35-0.46-0.821-0.813-1.36-1.019c-0.54-0.206-1.126-0.258-1.694-0.149c-0.014-0.758-0.261-1.494-0.706-2.108
	c-0.446-0.614-1.069-1.076-1.785-1.325c-0.717-0.249-1.492-0.272-2.222-0.066c-0.73,0.206-1.38,0.631-1.861,1.217
	c-0.889-0.832-2.034-1.337-3.248-1.433c-0.602-0.041-1.205,0.064-1.757,0.306c-0.553,0.242-1.038,0.615-1.415,1.085
	c-0.366,0.482-0.57,1.067-0.584,1.671c-0.013,0.604,0.164,1.198,0.507,1.696c-0.36,0.123-0.683,0.335-0.939,0.617
	c-0.256,0.282-0.437,0.624-0.525,0.994c-0.088,0.37-0.081,0.757,0.021,1.124c0.102,0.367,0.295,0.702,0.561,0.974
	s0.597,0.472,0.961,0.582c0.365,0.11,0.751,0.125,1.124,0.045c0.372-0.08,0.718-0.253,1.005-0.503
	c0.287-0.25,0.506-0.568,0.637-0.926c0.114,0.523,0.419,0.986,0.855,1.297c0.435,0.311,0.972,0.449,1.504,0.387
	c0.529-0.087,1.028-0.308,1.447-0.643c0.419-0.335,0.745-0.773,0.946-1.27c0.023,0.775,0.321,1.517,0.839,2.093
	c0.518,0.577,1.224,0.951,1.992,1.058c0.381,0.036,0.766-0.001,1.134-0.111c-0.295,0.31-0.511,0.686-0.632,1.096
	c-0.12,0.41-0.14,0.844-0.059,1.263c0.081,0.42,0.261,0.814,0.525,1.15c0.264,0.336,0.605,0.605,0.994,0.783
	c-0.297,0.11-0.558,0.297-0.759,0.542c-0.2,0.244-0.332,0.538-0.382,0.85c-0.101,0.621-0.044,1.258,0.167,1.85
	c0.514,1.725,1.732,4.403,3.401,5.078c1.67,0.675,3.792-0.897,4.661-2.477L665.809,166.088z"/>
<path class="st8" d="M655.007,170.84c-0.112-0.097-0.242-0.17-0.383-0.215c-0.142-0.044-0.291-0.059-0.438-0.043
	c-0.147,0.019-0.289,0.068-0.416,0.145c-0.126,0.077-0.236,0.179-0.321,0.301c-0.115,0.151-0.17,0.34-0.153,0.529
	c0.018,0.119,0.062,0.233,0.13,0.333c0.067,0.1,0.156,0.184,0.259,0.245c0.148,0.099,0.317,0.161,0.494,0.182
	c0.177,0.021,0.355-0.001,0.522-0.064c0.165-0.065,0.31-0.174,0.418-0.315c0.107-0.141,0.175-0.309,0.194-0.485
	c0.016-0.158-0.023-0.317-0.111-0.45c-0.087-0.133-0.217-0.232-0.369-0.28"/>
<path class="st1" d="M655.311,170.428c0.09,0.035-0.125,0.696-0.779,1.113c-0.654,0.417-1.329,0.403-1.322,0.306
	c0.007-0.097,0.557-0.223,1.12-0.612C654.894,170.846,655.22,170.38,655.311,170.428z"/>
<path class="st1" d="M646.889,227.506c0,0-9.996,50.879-8.904,53.293c1.092,2.414,38.107,41.738,38.107,41.738l11.13-13.502
	c0,0-30.803-34.379-30.608-35.304c0.195-0.925,10.915-49.961,10.915-49.961L646.889,227.506z"/>
<path class="st2" d="M673.38,320.688c0.109-0.224,0.247-0.432,0.41-0.62l1.183-1.572c1.002-1.321,2.393-3.151,3.889-5.189
	c1.495-2.038,2.831-3.91,3.791-5.266c0.452-0.619,0.835-1.155,1.148-1.593c0.129-0.206,0.283-0.396,0.459-0.564
	c-0.084,0.228-0.199,0.443-0.341,0.64c-0.237,0.397-0.598,0.967-1.051,1.663c-0.911,1.391-2.212,3.29-3.714,5.335
	c-1.503,2.046-2.922,3.854-3.979,5.134c-0.529,0.64-0.967,1.155-1.28,1.503C673.748,320.358,673.575,320.536,673.38,320.688z"/>
<path class="st1" d="M649.874,226.553l-1.433,0.369l0.626,8.285c-2.518,13.607-7.555,42.344-6.908,51.06
	c0.856,11.562,2.88,46.977,2.88,46.977l16.543-2.539l-1.239-42.782l3.562-17.517l9.468-31.728
	c1.606-5.386,1.072-11.184-1.489-16.188l-0.869-1.718"/>
<path class="st2" d="M661.168,225.26c0.063,0,0.098,0.556,0.397,1.391c0.39,1.09,1.071,2.052,1.969,2.783
	c0.797,0.619,1.733,1.037,2.727,1.217c0.565,0.095,1.138,0.133,1.711,0.111c0.118,0,0.167,0.049,0.167,0.07s-0.063,0-0.174,0
	c-0.577,0.136-1.174,0.162-1.76,0.076c-1.132-0.14-2.197-0.611-3.063-1.354c-0.866-0.742-1.494-1.723-1.807-2.82
	C661.159,226.264,661.102,225.758,661.168,225.26z"/>
<path class="st2" d="M644.743,329.398c0.202-0.096,0.414-0.166,0.633-0.209c0.411-0.118,1.009-0.264,1.753-0.431
	c1.482-0.341,3.548-0.766,5.844-1.141c2.295-0.376,4.382-0.64,5.899-0.793c0.758-0.077,1.391-0.125,1.794-0.146
	c0.231-0.031,0.465-0.031,0.696,0c-0.8,0.195-1.614,0.333-2.435,0.41c-1.502,0.216-3.582,0.522-5.871,0.897
	c-2.289,0.376-4.355,0.752-5.85,1.03C646.394,329.195,645.571,329.323,644.743,329.398z"/>
<path class="st2" d="M649.06,235.2c-0.002,0.171-0.023,0.342-0.062,0.508c-0.063,0.369-0.146,0.849-0.244,1.454
	c-0.236,1.294-0.563,3.103-0.967,5.322c-0.814,4.501-1.934,10.706-2.956,17.599c-1.023,6.894-1.691,13.169-2.087,17.726
	c-0.188,2.274-0.32,4.118-0.404,5.391c-0.048,0.612-0.083,1.099-0.111,1.468c-0.003,0.171-0.024,0.341-0.063,0.507
	c-0.012-0.171-0.012-0.343,0-0.514c0-0.369,0-0.856,0.042-1.468c0-1.28,0.132-3.124,0.292-5.405
	c0.306-4.564,0.939-10.852,1.962-17.753c1.023-6.901,2.184-13.113,3.061-17.6c0.438-2.24,0.807-4.049,1.078-5.301
	c0.125-0.598,0.237-1.071,0.313-1.44C648.948,235.525,648.996,235.36,649.06,235.2z"/>
<path class="st2" d="M664.094,269.766c-0.006,0.124-0.024,0.248-0.055,0.369c-0.063,0.278-0.133,0.619-0.223,1.043
	c-0.202,0.953-0.473,2.247-0.8,3.826c-0.696,3.242-1.531,7.729-2.449,12.682c0,0.097,0,0.188-0.048,0.271l-0.181-0.216
	c0.027,0.002,0.055,0.009,0.08,0.02c0.025,0.012,0.047,0.029,0.066,0.05c0.004,0.014,0.004,0.028,0,0.042v0.055
	c0.002,0.026,0.002,0.051,0,0.077v0.132v0.237l0.042,0.466l0.062,0.918c0.028,0.607,0.056,1.206,0.084,1.795
	c0,1.168,0.069,2.302,0.104,3.381c0.042,2.142,0.083,4.076,0.111,5.718c0.028,1.641,0,2.894,0.035,3.854c0,0.417,0,0.765,0,1.043
	c0.016,0.122,0.016,0.246,0,0.369c-0.031-0.118-0.045-0.24-0.042-0.362c0-0.285-0.034-0.626-0.055-1.05
	c-0.042-0.96-0.091-2.261-0.146-3.847c-0.112-3.291-0.265-7.757-0.432-12.703l-0.181-0.042l0.056-0.271
	c0.918-4.96,1.83-9.44,2.553-12.668c0.362-1.613,0.696-2.921,0.911-3.812c0.119-0.452,0.223-0.793,0.293-1.029
	C663.931,269.987,664.004,269.869,664.094,269.766z"/>
<path class="st14" d="M534.75,169.279c0.062,0.697,0.027,1.399-0.105,2.087c-0.081,0.558-0.26,1.097-0.528,1.593
	c-0.392,0.745-0.828,1.465-1.308,2.156c0,0-17.802,9.628-21.071,10.637c-3.27,1.008-18.303-5.566-18.303-5.566
	c-1.397,3.773-3.267,7.355-5.565,10.658c0,0,13.419,4.953,23.805,5.808c6.609,0.55,26.748-15.568,26.768-15.582
	c2.061-0.777,4.079-1.664,6.046-2.657c2.699-1.503,2.567-1.753,2.337-2.031c-0.619-0.765-4.87,2.47-4.341,1.245
	c0.529-1.224,5.635-3.353,4.96-4.125c-0.883-1.002-5.245,2.463-5.642,2.734c-0.396,0.271-0.786-0.292-0.424-0.515
	c0.529-0.32,5.969-3.798,5.113-4.793c-0.473-0.55-1.391,0.39-1.391,0.39s-4.87,3.631-5.238,3.151
	c-0.369-0.48,2.379-2.72,3.366-3.402c0.988-0.682,1.058-1.391,0.397-1.607c-0.452-0.125-3.527,1.906-4.494,2.602
	c-0.967,0.696-3.569,2.671-3.075,0.654s0.119-3.75-0.306-4.174C535.327,168.117,534.659,168.646,534.75,169.279z"/>
<path class="st4" d="M615.239,224.825l-115.415-29.766l13.948-52.897l115.359,29.955L615.239,224.825z"/>
<path class="st1" d="M612.331,192.102l-0.243-0.056l-0.696-0.174l-2.727-0.695l-10.045-2.72l-33.106-8.988
	c-12.939-3.478-24.66-6.63-33.154-8.856l-10.059-2.636l-2.734-0.696l-0.696-0.195l-0.236-0.076c0.082,0.005,0.164,0.019,0.243,0.042
	l0.696,0.16l2.782,0.661c2.387,0.57,5.83,1.44,10.087,2.518c8.515,2.17,20.244,5.259,33.183,8.758
	c12.939,3.499,24.591,6.657,33.036,9.029l10.01,2.832l2.713,0.786l0.696,0.215C612.167,192.031,612.252,192.062,612.331,192.102z"/>
<path class="st1" d="M608.768,201.862l-0.244-0.049l-0.695-0.181l-2.734-0.695l-10.038-2.72l-33.127-9.016
	c-12.939-3.478-24.66-6.622-33.154-8.855l-10.059-2.63l-2.734-0.696l-0.696-0.195c-0.082-0.017-0.161-0.045-0.236-0.083
	c0.082,0.009,0.163,0.023,0.243,0.042l0.696,0.167l2.782,0.654c2.387,0.57,5.83,1.44,10.087,2.518
	c8.515,2.17,20.244,5.266,33.183,8.758c12.938,3.492,24.632,6.727,33.084,9.092l10.011,2.825l2.713,0.793l0.695,0.215
	C608.621,201.816,608.696,201.835,608.768,201.862z"/>
<path class="st1" d="M548.386,195.936c-0.123-0.002-0.245-0.024-0.362-0.063l-1.022-0.236l-3.764-0.953l-12.41-3.277l-12.403-3.374
	l-3.757-1.064l-1.015-0.306c-0.124-0.029-0.243-0.074-0.355-0.132c0.12,0.001,0.24,0.02,0.355,0.055l1.029,0.244l3.764,0.953
	l12.41,3.269l12.396,3.381l3.757,1.065l1.022,0.306C548.154,195.835,548.273,195.879,548.386,195.936z"/>
<path class="st1" d="M569.322,171.142c-0.174-0.015-0.347-0.048-0.515-0.097l-1.461-0.348l-5.349-1.35l-17.6-4.57l-17.593-4.675
	l-5.363-1.426l-1.44-0.417c-0.172-0.039-0.34-0.095-0.501-0.167c0.174,0.019,0.346,0.051,0.515,0.097l1.461,0.348l5.349,1.35
	l17.621,4.577l17.62,4.647l5.322,1.454l1.44,0.417C568.998,171.018,569.163,171.072,569.322,171.142z"/>
<path class="st6" d="M437.041,324.88l4.174-3.889l-7.235-7.923l-6.184,5.607l0.417,0.521c1.872,2.296,9.698,11.548,11.478,12.605
	C441.674,332.998,437.041,324.88,437.041,324.88z"/>
<g class="st9">
	<path class="st10" d="M439.185,328.957c0,0,1.474,2.977,0.82,3.04c-0.653,0.062-8.918-8.988-12.208-13.322l0.188-0.153
		l9.544,10.643C437.529,329.165,438.746,328.511,439.185,328.957z"/>
</g>
<path class="st1" d="M427.878,318.418c0.034,0.051,0.071,0.1,0.111,0.146l0.334,0.417l1.252,1.496
	c1.065,1.259,2.567,2.977,4.258,4.87c1.69,1.892,3.262,3.478,4.417,4.688l1.391,1.391l0.376,0.376l0.139,0.118
	c-0.034-0.05-0.074-0.097-0.118-0.139l-0.362-0.389L438.333,330c-1.14-1.196-2.699-2.852-4.389-4.716s-3.2-3.562-4.285-4.807
	l-1.28-1.468l-0.355-0.396L427.878,318.418z"/>
<path class="st1" d="M437.411,329.297c0.297-0.153,0.61-0.275,0.932-0.362c0.333-0.039,0.669-0.039,1.002,0
	c-0.317-0.166-0.684-0.208-1.03-0.118C437.964,328.856,437.641,329.027,437.411,329.297z"/>
<path class="st1" d="M436.464,325.875c0.174,0.041,0.355,0.041,0.529,0c0.285-0.049,0.514-0.119,0.508-0.153
	c-0.174-0.045-0.356-0.045-0.529,0C436.68,325.77,436.457,325.84,436.464,325.875z"/>
<path class="st1" d="M436.213,324.936c0,0,0.195,0.083,0.445,0.111c0.251,0.028,0.445,0,0.452,0c0.007,0-0.195-0.083-0.445-0.111
	S436.22,324.887,436.213,324.936z"/>
<path class="st1" d="M436.574,323.836c0,0,0.118,0.23,0.32,0.459c0.202,0.23,0.397,0.397,0.425,0.376
	c0.027-0.021-0.119-0.23-0.327-0.459C436.783,323.982,436.616,323.808,436.574,323.836z"/>
<path class="st1" d="M436.986,323.21c0.033,0.22,0.132,0.424,0.286,0.585c0.229,0.292,0.48,0.452,0.5,0.424
	c0.021-0.028-0.18-0.23-0.396-0.501C437.16,323.447,437.021,323.196,436.986,323.21z"/>
<path class="st1" d="M437.394,325.513c0.131,0.192,0.291,0.363,0.473,0.508c0.189,0.163,0.395,0.307,0.612,0.431
	c0.128,0.081,0.266,0.147,0.41,0.195c0.043,0.018,0.089,0.028,0.136,0.028c0.047,0,0.093-0.01,0.136-0.028
	c0.046-0.026,0.083-0.065,0.106-0.112c0.024-0.047,0.033-0.1,0.026-0.153c-0.081-0.28-0.258-0.524-0.499-0.689
	c-0.241-0.165-0.532-0.241-0.823-0.215c-0.173,0.015-0.34,0.065-0.494,0.146c-0.058,0.026-0.11,0.064-0.153,0.111
	c0.206-0.09,0.424-0.146,0.647-0.167c0.245-0.009,0.487,0.054,0.696,0.181c0.25,0.14,0.434,0.372,0.515,0.647
	c0,0.132-0.112,0.188-0.251,0.146c-0.132-0.046-0.26-0.104-0.382-0.174c-0.216-0.116-0.421-0.251-0.613-0.403
	C437.589,325.694,437.415,325.499,437.394,325.513z"/>
<path class="st1" d="M437.494,325.665c0,0,0.202,0,0.404-0.265c0.122-0.136,0.208-0.301,0.25-0.48
	c0.042-0.117,0.052-0.243,0.029-0.365c-0.023-0.123-0.079-0.237-0.161-0.33c-0.058-0.041-0.131-0.058-0.201-0.046
	c-0.07,0.012-0.133,0.051-0.175,0.108c-0.071,0.085-0.121,0.185-0.146,0.293c-0.054,0.169-0.084,0.344-0.09,0.521
	c-0.025,0.163-0.004,0.329,0.062,0.48c0,0,0-0.187,0-0.473c0.021-0.168,0.058-0.333,0.112-0.494
	c0.041-0.167,0.194-0.389,0.333-0.285c0.054,0.077,0.09,0.165,0.105,0.258c0.016,0.093,0.011,0.187-0.014,0.278
	c-0.033,0.161-0.102,0.314-0.202,0.445C437.654,325.574,437.48,325.63,437.494,325.665z"/>
<path class="st1" d="M430.194,316.588c0,0,0.23,0.209,0.515,0.606c0.371,0.514,0.593,1.12,0.64,1.753
	c0.038,0.634-0.1,1.267-0.396,1.829c-0.23,0.431-0.453,0.654-0.432,0.696c0.021,0.042,0.063-0.042,0.16-0.146
	c0.134-0.144,0.25-0.303,0.348-0.473c0.338-0.567,0.496-1.223,0.452-1.882c-0.043-0.658-0.286-1.288-0.695-1.805
	c-0.123-0.157-0.261-0.301-0.411-0.432C430.264,316.637,430.201,316.588,430.194,316.588z"/>
<path class="st1" d="M434.244,314.41c-0.59,0.43-1.154,0.895-1.69,1.391c-0.563,0.471-1.097,0.975-1.6,1.51
	c0.59-0.431,1.154-0.896,1.691-1.392C433.207,315.448,433.741,314.944,434.244,314.41z"/>
<path class="st1" d="M432.171,321.805c0.255,0.46,0.571,0.884,0.939,1.259c0.337,0.408,0.725,0.771,1.155,1.079
	c0,0-0.48-0.522-1.058-1.162C432.63,322.341,432.199,321.784,432.171,321.805z"/>
<path class="st1" d="M430.75,320.247c-0.035,0-0.069,0.147-0.139,0.307c-0.069,0.16-0.146,0.285-0.125,0.313
	c0.021,0.027,0.167-0.077,0.243-0.265C430.806,320.414,430.785,320.247,430.75,320.247z"/>
<path class="st1" d="M430.946,318.995c-0.035,0-0.07,0.125-0.077,0.285c-0.006,0.16,0,0.285,0.049,0.292
	c0.049,0.007,0.07-0.125,0.084-0.285C431.016,319.127,431.009,319.002,430.946,318.995z"/>
<path class="st1" d="M430.52,317.854c0,0.034,0.076,0.139,0.146,0.292c0.069,0.153,0.076,0.292,0.111,0.299
	c0.035,0.007,0.09-0.167,0-0.355C430.686,317.902,430.54,317.826,430.52,317.854z"/>
<path class="st1" d="M430.134,317.117c-0.035,0-0.035,0.097,0,0.18c0.034,0.084,0.09,0.153,0.125,0.14c0.035-0.014,0-0.098,0-0.181
	C430.259,317.172,430.168,317.103,430.134,317.117z"/>
<g class="st11">
	<path class="st12" d="M430.412,316.414l7.36,7.805l0.939-0.883l-7.311-7.91L430.412,316.414z"/>
</g>
<path class="st6" d="M518.918,331.231l-2.344-5.232l-9.83,4.306l3.332,7.694l0.633-0.229c2.783-1.037,14.052-5.475,15.624-6.825
	C528.093,329.45,518.918,331.231,518.918,331.231z"/>
<g class="st9">
	<path class="st10" d="M523.46,330.502c0,0,3.297-0.439,3.144,0.201c-0.153,0.64-11.381,5.565-16.522,7.291l-0.076-0.23
		l13.141-5.621C523.147,332.143,522.903,330.78,523.46,330.502z"/>
</g>
<path class="st1" d="M509.843,337.833c0.062-0.01,0.123-0.029,0.181-0.056l0.494-0.181l1.822-0.695
	c1.531-0.605,3.638-1.468,5.948-2.477c2.309-1.008,4.369-1.961,5.857-2.678l1.753-0.856l0.473-0.243
	c0.112-0.056,0.167-0.084,0.16-0.09l-0.167,0.069l-0.487,0.216l-1.774,0.821c-1.495,0.695-3.561,1.634-5.871,2.643
	c-2.309,1.009-4.403,1.885-5.927,2.511l-1.801,0.745l-0.494,0.208C509.951,337.783,509.895,337.804,509.843,337.833z"/>
<path class="st1" d="M523.213,332.309c-0.048-0.332-0.06-0.668-0.035-1.002c0.066-0.328,0.169-0.648,0.306-0.953
	c-0.256,0.246-0.412,0.578-0.438,0.932C522.98,331.636,523.039,331.998,523.213,332.309z"/>
<path class="st1" d="M519.668,332.101c0.034,0,0.097-0.222,0.146-0.508c0.041-0.176,0.041-0.359,0-0.535
	c-0.035,0-0.105,0.222-0.146,0.514C519.626,331.746,519.626,331.927,519.668,332.101z"/>
<path class="st1" d="M518.662,332.03c0,0,0.139-0.153,0.244-0.382c0.104-0.23,0.16-0.425,0.125-0.438
	c-0.035-0.014-0.139,0.16-0.244,0.382C518.683,331.815,518.662,332.016,518.662,332.03z"/>
<path class="st1" d="M517.774,331.322c0.192-0.009,0.378-0.063,0.543-0.16c0.285-0.118,0.501-0.243,0.487-0.278
	c-0.188,0.016-0.37,0.071-0.536,0.16C518.087,331.103,517.919,331.198,517.774,331.322z"/>
<path class="st1" d="M517.316,330.744c0.219,0.041,0.446,0.012,0.647-0.084c0.215-0.052,0.409-0.169,0.557-0.333
	c-0.206,0.048-0.407,0.118-0.598,0.208C517.715,330.589,517.513,330.659,517.316,330.744z"/>
<path class="st1" d="M519.628,331.099c0.223-0.056,0.435-0.15,0.627-0.278c0.217-0.129,0.422-0.278,0.612-0.445
	c0.116-0.097,0.221-0.207,0.313-0.327c0.056-0.076,0.081-0.171,0.069-0.264c-0.011-0.052-0.036-0.098-0.073-0.135
	c-0.037-0.038-0.084-0.063-0.135-0.074c-0.293-0.013-0.581,0.077-0.814,0.253c-0.234,0.177-0.399,0.429-0.466,0.714
	c-0.037,0.167-0.037,0.341,0,0.508c0.005,0.063,0.024,0.125,0.055,0.181c-0.02-0.234-0.002-0.469,0.056-0.696
	c0.069-0.227,0.202-0.43,0.383-0.584c0.105-0.096,0.227-0.17,0.361-0.218c0.134-0.047,0.276-0.068,0.418-0.061
	c0.132,0,0.139,0.167,0.062,0.279c-0.086,0.112-0.184,0.214-0.292,0.306c-0.18,0.167-0.373,0.321-0.577,0.459
	C519.858,330.974,519.615,331.079,519.628,331.099z"/>
<path class="st1" d="M519.801,331.057c0.017-0.164-0.025-0.329-0.118-0.466c-0.093-0.157-0.222-0.291-0.376-0.389
	c-0.098-0.076-0.213-0.124-0.336-0.14c-0.122-0.016-0.246,0.001-0.36,0.049c-0.056,0.043-0.094,0.106-0.105,0.176
	c-0.012,0.069,0.004,0.141,0.043,0.2c0.056,0.096,0.135,0.177,0.229,0.236c0.143,0.106,0.3,0.191,0.466,0.251
	c0.147,0.073,0.31,0.106,0.473,0.097c0,0-0.173-0.055-0.438-0.181c-0.153-0.072-0.297-0.161-0.431-0.264
	c-0.146-0.09-0.306-0.306-0.16-0.403c0.089-0.028,0.182-0.034,0.274-0.02c0.091,0.015,0.179,0.05,0.255,0.103
	c0.143,0.083,0.267,0.197,0.361,0.334C519.666,330.771,519.74,330.911,519.801,331.057z"/>
<path class="st1" d="M508.873,335.056c0,0,0.271-0.153,0.737-0.292c0.608-0.192,1.258-0.207,1.874-0.043
	c0.616,0.163,1.172,0.499,1.604,0.968c0.334,0.355,0.473,0.633,0.494,0.62c-0.017-0.072-0.045-0.14-0.083-0.202
	c-0.1-0.17-0.214-0.33-0.341-0.48c-0.427-0.496-0.993-0.851-1.624-1.021c-0.631-0.17-1.299-0.146-1.917,0.068
	c-0.186,0.066-0.366,0.15-0.536,0.25C508.921,335.001,508.866,335.049,508.873,335.056z"/>
<path class="st1" d="M508.099,330.502c0.224,0.711,0.491,1.408,0.8,2.087c0.265,0.685,0.572,1.354,0.918,2.003
	c-0.496-1.386-1.069-2.742-1.718-4.063V330.502z"/>
<path class="st1" d="M514.429,334.857c0.52-0.093,1.025-0.254,1.502-0.48c0.495-0.187,0.962-0.437,1.392-0.745
	c0-0.034-0.64,0.286-1.44,0.62C515.083,334.585,514.422,334.822,514.429,334.857z"/>
<path class="st1" d="M512.502,335.698c0,0,0.111,0.111,0.243,0.236c0.133,0.125,0.223,0.23,0.258,0.216s0-0.181-0.167-0.313
	S512.516,335.663,512.502,335.698z"/>
<path class="st1" d="M511.381,335.113c0,0.035,0.097,0.111,0.243,0.167s0.279,0.077,0.286,0.049
	c0.006-0.028-0.091-0.112-0.237-0.167C511.527,335.106,511.395,335.078,511.381,335.113z"/>
<path class="st1" d="M510.167,335.155c0,0,0.146,0,0.313-0.042c0.167-0.042,0.306,0,0.32,0c0.014,0-0.125-0.132-0.327-0.111
	C510.271,335.022,510.139,335.127,510.167,335.155z"/>
<path class="st1" d="M509.339,335.286c0,0.034,0.083,0.055,0.174,0.055c0.09,0,0.174,0,0.174-0.076c0-0.077-0.084-0.056-0.174-0.056
	C509.422,335.209,509.339,335.244,509.339,335.286z"/>
<g class="st11">
	<path class="st12" d="M508.769,334.785l9.752-4.459l-0.535-1.183l-9.837,4.39L508.769,334.785z"/>
</g>
<path class="st1" d="M460.598,154.656c0.279-1.906-0.939-4.737-0.424-6.477c0.16-0.549-0.445-1.071-0.522-1.642
	c-0.058-0.282-0.041-0.575,0.049-0.848c0.09-0.273,0.251-0.518,0.466-0.71c0.111-0.081,0.238-0.136,0.373-0.162
	c0.135-0.026,0.273-0.022,0.406,0.012c0.133,0.034,0.257,0.097,0.363,0.184c0.105,0.087,0.191,0.197,0.249,0.321
	c0.107-0.892,0.356-1.761,0.738-2.574c0.193-0.411,0.485-0.769,0.848-1.042c0.364-0.273,0.789-0.452,1.239-0.523
	c0.445-0.057,0.894,0.061,1.255,0.328c0.36,0.267,0.603,0.663,0.679,1.105c0.504-0.942,1.263-1.723,2.191-2.254
	c0.382-0.253,0.818-0.414,1.273-0.471c0.455-0.057,0.917-0.007,1.349,0.144c0.835,0.376,1.301,1.551,0.696,2.254
	c0.531-0.522,1.151-0.946,1.83-1.252c0.338-0.145,0.708-0.2,1.074-0.158c0.366,0.041,0.715,0.177,1.013,0.395
	c0.14,0.119,0.254,0.266,0.334,0.431c0.079,0.166,0.123,0.346,0.129,0.53c0.005,0.184-0.029,0.367-0.099,0.537
	c-0.07,0.17-0.175,0.323-0.309,0.45c0.736-0.362,1.521-0.615,2.331-0.751c0.405-0.068,0.819-0.051,1.217,0.051
	c0.398,0.102,0.77,0.286,1.092,0.541c0.313,0.266,0.526,0.631,0.603,1.035c0.078,0.404,0.014,0.822-0.178,1.184
	c-0.4,0.477-0.918,0.839-1.503,1.05c-0.291,0.11-0.553,0.286-0.764,0.514c-0.211,0.228-0.367,0.503-0.453,0.801
	c-0.042,0.32,0.055,0.654,0,0.967c-0.062,0.209-0.177,0.398-0.334,0.548c-0.158,0.15-0.352,0.256-0.564,0.307
	c-0.422,0.095-0.858,0.114-1.287,0.056c-2.177-0.188-4.341-0.543-6.525-0.522c-2.206-0.064-4.382,0.519-6.261,1.677"/>
<path class="st1" d="M458.57,235.893c0,0,4.598,24.347,3.757,37.711c-0.842,13.363-10.073,18.678-15.583,24.173
	c-5.252,5.252-17.314,15.673-17.314,15.673l10.81,11.645c0,0,34.219-24.674,37.69-40.57c2.664-12.208,3.708-33.787,3.708-33.787
	L458.57,235.893z"/>
<path class="st1" d="M459.073,217.64c-0.333,0-4.055,10.963-0.5,18.24c0.354,0.695,3.144,4.744,3.144,4.744
	c9.85,11.652,22.824,36.424,24.146,40.125c3.826,10.733,19.332,54.309,19.332,54.309l16.173-6.901L504.875,274.3l-21.44-47.756
	L459.073,217.64z"/>
<path class="st2" d="M479.311,226.543c0.195,0.492,0.266,1.025,0.208,1.551c-0.044,1.294-0.51,2.537-1.326,3.542
	c-0.816,1.004-1.938,1.715-3.195,2.023c-0.503,0.162-1.038,0.197-1.559,0.104c0-0.062,0.592-0.069,1.489-0.354
	c1.162-0.366,2.195-1.056,2.977-1.99c0.769-0.952,1.252-2.103,1.392-3.318C479.366,227.141,479.255,226.557,479.311,226.543z"/>
<path class="st2" d="M505.194,335.057l16.174-6.901l-0.8-2.622l-16.153,7.332L505.194,335.057z"/>
<path class="st14" d="M466.814,179.261c0.759,0.059,1.523-0.037,2.245-0.28c0.722-0.243,1.387-0.63,1.956-1.137
	c0.569-0.507,1.03-1.123,1.355-1.812c0.325-0.689,0.508-1.436,0.538-2.198c0.118-3.082,0.222-6.191,0.222-6.191
	s4.675-0.438,5.016-5.057c0.341-4.619-0.195-14.713-0.195-14.713l0.39-0.577c-5.211-2.629-10.999-1.767-15.833,1.503l-1.009,1.92
	l0.09,22.956c0.014,1.416,0.558,2.776,1.525,3.81C464.082,178.52,465.402,179.153,466.814,179.261z"/>
<path class="st1" d="M476.808,155.394c-0.092-0.054-0.171-0.129-0.229-0.218c-0.059-0.089-0.096-0.191-0.109-0.297
	c-0.013-0.106-0.001-0.214,0.034-0.314c0.035-0.101,0.094-0.192,0.17-0.267s0.169-0.131,0.271-0.164
	c0.101-0.033,0.209-0.043,0.315-0.027c0.106,0.015,0.206,0.055,0.294,0.115c0.088,0.061,0.161,0.141,0.214,0.234
	c0.119,0.129,0.185,0.298,0.185,0.473c0,0.175-0.066,0.344-0.185,0.473c-0.131,0.122-0.303,0.19-0.482,0.189
	C477.107,155.588,476.936,155.518,476.808,155.394z"/>
<path class="st1" d="M477.934,154.649c-0.077,0.076-0.508-0.306-1.148-0.348c-0.64-0.042-1.12,0.257-1.183,0.174
	c-0.062-0.083,0.049-0.181,0.258-0.32c0.285-0.178,0.619-0.261,0.955-0.236c0.335,0.025,0.654,0.156,0.909,0.375
	C477.913,154.461,477.969,154.614,477.934,154.649z"/>
<path class="st1" d="M470.771,154.551c0.117,0.077,0.207,0.187,0.26,0.316c0.053,0.129,0.065,0.271,0.037,0.407
	c-0.029,0.136-0.098,0.261-0.199,0.358c-0.1,0.097-0.228,0.161-0.365,0.184c-0.138,0.023-0.279,0.005-0.406-0.053
	c-0.127-0.058-0.233-0.153-0.306-0.272c-0.072-0.119-0.107-0.257-0.1-0.397c0.007-0.139,0.056-0.273,0.14-0.384
	c0.107-0.141,0.264-0.236,0.438-0.266C470.445,154.415,470.624,154.453,470.771,154.551z"/>
<path class="st1" d="M470.986,154.788c-0.076,0.077-0.507-0.299-1.147-0.341c-0.64-0.042-1.12,0.257-1.183,0.174
	c-0.063-0.084,0.049-0.181,0.257-0.32c0.282-0.185,0.618-0.268,0.953-0.237c0.336,0.023,0.655,0.152,0.912,0.369
	C470.966,154.607,471.028,154.76,470.986,154.788z"/>
<path class="st1" d="M473.25,159.741c0.334-0.118,0.688-0.172,1.043-0.16c0.167,0,0.299-0.035,0.32-0.125
	c0.013-0.165-0.018-0.331-0.09-0.48l-0.425-1.329c-0.409-1.127-0.705-2.292-0.883-3.478c0.523,1.078,0.936,2.206,1.231,3.367
	c0.139,0.459,0.264,0.897,0.397,1.329c0.092,0.22,0.11,0.465,0.048,0.696c-0.028,0.061-0.071,0.116-0.124,0.158
	c-0.053,0.042-0.115,0.072-0.182,0.086c-0.094,0.013-0.19,0.013-0.285,0C473.949,159.842,473.594,159.821,473.25,159.741z"/>
<path class="st15" d="M471.133,160.311c0.382,0.174,1.767,1.085,3.068,1.106c-0.234,0.315-0.567,0.542-0.945,0.646
	c-0.379,0.103-0.781,0.077-1.142-0.075C470.729,161.396,471.133,160.311,471.133,160.311z"/>
<path class="st16" d="M473.142,167.574c-2.139-0.093-4.202-0.819-5.927-2.087c0,0,1.224,3.416,5.864,3.283L473.142,167.574z"/>
<path class="st14" d="M461.611,154.503c0-0.185-0.073-0.361-0.203-0.492c-0.131-0.13-0.308-0.204-0.492-0.204
	c-0.863,0-2.275,0.32-2.407,2.699c-0.188,3.402,3.081,2.553,3.095,2.456C461.618,158.865,461.611,155.852,461.611,154.503z"/>
<path class="st16" d="M460.876,157.647c0,0-0.063,0.042-0.16,0.083c-0.144,0.055-0.302,0.055-0.445,0
	c-0.213-0.15-0.381-0.355-0.487-0.592c-0.107-0.237-0.148-0.499-0.119-0.758c0.008-0.293,0.079-0.58,0.209-0.842
	c0.039-0.104,0.102-0.198,0.184-0.273c0.082-0.075,0.182-0.129,0.289-0.158c0.069-0.014,0.141-0.003,0.203,0.03
	c0.062,0.033,0.111,0.086,0.138,0.151c0.042,0.097,0,0.167,0,0.174c0,0.007,0.077-0.056,0.056-0.195
	c-0.017-0.086-0.061-0.164-0.126-0.223c-0.088-0.075-0.203-0.113-0.32-0.104c-0.14,0.021-0.274,0.077-0.387,0.164
	c-0.113,0.086-0.202,0.2-0.259,0.33c-0.164,0.287-0.252,0.609-0.258,0.939c-0.033,0.301,0.023,0.606,0.161,0.876
	c0.139,0.27,0.354,0.493,0.618,0.641c0.091,0.032,0.187,0.043,0.282,0.032c0.095-0.011,0.187-0.043,0.268-0.094
	C460.869,157.731,460.925,157.654,460.876,157.647z"/>
<path class="st2" d="M452.426,194.155c0.564,4.522,2.087,8.487,2.129,15.896l-0.348,17.175l32.452,1.83l-1.76-20.988l-1.169-17.878
	l7.249,1.878l3.026-12.083c0,0-7.652-3.694-10.282-4.87c-8.605-3.909-8.556-2.303-10.045-2.49c-3.848,1.212-7.977,1.212-11.826,0
	c0,0-6.393-1.767-9.662,5.983C450.486,182.594,452.426,194.155,452.426,194.155z"/>
<path class="st7" d="M454.513,174.809c0,0,0.09,0,0.257,0c0.238,0.032,0.471,0.09,0.696,0.174c0.885,0.3,1.641,0.894,2.142,1.684
	c0.367,0.591,0.587,1.261,0.643,1.954s-0.055,1.39-0.323,2.032c-0.348,0.678-0.505,1.438-0.452,2.198
	c0.153,0.751,0.863,1.266,1.496,1.885c0.335,0.309,0.601,0.686,0.779,1.107c0.169,0.41,0.252,0.85,0.243,1.293
	c-0.022,0.832-0.286,1.639-0.758,2.324c-0.217,0.315-0.472,0.602-0.758,0.855c-0.286,0.224-0.596,0.413-0.926,0.564
	c-0.581,0.253-1.187,0.445-1.808,0.57c-0.891,0.19-1.796,0.301-2.706,0.334c-0.331,0.039-0.665,0.039-0.995,0
	c0.326-0.06,0.656-0.097,0.988-0.111c0.894-0.088,1.782-0.234,2.657-0.438c1.064-0.292,2.484-0.661,3.27-1.934
	c0.429-0.632,0.671-1.372,0.695-2.136c0.01-0.403-0.067-0.803-0.227-1.173c-0.16-0.37-0.398-0.701-0.698-0.969
	c-0.299-0.299-0.633-0.578-0.932-0.905c-0.32-0.323-0.546-0.727-0.654-1.169c-0.067-0.825,0.102-1.653,0.487-2.386
	c0.223-0.499,0.342-1.037,0.352-1.583c0.009-0.546-0.092-1.088-0.297-1.594c-0.206-0.506-0.511-0.965-0.898-1.351
	c-0.387-0.385-0.848-0.688-1.355-0.891C454.867,174.871,454.506,174.843,454.513,174.809z"/>
<path class="st7" d="M492.488,178.328c-0.002,0.116-0.02,0.231-0.056,0.341c-0.082,0.323-0.194,0.637-0.334,0.939
	c-0.518,1.126-1.348,2.08-2.393,2.748c-0.777,0.498-1.652,0.822-2.566,0.948c-0.914,0.126-1.845,0.052-2.728-0.217
	c-1.051-0.304-2.008-0.869-2.782-1.642c-0.8-0.772-1.489-1.739-2.512-2.17c-0.507-0.201-1.067-0.231-1.593-0.083
	c-0.528,0.151-1.041,0.354-1.53,0.605c-0.964,0.512-2.038,0.784-3.13,0.793c-0.924,0.008-1.838-0.192-2.674-0.586
	c-0.836-0.394-1.572-0.971-2.154-1.689c-0.775-0.968-1.245-2.145-1.35-3.381c-0.033-0.333-0.033-0.669,0-1.002
	c0.008-0.116,0.029-0.23,0.063-0.341c0.042,0-0.049,0.48,0.063,1.329c0.151,1.187,0.633,2.308,1.391,3.235
	c0.57,0.668,1.281,1.202,2.082,1.563c0.801,0.361,1.672,0.54,2.551,0.524c1.041-0.016,2.062-0.283,2.977-0.779
	c0.509-0.263,1.043-0.475,1.593-0.633c0.599-0.168,1.237-0.136,1.816,0.09c1.168,0.501,1.85,1.51,2.629,2.254
	c0.993,0.996,2.291,1.631,3.686,1.804c1.396,0.173,2.81-0.127,4.015-0.851c1.02-0.633,1.849-1.529,2.4-2.595
	C492.363,178.788,492.453,178.315,492.488,178.328z"/>
<path class="st7" d="M490.709,191.56c-0.356-0.951-0.887-1.826-1.565-2.581c-0.738-0.789-1.717-1.31-2.783-1.482
	c-0.65-0.077-1.309-0.001-1.925,0.221s-1.171,0.585-1.623,1.059c-0.464,0.493-0.763,1.118-0.856,1.788
	c-0.04,0.677-0.203,1.342-0.48,1.962c-0.34,0.533-0.821,0.962-1.391,1.238c-0.494,0.271-0.981,0.473-1.391,0.696
	c-0.669,0.304-1.224,0.813-1.586,1.453c-0.098,0.251-0.164,0.513-0.195,0.78c-0.027-0.069-0.042-0.142-0.042-0.216
	c-0.003-0.211,0.032-0.421,0.105-0.619c0.331-0.706,0.893-1.277,1.593-1.621c0.424-0.244,0.897-0.452,1.391-0.731
	c0.507-0.258,0.933-0.65,1.231-1.133c0.247-0.59,0.388-1.219,0.418-1.858c0.104-0.739,0.432-1.428,0.939-1.975
	c0.488-0.523,1.093-0.921,1.766-1.163c0.672-0.242,1.393-0.321,2.102-0.229c1.142,0.189,2.184,0.766,2.949,1.635
	c0.514,0.569,0.915,1.23,1.183,1.948C490.653,190.996,490.707,191.276,490.709,191.56z"/>
<path class="st7" d="M480.452,211.838c0.018,0.108,0.018,0.219,0,0.327c-0.042,0.315-0.129,0.622-0.258,0.911
	c-0.433,0.904-1.131,1.654-2,2.151c-0.87,0.497-1.871,0.718-2.869,0.632c-0.933-0.087-1.831-0.4-2.616-0.911
	c-0.869-0.555-1.61-1.291-2.17-2.157c-0.612-0.897-0.891-1.982-1.531-2.831c-0.309-0.412-0.736-0.72-1.224-0.884
	c-0.498-0.139-1.008-0.23-1.523-0.271c-0.987-0.059-1.942-0.368-2.776-0.899c-0.834-0.531-1.518-1.265-1.99-2.134
	c-0.384-0.719-0.601-1.516-0.633-2.33c-0.044-1.177,0.277-2.338,0.919-3.325c0.171-0.264,0.369-0.509,0.591-0.731
	c0.074-0.082,0.158-0.155,0.25-0.216c0,0-0.313,0.327-0.695,1.023c-0.572,0.979-0.843,2.103-0.779,3.235
	c0.043,0.772,0.262,1.524,0.64,2.198c0.457,0.815,1.112,1.501,1.905,1.996c0.793,0.495,1.697,0.782,2.63,0.835
	c0.544,0.034,1.083,0.128,1.607,0.279c0.557,0.184,1.043,0.536,1.391,1.008c0.696,0.932,0.967,2.011,1.545,2.852
	c0.525,0.836,1.225,1.548,2.052,2.087c0.738,0.491,1.582,0.799,2.462,0.898c0.77,0.082,1.547-0.03,2.261-0.327
	c1.051-0.419,1.919-1.199,2.449-2.198C480.241,212.659,480.361,212.252,480.452,211.838z"/>
<path class="st7" d="M482.065,228.548c0.093-0.43,0.104-0.874,0.035-1.308c-0.136-0.581-0.412-1.119-0.805-1.567
	c-0.393-0.447-0.891-0.791-1.449-1c-0.775-0.282-1.598-0.408-2.421-0.369c-0.957,0.045-1.907,0.181-2.838,0.404
	c-1.046,0.257-2.112,0.427-3.186,0.507c-1.188,0.086-2.374-0.182-3.409-0.772c-0.961-0.692-1.707-1.642-2.15-2.741
	c-0.434-0.958-1.019-1.841-1.732-2.615c-1.229-1.302-2.847-2.171-4.612-2.477c-1.192-0.196-2.412-0.141-3.582,0.16
	c-0.828,0.216-1.26,0.432-1.273,0.397c0.094-0.071,0.197-0.129,0.306-0.174c0.302-0.139,0.613-0.258,0.932-0.355
	c1.184-0.363,2.434-0.458,3.659-0.278c1.834,0.279,3.526,1.154,4.814,2.49c0.742,0.794,1.351,1.703,1.801,2.692
	c0.421,1.039,1.125,1.938,2.032,2.595c0.976,0.539,2.088,0.781,3.2,0.696c1.055-0.074,2.102-0.235,3.13-0.48
	c0.953-0.218,1.924-0.346,2.901-0.383c0.863-0.027,1.722,0.122,2.525,0.438c0.666,0.271,1.242,0.725,1.663,1.308
	c0.322,0.433,0.537,0.936,0.626,1.468c0.055,0.336,0.04,0.679-0.042,1.009C482.173,228.318,482.13,228.439,482.065,228.548z"/>
<path class="st14" d="M511.913,194.572c-0.203,0.67-0.498,1.309-0.876,1.899c-0.286,0.485-0.653,0.918-1.085,1.28
	c-0.643,0.542-1.317,1.046-2.018,1.509c0,0-20.111,2.282-23.526,1.997c-3.416-0.285-14.901-11.972-14.901-11.972
	c-2.705,2.979-5.774,5.606-9.134,7.819c0,0,10.595,9.6,19.909,14.274c5.927,2.978,30.609-4.445,30.65-4.452
	c2.203,0.048,4.407-0.021,6.602-0.208c3.068-0.39,3.033-0.696,2.929-1.016c-0.285-0.939-5.419,0.487-4.494-0.459
	c0.925-0.946,6.483-1.009,6.142-1.976c-0.445-1.266-5.787,0.327-6.26,0.425c-0.473,0.097-0.626-0.564-0.202-0.634
	c0.605-0.097,6.956-1.293,6.532-2.539c-0.236-0.695-1.433-0.153-1.433-0.153s-5.857,1.559-6.038,0.967
	c-0.181-0.591,3.228-1.634,4.396-1.899c1.169-0.264,1.51-0.925,0.967-1.335c-0.368-0.286-3.986,0.445-5.141,0.73
	c-1.154,0.285-4.306,1.141-3.095-0.543c1.21-1.683,1.509-3.436,1.259-3.965c-0.071-0.11-0.174-0.196-0.295-0.246
	c-0.121-0.051-0.254-0.063-0.383-0.036c-0.128,0.027-0.245,0.093-0.335,0.188C511.993,194.322,511.934,194.442,511.913,194.572z"/>
<path class="st1" d="M461.121,155.31c0.14,0.251,0.372,0.439,0.647,0.523c0.274,0.084,0.571,0.059,0.828-0.071
	c0.522-0.257,1.134-0.661,1.224-1.231c0.091-0.57,0.125-1.301,0.181-1.878c0.064-0.654,0.188-1.302,0.369-1.934
	c2.087,0.417,3.478-0.16,4.869-1.753c0.705,0.669,1.588,1.12,2.543,1.3c0.955,0.18,1.941,0.081,2.842-0.285
	c0.427-0.243,0.901-0.392,1.391-0.438c0.737,0,1.391,0.647,2.087,0.647c0.378-0.039,0.729-0.216,0.985-0.497
	c0.257-0.281,0.401-0.646,0.406-1.027c-0.014-0.384-0.119-0.76-0.308-1.095s-0.455-0.62-0.777-0.831
	c-0.652-0.411-1.381-0.683-2.143-0.8c-2.662-0.465-5.383-0.495-8.055-0.09c-1.268,0.119-2.513,0.412-3.701,0.87
	c-1.194,0.469-2.204,1.31-2.88,2.4c-0.96,1.69-0.744,3.777-0.494,5.711"/>
<path class="st2" d="M485.857,280.748c-0.104-0.143-0.193-0.297-0.264-0.459l-0.696-1.343c-0.584-1.176-1.468-2.852-2.581-4.911
	c-2.233-4.118-5.488-9.739-9.314-15.757c-3.826-6.017-7.402-11.436-9.997-15.352l-3.019-4.661c-0.334-0.529-0.605-0.953-0.807-1.28
	c-0.099-0.145-0.185-0.299-0.257-0.459c0.12,0.131,0.227,0.273,0.32,0.424l0.856,1.238l3.123,4.591
	c2.623,3.889,6.261,9.253,10.066,15.305c3.805,6.052,7.109,11.673,9.266,15.833c1.085,2.086,1.934,3.777,2.476,4.966l0.633,1.392
	C485.744,280.425,485.809,280.584,485.857,280.748z"/>
<path class="st2" d="M429.43,313.436l11.478,12.098l2.664-1.684l-12.222-12.083L429.43,313.436z"/>
<path class="st1" d="M470.362,188.047c-0.408,0.592-0.874,1.142-1.392,1.641c-0.897,0.974-2.184,2.282-3.673,3.646
	c-1.488,1.363-2.907,2.532-3.965,3.339c-0.543,0.468-1.132,0.878-1.76,1.224c0.502-0.499,1.036-0.964,1.6-1.391
	c1.009-0.856,2.393-2.045,3.882-3.402c1.489-1.356,2.783-2.629,3.736-3.555C469.276,189.011,469.802,188.509,470.362,188.047z"/>
<path class="st1" d="M459.576,172.471c0.241,0.084,0.465,0.212,0.661,0.376c0.548,0.417,1.037,0.906,1.454,1.454
	c1.064,1.391,2.351,3.374,3.742,5.607c1.392,2.233,2.567,4.174,3.479,5.74l1.064,1.739c0.144,0.205,0.263,0.427,0.355,0.661
	c-0.182-0.175-0.341-0.371-0.473-0.585c-0.285-0.389-0.696-0.96-1.162-1.676c-0.953-1.44-2.212-3.479-3.596-5.691
	c-1.385-2.212-2.644-4.25-3.639-5.642C460.927,173.71,460.292,173.042,459.576,172.471z"/>
<path class="st1" d="M452.825,183.497c0.056,0,0.195,0.863,0.508,2.254c0.417,1.808,0.98,3.578,1.683,5.294
	c0.717,1.712,1.568,3.363,2.547,4.939c0.758,1.211,1.28,1.92,1.238,1.962c-0.042,0.042-0.174-0.153-0.432-0.459
	c-0.257-0.306-0.612-0.772-1.015-1.391c-1.059-1.55-1.955-3.205-2.671-4.939c-0.715-1.734-1.251-3.536-1.6-5.378
	c-0.126-0.695-0.209-1.287-0.237-1.69C452.81,183.894,452.803,183.695,452.825,183.497z"/>
</svg>
